<?xml version="1.0" encoding="utf-8" standalone="no"?>
<!DOCTYPE svg PUBLIC "-//W3C//DTD SVG 1.1//EN"
  "http://www.w3.org/Graphics/SVG/1.1/DTD/svg11.dtd">
<svg xmlns:xlink="http://www.w3.org/1999/xlink" width="720pt" height="432pt" viewBox="0 0 720 432" xmlns="http://www.w3.org/2000/svg" version="1.1">
 <metadata>
  <rdf:RDF xmlns:dc="http://purl.org/dc/elements/1.1/" xmlns:cc="http://creativecommons.org/ns#" xmlns:rdf="http://www.w3.org/1999/02/22-rdf-syntax-ns#">
   <cc:Work>
    <dc:type rdf:resource="http://purl.org/dc/dcmitype/StillImage"/>
    <dc:date>2026-06-26T12:53:20.726332</dc:date>
    <dc:format>image/svg+xml</dc:format>
    <dc:creator>
     <cc:Agent>
      <dc:title>Matplotlib v3.11.0, https://matplotlib.org/</dc:title>
     </cc:Agent>
    </dc:creator>
   </cc:Work>
  </rdf:RDF>
 </metadata>
 <defs>
  <style type="text/css">*{stroke-linejoin: round; stroke-linecap: butt}</style>
 </defs>
 <g id="figure_1">
  <g id="patch_1">
   <path d="M 0 432 
L 720 432 
L 720 0 
L 0 0 
z
" style="fill: #ffffff"/>
  </g>
  <g id="axes_1">
   <g id="patch_2">
    <path d="M 51.015 378.775 
L 708.12 378.775 
L 708.12 30.72 
L 51.015 30.72 
z
" style="fill: #fafafa"/>
   </g>
   <g id="matplotlib.axis_1">
    <g id="xtick_1">
     <g id="line2d_1">
      <path d="M 113.596429 378.775 
L 113.596429 30.72 
" clip-path="url(#p6a7aa44ded)" style="fill: none; stroke: #b0b0b0; stroke-opacity: 0.3; stroke-width: 0.8; stroke-linecap: square"/>
     </g>
     <g id="line2d_2">
      <defs>
       <path id="m8366331bd3" d="M 0 0 
L 0 3.5 
" style="stroke: #000000; stroke-width: 0.8"/>
      </defs>
      <g>
       <use xlink:href="#m8366331bd3" x="113.596429" y="378.775" style="stroke: #000000; stroke-width: 0.8"/>
      </g>
     </g>
     <g id="text_1">
      <!-- 2 -->
      <g transform="translate(110.751116 396.475) scale(0.1 -0.1)">
       <defs>
        <path id="Jost-Regular-177" d="M 128 0 
L 3290 0 
L 3290 512 
L 1248 512 
L 2675 1965 
Q 2938 2234 3104 2573 
Q 3270 2912 3270 3258 
Q 3270 3462 3187 3686 
Q 3104 3910 2931 4105 
Q 2758 4301 2489 4425 
Q 2221 4550 1850 4550 
Q 1389 4550 1059 4348 
Q 730 4147 557 3785 
Q 384 3424 384 2944 
L 928 2944 
Q 928 3283 1037 3529 
Q 1146 3776 1354 3907 
Q 1562 4038 1850 4038 
Q 2054 4038 2214 3968 
Q 2374 3898 2486 3782 
Q 2598 3667 2656 3526 
Q 2714 3386 2714 3238 
Q 2714 3059 2659 2896 
Q 2605 2733 2499 2576 
Q 2394 2419 2246 2259 
L 128 0 
z
" transform="scale(0.015625)"/>
       </defs>
       <use xlink:href="#Jost-Regular-177"/>
      </g>
     </g>
    </g>
    <g id="xtick_2">
     <g id="line2d_3">
      <path d="M 238.759286 378.775 
L 238.759286 30.72 
" clip-path="url(#p6a7aa44ded)" style="fill: none; stroke: #b0b0b0; stroke-opacity: 0.3; stroke-width: 0.8; stroke-linecap: square"/>
     </g>
     <g id="line2d_4">
      <g>
       <use xlink:href="#m8366331bd3" x="238.759286" y="378.775" style="stroke: #000000; stroke-width: 0.8"/>
      </g>
     </g>
     <g id="text_2">
      <!-- 4 -->
      <g transform="translate(235.844442 396.475) scale(0.1 -0.1)">
       <defs>
        <path id="Jost-Regular-179" d="M 128 896 
L 3539 896 
L 3539 1376 
L 2624 1376 
L 2515 1376 
L 1024 1376 
L 2291 3270 
L 2291 1197 
L 2291 1126 
L 2291 0 
L 2835 0 
L 2835 4480 
L 2611 4480 
L 128 896 
z
" transform="scale(0.015625)"/>
       </defs>
       <use xlink:href="#Jost-Regular-179"/>
      </g>
     </g>
    </g>
    <g id="xtick_3">
     <g id="line2d_5">
      <path d="M 363.922143 378.775 
L 363.922143 30.72 
" clip-path="url(#p6a7aa44ded)" style="fill: none; stroke: #b0b0b0; stroke-opacity: 0.3; stroke-width: 0.8; stroke-linecap: square"/>
     </g>
     <g id="line2d_6">
      <g>
       <use xlink:href="#m8366331bd3" x="363.922143" y="378.775" style="stroke: #000000; stroke-width: 0.8"/>
      </g>
     </g>
     <g id="text_3">
      <!-- 6 -->
      <g transform="translate(361.042455 396.475) scale(0.1 -0.1)">
       <defs>
        <path id="Jost-Regular-17b" d="M 838 1472 
Q 838 1779 969 2019 
Q 1101 2259 1328 2393 
Q 1555 2528 1843 2528 
Q 2131 2528 2358 2393 
Q 2586 2259 2717 2019 
Q 2848 1779 2848 1472 
Q 2848 1165 2717 931 
Q 2586 698 2358 563 
Q 2131 429 1843 429 
Q 1555 429 1328 563 
Q 1101 698 969 931 
Q 838 1165 838 1472 
z
M 2112 4480 
L 602 2400 
Q 474 2221 397 1984 
Q 320 1747 320 1472 
Q 320 1011 521 665 
Q 723 320 1068 128 
Q 1414 -64 1843 -64 
Q 2278 -64 2620 128 
Q 2963 320 3164 665 
Q 3366 1011 3366 1472 
Q 3366 1779 3264 2044 
Q 3162 2310 2979 2508 
Q 2797 2707 2557 2816 
Q 2317 2925 2042 2925 
Q 1824 2925 1654 2873 
Q 1485 2822 1357 2662 
L 1395 2630 
L 2797 4480 
L 2112 4480 
z
" transform="scale(0.015625)"/>
       </defs>
       <use xlink:href="#Jost-Regular-17b"/>
      </g>
     </g>
    </g>
    <g id="xtick_4">
     <g id="line2d_7">
      <path d="M 489.085 378.775 
L 489.085 30.72 
" clip-path="url(#p6a7aa44ded)" style="fill: none; stroke: #b0b0b0; stroke-opacity: 0.3; stroke-width: 0.8; stroke-linecap: square"/>
     </g>
     <g id="line2d_8">
      <g>
       <use xlink:href="#m8366331bd3" x="489.085" y="378.775" style="stroke: #000000; stroke-width: 0.8"/>
      </g>
     </g>
     <g id="text_4">
      <!-- 8 -->
      <g transform="translate(486.355312 396.475) scale(0.1 -0.1)">
       <defs>
        <path id="Jost-Regular-17d" d="M 512 3398 
Q 512 3136 601 2928 
Q 691 2720 854 2573 
Q 1018 2426 1245 2349 
Q 1472 2272 1747 2272 
Q 2022 2272 2249 2349 
Q 2477 2426 2640 2573 
Q 2803 2720 2892 2928 
Q 2982 3136 2982 3398 
Q 2982 3718 2819 3977 
Q 2656 4237 2377 4390 
Q 2099 4544 1747 4544 
Q 1395 4544 1116 4390 
Q 838 4237 675 3977 
Q 512 3718 512 3398 
z
M 1030 3334 
Q 1030 3546 1123 3712 
Q 1216 3878 1379 3971 
Q 1542 4064 1747 4064 
Q 1958 4064 2118 3971 
Q 2278 3878 2371 3712 
Q 2464 3546 2464 3334 
Q 2464 3123 2365 2963 
Q 2266 2803 2102 2713 
Q 1939 2624 1747 2624 
Q 1555 2624 1392 2713 
Q 1229 2803 1129 2963 
Q 1030 3123 1030 3334 
z
M 352 1216 
Q 352 954 457 723 
Q 563 493 752 313 
Q 941 134 1193 35 
Q 1446 -64 1747 -64 
Q 2048 -64 2301 35 
Q 2554 134 2742 313 
Q 2931 493 3036 723 
Q 3142 954 3142 1216 
Q 3142 1523 3030 1763 
Q 2918 2003 2723 2166 
Q 2528 2330 2275 2413 
Q 2022 2496 1747 2496 
Q 1472 2496 1219 2413 
Q 966 2330 771 2166 
Q 576 2003 464 1763 
Q 352 1523 352 1216 
z
M 870 1280 
Q 870 1523 995 1718 
Q 1120 1914 1321 2029 
Q 1523 2144 1747 2144 
Q 1971 2144 2172 2029 
Q 2374 1914 2499 1718 
Q 2624 1523 2624 1280 
Q 2624 1005 2499 813 
Q 2374 621 2172 518 
Q 1971 416 1747 416 
Q 1523 416 1321 518 
Q 1120 621 995 813 
Q 870 1005 870 1280 
z
" transform="scale(0.015625)"/>
       </defs>
       <use xlink:href="#Jost-Regular-17d"/>
      </g>
     </g>
    </g>
    <g id="xtick_5">
     <g id="line2d_9">
      <path d="M 614.247857 378.775 
L 614.247857 30.72 
" clip-path="url(#p6a7aa44ded)" style="fill: none; stroke: #b0b0b0; stroke-opacity: 0.3; stroke-width: 0.8; stroke-linecap: square"/>
     </g>
     <g id="line2d_10">
      <g>
       <use xlink:href="#m8366331bd3" x="614.247857" y="378.775" style="stroke: #000000; stroke-width: 0.8"/>
      </g>
     </g>
     <g id="text_5">
      <!-- 10 -->
      <g transform="translate(608.997857 396.475) scale(0.1 -0.1)">
       <defs>
        <path id="Jost-Regular-176" d="M 512 3597 
L 1504 3891 
L 1504 0 
L 2048 0 
L 2048 4544 
L 512 4160 
L 512 3597 
z
" transform="scale(0.015625)"/>
        <path id="Jost-Regular-175" d="M 800 2240 
Q 800 2630 877 2960 
Q 954 3290 1101 3530 
Q 1248 3770 1456 3901 
Q 1664 4032 1920 4032 
Q 2182 4032 2387 3901 
Q 2592 3770 2739 3530 
Q 2886 3290 2963 2960 
Q 3040 2630 3040 2240 
Q 3040 1850 2963 1520 
Q 2886 1190 2739 950 
Q 2592 710 2387 579 
Q 2182 448 1920 448 
Q 1664 448 1456 579 
Q 1248 710 1101 950 
Q 954 1190 877 1520 
Q 800 1850 800 2240 
z
M 256 2240 
Q 256 1568 467 1049 
Q 678 531 1052 233 
Q 1427 -64 1920 -64 
Q 2413 -64 2787 233 
Q 3162 531 3373 1049 
Q 3584 1568 3584 2240 
Q 3584 2912 3373 3430 
Q 3162 3949 2787 4246 
Q 2413 4544 1920 4544 
Q 1427 4544 1052 4246 
Q 678 3949 467 3430 
Q 256 2912 256 2240 
z
" transform="scale(0.015625)"/>
       </defs>
       <use xlink:href="#Jost-Regular-176"/>
       <use xlink:href="#Jost-Regular-175" transform="translate(45 0)"/>
      </g>
     </g>
    </g>
    <g id="text_6">
     <!-- Features supported (out of 10) -->
     <g transform="translate(309.323906 415.995) scale(0.11 -0.11)">
      <defs>
       <path id="Jost-Regular-1e" d="M 813 3968 
L 2816 3968 
L 2816 4480 
L 813 4480 
L 813 3968 
z
M 813 2176 
L 2752 2176 
L 2752 2688 
L 813 2688 
L 813 2176 
z
M 512 4480 
L 512 0 
L 1056 0 
L 1056 4480 
L 512 4480 
z
" transform="scale(0.015625)"/>
       <path id="Jost-Regular-be" d="M 1619 -64 
Q 2093 -64 2441 125 
Q 2790 314 3021 685 
L 2605 947 
Q 2445 678 2214 547 
Q 1984 416 1683 416 
Q 1382 416 1171 544 
Q 960 672 851 915 
Q 742 1158 742 1504 
Q 749 1843 861 2076 
Q 973 2310 1181 2435 
Q 1389 2560 1683 2560 
Q 1933 2560 2118 2451 
Q 2304 2342 2409 2150 
Q 2515 1958 2515 1696 
Q 2515 1651 2496 1584 
Q 2477 1517 2458 1485 
L 2662 1779 
L 550 1779 
L 550 1344 
L 3066 1344 
Q 3066 1357 3069 1405 
Q 3072 1453 3072 1498 
Q 3072 1965 2905 2304 
Q 2739 2643 2428 2825 
Q 2118 3008 1683 3008 
Q 1248 3008 918 2816 
Q 589 2624 406 2278 
Q 224 1933 224 1472 
Q 224 1018 400 672 
Q 576 326 893 131 
Q 1210 -64 1619 -64 
z
" transform="scale(0.015625)"/>
       <path id="Jost-Regular-ab" d="M 710 909 
Q 710 1069 787 1184 
Q 864 1299 1021 1363 
Q 1178 1427 1427 1427 
Q 1696 1427 1933 1360 
Q 2170 1293 2394 1139 
L 2394 1440 
Q 2349 1498 2221 1590 
Q 2093 1683 1878 1756 
Q 1664 1830 1344 1830 
Q 800 1830 496 1571 
Q 192 1312 192 883 
Q 192 582 333 371 
Q 474 160 707 48 
Q 941 -64 1210 -64 
Q 1453 -64 1699 25 
Q 1946 115 2115 300 
Q 2285 486 2285 768 
L 2182 1152 
Q 2182 922 2070 746 
Q 1958 570 1769 474 
Q 1581 378 1344 378 
Q 1158 378 1014 438 
Q 870 499 790 620 
Q 710 742 710 909 
z
M 634 2266 
Q 704 2317 825 2387 
Q 947 2458 1123 2509 
Q 1299 2560 1517 2560 
Q 1651 2560 1772 2534 
Q 1894 2509 1987 2451 
Q 2080 2394 2131 2294 
Q 2182 2195 2182 2042 
L 2182 0 
L 2694 0 
L 2694 2112 
Q 2694 2400 2550 2598 
Q 2406 2797 2147 2902 
Q 1888 3008 1542 3008 
Q 1133 3008 841 2886 
Q 550 2765 384 2643 
L 634 2266 
z
" transform="scale(0.015625)"/>
       <path id="Jost-Regular-fd" d="M 32 2944 
L 32 2464 
L 1504 2464 
L 1504 2944 
L 32 2944 
z
M 512 3968 
L 512 0 
L 1024 0 
L 1024 3968 
L 512 3968 
z
" transform="scale(0.015625)"/>
       <path id="Jost-Regular-101" d="M 992 1152 
L 992 2944 
L 480 2944 
L 480 1088 
Q 480 563 755 249 
Q 1030 -64 1491 -64 
Q 1786 -64 2003 67 
Q 2221 198 2368 461 
L 2368 0 
L 2880 0 
L 2880 2944 
L 2368 2944 
L 2368 1152 
Q 2368 934 2275 768 
Q 2182 602 2012 509 
Q 1843 416 1619 416 
Q 1312 416 1152 608 
Q 992 800 992 1152 
z
" transform="scale(0.015625)"/>
       <path id="Jost-Regular-f2" d="M 992 2944 
L 480 2944 
L 480 0 
L 992 0 
L 992 2944 
z
M 1882 2381 
L 2163 2803 
Q 2048 2925 1910 2966 
Q 1773 3008 1613 3008 
Q 1408 3008 1209 2848 
Q 1011 2688 886 2416 
Q 762 2144 762 1792 
L 992 1792 
Q 992 2003 1033 2169 
Q 1075 2336 1184 2432 
Q 1293 2528 1485 2528 
Q 1613 2528 1696 2493 
Q 1779 2458 1882 2381 
z
" transform="scale(0.015625)"/>
       <path id="Jost-Regular-f7" d="M 602 902 
L 198 653 
Q 282 480 445 313 
Q 608 147 845 41 
Q 1082 -64 1376 -64 
Q 1830 -64 2108 192 
Q 2387 448 2387 832 
Q 2387 1094 2262 1260 
Q 2138 1427 1926 1545 
Q 1715 1664 1459 1766 
Q 1306 1830 1165 1900 
Q 1024 1971 934 2060 
Q 845 2150 845 2266 
Q 845 2413 960 2483 
Q 1075 2554 1235 2554 
Q 1466 2554 1648 2445 
Q 1830 2336 1952 2170 
L 2362 2432 
Q 2272 2598 2112 2726 
Q 1952 2854 1744 2931 
Q 1536 3008 1299 3008 
Q 1062 3008 841 2925 
Q 621 2842 483 2669 
Q 346 2496 346 2234 
Q 346 1978 477 1808 
Q 608 1638 803 1532 
Q 998 1427 1190 1350 
Q 1363 1286 1516 1212 
Q 1670 1139 1769 1033 
Q 1869 928 1869 774 
Q 1869 602 1744 502 
Q 1619 403 1402 403 
Q 1222 403 1072 470 
Q 922 538 806 653 
Q 691 768 602 902 
z
" transform="scale(0.015625)"/>
       <path id="Jost-Regular-211" transform="scale(0.015625)"/>
       <path id="Jost-Regular-f0" d="M 960 -1408 
L 960 2944 
L 448 2944 
L 448 -1408 
L 960 -1408 
z
M 3424 1472 
Q 3424 1952 3225 2294 
Q 3027 2637 2697 2822 
Q 2368 3008 1965 3008 
Q 1600 3008 1321 2822 
Q 1043 2637 886 2294 
Q 730 1952 730 1472 
Q 730 998 886 652 
Q 1043 307 1321 121 
Q 1600 -64 1965 -64 
Q 2368 -64 2697 121 
Q 3027 307 3225 652 
Q 3424 998 3424 1472 
z
M 2906 1472 
Q 2906 1133 2768 896 
Q 2630 659 2403 537 
Q 2176 416 1901 416 
Q 1677 416 1459 537 
Q 1242 659 1101 896 
Q 960 1133 960 1472 
Q 960 1811 1101 2048 
Q 1242 2285 1459 2406 
Q 1677 2528 1901 2528 
Q 2176 2528 2403 2406 
Q 2630 2285 2768 2048 
Q 2906 1811 2906 1472 
z
" transform="scale(0.015625)"/>
       <path id="Jost-Regular-e7" d="M 224 1472 
Q 224 1030 425 681 
Q 627 333 972 134 
Q 1318 -64 1747 -64 
Q 2182 -64 2524 134 
Q 2867 333 3068 681 
Q 3270 1030 3270 1472 
Q 3270 1920 3068 2265 
Q 2867 2611 2524 2809 
Q 2182 3008 1747 3008 
Q 1318 3008 972 2809 
Q 627 2611 425 2265 
Q 224 1920 224 1472 
z
M 742 1472 
Q 742 1779 873 2019 
Q 1005 2259 1232 2393 
Q 1459 2528 1747 2528 
Q 2035 2528 2262 2393 
Q 2490 2259 2621 2019 
Q 2752 1779 2752 1472 
Q 2752 1165 2621 928 
Q 2490 691 2262 553 
Q 2035 416 1747 416 
Q 1459 416 1232 553 
Q 1005 691 873 928 
Q 742 1165 742 1472 
z
" transform="scale(0.015625)"/>
       <path id="Jost-Regular-bc" d="M 2688 4992 
L 2688 0 
L 3200 0 
L 3200 4992 
L 2688 4992 
z
M 224 1472 
Q 224 998 422 652 
Q 621 307 953 121 
Q 1286 -64 1683 -64 
Q 2054 -64 2329 121 
Q 2605 307 2761 652 
Q 2918 998 2918 1472 
Q 2918 1952 2761 2294 
Q 2605 2637 2329 2822 
Q 2054 3008 1683 3008 
Q 1286 3008 953 2822 
Q 621 2637 422 2294 
Q 224 1952 224 1472 
z
M 742 1472 
Q 742 1811 880 2048 
Q 1018 2285 1248 2406 
Q 1478 2528 1747 2528 
Q 1971 2528 2188 2406 
Q 2406 2285 2547 2048 
Q 2688 1811 2688 1472 
Q 2688 1133 2547 896 
Q 2406 659 2188 537 
Q 1971 416 1747 416 
Q 1478 416 1248 537 
Q 1018 659 880 896 
Q 742 1133 742 1472 
z
" transform="scale(0.015625)"/>
       <path id="Jost-Regular-1b5" d="M 1312 4992 
Q 928 4275 752 3475 
Q 576 2675 576 1856 
Q 576 1043 752 243 
Q 928 -557 1312 -1280 
L 1792 -1280 
Q 1459 -557 1305 243 
Q 1152 1043 1152 1856 
Q 1152 2675 1305 3475 
Q 1459 4275 1792 4992 
L 1312 4992 
z
" transform="scale(0.015625)"/>
       <path id="Jost-Regular-c8" d="M 256 2944 
L 256 2464 
L 1728 2464 
L 1728 2944 
L 256 2944 
z
M 1677 4378 
L 1958 4800 
Q 1914 4864 1834 4921 
Q 1754 4979 1645 5017 
Q 1536 5056 1395 5056 
Q 1126 5056 937 4944 
Q 749 4832 646 4608 
Q 544 4384 544 4032 
L 544 0 
L 1056 0 
L 1056 3968 
Q 1056 4179 1094 4307 
Q 1133 4435 1200 4489 
Q 1267 4544 1363 4544 
Q 1440 4544 1526 4515 
Q 1613 4486 1677 4378 
z
" transform="scale(0.015625)"/>
       <path id="Jost-Regular-1ba" d="M 672 -1280 
Q 1056 -557 1232 243 
Q 1408 1043 1408 1856 
Q 1408 2675 1232 3475 
Q 1056 4275 672 4992 
L 192 4992 
Q 531 4275 681 3475 
Q 832 2675 832 1856 
Q 832 1043 681 243 
Q 531 -557 192 -1280 
L 672 -1280 
z
" transform="scale(0.015625)"/>
      </defs>
      <use xlink:href="#Jost-Regular-1e"/>
      <use xlink:href="#Jost-Regular-be" transform="translate(47 0)"/>
      <use xlink:href="#Jost-Regular-ab" transform="translate(98.5 0)"/>
      <use xlink:href="#Jost-Regular-fd" transform="translate(146.59375 0)"/>
      <use xlink:href="#Jost-Regular-101" transform="translate(170.59375 0)"/>
      <use xlink:href="#Jost-Regular-f2" transform="translate(223.09375 0)"/>
      <use xlink:href="#Jost-Regular-be" transform="translate(255.890625 0)"/>
      <use xlink:href="#Jost-Regular-f7" transform="translate(307.390625 0)"/>
      <use xlink:href="#Jost-Regular-211" transform="translate(347.6875 0)"/>
      <use xlink:href="#Jost-Regular-f7" transform="translate(377.6875 0)"/>
      <use xlink:href="#Jost-Regular-101" transform="translate(417.984375 0)"/>
      <use xlink:href="#Jost-Regular-f0" transform="translate(470.484375 0)"/>
      <use xlink:href="#Jost-Regular-f0" transform="translate(527.484375 0)"/>
      <use xlink:href="#Jost-Regular-e7" transform="translate(584.484375 0)"/>
      <use xlink:href="#Jost-Regular-f2" transform="translate(639.078125 0)"/>
      <use xlink:href="#Jost-Regular-fd" transform="translate(673.375 0)"/>
      <use xlink:href="#Jost-Regular-be" transform="translate(697.375 0)"/>
      <use xlink:href="#Jost-Regular-bc" transform="translate(748.875 0)"/>
      <use xlink:href="#Jost-Regular-211" transform="translate(805.875 0)"/>
      <use xlink:href="#Jost-Regular-1b5" transform="translate(835.875 0)"/>
      <use xlink:href="#Jost-Regular-e7" transform="translate(866.875 0)"/>
      <use xlink:href="#Jost-Regular-101" transform="translate(921.46875 0)"/>
      <use xlink:href="#Jost-Regular-fd" transform="translate(973.96875 0)"/>
      <use xlink:href="#Jost-Regular-211" transform="translate(997.96875 0)"/>
      <use xlink:href="#Jost-Regular-e7" transform="translate(1027.96875 0)"/>
      <use xlink:href="#Jost-Regular-c8" transform="translate(1082.5625 0)"/>
      <use xlink:href="#Jost-Regular-211" transform="translate(1111.15625 0)"/>
      <use xlink:href="#Jost-Regular-176" transform="translate(1141.15625 0)"/>
      <use xlink:href="#Jost-Regular-175" transform="translate(1186.15625 0)"/>
      <use xlink:href="#Jost-Regular-1ba" transform="translate(1246.15625 0)"/>
     </g>
    </g>
   </g>
   <g id="matplotlib.axis_2">
    <g id="ytick_1">
     <g id="line2d_11">
      <path d="M 51.015 30.72 
L 708.12 30.72 
" clip-path="url(#p6a7aa44ded)" style="fill: none; stroke: #b0b0b0; stroke-opacity: 0.3; stroke-width: 0.8; stroke-linecap: square"/>
     </g>
     <g id="line2d_12">
      <defs>
       <path id="m897a8956c6" d="M 0 0 
L -3.5 0 
" style="stroke: #000000; stroke-width: 0.8"/>
      </defs>
      <g>
       <use xlink:href="#m897a8956c6" x="51.015" y="30.72" style="stroke: #000000; stroke-width: 0.8"/>
      </g>
     </g>
     <g id="text_7">
      <!-- 0 -->
      <g transform="translate(38.015 36.07) scale(0.1 -0.1)">
       <use xlink:href="#Jost-Regular-175"/>
      </g>
     </g>
    </g>
    <g id="ytick_2">
     <g id="line2d_13">
      <path d="M 51.015 72.155119 
L 708.12 72.155119 
" clip-path="url(#p6a7aa44ded)" style="fill: none; stroke: #b0b0b0; stroke-opacity: 0.3; stroke-width: 0.8; stroke-linecap: square"/>
     </g>
     <g id="line2d_14">
      <g>
       <use xlink:href="#m897a8956c6" x="51.015" y="72.155119" style="stroke: #000000; stroke-width: 0.8"/>
      </g>
     </g>
     <g id="text_8">
      <!-- 5 -->
      <g transform="translate(38.374375 77.505119) scale(0.1 -0.1)">
       <defs>
        <path id="Jost-Regular-17a" d="M 3354 1472 
Q 3354 1920 3181 2259 
Q 3008 2598 2704 2790 
Q 2400 2982 2016 2982 
Q 1850 2982 1680 2940 
Q 1510 2899 1350 2816 
L 1651 4000 
L 3341 4000 
L 3341 4480 
L 1229 4480 
L 640 2093 
Q 870 2253 1046 2339 
Q 1222 2426 1398 2461 
Q 1574 2496 1786 2496 
Q 2074 2496 2301 2368 
Q 2528 2240 2659 2009 
Q 2790 1779 2790 1472 
Q 2790 1165 2672 934 
Q 2554 704 2330 576 
Q 2106 448 1786 448 
Q 1542 448 1318 553 
Q 1094 659 924 828 
Q 755 998 653 1190 
L 192 877 
Q 339 621 553 406 
Q 768 192 1072 64 
Q 1376 -64 1786 -64 
Q 2112 -64 2393 32 
Q 2675 128 2892 320 
Q 3110 512 3232 800 
Q 3354 1088 3354 1472 
z
" transform="scale(0.015625)"/>
       </defs>
       <use xlink:href="#Jost-Regular-17a"/>
      </g>
     </g>
    </g>
    <g id="ytick_3">
     <g id="line2d_15">
      <path d="M 51.015 113.590238 
L 708.12 113.590238 
" clip-path="url(#p6a7aa44ded)" style="fill: none; stroke: #b0b0b0; stroke-opacity: 0.3; stroke-width: 0.8; stroke-linecap: square"/>
     </g>
     <g id="line2d_16">
      <g>
       <use xlink:href="#m897a8956c6" x="51.015" y="113.590238" style="stroke: #000000; stroke-width: 0.8"/>
      </g>
     </g>
     <g id="text_9">
      <!-- 10 -->
      <g transform="translate(33.515 118.940238) scale(0.1 -0.1)">
       <use xlink:href="#Jost-Regular-176"/>
       <use xlink:href="#Jost-Regular-175" transform="translate(45 0)"/>
      </g>
     </g>
    </g>
    <g id="ytick_4">
     <g id="line2d_17">
      <path d="M 51.015 155.025357 
L 708.12 155.025357 
" clip-path="url(#p6a7aa44ded)" style="fill: none; stroke: #b0b0b0; stroke-opacity: 0.3; stroke-width: 0.8; stroke-linecap: square"/>
     </g>
     <g id="line2d_18">
      <g>
       <use xlink:href="#m897a8956c6" x="51.015" y="155.025357" style="stroke: #000000; stroke-width: 0.8"/>
      </g>
     </g>
     <g id="text_10">
      <!-- 15 -->
      <g transform="translate(33.874375 160.375357) scale(0.1 -0.1)">
       <use xlink:href="#Jost-Regular-176"/>
       <use xlink:href="#Jost-Regular-17a" transform="translate(45 0)"/>
      </g>
     </g>
    </g>
    <g id="ytick_5">
     <g id="line2d_19">
      <path d="M 51.015 196.460476 
L 708.12 196.460476 
" clip-path="url(#p6a7aa44ded)" style="fill: none; stroke: #b0b0b0; stroke-opacity: 0.3; stroke-width: 0.8; stroke-linecap: square"/>
     </g>
     <g id="line2d_20">
      <g>
       <use xlink:href="#m897a8956c6" x="51.015" y="196.460476" style="stroke: #000000; stroke-width: 0.8"/>
      </g>
     </g>
     <g id="text_11">
      <!-- 20 -->
      <g transform="translate(32.324375 201.810476) scale(0.1 -0.1)">
       <use xlink:href="#Jost-Regular-177"/>
       <use xlink:href="#Jost-Regular-175" transform="translate(56.90625 0)"/>
      </g>
     </g>
    </g>
    <g id="ytick_6">
     <g id="line2d_21">
      <path d="M 51.015 237.895595 
L 708.12 237.895595 
" clip-path="url(#p6a7aa44ded)" style="fill: none; stroke: #b0b0b0; stroke-opacity: 0.3; stroke-width: 0.8; stroke-linecap: square"/>
     </g>
     <g id="line2d_22">
      <g>
       <use xlink:href="#m897a8956c6" x="51.015" y="237.895595" style="stroke: #000000; stroke-width: 0.8"/>
      </g>
     </g>
     <g id="text_12">
      <!-- 25 -->
      <g transform="translate(32.68375 243.245595) scale(0.1 -0.1)">
       <use xlink:href="#Jost-Regular-177"/>
       <use xlink:href="#Jost-Regular-17a" transform="translate(56.90625 0)"/>
      </g>
     </g>
    </g>
    <g id="ytick_7">
     <g id="line2d_23">
      <path d="M 51.015 279.330714 
L 708.12 279.330714 
" clip-path="url(#p6a7aa44ded)" style="fill: none; stroke: #b0b0b0; stroke-opacity: 0.3; stroke-width: 0.8; stroke-linecap: square"/>
     </g>
     <g id="line2d_24">
      <g>
       <use xlink:href="#m897a8956c6" x="51.015" y="279.330714" style="stroke: #000000; stroke-width: 0.8"/>
      </g>
     </g>
     <g id="text_13">
      <!-- 30 -->
      <g transform="translate(32.555625 284.680714) scale(0.1 -0.1)">
       <defs>
        <path id="Jost-Regular-178" d="M 1619 2208 
Q 2054 2208 2380 2361 
Q 2707 2515 2892 2777 
Q 3078 3040 3078 3354 
Q 3078 3674 2928 3942 
Q 2778 4211 2499 4377 
Q 2221 4544 1837 4544 
Q 1472 4544 1187 4393 
Q 902 4243 739 3980 
Q 576 3718 576 3366 
L 1094 3366 
Q 1094 3661 1312 3856 
Q 1530 4051 1843 4051 
Q 2067 4051 2217 3961 
Q 2368 3872 2445 3709 
Q 2522 3546 2522 3334 
Q 2522 3174 2461 3033 
Q 2400 2893 2285 2787 
Q 2170 2682 2003 2621 
Q 1837 2560 1619 2560 
L 1619 2208 
z
M 1811 -64 
Q 2214 -64 2528 89 
Q 2842 243 3024 524 
Q 3206 806 3206 1184 
Q 3206 1517 3081 1753 
Q 2957 1990 2736 2140 
Q 2515 2291 2230 2361 
Q 1946 2432 1619 2432 
L 1619 2080 
Q 1837 2080 2022 2029 
Q 2208 1978 2349 1872 
Q 2490 1766 2570 1609 
Q 2650 1453 2650 1248 
Q 2650 1005 2547 825 
Q 2445 646 2256 547 
Q 2067 448 1811 448 
Q 1555 448 1356 544 
Q 1158 640 1046 806 
Q 934 973 934 1184 
L 384 1184 
Q 384 922 486 694 
Q 589 467 774 297 
Q 960 128 1222 32 
Q 1485 -64 1811 -64 
z
" transform="scale(0.015625)"/>
       </defs>
       <use xlink:href="#Jost-Regular-178"/>
       <use xlink:href="#Jost-Regular-175" transform="translate(54.59375 0)"/>
      </g>
     </g>
    </g>
    <g id="ytick_8">
     <g id="line2d_25">
      <path d="M 51.015 320.765833 
L 708.12 320.765833 
" clip-path="url(#p6a7aa44ded)" style="fill: none; stroke: #b0b0b0; stroke-opacity: 0.3; stroke-width: 0.8; stroke-linecap: square"/>
     </g>
     <g id="line2d_26">
      <g>
       <use xlink:href="#m897a8956c6" x="51.015" y="320.765833" style="stroke: #000000; stroke-width: 0.8"/>
      </g>
     </g>
     <g id="text_14">
      <!-- 35 -->
      <g transform="translate(32.915 326.115833) scale(0.1 -0.1)">
       <use xlink:href="#Jost-Regular-178"/>
       <use xlink:href="#Jost-Regular-17a" transform="translate(54.59375 0)"/>
      </g>
     </g>
    </g>
    <g id="ytick_9">
     <g id="line2d_27">
      <path d="M 51.015 362.200952 
L 708.12 362.200952 
" clip-path="url(#p6a7aa44ded)" style="fill: none; stroke: #b0b0b0; stroke-opacity: 0.3; stroke-width: 0.8; stroke-linecap: square"/>
     </g>
     <g id="line2d_28">
      <g>
       <use xlink:href="#m897a8956c6" x="51.015" y="362.200952" style="stroke: #000000; stroke-width: 0.8"/>
      </g>
     </g>
     <g id="text_15">
      <!-- 40 -->
      <g transform="translate(32.185313 367.550952) scale(0.1 -0.1)">
       <use xlink:href="#Jost-Regular-179"/>
       <use xlink:href="#Jost-Regular-175" transform="translate(58.296875 0)"/>
      </g>
     </g>
    </g>
    <g id="text_16">
     <!-- Parse time for 100 frames x 218 atoms (ms, lower is better) -->
     <g transform="translate(24.060313 341.714687) rotate(-90) scale(0.11 -0.11)">
      <defs>
       <path id="Jost-Regular-47" d="M 512 4480 
L 512 0 
L 1056 0 
L 1056 4480 
L 512 4480 
z
M 813 3968 
L 1728 3968 
Q 2163 3968 2435 3760 
Q 2707 3552 2707 3136 
Q 2707 2726 2435 2515 
Q 2163 2304 1728 2304 
L 813 2304 
L 813 1792 
L 1728 1792 
Q 2163 1792 2505 1955 
Q 2848 2118 3049 2422 
Q 3251 2726 3251 3136 
Q 3251 3552 3049 3853 
Q 2848 4154 2505 4317 
Q 2163 4480 1728 4480 
L 813 4480 
L 813 3968 
z
" transform="scale(0.015625)"/>
       <path id="Jost-Regular-d0" d="M 480 4160 
Q 480 4019 585 3913 
Q 691 3808 832 3808 
Q 979 3808 1081 3913 
Q 1184 4019 1184 4160 
Q 1184 4307 1081 4409 
Q 979 4512 832 4512 
Q 691 4512 585 4409 
Q 480 4307 480 4160 
z
M 576 2944 
L 576 0 
L 1088 0 
L 1088 2944 
L 576 2944 
z
" transform="scale(0.015625)"/>
       <path id="Jost-Regular-e1" d="M 4512 1856 
Q 4512 2221 4400 2480 
Q 4288 2739 4077 2873 
Q 3866 3008 3565 3008 
Q 3270 3008 3040 2870 
Q 2810 2733 2656 2458 
Q 2554 2720 2333 2864 
Q 2112 3008 1805 3008 
Q 1530 3008 1328 2886 
Q 1126 2765 992 2515 
L 992 2944 
L 480 2944 
L 480 0 
L 992 0 
L 992 1792 
Q 992 2022 1075 2188 
Q 1158 2355 1312 2441 
Q 1466 2528 1677 2528 
Q 1965 2528 2102 2349 
Q 2240 2170 2240 1792 
L 2240 0 
L 2752 0 
L 2752 1792 
Q 2752 2022 2835 2188 
Q 2918 2355 3072 2441 
Q 3226 2528 3437 2528 
Q 3725 2528 3862 2349 
Q 4000 2170 4000 1792 
L 4000 0 
L 4512 0 
L 4512 1856 
z
" transform="scale(0.015625)"/>
       <path id="Jost-Regular-114" d="M 2048 2944 
L 1344 1920 
L 640 2944 
L 64 2944 
L 1069 1517 
L 0 0 
L 576 0 
L 1344 1114 
L 2112 0 
L 2688 0 
L 1619 1517 
L 2624 2944 
L 2048 2944 
z
" transform="scale(0.015625)"/>
       <path id="Jost-Regular-1cc" d="M 947 704 
L 384 -954 
L 755 -1088 
L 1459 512 
L 947 704 
z
" transform="scale(0.015625)"/>
       <path id="Jost-Regular-dd" d="M 480 4992 
L 480 0 
L 992 0 
L 992 4992 
L 480 4992 
z
" transform="scale(0.015625)"/>
       <path id="Jost-Regular-10d" d="M 32 2944 
L 1312 -224 
L 2150 1920 
L 3040 -224 
L 4320 2944 
L 3744 2944 
L 3002 1018 
L 2144 3168 
L 1344 1030 
L 608 2944 
L 32 2944 
z
" transform="scale(0.015625)"/>
       <path id="Jost-Regular-b5" d="M 960 4992 
L 448 4992 
L 448 0 
L 960 0 
L 960 4992 
z
M 3424 1472 
Q 3424 1952 3225 2294 
Q 3027 2637 2697 2822 
Q 2368 3008 1965 3008 
Q 1600 3008 1321 2822 
Q 1043 2637 886 2294 
Q 730 1952 730 1472 
Q 730 998 886 652 
Q 1043 307 1321 121 
Q 1600 -64 1965 -64 
Q 2368 -64 2697 121 
Q 3027 307 3225 652 
Q 3424 998 3424 1472 
z
M 2906 1472 
Q 2906 1133 2768 896 
Q 2630 659 2403 537 
Q 2176 416 1901 416 
Q 1677 416 1459 537 
Q 1242 659 1101 896 
Q 960 1133 960 1472 
Q 960 1811 1101 2048 
Q 1242 2285 1459 2406 
Q 1677 2528 1901 2528 
Q 2176 2528 2403 2406 
Q 2630 2285 2768 2048 
Q 2906 1811 2906 1472 
z
" transform="scale(0.015625)"/>
      </defs>
      <use xlink:href="#Jost-Regular-47"/>
      <use xlink:href="#Jost-Regular-ab" transform="translate(51.796875 0)"/>
      <use xlink:href="#Jost-Regular-f2" transform="translate(99.890625 0)"/>
      <use xlink:href="#Jost-Regular-f7" transform="translate(134.1875 0)"/>
      <use xlink:href="#Jost-Regular-be" transform="translate(174.484375 0)"/>
      <use xlink:href="#Jost-Regular-211" transform="translate(225.984375 0)"/>
      <use xlink:href="#Jost-Regular-fd" transform="translate(255.984375 0)"/>
      <use xlink:href="#Jost-Regular-d0" transform="translate(279.984375 0)"/>
      <use xlink:href="#Jost-Regular-e1" transform="translate(305.984375 0)"/>
      <use xlink:href="#Jost-Regular-be" transform="translate(383.984375 0)"/>
      <use xlink:href="#Jost-Regular-211" transform="translate(435.484375 0)"/>
      <use xlink:href="#Jost-Regular-c8" transform="translate(465.484375 0)"/>
      <use xlink:href="#Jost-Regular-e7" transform="translate(494.078125 0)"/>
      <use xlink:href="#Jost-Regular-f2" transform="translate(548.671875 0)"/>
      <use xlink:href="#Jost-Regular-211" transform="translate(582.96875 0)"/>
      <use xlink:href="#Jost-Regular-176" transform="translate(612.96875 0)"/>
      <use xlink:href="#Jost-Regular-175" transform="translate(657.96875 0)"/>
      <use xlink:href="#Jost-Regular-175" transform="translate(717.96875 0)"/>
      <use xlink:href="#Jost-Regular-211" transform="translate(777.96875 0)"/>
      <use xlink:href="#Jost-Regular-c8" transform="translate(807.96875 0)"/>
      <use xlink:href="#Jost-Regular-f2" transform="translate(836.5625 0)"/>
      <use xlink:href="#Jost-Regular-ab" transform="translate(870.859375 0)"/>
      <use xlink:href="#Jost-Regular-e1" transform="translate(918.953125 0)"/>
      <use xlink:href="#Jost-Regular-be" transform="translate(996.953125 0)"/>
      <use xlink:href="#Jost-Regular-f7" transform="translate(1048.453125 0)"/>
      <use xlink:href="#Jost-Regular-211" transform="translate(1088.75 0)"/>
      <use xlink:href="#Jost-Regular-114" transform="translate(1118.75 0)"/>
      <use xlink:href="#Jost-Regular-211" transform="translate(1160.75 0)"/>
      <use xlink:href="#Jost-Regular-177" transform="translate(1190.75 0)"/>
      <use xlink:href="#Jost-Regular-176" transform="translate(1247.65625 0)"/>
      <use xlink:href="#Jost-Regular-17d" transform="translate(1292.65625 0)"/>
      <use xlink:href="#Jost-Regular-211" transform="translate(1347.25 0)"/>
      <use xlink:href="#Jost-Regular-ab" transform="translate(1377.25 0)"/>
      <use xlink:href="#Jost-Regular-fd" transform="translate(1425.34375 0)"/>
      <use xlink:href="#Jost-Regular-e7" transform="translate(1449.34375 0)"/>
      <use xlink:href="#Jost-Regular-e1" transform="translate(1503.9375 0)"/>
      <use xlink:href="#Jost-Regular-f7" transform="translate(1581.9375 0)"/>
      <use xlink:href="#Jost-Regular-211" transform="translate(1622.234375 0)"/>
      <use xlink:href="#Jost-Regular-1b5" transform="translate(1652.234375 0)"/>
      <use xlink:href="#Jost-Regular-e1" transform="translate(1683.234375 0)"/>
      <use xlink:href="#Jost-Regular-f7" transform="translate(1761.234375 0)"/>
      <use xlink:href="#Jost-Regular-1cc" transform="translate(1801.53125 0)"/>
      <use xlink:href="#Jost-Regular-211" transform="translate(1832.328125 0)"/>
      <use xlink:href="#Jost-Regular-dd" transform="translate(1862.328125 0)"/>
      <use xlink:href="#Jost-Regular-e7" transform="translate(1885.328125 0)"/>
      <use xlink:href="#Jost-Regular-10d" transform="translate(1938.421875 0)"/>
      <use xlink:href="#Jost-Regular-be" transform="translate(2004.921875 0)"/>
      <use xlink:href="#Jost-Regular-f2" transform="translate(2056.421875 0)"/>
      <use xlink:href="#Jost-Regular-211" transform="translate(2090.71875 0)"/>
      <use xlink:href="#Jost-Regular-d0" transform="translate(2120.71875 0)"/>
      <use xlink:href="#Jost-Regular-f7" transform="translate(2146.71875 0)"/>
      <use xlink:href="#Jost-Regular-211" transform="translate(2187.015625 0)"/>
      <use xlink:href="#Jost-Regular-b5" transform="translate(2217.015625 0)"/>
      <use xlink:href="#Jost-Regular-be" transform="translate(2274.015625 0)"/>
      <use xlink:href="#Jost-Regular-fd" transform="translate(2325.515625 0)"/>
      <use xlink:href="#Jost-Regular-fd" transform="translate(2349.515625 0)"/>
      <use xlink:href="#Jost-Regular-be" transform="translate(2373.515625 0)"/>
      <use xlink:href="#Jost-Regular-f2" transform="translate(2425.015625 0)"/>
      <use xlink:href="#Jost-Regular-1ba" transform="translate(2459.3125 0)"/>
     </g>
    </g>
   </g>
   <g id="line2d_29">
    <path d="M 614.247857 30.72 
L 614.247857 67.182905 
" clip-path="url(#p6a7aa44ded)" style="fill: none; stroke-dasharray: 3.7,1.6; stroke-dashoffset: 0; stroke: #004d40; stroke-opacity: 0.3"/>
   </g>
   <g id="line2d_30">
    <path d="M -1 67.182905 
L 614.247857 67.182905 
" clip-path="url(#p6a7aa44ded)" style="fill: none; stroke-dasharray: 3.7,1.6; stroke-dashoffset: 0; stroke: #004d40; stroke-opacity: 0.3"/>
   </g>
   <g id="patch_3">
    <path d="M 51.015 378.775 
L 51.015 30.72 
" style="fill: none; stroke: #cccccc; stroke-width: 0.8; stroke-linejoin: miter; stroke-linecap: square"/>
   </g>
   <g id="patch_4">
    <path d="M 708.12 378.775 
L 708.12 30.72 
" style="fill: none; stroke: #cccccc; stroke-width: 0.8; stroke-linejoin: miter; stroke-linecap: square"/>
   </g>
   <g id="patch_5">
    <path d="M 51.015 378.775 
L 708.12 378.775 
" style="fill: none; stroke: #cccccc; stroke-width: 0.8; stroke-linejoin: miter; stroke-linecap: square"/>
   </g>
   <g id="patch_6">
    <path d="M 51.015 30.72 
L 708.12 30.72 
" style="fill: none; stroke: #cccccc; stroke-width: 0.8; stroke-linejoin: miter; stroke-linecap: square"/>
   </g>
   <g id="PathCollection_1">
    <defs>
     <path id="me8dbdf33f2" d="M 0 5.477226 
C 1.452577 5.477226 2.845856 4.900111 3.872983 3.872983 
C 4.900111 2.845856 5.477226 1.452577 5.477226 0 
C 5.477226 -1.452577 4.900111 -2.845856 3.872983 -3.872983 
C 2.845856 -4.900111 1.452577 -5.477226 0 -5.477226 
C -1.452577 -5.477226 -2.845856 -4.900111 -3.872983 -3.872983 
C -4.900111 -2.845856 -5.477226 -1.452577 -5.477226 0 
C -5.477226 1.452577 -4.900111 2.845856 -3.872983 3.872983 
C -2.845856 4.900111 -1.452577 5.477226 0 5.477226 
z
" style="stroke: #ffffff; stroke-width: 1.5"/>
    </defs>
    <g clip-path="url(#p6a7aa44ded)">
     <use xlink:href="#me8dbdf33f2" x="614.247857" y="67.182905" style="fill: #004d40; stroke: #ffffff; stroke-width: 1.5"/>
    </g>
   </g>
   <g id="text_17">
    <!-- CON v2 -->
    <g transform="translate(622.247857 67.622905) scale(0.08 -0.08)">
     <defs>
      <path id="Jost-Regular-c" d="M 832 2240 
Q 832 2765 1065 3158 
Q 1299 3552 1676 3776 
Q 2054 4000 2496 4000 
Q 2816 4000 3081 3917 
Q 3347 3834 3564 3683 
Q 3782 3533 3936 3334 
L 3936 4051 
Q 3654 4301 3321 4422 
Q 2989 4544 2496 4544 
Q 2029 4544 1622 4374 
Q 1216 4205 909 3894 
Q 602 3584 429 3161 
Q 256 2739 256 2240 
Q 256 1741 429 1318 
Q 602 896 909 585 
Q 1216 275 1622 105 
Q 2029 -64 2496 -64 
Q 2989 -64 3321 57 
Q 3654 179 3936 429 
L 3936 1146 
Q 3782 947 3564 796 
Q 3347 646 3081 563 
Q 2816 480 2496 480 
Q 2054 480 1676 704 
Q 1299 928 1065 1325 
Q 832 1722 832 2240 
z
" transform="scale(0.015625)"/>
      <path id="Jost-Regular-3e" d="M 832 2240 
Q 832 2746 1053 3142 
Q 1274 3539 1658 3769 
Q 2042 4000 2528 4000 
Q 3021 4000 3401 3769 
Q 3782 3539 4003 3142 
Q 4224 2746 4224 2240 
Q 4224 1734 4003 1337 
Q 3782 941 3401 710 
Q 3021 480 2528 480 
Q 2042 480 1658 710 
Q 1274 941 1053 1337 
Q 832 1734 832 2240 
z
M 256 2240 
Q 256 1754 425 1331 
Q 595 909 902 598 
Q 1210 288 1626 112 
Q 2042 -64 2528 -64 
Q 3021 -64 3433 112 
Q 3846 288 4153 598 
Q 4461 909 4630 1331 
Q 4800 1754 4800 2240 
Q 4800 2733 4630 3152 
Q 4461 3571 4153 3881 
Q 3846 4192 3433 4368 
Q 3021 4544 2528 4544 
Q 2042 4544 1626 4368 
Q 1210 4192 902 3881 
Q 595 3571 425 3152 
Q 256 2733 256 2240 
z
" transform="scale(0.015625)"/>
      <path id="Jost-Regular-39" d="M 3904 4480 
L 3904 1146 
L 512 4704 
L 512 0 
L 1056 0 
L 1056 3334 
L 4448 -224 
L 4448 4480 
L 3904 4480 
z
" transform="scale(0.015625)"/>
      <path id="Jost-Regular-10c" d="M 0 2944 
L 1408 -224 
L 2816 2944 
L 2240 2944 
L 1408 864 
L 576 2944 
L 0 2944 
z
" transform="scale(0.015625)"/>
     </defs>
     <use xlink:href="#Jost-Regular-c"/>
     <use xlink:href="#Jost-Regular-3e" transform="translate(68.5 0)"/>
     <use xlink:href="#Jost-Regular-39" transform="translate(147.5 0)"/>
     <use xlink:href="#Jost-Regular-211" transform="translate(225 0)"/>
     <use xlink:href="#Jost-Regular-10c" transform="translate(255 0)"/>
     <use xlink:href="#Jost-Regular-177" transform="translate(299 0)"/>
    </g>
    <!-- (readcon-core) -->
    <g transform="translate(622.247857 79.182905) scale(0.08 -0.08)">
     <defs>
      <path id="Jost-Regular-b6" d="M 710 1472 
Q 710 1779 841 2019 
Q 973 2259 1200 2393 
Q 1427 2528 1715 2528 
Q 1952 2528 2160 2454 
Q 2368 2381 2521 2259 
Q 2675 2138 2739 1990 
L 2739 2630 
Q 2586 2810 2301 2909 
Q 2016 3008 1715 3008 
Q 1286 3008 940 2809 
Q 595 2611 393 2265 
Q 192 1920 192 1472 
Q 192 1030 393 681 
Q 595 333 940 134 
Q 1286 -64 1715 -64 
Q 2016 -64 2301 35 
Q 2586 134 2739 314 
L 2739 954 
Q 2675 813 2521 688 
Q 2368 563 2160 489 
Q 1952 416 1715 416 
Q 1427 416 1200 553 
Q 973 691 841 928 
Q 710 1165 710 1472 
z
" transform="scale(0.015625)"/>
      <path id="Jost-Regular-e2" d="M 2368 1792 
L 2368 0 
L 2880 0 
L 2880 1856 
Q 2880 2387 2608 2697 
Q 2336 3008 1869 3008 
Q 1581 3008 1360 2880 
Q 1139 2752 992 2483 
L 992 2944 
L 480 2944 
L 480 0 
L 992 0 
L 992 1792 
Q 992 2010 1085 2176 
Q 1178 2342 1347 2435 
Q 1517 2528 1741 2528 
Q 2048 2528 2208 2342 
Q 2368 2157 2368 1792 
z
" transform="scale(0.015625)"/>
      <path id="Jost-Regular-1b0" d="M 32 1280 
L 1312 1280 
L 1312 1760 
L 32 1760 
L 32 1280 
z
" transform="scale(0.015625)"/>
     </defs>
     <use xlink:href="#Jost-Regular-1b5"/>
     <use xlink:href="#Jost-Regular-f2" transform="translate(31 0)"/>
     <use xlink:href="#Jost-Regular-be" transform="translate(63.796875 0)"/>
     <use xlink:href="#Jost-Regular-ab" transform="translate(115.296875 0)"/>
     <use xlink:href="#Jost-Regular-bc" transform="translate(163.390625 0)"/>
     <use xlink:href="#Jost-Regular-b6" transform="translate(220.390625 0)"/>
     <use xlink:href="#Jost-Regular-e7" transform="translate(268.1875 0)"/>
     <use xlink:href="#Jost-Regular-e2" transform="translate(322.78125 0)"/>
     <use xlink:href="#Jost-Regular-1b0" transform="translate(375.28125 0)"/>
     <use xlink:href="#Jost-Regular-b6" transform="translate(396.28125 0)"/>
     <use xlink:href="#Jost-Regular-e7" transform="translate(444.078125 0)"/>
     <use xlink:href="#Jost-Regular-f2" transform="translate(498.671875 0)"/>
     <use xlink:href="#Jost-Regular-be" transform="translate(531.46875 0)"/>
     <use xlink:href="#Jost-Regular-1ba" transform="translate(582.96875 0)"/>
    </g>
   </g>
   <g id="PathCollection_2">
    <defs>
     <path id="m6638334e74" d="M 0 5.477226 
C 1.452577 5.477226 2.845856 4.900111 3.872983 3.872983 
C 4.900111 2.845856 5.477226 1.452577 5.477226 0 
C 5.477226 -1.452577 4.900111 -2.845856 3.872983 -3.872983 
C 2.845856 -4.900111 1.452577 -5.477226 0 -5.477226 
C -1.452577 -5.477226 -2.845856 -4.900111 -3.872983 -3.872983 
C -4.900111 -2.845856 -5.477226 -1.452577 -5.477226 0 
C -5.477226 1.452577 -4.900111 2.845856 -3.872983 3.872983 
C -2.845856 4.900111 -1.452577 5.477226 0 5.477226 
z
" style="stroke: #ffffff; stroke-width: 1.5"/>
    </defs>
    <g clip-path="url(#p6a7aa44ded)">
     <use xlink:href="#m6638334e74" x="614.247857" y="118.562452" style="fill: #4db6ac; stroke: #ffffff; stroke-width: 1.5"/>
    </g>
   </g>
   <g id="text_18">
    <!-- CON v2 -->
    <g transform="translate(622.247857 102.002452) scale(0.08 -0.08)">
     <use xlink:href="#Jost-Regular-c"/>
     <use xlink:href="#Jost-Regular-3e" transform="translate(68.5 0)"/>
     <use xlink:href="#Jost-Regular-39" transform="translate(147.5 0)"/>
     <use xlink:href="#Jost-Regular-211" transform="translate(225 0)"/>
     <use xlink:href="#Jost-Regular-10c" transform="translate(255 0)"/>
     <use xlink:href="#Jost-Regular-177" transform="translate(299 0)"/>
    </g>
    <!-- (C sscanf) -->
    <g transform="translate(622.247857 113.562452) scale(0.08 -0.08)">
     <use xlink:href="#Jost-Regular-1b5"/>
     <use xlink:href="#Jost-Regular-c" transform="translate(31 0)"/>
     <use xlink:href="#Jost-Regular-211" transform="translate(99.5 0)"/>
     <use xlink:href="#Jost-Regular-f7" transform="translate(129.5 0)"/>
     <use xlink:href="#Jost-Regular-f7" transform="translate(169.796875 0)"/>
     <use xlink:href="#Jost-Regular-b6" transform="translate(210.09375 0)"/>
     <use xlink:href="#Jost-Regular-ab" transform="translate(257.890625 0)"/>
     <use xlink:href="#Jost-Regular-e2" transform="translate(305.984375 0)"/>
     <use xlink:href="#Jost-Regular-c8" transform="translate(358.484375 0)"/>
     <use xlink:href="#Jost-Regular-1ba" transform="translate(387.078125 0)"/>
    </g>
   </g>
   <g id="PathCollection_3">
    <defs>
     <path id="m0945489645" d="M 0 5.477226 
C 1.452577 5.477226 2.845856 4.900111 3.872983 3.872983 
C 4.900111 2.845856 5.477226 1.452577 5.477226 0 
C 5.477226 -1.452577 4.900111 -2.845856 3.872983 -3.872983 
C 2.845856 -4.900111 1.452577 -5.477226 0 -5.477226 
C -1.452577 -5.477226 -2.845856 -4.900111 -3.872983 -3.872983 
C -4.900111 -2.845856 -5.477226 -1.452577 -5.477226 0 
C -5.477226 1.452577 -4.900111 2.845856 -3.872983 3.872983 
C -2.845856 4.900111 -1.452577 5.477226 0 5.477226 
z
" style="stroke: #ffffff; stroke-width: 1.5"/>
    </defs>
    <g clip-path="url(#p6a7aa44ded)">
     <use xlink:href="#m0945489645" x="363.922143" y="329.88156" style="fill: #ff655d; stroke: #ffffff; stroke-width: 1.5"/>
    </g>
   </g>
   <g id="text_19">
    <!-- extxyz -->
    <g transform="translate(371.922143 313.32156) scale(0.08 -0.08)">
     <defs>
      <path id="Jost-Regular-115" d="M 2816 2944 
L 2240 2944 
L 1331 666 
L 1542 640 
L 608 2944 
L 0 2944 
L 1126 416 
L 320 -1408 
L 896 -1408 
L 2816 2944 
z
" transform="scale(0.015625)"/>
      <path id="Jost-Regular-11a" d="M 1920 2464 
L 96 0 
L 2720 0 
L 2720 480 
L 1024 480 
L 2848 2944 
L 288 2944 
L 288 2464 
L 1920 2464 
z
" transform="scale(0.015625)"/>
     </defs>
     <use xlink:href="#Jost-Regular-be"/>
     <use xlink:href="#Jost-Regular-114" transform="translate(50 0)"/>
     <use xlink:href="#Jost-Regular-fd" transform="translate(92 0)"/>
     <use xlink:href="#Jost-Regular-114" transform="translate(116 0)"/>
     <use xlink:href="#Jost-Regular-115" transform="translate(159.5 0)"/>
     <use xlink:href="#Jost-Regular-11a" transform="translate(206.5 0)"/>
    </g>
    <!-- (ASE) -->
    <g transform="translate(371.922143 324.88156) scale(0.08 -0.08)">
     <defs>
      <path id="Jost-Regular-1" d="M 941 1344 
L 3309 1344 
L 3117 1856 
L 1133 1856 
L 941 1344 
z
M 2112 3469 
L 2880 1664 
L 2931 1536 
L 3584 0 
L 4192 0 
L 2112 4704 
L 32 0 
L 640 0 
L 1306 1574 
L 1357 1690 
L 2112 3469 
z
" transform="scale(0.015625)"/>
      <path id="Jost-Regular-4e" d="M 678 1357 
L 243 1062 
Q 390 768 624 509 
Q 858 250 1168 93 
Q 1478 -64 1843 -64 
Q 2112 -64 2358 25 
Q 2605 115 2800 281 
Q 2995 448 3107 685 
Q 3219 922 3219 1216 
Q 3219 1523 3110 1744 
Q 3002 1965 2832 2121 
Q 2662 2278 2464 2380 
Q 2266 2483 2086 2547 
Q 1696 2682 1469 2819 
Q 1242 2957 1146 3113 
Q 1050 3270 1050 3456 
Q 1050 3674 1216 3850 
Q 1382 4026 1747 4026 
Q 2010 4026 2192 3923 
Q 2374 3821 2502 3661 
Q 2630 3501 2714 3334 
L 3181 3603 
Q 3072 3840 2880 4054 
Q 2688 4269 2416 4406 
Q 2144 4544 1779 4544 
Q 1402 4544 1107 4393 
Q 813 4243 646 3980 
Q 480 3718 480 3386 
Q 480 3078 598 2867 
Q 717 2656 902 2512 
Q 1088 2368 1293 2275 
Q 1498 2182 1664 2125 
Q 1920 2035 2147 1923 
Q 2374 1811 2515 1632 
Q 2656 1453 2656 1152 
Q 2656 845 2438 646 
Q 2221 448 1862 448 
Q 1594 448 1382 563 
Q 1171 678 1001 883 
Q 832 1088 678 1357 
z
" transform="scale(0.015625)"/>
      <path id="Jost-Regular-14" d="M 813 0 
L 3072 0 
L 3072 512 
L 813 512 
L 813 0 
z
M 813 3968 
L 3072 3968 
L 3072 4480 
L 813 4480 
L 813 3968 
z
M 813 2176 
L 2944 2176 
L 2944 2688 
L 813 2688 
L 813 2176 
z
M 512 4480 
L 512 0 
L 1056 0 
L 1056 4480 
L 512 4480 
z
" transform="scale(0.015625)"/>
     </defs>
     <use xlink:href="#Jost-Regular-1b5"/>
     <use xlink:href="#Jost-Regular-1" transform="translate(31 0)"/>
     <use xlink:href="#Jost-Regular-4e" transform="translate(97 0)"/>
     <use xlink:href="#Jost-Regular-14" transform="translate(151.796875 0)"/>
     <use xlink:href="#Jost-Regular-1ba" transform="translate(206.796875 0)"/>
    </g>
   </g>
   <g id="text_20">
    <!-- Ideal: -->
    <g style="fill: #004d40; opacity: 0.7" transform="translate(541.056272 332.621905) scale(0.09 -0.09)">
     <defs>
      <path id="Jost-Italic-26" d="M 1082 4480 
L 326 0 
L 851 0 
L 1626 4480 
L 1082 4480 
z
" transform="scale(0.015625)"/>
      <path id="Jost-Italic-bc" d="M 3277 4992 
L 2438 0 
L 2931 0 
L 3795 4992 
L 3277 4992 
z
M 288 1472 
Q 230 1056 358 707 
Q 486 358 771 147 
Q 1056 -64 1472 -58 
Q 1760 -58 2006 60 
Q 2253 179 2441 390 
Q 2630 602 2752 880 
Q 2874 1158 2918 1472 
Q 2957 1766 2921 2041 
Q 2886 2317 2771 2534 
Q 2656 2752 2454 2880 
Q 2253 3008 1958 3008 
Q 1542 3014 1184 2809 
Q 826 2605 589 2256 
Q 352 1907 288 1472 
z
M 800 1472 
Q 851 1773 1017 2013 
Q 1184 2253 1433 2393 
Q 1683 2534 1971 2528 
Q 2157 2522 2304 2435 
Q 2451 2349 2544 2201 
Q 2637 2054 2675 1868 
Q 2714 1683 2688 1472 
Q 2650 1248 2544 1059 
Q 2438 870 2284 726 
Q 2131 582 1948 502 
Q 1766 422 1574 422 
Q 1293 422 1104 563 
Q 915 704 835 944 
Q 755 1184 800 1472 
z
" transform="scale(0.015625)"/>
      <path id="Jost-Italic-be" d="M 1523 -64 
Q 1997 -64 2355 147 
Q 2714 358 2944 685 
L 2541 947 
Q 2381 717 2134 566 
Q 1888 416 1587 416 
Q 1318 416 1145 528 
Q 973 640 889 845 
Q 806 1050 806 1312 
Q 806 1562 886 1789 
Q 966 2016 1113 2189 
Q 1261 2362 1462 2461 
Q 1664 2560 1907 2560 
Q 2144 2560 2297 2470 
Q 2451 2381 2531 2217 
Q 2611 2054 2611 1824 
Q 2611 1734 2585 1648 
Q 2560 1562 2528 1485 
L 2726 1779 
L 614 1779 
L 614 1344 
L 3066 1344 
Q 3091 1395 3113 1510 
Q 3136 1626 3136 1722 
Q 3136 2144 2989 2429 
Q 2842 2714 2576 2861 
Q 2310 3008 1939 3008 
Q 1587 3008 1289 2867 
Q 992 2726 768 2486 
Q 544 2246 422 1936 
Q 301 1626 301 1280 
Q 301 858 454 557 
Q 608 256 883 96 
Q 1158 -64 1523 -64 
z
" transform="scale(0.015625)"/>
      <path id="Jost-Italic-ab" d="M 2963 2944 
L 2470 0 
L 2938 0 
L 3450 2944 
L 2963 2944 
z
M 288 1472 
Q 230 1056 358 707 
Q 486 358 771 147 
Q 1056 -64 1472 -58 
Q 1760 -58 2006 60 
Q 2253 179 2441 390 
Q 2630 602 2752 880 
Q 2874 1158 2918 1472 
Q 2957 1766 2921 2041 
Q 2886 2317 2771 2534 
Q 2656 2752 2454 2880 
Q 2253 3008 1958 3008 
Q 1542 3014 1184 2809 
Q 826 2605 589 2256 
Q 352 1907 288 1472 
z
M 800 1472 
Q 851 1773 1017 2013 
Q 1184 2253 1433 2393 
Q 1683 2534 1971 2528 
Q 2157 2522 2304 2435 
Q 2451 2349 2544 2201 
Q 2637 2054 2675 1868 
Q 2714 1683 2688 1472 
Q 2650 1248 2544 1059 
Q 2438 870 2284 726 
Q 2131 582 1948 502 
Q 1766 422 1574 422 
Q 1293 422 1104 563 
Q 915 704 835 944 
Q 755 1184 800 1472 
z
" transform="scale(0.015625)"/>
      <path id="Jost-Italic-dd" d="M 1139 4992 
L 294 0 
L 787 0 
L 1651 4992 
L 1139 4992 
z
" transform="scale(0.015625)"/>
      <path id="Jost-Italic-1cf" d="M 454 256 
Q 454 115 556 12 
Q 659 -90 800 -90 
Q 947 -90 1049 12 
Q 1152 115 1152 256 
Q 1152 403 1049 505 
Q 947 608 800 608 
Q 659 608 556 505 
Q 454 403 454 256 
z
M 870 2688 
Q 870 2547 972 2444 
Q 1075 2342 1216 2342 
Q 1363 2342 1465 2444 
Q 1568 2547 1568 2688 
Q 1568 2835 1465 2937 
Q 1363 3040 1216 3040 
Q 1075 3040 972 2937 
Q 870 2835 870 2688 
z
" transform="scale(0.015625)"/>
     </defs>
     <use xlink:href="#Jost-Italic-26"/>
     <use xlink:href="#Jost-Italic-bc" transform="translate(23.796875 0)"/>
     <use xlink:href="#Jost-Italic-be" transform="translate(79.09375 0)"/>
     <use xlink:href="#Jost-Italic-ab" transform="translate(129.09375 0)"/>
     <use xlink:href="#Jost-Italic-dd" transform="translate(184.390625 0)"/>
     <use xlink:href="#Jost-Italic-1cf" transform="translate(206.6875 0)"/>
    </g>
    <!-- fast + feature-rich -->
    <g style="fill: #004d40; opacity: 0.7" transform="translate(518.785491 345.626905) scale(0.09 -0.09)">
     <defs>
      <path id="Jost-Italic-c8" d="M 576 2944 
L 486 2464 
L 1926 2464 
L 2016 2944 
L 576 2944 
z
M 2214 4384 
L 2554 4794 
Q 2464 4896 2339 4973 
Q 2214 5050 2029 5056 
Q 1747 5062 1539 4928 
Q 1331 4794 1206 4563 
Q 1082 4333 1037 4038 
L 346 0 
L 858 0 
L 1536 3968 
Q 1555 4128 1606 4259 
Q 1658 4390 1741 4467 
Q 1824 4544 1946 4550 
Q 2022 4550 2089 4508 
Q 2157 4467 2214 4384 
z
" transform="scale(0.015625)"/>
      <path id="Jost-Italic-f7" d="M 614 890 
L 198 653 
Q 282 480 442 313 
Q 602 147 835 41 
Q 1069 -64 1363 -64 
Q 1664 -64 1894 61 
Q 2125 186 2256 397 
Q 2387 608 2387 864 
Q 2387 1126 2275 1289 
Q 2163 1453 1977 1561 
Q 1792 1670 1574 1766 
Q 1427 1830 1312 1894 
Q 1197 1958 1126 2041 
Q 1056 2125 1056 2246 
Q 1056 2394 1174 2483 
Q 1293 2573 1491 2573 
Q 1696 2573 1865 2457 
Q 2035 2342 2157 2182 
L 2534 2438 
Q 2400 2682 2137 2845 
Q 1875 3008 1523 3008 
Q 1286 3008 1065 2915 
Q 845 2822 704 2640 
Q 563 2458 563 2182 
Q 563 1939 678 1782 
Q 794 1626 966 1526 
Q 1139 1427 1306 1363 
Q 1440 1306 1574 1232 
Q 1709 1158 1798 1052 
Q 1888 947 1888 806 
Q 1888 634 1753 515 
Q 1619 397 1402 397 
Q 1222 397 1075 464 
Q 928 531 816 643 
Q 704 755 614 890 
z
" transform="scale(0.015625)"/>
      <path id="Jost-Italic-fd" d="M 371 2944 
L 282 2464 
L 1722 2464 
L 1805 2944 
L 371 2944 
z
M 992 3968 
L 326 0 
L 819 0 
L 1510 3968 
L 992 3968 
z
" transform="scale(0.015625)"/>
      <path id="Jost-Italic-211" transform="scale(0.015625)"/>
      <path id="Jost-Italic-1e0" d="M 467 1382 
L 3488 1376 
L 3578 1888 
L 550 1888 
L 467 1382 
z
M 2010 3200 
L 1485 70 
L 2010 64 
L 2560 3200 
L 2010 3200 
z
" transform="scale(0.015625)"/>
      <path id="Jost-Italic-101" d="M 986 1152 
L 1293 2944 
L 800 2944 
L 474 1088 
Q 429 781 499 518 
Q 570 256 765 99 
Q 960 -58 1280 -58 
Q 1574 -58 1798 73 
Q 2022 205 2189 448 
L 2118 0 
L 2624 0 
L 3136 2944 
L 2624 2944 
L 2304 1126 
Q 2272 928 2153 768 
Q 2035 608 1852 515 
Q 1670 422 1453 422 
Q 1242 422 1133 521 
Q 1024 621 992 787 
Q 960 954 986 1152 
z
" transform="scale(0.015625)"/>
      <path id="Jost-Italic-f2" d="M 1299 2944 
L 794 2944 
L 282 0 
L 794 0 
L 1299 2944 
z
M 2074 2387 
L 2413 2797 
Q 2298 2899 2173 2953 
Q 2048 3008 1894 3008 
Q 1632 3002 1421 2822 
Q 1210 2643 1062 2368 
Q 915 2093 864 1798 
L 1101 1798 
Q 1133 1978 1203 2147 
Q 1274 2317 1398 2425 
Q 1523 2534 1715 2528 
Q 1824 2528 1904 2489 
Q 1984 2451 2074 2387 
z
" transform="scale(0.015625)"/>
      <path id="Jost-Italic-1b0" d="M 77 1286 
L 1331 1286 
L 1414 1760 
L 160 1760 
L 77 1286 
z
" transform="scale(0.015625)"/>
      <path id="Jost-Italic-d0" d="M 998 4160 
Q 998 4019 1100 3916 
Q 1203 3814 1344 3814 
Q 1491 3814 1593 3916 
Q 1696 4019 1696 4160 
Q 1696 4307 1593 4409 
Q 1491 4512 1344 4512 
Q 1203 4512 1100 4409 
Q 998 4307 998 4160 
z
M 877 2944 
L 390 0 
L 896 0 
L 1395 2944 
L 877 2944 
z
" transform="scale(0.015625)"/>
      <path id="Jost-Italic-b6" d="M 813 1472 
Q 858 1760 1018 2000 
Q 1178 2240 1424 2381 
Q 1670 2522 1965 2528 
Q 2285 2528 2525 2377 
Q 2765 2227 2867 1990 
L 2957 2630 
Q 2790 2816 2537 2912 
Q 2285 3008 2003 3008 
Q 1568 3002 1203 2797 
Q 838 2592 598 2246 
Q 358 1901 301 1472 
Q 243 1062 387 713 
Q 531 365 832 153 
Q 1133 -58 1562 -58 
Q 1862 -58 2134 41 
Q 2406 141 2605 314 
L 2694 947 
Q 2522 736 2234 576 
Q 1946 416 1606 422 
Q 1318 422 1126 572 
Q 934 723 851 960 
Q 768 1197 813 1472 
z
" transform="scale(0.015625)"/>
      <path id="Jost-Italic-ce" d="M 1651 4992 
L 1146 4992 
L 288 0 
L 794 0 
L 1651 4992 
z
M 2432 1792 
L 2125 0 
L 2624 0 
L 2944 1856 
Q 2982 2176 2908 2438 
Q 2835 2701 2646 2854 
Q 2458 3008 2138 3008 
Q 1811 3008 1561 2835 
Q 1312 2662 1152 2387 
Q 992 2112 928 1798 
L 1101 1798 
Q 1152 1990 1270 2160 
Q 1389 2330 1565 2429 
Q 1741 2528 1965 2528 
Q 2176 2522 2285 2422 
Q 2394 2323 2426 2156 
Q 2458 1990 2432 1792 
z
" transform="scale(0.015625)"/>
     </defs>
     <use xlink:href="#Jost-Italic-c8"/>
     <use xlink:href="#Jost-Italic-ab" transform="translate(27.796875 0)"/>
     <use xlink:href="#Jost-Italic-f7" transform="translate(83.09375 0)"/>
     <use xlink:href="#Jost-Italic-fd" transform="translate(122.1875 0)"/>
     <use xlink:href="#Jost-Italic-211" transform="translate(145.484375 0)"/>
     <use xlink:href="#Jost-Italic-1e0" transform="translate(175.578125 0)"/>
     <use xlink:href="#Jost-Italic-211" transform="translate(235.28125 0)"/>
     <use xlink:href="#Jost-Italic-c8" transform="translate(265.375 0)"/>
     <use xlink:href="#Jost-Italic-be" transform="translate(293.171875 0)"/>
     <use xlink:href="#Jost-Italic-ab" transform="translate(343.171875 0)"/>
     <use xlink:href="#Jost-Italic-fd" transform="translate(398.46875 0)"/>
     <use xlink:href="#Jost-Italic-101" transform="translate(421.765625 0)"/>
     <use xlink:href="#Jost-Italic-f2" transform="translate(472.671875 0)"/>
     <use xlink:href="#Jost-Italic-be" transform="translate(504.46875 0)"/>
     <use xlink:href="#Jost-Italic-1b0" transform="translate(554.46875 0)"/>
     <use xlink:href="#Jost-Italic-f2" transform="translate(574.875 0)"/>
     <use xlink:href="#Jost-Italic-d0" transform="translate(608.171875 0)"/>
     <use xlink:href="#Jost-Italic-b6" transform="translate(633.375 0)"/>
     <use xlink:href="#Jost-Italic-ce" transform="translate(679.78125 0)"/>
    </g>
   </g>
   <g id="text_21">
    <!-- Fast but -->
    <g style="fill: #9e9e9e; opacity: 0.7" transform="translate(99.071272 42.576071) scale(0.09 -0.09)">
     <defs>
      <path id="Jost-Italic-1e" d="M 1299 3968 
L 3251 3968 
L 3334 4480 
L 1382 4480 
L 1299 3968 
z
M 992 2182 
L 2880 2176 
L 2970 2688 
L 1075 2688 
L 992 2182 
z
M 1082 4480 
L 326 0 
L 851 0 
L 1626 4480 
L 1082 4480 
z
" transform="scale(0.015625)"/>
      <path id="Jost-Italic-b5" d="M 1619 4992 
L 1114 4992 
L 256 0 
L 762 0 
L 1619 4992 
z
M 3405 1472 
Q 3462 1888 3334 2237 
Q 3206 2586 2924 2797 
Q 2643 3008 2227 3008 
Q 1933 3002 1686 2883 
Q 1440 2765 1251 2553 
Q 1062 2342 944 2064 
Q 826 1786 781 1472 
Q 742 1178 777 902 
Q 813 627 928 409 
Q 1043 192 1244 64 
Q 1446 -64 1741 -64 
Q 2157 -64 2512 137 
Q 2867 339 3104 688 
Q 3341 1037 3405 1472 
z
M 2899 1472 
Q 2848 1171 2678 931 
Q 2509 691 2259 553 
Q 2010 416 1728 422 
Q 1536 422 1392 508 
Q 1248 595 1152 742 
Q 1056 890 1021 1075 
Q 986 1261 1011 1472 
Q 1043 1696 1148 1885 
Q 1254 2074 1408 2218 
Q 1562 2362 1747 2445 
Q 1933 2528 2125 2528 
Q 2406 2528 2595 2384 
Q 2784 2240 2861 2000 
Q 2938 1760 2899 1472 
z
" transform="scale(0.015625)"/>
     </defs>
     <use xlink:href="#Jost-Italic-1e"/>
     <use xlink:href="#Jost-Italic-ab" transform="translate(45.5 0)"/>
     <use xlink:href="#Jost-Italic-f7" transform="translate(100.796875 0)"/>
     <use xlink:href="#Jost-Italic-fd" transform="translate(139.890625 0)"/>
     <use xlink:href="#Jost-Italic-211" transform="translate(163.1875 0)"/>
     <use xlink:href="#Jost-Italic-b5" transform="translate(193.28125 0)"/>
     <use xlink:href="#Jost-Italic-101" transform="translate(248.578125 0)"/>
     <use xlink:href="#Jost-Italic-fd" transform="translate(299.484375 0)"/>
    </g>
    <!-- feature-poor -->
    <g style="fill: #9e9e9e; opacity: 0.7" transform="translate(90.91221 55.581071) scale(0.09 -0.09)">
     <defs>
      <path id="Jost-Italic-f0" d="M 531 -1402 
L 1261 2944 
L 768 2944 
L 13 -1408 
L 531 -1402 
z
M 3405 1472 
Q 3462 1888 3334 2237 
Q 3206 2586 2924 2797 
Q 2643 3008 2227 3008 
Q 1933 3002 1686 2883 
Q 1440 2765 1251 2553 
Q 1062 2342 944 2064 
Q 826 1786 781 1472 
Q 742 1178 777 902 
Q 813 627 928 409 
Q 1043 192 1244 64 
Q 1446 -64 1741 -64 
Q 2157 -64 2512 137 
Q 2867 339 3104 688 
Q 3341 1037 3405 1472 
z
M 2899 1472 
Q 2848 1171 2678 931 
Q 2509 691 2259 553 
Q 2010 416 1728 422 
Q 1536 422 1392 508 
Q 1248 595 1152 742 
Q 1056 890 1021 1075 
Q 986 1261 1011 1472 
Q 1043 1696 1148 1885 
Q 1254 2074 1408 2218 
Q 1562 2362 1747 2445 
Q 1933 2528 2125 2528 
Q 2406 2528 2595 2384 
Q 2784 2240 2861 2000 
Q 2938 1760 2899 1472 
z
" transform="scale(0.015625)"/>
      <path id="Jost-Italic-e7" d="M 333 1472 
Q 275 1062 419 713 
Q 563 365 864 153 
Q 1165 -58 1594 -58 
Q 2029 -58 2393 147 
Q 2758 352 2998 701 
Q 3238 1050 3296 1472 
Q 3354 1882 3210 2230 
Q 3066 2579 2762 2793 
Q 2458 3008 2035 3008 
Q 1600 3008 1235 2800 
Q 870 2592 630 2243 
Q 390 1894 333 1472 
z
M 838 1472 
Q 883 1760 1046 2000 
Q 1210 2240 1456 2384 
Q 1702 2528 1990 2528 
Q 2278 2522 2470 2371 
Q 2662 2221 2745 1984 
Q 2829 1747 2790 1472 
Q 2746 1184 2579 944 
Q 2413 704 2169 560 
Q 1926 416 1632 422 
Q 1344 422 1152 572 
Q 960 723 880 963 
Q 800 1203 838 1472 
z
" transform="scale(0.015625)"/>
     </defs>
     <use xlink:href="#Jost-Italic-c8"/>
     <use xlink:href="#Jost-Italic-be" transform="translate(27.796875 0)"/>
     <use xlink:href="#Jost-Italic-ab" transform="translate(77.796875 0)"/>
     <use xlink:href="#Jost-Italic-fd" transform="translate(133.09375 0)"/>
     <use xlink:href="#Jost-Italic-101" transform="translate(156.390625 0)"/>
     <use xlink:href="#Jost-Italic-f2" transform="translate(207.296875 0)"/>
     <use xlink:href="#Jost-Italic-be" transform="translate(239.09375 0)"/>
     <use xlink:href="#Jost-Italic-1b0" transform="translate(289.09375 0)"/>
     <use xlink:href="#Jost-Italic-f0" transform="translate(309.5 0)"/>
     <use xlink:href="#Jost-Italic-e7" transform="translate(364.796875 0)"/>
     <use xlink:href="#Jost-Italic-e7" transform="translate(417.796875 0)"/>
     <use xlink:href="#Jost-Italic-f2" transform="translate(470.796875 0)"/>
    </g>
   </g>
   <g id="text_22">
    <!-- Feature coverage vs parse speed (measured points only) -->
    <g transform="translate(236.88 24.72) scale(0.12 -0.12)">
     <defs>
      <path id="Jost-Regular-c9" d="M 282 -192 
Q 282 -570 467 -861 
Q 653 -1152 982 -1312 
Q 1312 -1472 1741 -1472 
Q 2112 -1472 2445 -1299 
Q 2778 -1126 2989 -784 
Q 3200 -442 3200 64 
L 3200 2944 
L 2688 2944 
L 2688 64 
Q 2688 -307 2544 -540 
Q 2400 -774 2182 -883 
Q 1965 -992 1741 -992 
Q 1453 -992 1241 -880 
Q 1030 -768 915 -585 
Q 800 -403 800 -192 
L 282 -192 
z
M 224 1472 
Q 224 998 422 652 
Q 621 307 953 121 
Q 1286 -64 1683 -64 
Q 2054 -64 2329 121 
Q 2605 307 2761 652 
Q 2918 998 2918 1472 
Q 2918 1952 2761 2294 
Q 2605 2637 2329 2822 
Q 2054 3008 1683 3008 
Q 1286 3008 953 2822 
Q 621 2637 422 2294 
Q 224 1952 224 1472 
z
M 742 1472 
Q 742 1811 880 2048 
Q 1018 2285 1248 2406 
Q 1478 2528 1747 2528 
Q 1914 2528 2080 2457 
Q 2246 2387 2384 2252 
Q 2522 2118 2605 1923 
Q 2688 1728 2688 1472 
Q 2688 1133 2547 896 
Q 2406 659 2188 537 
Q 1971 416 1747 416 
Q 1478 416 1248 537 
Q 1018 659 880 896 
Q 742 1133 742 1472 
z
" transform="scale(0.015625)"/>
     </defs>
     <use xlink:href="#Jost-Regular-1e"/>
     <use xlink:href="#Jost-Regular-be" transform="translate(47 0)"/>
     <use xlink:href="#Jost-Regular-ab" transform="translate(98.5 0)"/>
     <use xlink:href="#Jost-Regular-fd" transform="translate(146.59375 0)"/>
     <use xlink:href="#Jost-Regular-101" transform="translate(170.59375 0)"/>
     <use xlink:href="#Jost-Regular-f2" transform="translate(223.09375 0)"/>
     <use xlink:href="#Jost-Regular-be" transform="translate(255.890625 0)"/>
     <use xlink:href="#Jost-Regular-211" transform="translate(307.390625 0)"/>
     <use xlink:href="#Jost-Regular-b6" transform="translate(337.390625 0)"/>
     <use xlink:href="#Jost-Regular-e7" transform="translate(385.1875 0)"/>
     <use xlink:href="#Jost-Regular-10c" transform="translate(438.28125 0)"/>
     <use xlink:href="#Jost-Regular-be" transform="translate(480.78125 0)"/>
     <use xlink:href="#Jost-Regular-f2" transform="translate(532.28125 0)"/>
     <use xlink:href="#Jost-Regular-ab" transform="translate(566.578125 0)"/>
     <use xlink:href="#Jost-Regular-c9" transform="translate(614.671875 0)"/>
     <use xlink:href="#Jost-Regular-be" transform="translate(671.671875 0)"/>
     <use xlink:href="#Jost-Regular-211" transform="translate(723.171875 0)"/>
     <use xlink:href="#Jost-Regular-10c" transform="translate(753.171875 0)"/>
     <use xlink:href="#Jost-Regular-f7" transform="translate(797.171875 0)"/>
     <use xlink:href="#Jost-Regular-211" transform="translate(837.46875 0)"/>
     <use xlink:href="#Jost-Regular-f0" transform="translate(867.46875 0)"/>
     <use xlink:href="#Jost-Regular-ab" transform="translate(924.46875 0)"/>
     <use xlink:href="#Jost-Regular-f2" transform="translate(972.5625 0)"/>
     <use xlink:href="#Jost-Regular-f7" transform="translate(1006.859375 0)"/>
     <use xlink:href="#Jost-Regular-be" transform="translate(1047.15625 0)"/>
     <use xlink:href="#Jost-Regular-211" transform="translate(1098.65625 0)"/>
     <use xlink:href="#Jost-Regular-f7" transform="translate(1128.65625 0)"/>
     <use xlink:href="#Jost-Regular-f0" transform="translate(1168.953125 0)"/>
     <use xlink:href="#Jost-Regular-be" transform="translate(1225.953125 0)"/>
     <use xlink:href="#Jost-Regular-be" transform="translate(1277.453125 0)"/>
     <use xlink:href="#Jost-Regular-bc" transform="translate(1328.953125 0)"/>
     <use xlink:href="#Jost-Regular-211" transform="translate(1385.953125 0)"/>
     <use xlink:href="#Jost-Regular-1b5" transform="translate(1415.953125 0)"/>
     <use xlink:href="#Jost-Regular-e1" transform="translate(1446.953125 0)"/>
     <use xlink:href="#Jost-Regular-be" transform="translate(1524.953125 0)"/>
     <use xlink:href="#Jost-Regular-ab" transform="translate(1576.453125 0)"/>
     <use xlink:href="#Jost-Regular-f7" transform="translate(1624.546875 0)"/>
     <use xlink:href="#Jost-Regular-101" transform="translate(1664.84375 0)"/>
     <use xlink:href="#Jost-Regular-f2" transform="translate(1717.34375 0)"/>
     <use xlink:href="#Jost-Regular-be" transform="translate(1750.140625 0)"/>
     <use xlink:href="#Jost-Regular-bc" transform="translate(1801.640625 0)"/>
     <use xlink:href="#Jost-Regular-211" transform="translate(1858.640625 0)"/>
     <use xlink:href="#Jost-Regular-f0" transform="translate(1888.640625 0)"/>
     <use xlink:href="#Jost-Regular-e7" transform="translate(1945.640625 0)"/>
     <use xlink:href="#Jost-Regular-d0" transform="translate(2000.234375 0)"/>
     <use xlink:href="#Jost-Regular-e2" transform="translate(2026.234375 0)"/>
     <use xlink:href="#Jost-Regular-fd" transform="translate(2078.734375 0)"/>
     <use xlink:href="#Jost-Regular-f7" transform="translate(2102.734375 0)"/>
     <use xlink:href="#Jost-Regular-211" transform="translate(2143.03125 0)"/>
     <use xlink:href="#Jost-Regular-e7" transform="translate(2173.03125 0)"/>
     <use xlink:href="#Jost-Regular-e2" transform="translate(2227.625 0)"/>
     <use xlink:href="#Jost-Regular-dd" transform="translate(2280.125 0)"/>
     <use xlink:href="#Jost-Regular-115" transform="translate(2303.125 0)"/>
     <use xlink:href="#Jost-Regular-1ba" transform="translate(2347.125 0)"/>
    </g>
   </g>
  </g>
 </g>
 <defs>
  <clipPath id="p6a7aa44ded">
   <rect x="51.015" y="30.72" width="657.105" height="348.055"/>
  </clipPath>
 </defs>
</svg>
