<?xml version="1.0" encoding="utf-8" standalone="no"?>
<!DOCTYPE svg PUBLIC "-//W3C//DTD SVG 1.1//EN"
  "http://www.w3.org/Graphics/SVG/1.1/DTD/svg11.dtd">
<svg xmlns:xlink="http://www.w3.org/1999/xlink" width="720pt" height="432pt" viewBox="0 0 720 432" xmlns="http://www.w3.org/2000/svg" version="1.1">
 <metadata>
  <rdf:RDF xmlns:dc="http://purl.org/dc/elements/1.1/" xmlns:cc="http://creativecommons.org/ns#" xmlns:rdf="http://www.w3.org/1999/02/22-rdf-syntax-ns#">
   <cc:Work>
    <dc:type rdf:resource="http://purl.org/dc/dcmitype/StillImage"/>
    <dc:date>2026-03-25T21:57:28.076670</dc:date>
    <dc:format>image/svg+xml</dc:format>
    <dc:creator>
     <cc:Agent>
      <dc:title>Matplotlib v3.10.8, https://matplotlib.org/</dc:title>
     </cc:Agent>
    </dc:creator>
   </cc:Work>
  </rdf:RDF>
 </metadata>
 <defs>
  <style type="text/css">*{stroke-linejoin: round; stroke-linecap: butt}</style>
 </defs>
 <g id="figure_1">
  <g id="patch_1">
   <path d="M 0 432 
L 720 432 
L 720 0 
L 0 0 
z
" style="fill: #ffffff"/>
  </g>
  <g id="axes_1">
   <g id="patch_2">
    <path d="M 45.47 387.52 
L 708.12 387.52 
L 708.12 27.27375 
L 45.47 27.27375 
z
" style="fill: #fafafa"/>
   </g>
   <g id="matplotlib.axis_1">
    <g id="xtick_1">
     <g id="line2d_1">
      <path d="M 108.579524 387.52 
L 108.579524 27.27375 
" clip-path="url(#p2ac93fa5fc)" style="fill: none; stroke: #b0b0b0; stroke-opacity: 0.3; stroke-width: 0.8; stroke-linecap: square"/>
     </g>
     <g id="line2d_2">
      <defs>
       <path id="m33a513ddab" d="M 0 0 
L 0 3.5 
" style="stroke: #000000; stroke-width: 0.8"/>
      </defs>
      <g>
       <use xlink:href="#m33a513ddab" x="108.579524" y="387.52" style="stroke: #000000; stroke-width: 0.8"/>
      </g>
     </g>
     <g id="text_1">
      <!-- 2 -->
      <g transform="translate(105.734211 402.32) scale(0.1 -0.1)">
       <defs>
        <path id="Jost-Regular-32" d="M 128 0 
L 3290 0 
L 3290 512 
L 1248 512 
L 2675 1965 
Q 2938 2234 3104 2573 
Q 3270 2912 3270 3258 
Q 3270 3462 3187 3686 
Q 3104 3910 2931 4105 
Q 2758 4301 2489 4425 
Q 2221 4550 1850 4550 
Q 1389 4550 1059 4348 
Q 730 4147 557 3785 
Q 384 3424 384 2944 
L 928 2944 
Q 928 3283 1037 3529 
Q 1146 3776 1354 3907 
Q 1562 4038 1850 4038 
Q 2054 4038 2214 3968 
Q 2374 3898 2486 3782 
Q 2598 3667 2656 3526 
Q 2714 3386 2714 3238 
Q 2714 3059 2659 2896 
Q 2605 2733 2499 2576 
Q 2394 2419 2246 2259 
L 128 0 
z
" transform="scale(0.015625)"/>
       </defs>
       <use xlink:href="#Jost-Regular-32"/>
      </g>
     </g>
    </g>
    <g id="xtick_2">
     <g id="line2d_3">
      <path d="M 234.798571 387.52 
L 234.798571 27.27375 
" clip-path="url(#p2ac93fa5fc)" style="fill: none; stroke: #b0b0b0; stroke-opacity: 0.3; stroke-width: 0.8; stroke-linecap: square"/>
     </g>
     <g id="line2d_4">
      <g>
       <use xlink:href="#m33a513ddab" x="234.798571" y="387.52" style="stroke: #000000; stroke-width: 0.8"/>
      </g>
     </g>
     <g id="text_2">
      <!-- 4 -->
      <g transform="translate(231.883728 402.32) scale(0.1 -0.1)">
       <defs>
        <path id="Jost-Regular-34" d="M 128 896 
L 3539 896 
L 3539 1376 
L 2624 1376 
L 2515 1376 
L 1024 1376 
L 2291 3270 
L 2291 1197 
L 2291 1126 
L 2291 0 
L 2835 0 
L 2835 4480 
L 2611 4480 
L 128 896 
z
" transform="scale(0.015625)"/>
       </defs>
       <use xlink:href="#Jost-Regular-34"/>
      </g>
     </g>
    </g>
    <g id="xtick_3">
     <g id="line2d_5">
      <path d="M 361.017619 387.52 
L 361.017619 27.27375 
" clip-path="url(#p2ac93fa5fc)" style="fill: none; stroke: #b0b0b0; stroke-opacity: 0.3; stroke-width: 0.8; stroke-linecap: square"/>
     </g>
     <g id="line2d_6">
      <g>
       <use xlink:href="#m33a513ddab" x="361.017619" y="387.52" style="stroke: #000000; stroke-width: 0.8"/>
      </g>
     </g>
     <g id="text_3">
      <!-- 6 -->
      <g transform="translate(358.137932 402.32) scale(0.1 -0.1)">
       <defs>
        <path id="Jost-Regular-36" d="M 838 1472 
Q 838 1779 969 2019 
Q 1101 2259 1328 2393 
Q 1555 2528 1843 2528 
Q 2131 2528 2358 2393 
Q 2586 2259 2717 2019 
Q 2848 1779 2848 1472 
Q 2848 1165 2717 931 
Q 2586 698 2358 563 
Q 2131 429 1843 429 
Q 1555 429 1328 563 
Q 1101 698 969 931 
Q 838 1165 838 1472 
z
M 2112 4480 
L 602 2400 
Q 474 2221 397 1984 
Q 320 1747 320 1472 
Q 320 1011 521 665 
Q 723 320 1068 128 
Q 1414 -64 1843 -64 
Q 2278 -64 2620 128 
Q 2963 320 3164 665 
Q 3366 1011 3366 1472 
Q 3366 1779 3264 2044 
Q 3162 2310 2979 2508 
Q 2797 2707 2557 2816 
Q 2317 2925 2042 2925 
Q 1824 2925 1654 2873 
Q 1485 2822 1357 2662 
L 1395 2630 
L 2797 4480 
L 2112 4480 
z
" transform="scale(0.015625)"/>
       </defs>
       <use xlink:href="#Jost-Regular-36"/>
      </g>
     </g>
    </g>
    <g id="xtick_4">
     <g id="line2d_7">
      <path d="M 487.236667 387.52 
L 487.236667 27.27375 
" clip-path="url(#p2ac93fa5fc)" style="fill: none; stroke: #b0b0b0; stroke-opacity: 0.3; stroke-width: 0.8; stroke-linecap: square"/>
     </g>
     <g id="line2d_8">
      <g>
       <use xlink:href="#m33a513ddab" x="487.236667" y="387.52" style="stroke: #000000; stroke-width: 0.8"/>
      </g>
     </g>
     <g id="text_4">
      <!-- 8 -->
      <g transform="translate(484.506979 402.32) scale(0.1 -0.1)">
       <defs>
        <path id="Jost-Regular-38" d="M 512 3398 
Q 512 3136 601 2928 
Q 691 2720 854 2573 
Q 1018 2426 1245 2349 
Q 1472 2272 1747 2272 
Q 2022 2272 2249 2349 
Q 2477 2426 2640 2573 
Q 2803 2720 2892 2928 
Q 2982 3136 2982 3398 
Q 2982 3718 2819 3977 
Q 2656 4237 2377 4390 
Q 2099 4544 1747 4544 
Q 1395 4544 1116 4390 
Q 838 4237 675 3977 
Q 512 3718 512 3398 
z
M 1030 3334 
Q 1030 3546 1123 3712 
Q 1216 3878 1379 3971 
Q 1542 4064 1747 4064 
Q 1958 4064 2118 3971 
Q 2278 3878 2371 3712 
Q 2464 3546 2464 3334 
Q 2464 3123 2365 2963 
Q 2266 2803 2102 2713 
Q 1939 2624 1747 2624 
Q 1555 2624 1392 2713 
Q 1229 2803 1129 2963 
Q 1030 3123 1030 3334 
z
M 352 1216 
Q 352 954 457 723 
Q 563 493 752 313 
Q 941 134 1193 35 
Q 1446 -64 1747 -64 
Q 2048 -64 2301 35 
Q 2554 134 2742 313 
Q 2931 493 3036 723 
Q 3142 954 3142 1216 
Q 3142 1523 3030 1763 
Q 2918 2003 2723 2166 
Q 2528 2330 2275 2413 
Q 2022 2496 1747 2496 
Q 1472 2496 1219 2413 
Q 966 2330 771 2166 
Q 576 2003 464 1763 
Q 352 1523 352 1216 
z
M 870 1280 
Q 870 1523 995 1718 
Q 1120 1914 1321 2029 
Q 1523 2144 1747 2144 
Q 1971 2144 2172 2029 
Q 2374 1914 2499 1718 
Q 2624 1523 2624 1280 
Q 2624 1005 2499 813 
Q 2374 621 2172 518 
Q 1971 416 1747 416 
Q 1523 416 1321 518 
Q 1120 621 995 813 
Q 870 1005 870 1280 
z
" transform="scale(0.015625)"/>
       </defs>
       <use xlink:href="#Jost-Regular-38"/>
      </g>
     </g>
    </g>
    <g id="xtick_5">
     <g id="line2d_9">
      <path d="M 613.455714 387.52 
L 613.455714 27.27375 
" clip-path="url(#p2ac93fa5fc)" style="fill: none; stroke: #b0b0b0; stroke-opacity: 0.3; stroke-width: 0.8; stroke-linecap: square"/>
     </g>
     <g id="line2d_10">
      <g>
       <use xlink:href="#m33a513ddab" x="613.455714" y="387.52" style="stroke: #000000; stroke-width: 0.8"/>
      </g>
     </g>
     <g id="text_5">
      <!-- 10 -->
      <g transform="translate(608.205714 402.32) scale(0.1 -0.1)">
       <defs>
        <path id="Jost-Regular-31" d="M 512 3597 
L 1504 3891 
L 1504 0 
L 2048 0 
L 2048 4544 
L 512 4160 
L 512 3597 
z
" transform="scale(0.015625)"/>
        <path id="Jost-Regular-30" d="M 800 2240 
Q 800 2630 877 2960 
Q 954 3290 1101 3530 
Q 1248 3770 1456 3901 
Q 1664 4032 1920 4032 
Q 2182 4032 2387 3901 
Q 2592 3770 2739 3530 
Q 2886 3290 2963 2960 
Q 3040 2630 3040 2240 
Q 3040 1850 2963 1520 
Q 2886 1190 2739 950 
Q 2592 710 2387 579 
Q 2182 448 1920 448 
Q 1664 448 1456 579 
Q 1248 710 1101 950 
Q 954 1190 877 1520 
Q 800 1850 800 2240 
z
M 256 2240 
Q 256 1568 467 1049 
Q 678 531 1052 233 
Q 1427 -64 1920 -64 
Q 2413 -64 2787 233 
Q 3162 531 3373 1049 
Q 3584 1568 3584 2240 
Q 3584 2912 3373 3430 
Q 3162 3949 2787 4246 
Q 2413 4544 1920 4544 
Q 1427 4544 1052 4246 
Q 678 3949 467 3430 
Q 256 2912 256 2240 
z
" transform="scale(0.015625)"/>
       </defs>
       <use xlink:href="#Jost-Regular-31"/>
       <use xlink:href="#Jost-Regular-30" transform="translate(44.999985 0)"/>
      </g>
     </g>
    </g>
    <g id="text_6">
     <!-- Features supported (out of 10) -->
     <g transform="translate(306.303906 417.21) scale(0.11 -0.11)">
      <defs>
       <path id="Jost-Regular-46" d="M 813 3968 
L 2816 3968 
L 2816 4480 
L 813 4480 
L 813 3968 
z
M 813 2176 
L 2752 2176 
L 2752 2688 
L 813 2688 
L 813 2176 
z
M 512 4480 
L 512 0 
L 1056 0 
L 1056 4480 
L 512 4480 
z
" transform="scale(0.015625)"/>
       <path id="Jost-Regular-65" d="M 1619 -64 
Q 2093 -64 2441 125 
Q 2790 314 3021 685 
L 2605 947 
Q 2445 678 2214 547 
Q 1984 416 1683 416 
Q 1382 416 1171 544 
Q 960 672 851 915 
Q 742 1158 742 1504 
Q 749 1843 861 2076 
Q 973 2310 1181 2435 
Q 1389 2560 1683 2560 
Q 1933 2560 2118 2451 
Q 2304 2342 2409 2150 
Q 2515 1958 2515 1696 
Q 2515 1651 2496 1584 
Q 2477 1517 2458 1485 
L 2662 1779 
L 550 1779 
L 550 1344 
L 3066 1344 
Q 3066 1357 3069 1405 
Q 3072 1453 3072 1498 
Q 3072 1965 2905 2304 
Q 2739 2643 2428 2825 
Q 2118 3008 1683 3008 
Q 1248 3008 918 2816 
Q 589 2624 406 2278 
Q 224 1933 224 1472 
Q 224 1018 400 672 
Q 576 326 893 131 
Q 1210 -64 1619 -64 
z
" transform="scale(0.015625)"/>
       <path id="Jost-Regular-61" d="M 710 909 
Q 710 1069 787 1184 
Q 864 1299 1021 1363 
Q 1178 1427 1427 1427 
Q 1696 1427 1933 1360 
Q 2170 1293 2394 1139 
L 2394 1440 
Q 2349 1498 2221 1590 
Q 2093 1683 1878 1756 
Q 1664 1830 1344 1830 
Q 800 1830 496 1571 
Q 192 1312 192 883 
Q 192 582 333 371 
Q 474 160 707 48 
Q 941 -64 1210 -64 
Q 1453 -64 1699 25 
Q 1946 115 2115 300 
Q 2285 486 2285 768 
L 2182 1152 
Q 2182 922 2070 746 
Q 1958 570 1769 474 
Q 1581 378 1344 378 
Q 1158 378 1014 438 
Q 870 499 790 620 
Q 710 742 710 909 
z
M 634 2266 
Q 704 2317 825 2387 
Q 947 2458 1123 2509 
Q 1299 2560 1517 2560 
Q 1651 2560 1772 2534 
Q 1894 2509 1987 2451 
Q 2080 2394 2131 2294 
Q 2182 2195 2182 2042 
L 2182 0 
L 2694 0 
L 2694 2112 
Q 2694 2400 2550 2598 
Q 2406 2797 2147 2902 
Q 1888 3008 1542 3008 
Q 1133 3008 841 2886 
Q 550 2765 384 2643 
L 634 2266 
z
" transform="scale(0.015625)"/>
       <path id="Jost-Regular-74" d="M 32 2944 
L 32 2464 
L 1504 2464 
L 1504 2944 
L 32 2944 
z
M 512 3968 
L 512 0 
L 1024 0 
L 1024 3968 
L 512 3968 
z
" transform="scale(0.015625)"/>
       <path id="Jost-Regular-75" d="M 992 1152 
L 992 2944 
L 480 2944 
L 480 1088 
Q 480 563 755 249 
Q 1030 -64 1491 -64 
Q 1786 -64 2003 67 
Q 2221 198 2368 461 
L 2368 0 
L 2880 0 
L 2880 2944 
L 2368 2944 
L 2368 1152 
Q 2368 934 2275 768 
Q 2182 602 2012 509 
Q 1843 416 1619 416 
Q 1312 416 1152 608 
Q 992 800 992 1152 
z
" transform="scale(0.015625)"/>
       <path id="Jost-Regular-72" d="M 992 2944 
L 480 2944 
L 480 0 
L 992 0 
L 992 2944 
z
M 1882 2381 
L 2163 2803 
Q 2048 2925 1910 2966 
Q 1773 3008 1613 3008 
Q 1408 3008 1209 2848 
Q 1011 2688 886 2416 
Q 762 2144 762 1792 
L 992 1792 
Q 992 2003 1033 2169 
Q 1075 2336 1184 2432 
Q 1293 2528 1485 2528 
Q 1613 2528 1696 2493 
Q 1779 2458 1882 2381 
z
" transform="scale(0.015625)"/>
       <path id="Jost-Regular-73" d="M 602 902 
L 198 653 
Q 282 480 445 313 
Q 608 147 845 41 
Q 1082 -64 1376 -64 
Q 1830 -64 2108 192 
Q 2387 448 2387 832 
Q 2387 1094 2262 1260 
Q 2138 1427 1926 1545 
Q 1715 1664 1459 1766 
Q 1306 1830 1165 1900 
Q 1024 1971 934 2060 
Q 845 2150 845 2266 
Q 845 2413 960 2483 
Q 1075 2554 1235 2554 
Q 1466 2554 1648 2445 
Q 1830 2336 1952 2170 
L 2362 2432 
Q 2272 2598 2112 2726 
Q 1952 2854 1744 2931 
Q 1536 3008 1299 3008 
Q 1062 3008 841 2925 
Q 621 2842 483 2669 
Q 346 2496 346 2234 
Q 346 1978 477 1808 
Q 608 1638 803 1532 
Q 998 1427 1190 1350 
Q 1363 1286 1516 1212 
Q 1670 1139 1769 1033 
Q 1869 928 1869 774 
Q 1869 602 1744 502 
Q 1619 403 1402 403 
Q 1222 403 1072 470 
Q 922 538 806 653 
Q 691 768 602 902 
z
" transform="scale(0.015625)"/>
       <path id="Jost-Regular-20" transform="scale(0.015625)"/>
       <path id="Jost-Regular-70" d="M 960 -1408 
L 960 2944 
L 448 2944 
L 448 -1408 
L 960 -1408 
z
M 3424 1472 
Q 3424 1952 3225 2294 
Q 3027 2637 2697 2822 
Q 2368 3008 1965 3008 
Q 1600 3008 1321 2822 
Q 1043 2637 886 2294 
Q 730 1952 730 1472 
Q 730 998 886 652 
Q 1043 307 1321 121 
Q 1600 -64 1965 -64 
Q 2368 -64 2697 121 
Q 3027 307 3225 652 
Q 3424 998 3424 1472 
z
M 2906 1472 
Q 2906 1133 2768 896 
Q 2630 659 2403 537 
Q 2176 416 1901 416 
Q 1677 416 1459 537 
Q 1242 659 1101 896 
Q 960 1133 960 1472 
Q 960 1811 1101 2048 
Q 1242 2285 1459 2406 
Q 1677 2528 1901 2528 
Q 2176 2528 2403 2406 
Q 2630 2285 2768 2048 
Q 2906 1811 2906 1472 
z
" transform="scale(0.015625)"/>
       <path id="Jost-Regular-6f" d="M 224 1472 
Q 224 1030 425 681 
Q 627 333 972 134 
Q 1318 -64 1747 -64 
Q 2182 -64 2524 134 
Q 2867 333 3068 681 
Q 3270 1030 3270 1472 
Q 3270 1920 3068 2265 
Q 2867 2611 2524 2809 
Q 2182 3008 1747 3008 
Q 1318 3008 972 2809 
Q 627 2611 425 2265 
Q 224 1920 224 1472 
z
M 742 1472 
Q 742 1779 873 2019 
Q 1005 2259 1232 2393 
Q 1459 2528 1747 2528 
Q 2035 2528 2262 2393 
Q 2490 2259 2621 2019 
Q 2752 1779 2752 1472 
Q 2752 1165 2621 928 
Q 2490 691 2262 553 
Q 2035 416 1747 416 
Q 1459 416 1232 553 
Q 1005 691 873 928 
Q 742 1165 742 1472 
z
" transform="scale(0.015625)"/>
       <path id="Jost-Regular-64" d="M 2688 4992 
L 2688 0 
L 3200 0 
L 3200 4992 
L 2688 4992 
z
M 224 1472 
Q 224 998 422 652 
Q 621 307 953 121 
Q 1286 -64 1683 -64 
Q 2054 -64 2329 121 
Q 2605 307 2761 652 
Q 2918 998 2918 1472 
Q 2918 1952 2761 2294 
Q 2605 2637 2329 2822 
Q 2054 3008 1683 3008 
Q 1286 3008 953 2822 
Q 621 2637 422 2294 
Q 224 1952 224 1472 
z
M 742 1472 
Q 742 1811 880 2048 
Q 1018 2285 1248 2406 
Q 1478 2528 1747 2528 
Q 1971 2528 2188 2406 
Q 2406 2285 2547 2048 
Q 2688 1811 2688 1472 
Q 2688 1133 2547 896 
Q 2406 659 2188 537 
Q 1971 416 1747 416 
Q 1478 416 1248 537 
Q 1018 659 880 896 
Q 742 1133 742 1472 
z
" transform="scale(0.015625)"/>
       <path id="Jost-Regular-28" d="M 1312 4992 
Q 928 4275 752 3475 
Q 576 2675 576 1856 
Q 576 1043 752 243 
Q 928 -557 1312 -1280 
L 1792 -1280 
Q 1459 -557 1305 243 
Q 1152 1043 1152 1856 
Q 1152 2675 1305 3475 
Q 1459 4275 1792 4992 
L 1312 4992 
z
" transform="scale(0.015625)"/>
       <path id="Jost-Regular-66" d="M 256 2944 
L 256 2464 
L 1728 2464 
L 1728 2944 
L 256 2944 
z
M 1677 4378 
L 1958 4800 
Q 1914 4864 1834 4921 
Q 1754 4979 1645 5017 
Q 1536 5056 1395 5056 
Q 1126 5056 937 4944 
Q 749 4832 646 4608 
Q 544 4384 544 4032 
L 544 0 
L 1056 0 
L 1056 3968 
Q 1056 4179 1094 4307 
Q 1133 4435 1200 4489 
Q 1267 4544 1363 4544 
Q 1440 4544 1526 4515 
Q 1613 4486 1677 4378 
z
" transform="scale(0.015625)"/>
       <path id="Jost-Regular-29" d="M 672 -1280 
Q 1056 -557 1232 243 
Q 1408 1043 1408 1856 
Q 1408 2675 1232 3475 
Q 1056 4275 672 4992 
L 192 4992 
Q 531 4275 681 3475 
Q 832 2675 832 1856 
Q 832 1043 681 243 
Q 531 -557 192 -1280 
L 672 -1280 
z
" transform="scale(0.015625)"/>
      </defs>
      <use xlink:href="#Jost-Regular-46"/>
      <use xlink:href="#Jost-Regular-65" transform="translate(49.999985 0)"/>
      <use xlink:href="#Jost-Regular-61" transform="translate(101.499969 0)"/>
      <use xlink:href="#Jost-Regular-74" transform="translate(149.59996 0)"/>
      <use xlink:href="#Jost-Regular-75" transform="translate(173.599945 0)"/>
      <use xlink:href="#Jost-Regular-72" transform="translate(226.09993 0)"/>
      <use xlink:href="#Jost-Regular-65" transform="translate(260.399918 0)"/>
      <use xlink:href="#Jost-Regular-73" transform="translate(311.899902 0)"/>
      <use xlink:href="#Jost-Regular-20" transform="translate(352.19989 0)"/>
      <use xlink:href="#Jost-Regular-73" transform="translate(382.199875 0)"/>
      <use xlink:href="#Jost-Regular-75" transform="translate(422.499863 0)"/>
      <use xlink:href="#Jost-Regular-70" transform="translate(474.999847 0)"/>
      <use xlink:href="#Jost-Regular-70" transform="translate(531.999832 0)"/>
      <use xlink:href="#Jost-Regular-6f" transform="translate(588.999817 0)"/>
      <use xlink:href="#Jost-Regular-72" transform="translate(643.599808 0)"/>
      <use xlink:href="#Jost-Regular-74" transform="translate(677.899796 0)"/>
      <use xlink:href="#Jost-Regular-65" transform="translate(701.89978 0)"/>
      <use xlink:href="#Jost-Regular-64" transform="translate(753.399765 0)"/>
      <use xlink:href="#Jost-Regular-20" transform="translate(810.39975 0)"/>
      <use xlink:href="#Jost-Regular-28" transform="translate(840.399734 0)"/>
      <use xlink:href="#Jost-Regular-6f" transform="translate(871.399719 0)"/>
      <use xlink:href="#Jost-Regular-75" transform="translate(925.99971 0)"/>
      <use xlink:href="#Jost-Regular-74" transform="translate(978.499695 0)"/>
      <use xlink:href="#Jost-Regular-20" transform="translate(1002.49968 0)"/>
      <use xlink:href="#Jost-Regular-6f" transform="translate(1032.499664 0)"/>
      <use xlink:href="#Jost-Regular-66" transform="translate(1087.099655 0)"/>
      <use xlink:href="#Jost-Regular-20" transform="translate(1115.699646 0)"/>
      <use xlink:href="#Jost-Regular-31" transform="translate(1145.699631 0)"/>
      <use xlink:href="#Jost-Regular-30" transform="translate(1190.699615 0)"/>
      <use xlink:href="#Jost-Regular-29" transform="translate(1250.6996 0)"/>
     </g>
    </g>
   </g>
   <g id="matplotlib.axis_2">
    <g id="ytick_1">
     <g id="line2d_11">
      <path d="M 45.47 27.27375 
L 708.12 27.27375 
" clip-path="url(#p2ac93fa5fc)" style="fill: none; stroke: #b0b0b0; stroke-opacity: 0.3; stroke-width: 0.8; stroke-linecap: square"/>
     </g>
     <g id="line2d_12">
      <defs>
       <path id="m16bd009c77" d="M 0 0 
L -3.5 0 
" style="stroke: #000000; stroke-width: 0.8"/>
      </defs>
      <g>
       <use xlink:href="#m16bd009c77" x="45.47" y="27.27375" style="stroke: #000000; stroke-width: 0.8"/>
      </g>
     </g>
     <g id="text_7">
      <!-- 0 -->
      <g transform="translate(32.47 31.17375) scale(0.1 -0.1)">
       <use xlink:href="#Jost-Regular-30"/>
      </g>
     </g>
    </g>
    <g id="ytick_2">
     <g id="line2d_13">
      <path d="M 45.47 70.160208 
L 708.12 70.160208 
" clip-path="url(#p2ac93fa5fc)" style="fill: none; stroke: #b0b0b0; stroke-opacity: 0.3; stroke-width: 0.8; stroke-linecap: square"/>
     </g>
     <g id="line2d_14">
      <g>
       <use xlink:href="#m16bd009c77" x="45.47" y="70.160208" style="stroke: #000000; stroke-width: 0.8"/>
      </g>
     </g>
     <g id="text_8">
      <!-- 5 -->
      <g transform="translate(32.829375 74.060208) scale(0.1 -0.1)">
       <defs>
        <path id="Jost-Regular-35" d="M 3354 1472 
Q 3354 1920 3181 2259 
Q 3008 2598 2704 2790 
Q 2400 2982 2016 2982 
Q 1850 2982 1680 2940 
Q 1510 2899 1350 2816 
L 1651 4000 
L 3341 4000 
L 3341 4480 
L 1229 4480 
L 640 2093 
Q 870 2253 1046 2339 
Q 1222 2426 1398 2461 
Q 1574 2496 1786 2496 
Q 2074 2496 2301 2368 
Q 2528 2240 2659 2009 
Q 2790 1779 2790 1472 
Q 2790 1165 2672 934 
Q 2554 704 2330 576 
Q 2106 448 1786 448 
Q 1542 448 1318 553 
Q 1094 659 924 828 
Q 755 998 653 1190 
L 192 877 
Q 339 621 553 406 
Q 768 192 1072 64 
Q 1376 -64 1786 -64 
Q 2112 -64 2393 32 
Q 2675 128 2892 320 
Q 3110 512 3232 800 
Q 3354 1088 3354 1472 
z
" transform="scale(0.015625)"/>
       </defs>
       <use xlink:href="#Jost-Regular-35"/>
      </g>
     </g>
    </g>
    <g id="ytick_3">
     <g id="line2d_15">
      <path d="M 45.47 113.046667 
L 708.12 113.046667 
" clip-path="url(#p2ac93fa5fc)" style="fill: none; stroke: #b0b0b0; stroke-opacity: 0.3; stroke-width: 0.8; stroke-linecap: square"/>
     </g>
     <g id="line2d_16">
      <g>
       <use xlink:href="#m16bd009c77" x="45.47" y="113.046667" style="stroke: #000000; stroke-width: 0.8"/>
      </g>
     </g>
     <g id="text_9">
      <!-- 10 -->
      <g transform="translate(27.97 116.946667) scale(0.1 -0.1)">
       <use xlink:href="#Jost-Regular-31"/>
       <use xlink:href="#Jost-Regular-30" transform="translate(44.999985 0)"/>
      </g>
     </g>
    </g>
    <g id="ytick_4">
     <g id="line2d_17">
      <path d="M 45.47 155.933125 
L 708.12 155.933125 
" clip-path="url(#p2ac93fa5fc)" style="fill: none; stroke: #b0b0b0; stroke-opacity: 0.3; stroke-width: 0.8; stroke-linecap: square"/>
     </g>
     <g id="line2d_18">
      <g>
       <use xlink:href="#m16bd009c77" x="45.47" y="155.933125" style="stroke: #000000; stroke-width: 0.8"/>
      </g>
     </g>
     <g id="text_10">
      <!-- 15 -->
      <g transform="translate(28.329375 159.833125) scale(0.1 -0.1)">
       <use xlink:href="#Jost-Regular-31"/>
       <use xlink:href="#Jost-Regular-35" transform="translate(44.999985 0)"/>
      </g>
     </g>
    </g>
    <g id="ytick_5">
     <g id="line2d_19">
      <path d="M 45.47 198.819583 
L 708.12 198.819583 
" clip-path="url(#p2ac93fa5fc)" style="fill: none; stroke: #b0b0b0; stroke-opacity: 0.3; stroke-width: 0.8; stroke-linecap: square"/>
     </g>
     <g id="line2d_20">
      <g>
       <use xlink:href="#m16bd009c77" x="45.47" y="198.819583" style="stroke: #000000; stroke-width: 0.8"/>
      </g>
     </g>
     <g id="text_11">
      <!-- 20 -->
      <g transform="translate(26.779375 202.719583) scale(0.1 -0.1)">
       <use xlink:href="#Jost-Regular-32"/>
       <use xlink:href="#Jost-Regular-30" transform="translate(56.899994 0)"/>
      </g>
     </g>
    </g>
    <g id="ytick_6">
     <g id="line2d_21">
      <path d="M 45.47 241.706042 
L 708.12 241.706042 
" clip-path="url(#p2ac93fa5fc)" style="fill: none; stroke: #b0b0b0; stroke-opacity: 0.3; stroke-width: 0.8; stroke-linecap: square"/>
     </g>
     <g id="line2d_22">
      <g>
       <use xlink:href="#m16bd009c77" x="45.47" y="241.706042" style="stroke: #000000; stroke-width: 0.8"/>
      </g>
     </g>
     <g id="text_12">
      <!-- 25 -->
      <g transform="translate(27.13875 245.606042) scale(0.1 -0.1)">
       <use xlink:href="#Jost-Regular-32"/>
       <use xlink:href="#Jost-Regular-35" transform="translate(56.899994 0)"/>
      </g>
     </g>
    </g>
    <g id="ytick_7">
     <g id="line2d_23">
      <path d="M 45.47 284.5925 
L 708.12 284.5925 
" clip-path="url(#p2ac93fa5fc)" style="fill: none; stroke: #b0b0b0; stroke-opacity: 0.3; stroke-width: 0.8; stroke-linecap: square"/>
     </g>
     <g id="line2d_24">
      <g>
       <use xlink:href="#m16bd009c77" x="45.47" y="284.5925" style="stroke: #000000; stroke-width: 0.8"/>
      </g>
     </g>
     <g id="text_13">
      <!-- 30 -->
      <g transform="translate(27.010625 288.4925) scale(0.1 -0.1)">
       <defs>
        <path id="Jost-Regular-33" d="M 1619 2208 
Q 2054 2208 2380 2361 
Q 2707 2515 2892 2777 
Q 3078 3040 3078 3354 
Q 3078 3674 2928 3942 
Q 2778 4211 2499 4377 
Q 2221 4544 1837 4544 
Q 1472 4544 1187 4393 
Q 902 4243 739 3980 
Q 576 3718 576 3366 
L 1094 3366 
Q 1094 3661 1312 3856 
Q 1530 4051 1843 4051 
Q 2067 4051 2217 3961 
Q 2368 3872 2445 3709 
Q 2522 3546 2522 3334 
Q 2522 3174 2461 3033 
Q 2400 2893 2285 2787 
Q 2170 2682 2003 2621 
Q 1837 2560 1619 2560 
L 1619 2208 
z
M 1811 -64 
Q 2214 -64 2528 89 
Q 2842 243 3024 524 
Q 3206 806 3206 1184 
Q 3206 1517 3081 1753 
Q 2957 1990 2736 2140 
Q 2515 2291 2230 2361 
Q 1946 2432 1619 2432 
L 1619 2080 
Q 1837 2080 2022 2029 
Q 2208 1978 2349 1872 
Q 2490 1766 2570 1609 
Q 2650 1453 2650 1248 
Q 2650 1005 2547 825 
Q 2445 646 2256 547 
Q 2067 448 1811 448 
Q 1555 448 1356 544 
Q 1158 640 1046 806 
Q 934 973 934 1184 
L 384 1184 
Q 384 922 486 694 
Q 589 467 774 297 
Q 960 128 1222 32 
Q 1485 -64 1811 -64 
z
" transform="scale(0.015625)"/>
       </defs>
       <use xlink:href="#Jost-Regular-33"/>
       <use xlink:href="#Jost-Regular-30" transform="translate(54.599991 0)"/>
      </g>
     </g>
    </g>
    <g id="ytick_8">
     <g id="line2d_25">
      <path d="M 45.47 327.478958 
L 708.12 327.478958 
" clip-path="url(#p2ac93fa5fc)" style="fill: none; stroke: #b0b0b0; stroke-opacity: 0.3; stroke-width: 0.8; stroke-linecap: square"/>
     </g>
     <g id="line2d_26">
      <g>
       <use xlink:href="#m16bd009c77" x="45.47" y="327.478958" style="stroke: #000000; stroke-width: 0.8"/>
      </g>
     </g>
     <g id="text_14">
      <!-- 35 -->
      <g transform="translate(27.37 331.378958) scale(0.1 -0.1)">
       <use xlink:href="#Jost-Regular-33"/>
       <use xlink:href="#Jost-Regular-35" transform="translate(54.599991 0)"/>
      </g>
     </g>
    </g>
    <g id="ytick_9">
     <g id="line2d_27">
      <path d="M 45.47 370.365417 
L 708.12 370.365417 
" clip-path="url(#p2ac93fa5fc)" style="fill: none; stroke: #b0b0b0; stroke-opacity: 0.3; stroke-width: 0.8; stroke-linecap: square"/>
     </g>
     <g id="line2d_28">
      <g>
       <use xlink:href="#m16bd009c77" x="45.47" y="370.365417" style="stroke: #000000; stroke-width: 0.8"/>
      </g>
     </g>
     <g id="text_15">
      <!-- 40 -->
      <g transform="translate(26.640313 374.265417) scale(0.1 -0.1)">
       <use xlink:href="#Jost-Regular-34"/>
       <use xlink:href="#Jost-Regular-30" transform="translate(58.299988 0)"/>
      </g>
     </g>
    </g>
    <g id="text_16">
     <!-- Parse time for 100 frames x 218 atoms (ms, lower is better) -->
     <g transform="translate(20.220313 344.694062) rotate(-90) scale(0.11 -0.11)">
      <defs>
       <path id="Jost-Regular-50" d="M 512 4480 
L 512 0 
L 1056 0 
L 1056 4480 
L 512 4480 
z
M 813 3968 
L 1728 3968 
Q 2163 3968 2435 3760 
Q 2707 3552 2707 3136 
Q 2707 2726 2435 2515 
Q 2163 2304 1728 2304 
L 813 2304 
L 813 1792 
L 1728 1792 
Q 2163 1792 2505 1955 
Q 2848 2118 3049 2422 
Q 3251 2726 3251 3136 
Q 3251 3552 3049 3853 
Q 2848 4154 2505 4317 
Q 2163 4480 1728 4480 
L 813 4480 
L 813 3968 
z
" transform="scale(0.015625)"/>
       <path id="Jost-Regular-69" d="M 480 4160 
Q 480 4019 585 3913 
Q 691 3808 832 3808 
Q 979 3808 1081 3913 
Q 1184 4019 1184 4160 
Q 1184 4307 1081 4409 
Q 979 4512 832 4512 
Q 691 4512 585 4409 
Q 480 4307 480 4160 
z
M 576 2944 
L 576 0 
L 1088 0 
L 1088 2944 
L 576 2944 
z
" transform="scale(0.015625)"/>
       <path id="Jost-Regular-6d" d="M 4512 1856 
Q 4512 2221 4400 2480 
Q 4288 2739 4077 2873 
Q 3866 3008 3565 3008 
Q 3270 3008 3040 2870 
Q 2810 2733 2656 2458 
Q 2554 2720 2333 2864 
Q 2112 3008 1805 3008 
Q 1530 3008 1328 2886 
Q 1126 2765 992 2515 
L 992 2944 
L 480 2944 
L 480 0 
L 992 0 
L 992 1792 
Q 992 2022 1075 2188 
Q 1158 2355 1312 2441 
Q 1466 2528 1677 2528 
Q 1965 2528 2102 2349 
Q 2240 2170 2240 1792 
L 2240 0 
L 2752 0 
L 2752 1792 
Q 2752 2022 2835 2188 
Q 2918 2355 3072 2441 
Q 3226 2528 3437 2528 
Q 3725 2528 3862 2349 
Q 4000 2170 4000 1792 
L 4000 0 
L 4512 0 
L 4512 1856 
z
" transform="scale(0.015625)"/>
       <path id="Jost-Regular-78" d="M 2048 2944 
L 1344 1920 
L 640 2944 
L 64 2944 
L 1069 1517 
L 0 0 
L 576 0 
L 1344 1114 
L 2112 0 
L 2688 0 
L 1619 1517 
L 2624 2944 
L 2048 2944 
z
" transform="scale(0.015625)"/>
       <path id="Jost-Regular-2c" d="M 947 704 
L 384 -954 
L 755 -1088 
L 1459 512 
L 947 704 
z
" transform="scale(0.015625)"/>
       <path id="Jost-Regular-6c" d="M 480 4992 
L 480 0 
L 992 0 
L 992 4992 
L 480 4992 
z
" transform="scale(0.015625)"/>
       <path id="Jost-Regular-77" d="M 32 2944 
L 1312 -224 
L 2150 1920 
L 3040 -224 
L 4320 2944 
L 3744 2944 
L 3002 1018 
L 2144 3168 
L 1344 1030 
L 608 2944 
L 32 2944 
z
" transform="scale(0.015625)"/>
       <path id="Jost-Regular-62" d="M 960 4992 
L 448 4992 
L 448 0 
L 960 0 
L 960 4992 
z
M 3424 1472 
Q 3424 1952 3225 2294 
Q 3027 2637 2697 2822 
Q 2368 3008 1965 3008 
Q 1600 3008 1321 2822 
Q 1043 2637 886 2294 
Q 730 1952 730 1472 
Q 730 998 886 652 
Q 1043 307 1321 121 
Q 1600 -64 1965 -64 
Q 2368 -64 2697 121 
Q 3027 307 3225 652 
Q 3424 998 3424 1472 
z
M 2906 1472 
Q 2906 1133 2768 896 
Q 2630 659 2403 537 
Q 2176 416 1901 416 
Q 1677 416 1459 537 
Q 1242 659 1101 896 
Q 960 1133 960 1472 
Q 960 1811 1101 2048 
Q 1242 2285 1459 2406 
Q 1677 2528 1901 2528 
Q 2176 2528 2403 2406 
Q 2630 2285 2768 2048 
Q 2906 1811 2906 1472 
z
" transform="scale(0.015625)"/>
      </defs>
      <use xlink:href="#Jost-Regular-50"/>
      <use xlink:href="#Jost-Regular-61" transform="translate(54.799988 0)"/>
      <use xlink:href="#Jost-Regular-72" transform="translate(102.899979 0)"/>
      <use xlink:href="#Jost-Regular-73" transform="translate(137.199966 0)"/>
      <use xlink:href="#Jost-Regular-65" transform="translate(177.499954 0)"/>
      <use xlink:href="#Jost-Regular-20" transform="translate(228.999939 0)"/>
      <use xlink:href="#Jost-Regular-74" transform="translate(258.999924 0)"/>
      <use xlink:href="#Jost-Regular-69" transform="translate(282.999908 0)"/>
      <use xlink:href="#Jost-Regular-6d" transform="translate(308.999893 0)"/>
      <use xlink:href="#Jost-Regular-65" transform="translate(386.999878 0)"/>
      <use xlink:href="#Jost-Regular-20" transform="translate(438.499863 0)"/>
      <use xlink:href="#Jost-Regular-66" transform="translate(468.499847 0)"/>
      <use xlink:href="#Jost-Regular-6f" transform="translate(497.099838 0)"/>
      <use xlink:href="#Jost-Regular-72" transform="translate(551.699829 0)"/>
      <use xlink:href="#Jost-Regular-20" transform="translate(585.999817 0)"/>
      <use xlink:href="#Jost-Regular-31" transform="translate(615.999802 0)"/>
      <use xlink:href="#Jost-Regular-30" transform="translate(660.999786 0)"/>
      <use xlink:href="#Jost-Regular-30" transform="translate(720.999771 0)"/>
      <use xlink:href="#Jost-Regular-20" transform="translate(780.999756 0)"/>
      <use xlink:href="#Jost-Regular-66" transform="translate(810.999741 0)"/>
      <use xlink:href="#Jost-Regular-72" transform="translate(839.599731 0)"/>
      <use xlink:href="#Jost-Regular-61" transform="translate(873.899719 0)"/>
      <use xlink:href="#Jost-Regular-6d" transform="translate(921.99971 0)"/>
      <use xlink:href="#Jost-Regular-65" transform="translate(999.999695 0)"/>
      <use xlink:href="#Jost-Regular-73" transform="translate(1051.49968 0)"/>
      <use xlink:href="#Jost-Regular-20" transform="translate(1091.799667 0)"/>
      <use xlink:href="#Jost-Regular-78" transform="translate(1121.799652 0)"/>
      <use xlink:href="#Jost-Regular-20" transform="translate(1163.799637 0)"/>
      <use xlink:href="#Jost-Regular-32" transform="translate(1193.799622 0)"/>
      <use xlink:href="#Jost-Regular-31" transform="translate(1250.699615 0)"/>
      <use xlink:href="#Jost-Regular-38" transform="translate(1295.6996 0)"/>
      <use xlink:href="#Jost-Regular-20" transform="translate(1350.299591 0)"/>
      <use xlink:href="#Jost-Regular-61" transform="translate(1380.299576 0)"/>
      <use xlink:href="#Jost-Regular-74" transform="translate(1428.399567 0)"/>
      <use xlink:href="#Jost-Regular-6f" transform="translate(1452.399551 0)"/>
      <use xlink:href="#Jost-Regular-6d" transform="translate(1506.999542 0)"/>
      <use xlink:href="#Jost-Regular-73" transform="translate(1584.999527 0)"/>
      <use xlink:href="#Jost-Regular-20" transform="translate(1625.299515 0)"/>
      <use xlink:href="#Jost-Regular-28" transform="translate(1655.2995 0)"/>
      <use xlink:href="#Jost-Regular-6d" transform="translate(1686.299484 0)"/>
      <use xlink:href="#Jost-Regular-73" transform="translate(1764.299469 0)"/>
      <use xlink:href="#Jost-Regular-2c" transform="translate(1804.599457 0)"/>
      <use xlink:href="#Jost-Regular-20" transform="translate(1835.399445 0)"/>
      <use xlink:href="#Jost-Regular-6c" transform="translate(1865.399429 0)"/>
      <use xlink:href="#Jost-Regular-6f" transform="translate(1888.399414 0)"/>
      <use xlink:href="#Jost-Regular-77" transform="translate(1942.999405 0)"/>
      <use xlink:href="#Jost-Regular-65" transform="translate(2010.99939 0)"/>
      <use xlink:href="#Jost-Regular-72" transform="translate(2062.499374 0)"/>
      <use xlink:href="#Jost-Regular-20" transform="translate(2096.799362 0)"/>
      <use xlink:href="#Jost-Regular-69" transform="translate(2126.799347 0)"/>
      <use xlink:href="#Jost-Regular-73" transform="translate(2152.799332 0)"/>
      <use xlink:href="#Jost-Regular-20" transform="translate(2193.099319 0)"/>
      <use xlink:href="#Jost-Regular-62" transform="translate(2223.099304 0)"/>
      <use xlink:href="#Jost-Regular-65" transform="translate(2280.099289 0)"/>
      <use xlink:href="#Jost-Regular-74" transform="translate(2331.599274 0)"/>
      <use xlink:href="#Jost-Regular-74" transform="translate(2355.599258 0)"/>
      <use xlink:href="#Jost-Regular-65" transform="translate(2379.599243 0)"/>
      <use xlink:href="#Jost-Regular-72" transform="translate(2431.099228 0)"/>
      <use xlink:href="#Jost-Regular-29" transform="translate(2465.399216 0)"/>
     </g>
    </g>
   </g>
   <g id="line2d_29">
    <path d="M 613.455714 27.27375 
L 613.455714 65.013833 
" clip-path="url(#p2ac93fa5fc)" style="fill: none; stroke-dasharray: 3.7,1.6; stroke-dashoffset: 0; stroke: #004d40; stroke-opacity: 0.3"/>
   </g>
   <g id="line2d_30">
    <path d="M -1 65.013833 
L 613.455714 65.013833 
" clip-path="url(#p2ac93fa5fc)" style="fill: none; stroke-dasharray: 3.7,1.6; stroke-dashoffset: 0; stroke: #004d40; stroke-opacity: 0.3"/>
   </g>
   <g id="patch_3">
    <path d="M 45.47 387.52 
L 45.47 27.27375 
" style="fill: none; stroke: #cccccc; stroke-width: 0.8; stroke-linejoin: miter; stroke-linecap: square"/>
   </g>
   <g id="patch_4">
    <path d="M 708.12 387.52 
L 708.12 27.27375 
" style="fill: none; stroke: #cccccc; stroke-width: 0.8; stroke-linejoin: miter; stroke-linecap: square"/>
   </g>
   <g id="patch_5">
    <path d="M 45.47 387.52 
L 708.12 387.52 
" style="fill: none; stroke: #cccccc; stroke-width: 0.8; stroke-linejoin: miter; stroke-linecap: square"/>
   </g>
   <g id="patch_6">
    <path d="M 45.47 27.27375 
L 708.12 27.27375 
" style="fill: none; stroke: #cccccc; stroke-width: 0.8; stroke-linejoin: miter; stroke-linecap: square"/>
   </g>
   <g id="PathCollection_1">
    <defs>
     <path id="m00c9939787" d="M 0 5.477226 
C 1.452577 5.477226 2.845856 4.900111 3.872983 3.872983 
C 4.900111 2.845856 5.477226 1.452577 5.477226 0 
C 5.477226 -1.452577 4.900111 -2.845856 3.872983 -3.872983 
C 2.845856 -4.900111 1.452577 -5.477226 0 -5.477226 
C -1.452577 -5.477226 -2.845856 -4.900111 -3.872983 -3.872983 
C -4.900111 -2.845856 -5.477226 -1.452577 -5.477226 0 
C -5.477226 1.452577 -4.900111 2.845856 -3.872983 3.872983 
C -2.845856 4.900111 -1.452577 5.477226 0 5.477226 
z
" style="stroke: #ffffff; stroke-width: 1.5"/>
    </defs>
    <g clip-path="url(#p2ac93fa5fc)">
     <use xlink:href="#m00c9939787" x="613.455714" y="65.013833" style="fill: #004d40; stroke: #ffffff; stroke-width: 1.5"/>
    </g>
   </g>
   <g id="text_17">
    <!-- CON v2 -->
    <g transform="translate(621.455714 67.765833) scale(0.08 -0.08)">
     <defs>
      <path id="Jost-Regular-43" d="M 832 2240 
Q 832 2765 1065 3158 
Q 1299 3552 1676 3776 
Q 2054 4000 2496 4000 
Q 2816 4000 3081 3917 
Q 3347 3834 3564 3683 
Q 3782 3533 3936 3334 
L 3936 4051 
Q 3654 4301 3321 4422 
Q 2989 4544 2496 4544 
Q 2029 4544 1622 4374 
Q 1216 4205 909 3894 
Q 602 3584 429 3161 
Q 256 2739 256 2240 
Q 256 1741 429 1318 
Q 602 896 909 585 
Q 1216 275 1622 105 
Q 2029 -64 2496 -64 
Q 2989 -64 3321 57 
Q 3654 179 3936 429 
L 3936 1146 
Q 3782 947 3564 796 
Q 3347 646 3081 563 
Q 2816 480 2496 480 
Q 2054 480 1676 704 
Q 1299 928 1065 1325 
Q 832 1722 832 2240 
z
" transform="scale(0.015625)"/>
      <path id="Jost-Regular-4f" d="M 832 2240 
Q 832 2746 1053 3142 
Q 1274 3539 1658 3769 
Q 2042 4000 2528 4000 
Q 3021 4000 3401 3769 
Q 3782 3539 4003 3142 
Q 4224 2746 4224 2240 
Q 4224 1734 4003 1337 
Q 3782 941 3401 710 
Q 3021 480 2528 480 
Q 2042 480 1658 710 
Q 1274 941 1053 1337 
Q 832 1734 832 2240 
z
M 256 2240 
Q 256 1754 425 1331 
Q 595 909 902 598 
Q 1210 288 1626 112 
Q 2042 -64 2528 -64 
Q 3021 -64 3433 112 
Q 3846 288 4153 598 
Q 4461 909 4630 1331 
Q 4800 1754 4800 2240 
Q 4800 2733 4630 3152 
Q 4461 3571 4153 3881 
Q 3846 4192 3433 4368 
Q 3021 4544 2528 4544 
Q 2042 4544 1626 4368 
Q 1210 4192 902 3881 
Q 595 3571 425 3152 
Q 256 2733 256 2240 
z
" transform="scale(0.015625)"/>
      <path id="Jost-Regular-4e" d="M 3904 4480 
L 3904 1146 
L 512 4704 
L 512 0 
L 1056 0 
L 1056 3334 
L 4448 -224 
L 4448 4480 
L 3904 4480 
z
" transform="scale(0.015625)"/>
      <path id="Jost-Regular-76" d="M 0 2944 
L 1408 -224 
L 2816 2944 
L 2240 2944 
L 1408 864 
L 576 2944 
L 0 2944 
z
" transform="scale(0.015625)"/>
     </defs>
     <use xlink:href="#Jost-Regular-43"/>
     <use xlink:href="#Jost-Regular-4f" transform="translate(68.499985 0)"/>
     <use xlink:href="#Jost-Regular-4e" transform="translate(147.499969 0)"/>
     <use xlink:href="#Jost-Regular-20" transform="translate(224.999954 0)"/>
     <use xlink:href="#Jost-Regular-76" transform="translate(254.999939 0)"/>
     <use xlink:href="#Jost-Regular-32" transform="translate(298.999924 0)"/>
    </g>
    <!-- (readcon-core) -->
    <g transform="translate(621.455714 77.013833) scale(0.08 -0.08)">
     <defs>
      <path id="Jost-Regular-63" d="M 710 1472 
Q 710 1779 841 2019 
Q 973 2259 1200 2393 
Q 1427 2528 1715 2528 
Q 1952 2528 2160 2454 
Q 2368 2381 2521 2259 
Q 2675 2138 2739 1990 
L 2739 2630 
Q 2586 2810 2301 2909 
Q 2016 3008 1715 3008 
Q 1286 3008 940 2809 
Q 595 2611 393 2265 
Q 192 1920 192 1472 
Q 192 1030 393 681 
Q 595 333 940 134 
Q 1286 -64 1715 -64 
Q 2016 -64 2301 35 
Q 2586 134 2739 314 
L 2739 954 
Q 2675 813 2521 688 
Q 2368 563 2160 489 
Q 1952 416 1715 416 
Q 1427 416 1200 553 
Q 973 691 841 928 
Q 710 1165 710 1472 
z
" transform="scale(0.015625)"/>
      <path id="Jost-Regular-6e" d="M 2368 1792 
L 2368 0 
L 2880 0 
L 2880 1856 
Q 2880 2387 2608 2697 
Q 2336 3008 1869 3008 
Q 1581 3008 1360 2880 
Q 1139 2752 992 2483 
L 992 2944 
L 480 2944 
L 480 0 
L 992 0 
L 992 1792 
Q 992 2010 1085 2176 
Q 1178 2342 1347 2435 
Q 1517 2528 1741 2528 
Q 2048 2528 2208 2342 
Q 2368 2157 2368 1792 
z
" transform="scale(0.015625)"/>
      <path id="Jost-Regular-2d" d="M 32 1280 
L 1312 1280 
L 1312 1760 
L 32 1760 
L 32 1280 
z
" transform="scale(0.015625)"/>
     </defs>
     <use xlink:href="#Jost-Regular-28"/>
     <use xlink:href="#Jost-Regular-72" transform="translate(30.999985 0)"/>
     <use xlink:href="#Jost-Regular-65" transform="translate(65.299973 0)"/>
     <use xlink:href="#Jost-Regular-61" transform="translate(116.799957 0)"/>
     <use xlink:href="#Jost-Regular-64" transform="translate(164.899948 0)"/>
     <use xlink:href="#Jost-Regular-63" transform="translate(221.899933 0)"/>
     <use xlink:href="#Jost-Regular-6f" transform="translate(269.699921 0)"/>
     <use xlink:href="#Jost-Regular-6e" transform="translate(324.299911 0)"/>
     <use xlink:href="#Jost-Regular-2d" transform="translate(376.799896 0)"/>
     <use xlink:href="#Jost-Regular-63" transform="translate(397.799881 0)"/>
     <use xlink:href="#Jost-Regular-6f" transform="translate(445.599869 0)"/>
     <use xlink:href="#Jost-Regular-72" transform="translate(500.19986 0)"/>
     <use xlink:href="#Jost-Regular-65" transform="translate(534.499847 0)"/>
     <use xlink:href="#Jost-Regular-29" transform="translate(585.999832 0)"/>
    </g>
   </g>
   <g id="PathCollection_2">
    <defs>
     <path id="m6b04d7c000" d="M 0 5.477226 
C 1.452577 5.477226 2.845856 4.900111 3.872983 3.872983 
C 4.900111 2.845856 5.477226 1.452577 5.477226 0 
C 5.477226 -1.452577 4.900111 -2.845856 3.872983 -3.872983 
C 2.845856 -4.900111 1.452577 -5.477226 0 -5.477226 
C -1.452577 -5.477226 -2.845856 -4.900111 -3.872983 -3.872983 
C -4.900111 -2.845856 -5.477226 -1.452577 -5.477226 0 
C -5.477226 1.452577 -4.900111 2.845856 -3.872983 3.872983 
C -2.845856 4.900111 -1.452577 5.477226 0 5.477226 
z
" style="stroke: #ffffff; stroke-width: 1.5"/>
    </defs>
    <g clip-path="url(#p2ac93fa5fc)">
     <use xlink:href="#m6b04d7c000" x="613.455714" y="118.193042" style="fill: #4db6ac; stroke: #ffffff; stroke-width: 1.5"/>
    </g>
   </g>
   <g id="text_18">
    <!-- CON v2 -->
    <g transform="translate(621.455714 103.945042) scale(0.08 -0.08)">
     <use xlink:href="#Jost-Regular-43"/>
     <use xlink:href="#Jost-Regular-4f" transform="translate(68.499985 0)"/>
     <use xlink:href="#Jost-Regular-4e" transform="translate(147.499969 0)"/>
     <use xlink:href="#Jost-Regular-20" transform="translate(224.999954 0)"/>
     <use xlink:href="#Jost-Regular-76" transform="translate(254.999939 0)"/>
     <use xlink:href="#Jost-Regular-32" transform="translate(298.999924 0)"/>
    </g>
    <!-- (C sscanf) -->
    <g transform="translate(621.455714 113.193042) scale(0.08 -0.08)">
     <use xlink:href="#Jost-Regular-28"/>
     <use xlink:href="#Jost-Regular-43" transform="translate(30.999985 0)"/>
     <use xlink:href="#Jost-Regular-20" transform="translate(99.499969 0)"/>
     <use xlink:href="#Jost-Regular-73" transform="translate(129.499954 0)"/>
     <use xlink:href="#Jost-Regular-73" transform="translate(169.799942 0)"/>
     <use xlink:href="#Jost-Regular-63" transform="translate(210.09993 0)"/>
     <use xlink:href="#Jost-Regular-61" transform="translate(257.899918 0)"/>
     <use xlink:href="#Jost-Regular-6e" transform="translate(305.999908 0)"/>
     <use xlink:href="#Jost-Regular-66" transform="translate(358.499893 0)"/>
     <use xlink:href="#Jost-Regular-29" transform="translate(387.099884 0)"/>
    </g>
   </g>
   <g id="PathCollection_3">
    <defs>
     <path id="m4ac645025c" d="M 0 5.477226 
C 1.452577 5.477226 2.845856 4.900111 3.872983 3.872983 
C 4.900111 2.845856 5.477226 1.452577 5.477226 0 
C 5.477226 -1.452577 4.900111 -2.845856 3.872983 -3.872983 
C 2.845856 -4.900111 1.452577 -5.477226 0 -5.477226 
C -1.452577 -5.477226 -2.845856 -4.900111 -3.872983 -3.872983 
C -4.900111 -2.845856 -5.477226 -1.452577 -5.477226 0 
C -5.477226 1.452577 -4.900111 2.845856 -3.872983 3.872983 
C -2.845856 4.900111 -1.452577 5.477226 0 5.477226 
z
" style="stroke: #ffffff; stroke-width: 1.5"/>
    </defs>
    <g clip-path="url(#p2ac93fa5fc)">
     <use xlink:href="#m4ac645025c" x="361.017619" y="336.913979" style="fill: #ff655d; stroke: #ffffff; stroke-width: 1.5"/>
    </g>
   </g>
   <g id="text_19">
    <!-- extxyz -->
    <g transform="translate(369.017619 322.665979) scale(0.08 -0.08)">
     <defs>
      <path id="Jost-Regular-79" d="M 2816 2944 
L 2240 2944 
L 1331 666 
L 1542 640 
L 608 2944 
L 0 2944 
L 1126 416 
L 320 -1408 
L 896 -1408 
L 2816 2944 
z
" transform="scale(0.015625)"/>
      <path id="Jost-Regular-7a" d="M 1920 2464 
L 96 0 
L 2720 0 
L 2720 480 
L 1024 480 
L 2848 2944 
L 288 2944 
L 288 2464 
L 1920 2464 
z
" transform="scale(0.015625)"/>
     </defs>
     <use xlink:href="#Jost-Regular-65"/>
     <use xlink:href="#Jost-Regular-78" transform="translate(51.499985 0)"/>
     <use xlink:href="#Jost-Regular-74" transform="translate(93.499969 0)"/>
     <use xlink:href="#Jost-Regular-78" transform="translate(117.499954 0)"/>
     <use xlink:href="#Jost-Regular-79" transform="translate(159.499939 0)"/>
     <use xlink:href="#Jost-Regular-7a" transform="translate(203.499924 0)"/>
    </g>
    <!-- (ASE) -->
    <g transform="translate(369.017619 331.913979) scale(0.08 -0.08)">
     <defs>
      <path id="Jost-Regular-41" d="M 941 1344 
L 3309 1344 
L 3117 1856 
L 1133 1856 
L 941 1344 
z
M 2112 3469 
L 2880 1664 
L 2931 1536 
L 3584 0 
L 4192 0 
L 2112 4704 
L 32 0 
L 640 0 
L 1306 1574 
L 1357 1690 
L 2112 3469 
z
" transform="scale(0.015625)"/>
      <path id="Jost-Regular-53" d="M 678 1357 
L 243 1062 
Q 390 768 624 509 
Q 858 250 1168 93 
Q 1478 -64 1843 -64 
Q 2112 -64 2358 25 
Q 2605 115 2800 281 
Q 2995 448 3107 685 
Q 3219 922 3219 1216 
Q 3219 1523 3110 1744 
Q 3002 1965 2832 2121 
Q 2662 2278 2464 2380 
Q 2266 2483 2086 2547 
Q 1696 2682 1469 2819 
Q 1242 2957 1146 3113 
Q 1050 3270 1050 3456 
Q 1050 3674 1216 3850 
Q 1382 4026 1747 4026 
Q 2010 4026 2192 3923 
Q 2374 3821 2502 3661 
Q 2630 3501 2714 3334 
L 3181 3603 
Q 3072 3840 2880 4054 
Q 2688 4269 2416 4406 
Q 2144 4544 1779 4544 
Q 1402 4544 1107 4393 
Q 813 4243 646 3980 
Q 480 3718 480 3386 
Q 480 3078 598 2867 
Q 717 2656 902 2512 
Q 1088 2368 1293 2275 
Q 1498 2182 1664 2125 
Q 1920 2035 2147 1923 
Q 2374 1811 2515 1632 
Q 2656 1453 2656 1152 
Q 2656 845 2438 646 
Q 2221 448 1862 448 
Q 1594 448 1382 563 
Q 1171 678 1001 883 
Q 832 1088 678 1357 
z
" transform="scale(0.015625)"/>
      <path id="Jost-Regular-45" d="M 813 0 
L 3072 0 
L 3072 512 
L 813 512 
L 813 0 
z
M 813 3968 
L 3072 3968 
L 3072 4480 
L 813 4480 
L 813 3968 
z
M 813 2176 
L 2944 2176 
L 2944 2688 
L 813 2688 
L 813 2176 
z
M 512 4480 
L 512 0 
L 1056 0 
L 1056 4480 
L 512 4480 
z
" transform="scale(0.015625)"/>
     </defs>
     <use xlink:href="#Jost-Regular-28"/>
     <use xlink:href="#Jost-Regular-41" transform="translate(30.999985 0)"/>
     <use xlink:href="#Jost-Regular-53" transform="translate(96.999969 0)"/>
     <use xlink:href="#Jost-Regular-45" transform="translate(151.799957 0)"/>
     <use xlink:href="#Jost-Regular-29" transform="translate(206.799942 0)"/>
    </g>
   </g>
   <g id="PathCollection_4">
    <defs>
     <path id="m0ced188ea9" d="M 0 5.477226 
C 1.452577 5.477226 2.845856 4.900111 3.872983 3.872983 
C 4.900111 2.845856 5.477226 1.452577 5.477226 0 
C 5.477226 -1.452577 4.900111 -2.845856 3.872983 -3.872983 
C 2.845856 -4.900111 1.452577 -5.477226 0 -5.477226 
C -1.452577 -5.477226 -2.845856 -4.900111 -3.872983 -3.872983 
C -4.900111 -2.845856 -5.477226 -1.452577 -5.477226 0 
C -5.477226 1.452577 -4.900111 2.845856 -3.872983 3.872983 
C -2.845856 4.900111 -1.452577 5.477226 0 5.477226 
z
" style="stroke: #ffffff; stroke-width: 1.5"/>
    </defs>
    <g clip-path="url(#p2ac93fa5fc)">
     <use xlink:href="#m0ced188ea9" x="171.689048" y="95.892083" style="fill: #f1db4b; stroke: #ffffff; stroke-width: 1.5"/>
    </g>
   </g>
   <g id="text_20">
    <!-- XYZ -->
    <g transform="translate(179.689048 81.644083) scale(0.08 -0.08)">
     <defs>
      <path id="Jost-Regular-58" d="M 2752 4480 
L 1798 2822 
L 864 4480 
L 224 4480 
L 1523 2349 
L 64 0 
L 704 0 
L 1792 1875 
L 2848 0 
L 3488 0 
L 2067 2349 
L 3392 4480 
L 2752 4480 
z
" transform="scale(0.015625)"/>
      <path id="Jost-Regular-59" d="M 2950 4480 
L 1792 2406 
L 640 4480 
L 32 4480 
L 1523 1926 
L 1523 0 
L 2067 0 
L 2067 1933 
L 3558 4480 
L 2950 4480 
z
" transform="scale(0.015625)"/>
      <path id="Jost-Regular-5a" d="M 224 3968 
L 2451 3968 
L 96 0 
L 3232 0 
L 3232 512 
L 1005 512 
L 3360 4480 
L 224 4480 
L 224 3968 
z
" transform="scale(0.015625)"/>
     </defs>
     <use xlink:href="#Jost-Regular-58"/>
     <use xlink:href="#Jost-Regular-59" transform="translate(55.499985 0)"/>
     <use xlink:href="#Jost-Regular-5a" transform="translate(111.599976 0)"/>
    </g>
    <!-- (chemfiles) -->
    <g transform="translate(179.689048 90.892083) scale(0.08 -0.08)">
     <defs>
      <path id="Jost-Regular-68" d="M 992 4992 
L 480 4992 
L 480 0 
L 992 0 
L 992 4992 
z
M 2368 1792 
L 2368 0 
L 2880 0 
L 2880 1856 
Q 2880 2240 2755 2496 
Q 2630 2752 2403 2880 
Q 2176 3008 1869 3008 
Q 1562 3008 1328 2848 
Q 1094 2688 960 2416 
Q 826 2144 826 1792 
L 992 1792 
Q 992 2003 1085 2169 
Q 1178 2336 1347 2432 
Q 1517 2528 1741 2528 
Q 2054 2528 2211 2342 
Q 2368 2157 2368 1792 
z
" transform="scale(0.015625)"/>
     </defs>
     <use xlink:href="#Jost-Regular-28"/>
     <use xlink:href="#Jost-Regular-63" transform="translate(30.999985 0)"/>
     <use xlink:href="#Jost-Regular-68" transform="translate(78.799973 0)"/>
     <use xlink:href="#Jost-Regular-65" transform="translate(131.299957 0)"/>
     <use xlink:href="#Jost-Regular-6d" transform="translate(182.799942 0)"/>
     <use xlink:href="#Jost-Regular-66" transform="translate(260.799927 0)"/>
     <use xlink:href="#Jost-Regular-69" transform="translate(289.399918 0)"/>
     <use xlink:href="#Jost-Regular-6c" transform="translate(315.399902 0)"/>
     <use xlink:href="#Jost-Regular-65" transform="translate(338.399887 0)"/>
     <use xlink:href="#Jost-Regular-73" transform="translate(389.899872 0)"/>
     <use xlink:href="#Jost-Regular-29" transform="translate(430.19986 0)"/>
    </g>
   </g>
   <g id="PathCollection_5">
    <g clip-path="url(#p2ac93fa5fc)">
     <use xlink:href="#m4ac645025c" x="171.689048" y="155.933125" style="fill: #ff655d; stroke: #ffffff; stroke-width: 1.5"/>
    </g>
   </g>
   <g id="text_21">
    <!-- POSCAR -->
    <g transform="translate(179.689048 141.685125) scale(0.08 -0.08)">
     <defs>
      <path id="Jost-Regular-52" d="M 1312 2208 
L 2848 0 
L 3520 0 
L 1920 2208 
L 1312 2208 
z
M 512 4480 
L 512 0 
L 1056 0 
L 1056 4480 
L 512 4480 
z
M 813 4000 
L 1728 4000 
Q 2016 4000 2237 3897 
Q 2458 3795 2582 3603 
Q 2707 3411 2707 3136 
Q 2707 2861 2582 2669 
Q 2458 2477 2237 2374 
Q 2016 2272 1728 2272 
L 813 2272 
L 813 1792 
L 1728 1792 
Q 2163 1792 2505 1955 
Q 2848 2118 3049 2422 
Q 3251 2726 3251 3136 
Q 3251 3552 3049 3853 
Q 2848 4154 2505 4317 
Q 2163 4480 1728 4480 
L 813 4480 
L 813 4000 
z
" transform="scale(0.015625)"/>
     </defs>
     <use xlink:href="#Jost-Regular-50"/>
     <use xlink:href="#Jost-Regular-4f" transform="translate(54.799988 0)"/>
     <use xlink:href="#Jost-Regular-53" transform="translate(133.799973 0)"/>
     <use xlink:href="#Jost-Regular-43" transform="translate(188.59996 0)"/>
     <use xlink:href="#Jost-Regular-41" transform="translate(257.099945 0)"/>
     <use xlink:href="#Jost-Regular-52" transform="translate(323.09993 0)"/>
    </g>
    <!-- (ASE) -->
    <g transform="translate(179.689048 150.933125) scale(0.08 -0.08)">
     <use xlink:href="#Jost-Regular-28"/>
     <use xlink:href="#Jost-Regular-41" transform="translate(30.999985 0)"/>
     <use xlink:href="#Jost-Regular-53" transform="translate(96.999969 0)"/>
     <use xlink:href="#Jost-Regular-45" transform="translate(151.799957 0)"/>
     <use xlink:href="#Jost-Regular-29" transform="translate(206.799942 0)"/>
    </g>
   </g>
   <g id="PathCollection_6">
    <g clip-path="url(#p2ac93fa5fc)">
     <use xlink:href="#m0ced188ea9" x="297.908095" y="113.046667" style="fill: #f1db4b; stroke: #ffffff; stroke-width: 1.5"/>
    </g>
   </g>
   <g id="text_22">
    <!-- GRO -->
    <g transform="translate(305.908095 98.798667) scale(0.08 -0.08)">
     <defs>
      <path id="Jost-Regular-47" d="M 2592 1760 
L 4083 1760 
Q 4026 1498 3901 1267 
Q 3776 1037 3584 857 
Q 3392 678 3126 579 
Q 2861 480 2528 480 
Q 2054 480 1670 704 
Q 1286 928 1059 1325 
Q 832 1722 832 2240 
Q 832 2765 1059 3158 
Q 1286 3552 1670 3776 
Q 2054 4000 2528 4000 
Q 3040 4000 3417 3798 
Q 3795 3597 4006 3238 
L 4390 3590 
Q 4198 3904 3920 4115 
Q 3642 4326 3293 4435 
Q 2944 4544 2528 4544 
Q 2042 4544 1626 4374 
Q 1210 4205 902 3894 
Q 595 3584 425 3161 
Q 256 2739 256 2240 
Q 256 1741 425 1318 
Q 595 896 902 585 
Q 1210 275 1626 105 
Q 2042 -64 2528 -64 
Q 3040 -64 3440 125 
Q 3840 314 4115 640 
Q 4390 966 4531 1385 
Q 4672 1805 4672 2272 
L 2592 2272 
L 2592 1760 
z
" transform="scale(0.015625)"/>
     </defs>
     <use xlink:href="#Jost-Regular-47"/>
     <use xlink:href="#Jost-Regular-52" transform="translate(77.499985 0)"/>
     <use xlink:href="#Jost-Regular-4f" transform="translate(133.499969 0)"/>
    </g>
    <!-- (chemfiles) -->
    <g transform="translate(305.908095 108.046667) scale(0.08 -0.08)">
     <use xlink:href="#Jost-Regular-28"/>
     <use xlink:href="#Jost-Regular-63" transform="translate(30.999985 0)"/>
     <use xlink:href="#Jost-Regular-68" transform="translate(78.799973 0)"/>
     <use xlink:href="#Jost-Regular-65" transform="translate(131.299957 0)"/>
     <use xlink:href="#Jost-Regular-6d" transform="translate(182.799942 0)"/>
     <use xlink:href="#Jost-Regular-66" transform="translate(260.799927 0)"/>
     <use xlink:href="#Jost-Regular-69" transform="translate(289.399918 0)"/>
     <use xlink:href="#Jost-Regular-6c" transform="translate(315.399902 0)"/>
     <use xlink:href="#Jost-Regular-65" transform="translate(338.399887 0)"/>
     <use xlink:href="#Jost-Regular-73" transform="translate(389.899872 0)"/>
     <use xlink:href="#Jost-Regular-29" transform="translate(430.19986 0)"/>
    </g>
   </g>
   <g id="PathCollection_7">
    <g clip-path="url(#p2ac93fa5fc)">
     <use xlink:href="#m0ced188ea9" x="424.127143" y="130.20125" style="fill: #f1db4b; stroke: #ffffff; stroke-width: 1.5"/>
    </g>
   </g>
   <g id="text_23">
    <!-- LAMMPS -->
    <g transform="translate(432.127143 115.95325) scale(0.08 -0.08)">
     <defs>
      <path id="Jost-Regular-4c" d="M 512 4480 
L 512 0 
L 2816 0 
L 2816 512 
L 1056 512 
L 1056 4480 
L 512 4480 
z
" transform="scale(0.015625)"/>
      <path id="Jost-Regular-4d" d="M 1133 3027 
L 2592 416 
L 4051 3027 
L 4384 0 
L 4928 0 
L 4384 4704 
L 2592 1459 
L 800 4704 
L 256 0 
L 800 0 
L 1133 3027 
z
" transform="scale(0.015625)"/>
     </defs>
     <use xlink:href="#Jost-Regular-4c"/>
     <use xlink:href="#Jost-Regular-41" transform="translate(44.999985 0)"/>
     <use xlink:href="#Jost-Regular-4d" transform="translate(110.999969 0)"/>
     <use xlink:href="#Jost-Regular-4d" transform="translate(191.999954 0)"/>
     <use xlink:href="#Jost-Regular-50" transform="translate(272.999939 0)"/>
     <use xlink:href="#Jost-Regular-53" transform="translate(327.799927 0)"/>
    </g>
    <!-- (chemfiles) -->
    <g transform="translate(432.127143 125.20125) scale(0.08 -0.08)">
     <use xlink:href="#Jost-Regular-28"/>
     <use xlink:href="#Jost-Regular-63" transform="translate(30.999985 0)"/>
     <use xlink:href="#Jost-Regular-68" transform="translate(78.799973 0)"/>
     <use xlink:href="#Jost-Regular-65" transform="translate(131.299957 0)"/>
     <use xlink:href="#Jost-Regular-6d" transform="translate(182.799942 0)"/>
     <use xlink:href="#Jost-Regular-66" transform="translate(260.799927 0)"/>
     <use xlink:href="#Jost-Regular-69" transform="translate(289.399918 0)"/>
     <use xlink:href="#Jost-Regular-6c" transform="translate(315.399902 0)"/>
     <use xlink:href="#Jost-Regular-65" transform="translate(338.399887 0)"/>
     <use xlink:href="#Jost-Regular-73" transform="translate(389.899872 0)"/>
     <use xlink:href="#Jost-Regular-29" transform="translate(430.19986 0)"/>
    </g>
   </g>
   <g id="PathCollection_8">
    <defs>
     <path id="m64fa97e743" d="M 0 5.477226 
C 1.452577 5.477226 2.845856 4.900111 3.872983 3.872983 
C 4.900111 2.845856 5.477226 1.452577 5.477226 0 
C 5.477226 -1.452577 4.900111 -2.845856 3.872983 -3.872983 
C 2.845856 -4.900111 1.452577 -5.477226 0 -5.477226 
C -1.452577 -5.477226 -2.845856 -4.900111 -3.872983 -3.872983 
C -4.900111 -2.845856 -5.477226 -1.452577 -5.477226 0 
C -5.477226 1.452577 -4.900111 2.845856 -3.872983 3.872983 
C -2.845856 4.900111 -1.452577 5.477226 0 5.477226 
z
" style="stroke: #ffffff; stroke-width: 1.5"/>
    </defs>
    <g clip-path="url(#p2ac93fa5fc)">
     <use xlink:href="#m64fa97e743" x="234.798571" y="53.005625" style="fill: #9e9e9e; stroke: #ffffff; stroke-width: 1.5"/>
    </g>
   </g>
   <g id="text_24">
    <!-- DCD -->
    <g transform="translate(242.798571 38.757625) scale(0.08 -0.08)">
     <defs>
      <path id="Jost-Regular-44" d="M 512 4480 
L 512 0 
L 1056 0 
L 1056 4480 
L 512 4480 
z
M 1856 0 
Q 2509 0 3014 281 
Q 3520 563 3808 1065 
Q 4096 1568 4096 2240 
Q 4096 2912 3808 3414 
Q 3520 3917 3014 4198 
Q 2509 4480 1856 4480 
L 813 4480 
L 813 3936 
L 1856 3936 
Q 2234 3936 2547 3817 
Q 2861 3699 3085 3478 
Q 3309 3258 3430 2944 
Q 3552 2630 3552 2240 
Q 3552 1850 3430 1536 
Q 3309 1222 3085 1001 
Q 2861 781 2547 662 
Q 2234 544 1856 544 
L 813 544 
L 813 0 
L 1856 0 
z
" transform="scale(0.015625)"/>
     </defs>
     <use xlink:href="#Jost-Regular-44"/>
     <use xlink:href="#Jost-Regular-43" transform="translate(67.999985 0)"/>
     <use xlink:href="#Jost-Regular-44" transform="translate(136.499969 0)"/>
    </g>
    <!-- (MDAnalysis) -->
    <g transform="translate(242.798571 48.005625) scale(0.08 -0.08)">
     <use xlink:href="#Jost-Regular-28"/>
     <use xlink:href="#Jost-Regular-4d" transform="translate(30.999985 0)"/>
     <use xlink:href="#Jost-Regular-44" transform="translate(111.999969 0)"/>
     <use xlink:href="#Jost-Regular-41" transform="translate(179.999954 0)"/>
     <use xlink:href="#Jost-Regular-6e" transform="translate(245.999939 0)"/>
     <use xlink:href="#Jost-Regular-61" transform="translate(298.499924 0)"/>
     <use xlink:href="#Jost-Regular-6c" transform="translate(346.599915 0)"/>
     <use xlink:href="#Jost-Regular-79" transform="translate(369.599899 0)"/>
     <use xlink:href="#Jost-Regular-73" transform="translate(413.599884 0)"/>
     <use xlink:href="#Jost-Regular-69" transform="translate(453.899872 0)"/>
     <use xlink:href="#Jost-Regular-73" transform="translate(479.899857 0)"/>
     <use xlink:href="#Jost-Regular-29" transform="translate(520.199844 0)"/>
    </g>
   </g>
   <g id="PathCollection_9">
    <g clip-path="url(#p2ac93fa5fc)">
     <use xlink:href="#m0ced188ea9" x="297.908095" y="70.160208" style="fill: #f1db4b; stroke: #ffffff; stroke-width: 1.5"/>
    </g>
   </g>
   <g id="text_25">
    <!-- TRR -->
    <g transform="translate(305.908095 55.912208) scale(0.08 -0.08)">
     <defs>
      <path id="Jost-Regular-54" d="M 64 3968 
L 1216 3968 
L 1216 0 
L 1760 0 
L 1760 3968 
L 2912 3968 
L 2912 4480 
L 64 4480 
L 64 3968 
z
" transform="scale(0.015625)"/>
     </defs>
     <use xlink:href="#Jost-Regular-54"/>
     <use xlink:href="#Jost-Regular-52" transform="translate(46.499985 0)"/>
     <use xlink:href="#Jost-Regular-52" transform="translate(102.499969 0)"/>
    </g>
    <!-- (chemfiles) -->
    <g transform="translate(305.908095 65.160208) scale(0.08 -0.08)">
     <use xlink:href="#Jost-Regular-28"/>
     <use xlink:href="#Jost-Regular-63" transform="translate(30.999985 0)"/>
     <use xlink:href="#Jost-Regular-68" transform="translate(78.799973 0)"/>
     <use xlink:href="#Jost-Regular-65" transform="translate(131.299957 0)"/>
     <use xlink:href="#Jost-Regular-6d" transform="translate(182.799942 0)"/>
     <use xlink:href="#Jost-Regular-66" transform="translate(260.799927 0)"/>
     <use xlink:href="#Jost-Regular-69" transform="translate(289.399918 0)"/>
     <use xlink:href="#Jost-Regular-6c" transform="translate(315.399902 0)"/>
     <use xlink:href="#Jost-Regular-65" transform="translate(338.399887 0)"/>
     <use xlink:href="#Jost-Regular-73" transform="translate(389.899872 0)"/>
     <use xlink:href="#Jost-Regular-29" transform="translate(430.19986 0)"/>
    </g>
   </g>
   <g id="text_26">
    <!-- Ideal: -->
    <g style="fill: #004d40; opacity: 0.7" transform="translate(539.736034 342.806833) scale(0.09 -0.09)">
     <defs>
      <path id="Jost-Italic-49" d="M 1082 4480 
L 326 0 
L 851 0 
L 1626 4480 
L 1082 4480 
z
" transform="scale(0.015625)"/>
      <path id="Jost-Italic-64" d="M 3277 4992 
L 2438 0 
L 2931 0 
L 3795 4992 
L 3277 4992 
z
M 288 1472 
Q 230 1056 358 707 
Q 486 358 771 147 
Q 1056 -64 1472 -58 
Q 1760 -58 2006 60 
Q 2253 179 2441 390 
Q 2630 602 2752 880 
Q 2874 1158 2918 1472 
Q 2957 1766 2921 2041 
Q 2886 2317 2771 2534 
Q 2656 2752 2454 2880 
Q 2253 3008 1958 3008 
Q 1542 3014 1184 2809 
Q 826 2605 589 2256 
Q 352 1907 288 1472 
z
M 800 1472 
Q 851 1773 1017 2013 
Q 1184 2253 1433 2393 
Q 1683 2534 1971 2528 
Q 2157 2522 2304 2435 
Q 2451 2349 2544 2201 
Q 2637 2054 2675 1868 
Q 2714 1683 2688 1472 
Q 2650 1248 2544 1059 
Q 2438 870 2284 726 
Q 2131 582 1948 502 
Q 1766 422 1574 422 
Q 1293 422 1104 563 
Q 915 704 835 944 
Q 755 1184 800 1472 
z
" transform="scale(0.015625)"/>
      <path id="Jost-Italic-65" d="M 1523 -64 
Q 1997 -64 2355 147 
Q 2714 358 2944 685 
L 2541 947 
Q 2381 717 2134 566 
Q 1888 416 1587 416 
Q 1318 416 1145 528 
Q 973 640 889 845 
Q 806 1050 806 1312 
Q 806 1562 886 1789 
Q 966 2016 1113 2189 
Q 1261 2362 1462 2461 
Q 1664 2560 1907 2560 
Q 2144 2560 2297 2470 
Q 2451 2381 2531 2217 
Q 2611 2054 2611 1824 
Q 2611 1734 2585 1648 
Q 2560 1562 2528 1485 
L 2726 1779 
L 614 1779 
L 614 1344 
L 3066 1344 
Q 3091 1395 3113 1510 
Q 3136 1626 3136 1722 
Q 3136 2144 2989 2429 
Q 2842 2714 2576 2861 
Q 2310 3008 1939 3008 
Q 1587 3008 1289 2867 
Q 992 2726 768 2486 
Q 544 2246 422 1936 
Q 301 1626 301 1280 
Q 301 858 454 557 
Q 608 256 883 96 
Q 1158 -64 1523 -64 
z
" transform="scale(0.015625)"/>
      <path id="Jost-Italic-61" d="M 2963 2944 
L 2470 0 
L 2938 0 
L 3450 2944 
L 2963 2944 
z
M 288 1472 
Q 230 1056 358 707 
Q 486 358 771 147 
Q 1056 -64 1472 -58 
Q 1760 -58 2006 60 
Q 2253 179 2441 390 
Q 2630 602 2752 880 
Q 2874 1158 2918 1472 
Q 2957 1766 2921 2041 
Q 2886 2317 2771 2534 
Q 2656 2752 2454 2880 
Q 2253 3008 1958 3008 
Q 1542 3014 1184 2809 
Q 826 2605 589 2256 
Q 352 1907 288 1472 
z
M 800 1472 
Q 851 1773 1017 2013 
Q 1184 2253 1433 2393 
Q 1683 2534 1971 2528 
Q 2157 2522 2304 2435 
Q 2451 2349 2544 2201 
Q 2637 2054 2675 1868 
Q 2714 1683 2688 1472 
Q 2650 1248 2544 1059 
Q 2438 870 2284 726 
Q 2131 582 1948 502 
Q 1766 422 1574 422 
Q 1293 422 1104 563 
Q 915 704 835 944 
Q 755 1184 800 1472 
z
" transform="scale(0.015625)"/>
      <path id="Jost-Italic-6c" d="M 1139 4992 
L 294 0 
L 787 0 
L 1651 4992 
L 1139 4992 
z
" transform="scale(0.015625)"/>
      <path id="Jost-Italic-3a" d="M 454 256 
Q 454 115 556 12 
Q 659 -90 800 -90 
Q 947 -90 1049 12 
Q 1152 115 1152 256 
Q 1152 403 1049 505 
Q 947 608 800 608 
Q 659 608 556 505 
Q 454 403 454 256 
z
M 870 2688 
Q 870 2547 972 2444 
Q 1075 2342 1216 2342 
Q 1363 2342 1465 2444 
Q 1568 2547 1568 2688 
Q 1568 2835 1465 2937 
Q 1363 3040 1216 3040 
Q 1075 3040 972 2937 
Q 870 2835 870 2688 
z
" transform="scale(0.015625)"/>
     </defs>
     <use xlink:href="#Jost-Italic-49"/>
     <use xlink:href="#Jost-Italic-64" transform="translate(23.799988 0)"/>
     <use xlink:href="#Jost-Italic-65" transform="translate(79.099976 0)"/>
     <use xlink:href="#Jost-Italic-61" transform="translate(129.09996 0)"/>
     <use xlink:href="#Jost-Italic-6c" transform="translate(184.399948 0)"/>
     <use xlink:href="#Jost-Italic-3a" transform="translate(206.699936 0)"/>
    </g>
    <!-- fast + feature-rich -->
    <g style="fill: #004d40; opacity: 0.7" transform="translate(517.397753 353.210833) scale(0.09 -0.09)">
     <defs>
      <path id="Jost-Italic-66" d="M 576 2944 
L 486 2464 
L 1926 2464 
L 2016 2944 
L 576 2944 
z
M 2214 4384 
L 2554 4794 
Q 2464 4896 2339 4973 
Q 2214 5050 2029 5056 
Q 1747 5062 1539 4928 
Q 1331 4794 1206 4563 
Q 1082 4333 1037 4038 
L 346 0 
L 858 0 
L 1536 3968 
Q 1555 4128 1606 4259 
Q 1658 4390 1741 4467 
Q 1824 4544 1946 4550 
Q 2022 4550 2089 4508 
Q 2157 4467 2214 4384 
z
" transform="scale(0.015625)"/>
      <path id="Jost-Italic-73" d="M 614 890 
L 198 653 
Q 282 480 442 313 
Q 602 147 835 41 
Q 1069 -64 1363 -64 
Q 1664 -64 1894 61 
Q 2125 186 2256 397 
Q 2387 608 2387 864 
Q 2387 1126 2275 1289 
Q 2163 1453 1977 1561 
Q 1792 1670 1574 1766 
Q 1427 1830 1312 1894 
Q 1197 1958 1126 2041 
Q 1056 2125 1056 2246 
Q 1056 2394 1174 2483 
Q 1293 2573 1491 2573 
Q 1696 2573 1865 2457 
Q 2035 2342 2157 2182 
L 2534 2438 
Q 2400 2682 2137 2845 
Q 1875 3008 1523 3008 
Q 1286 3008 1065 2915 
Q 845 2822 704 2640 
Q 563 2458 563 2182 
Q 563 1939 678 1782 
Q 794 1626 966 1526 
Q 1139 1427 1306 1363 
Q 1440 1306 1574 1232 
Q 1709 1158 1798 1052 
Q 1888 947 1888 806 
Q 1888 634 1753 515 
Q 1619 397 1402 397 
Q 1222 397 1075 464 
Q 928 531 816 643 
Q 704 755 614 890 
z
" transform="scale(0.015625)"/>
      <path id="Jost-Italic-74" d="M 371 2944 
L 282 2464 
L 1722 2464 
L 1805 2944 
L 371 2944 
z
M 992 3968 
L 326 0 
L 819 0 
L 1510 3968 
L 992 3968 
z
" transform="scale(0.015625)"/>
      <path id="Jost-Italic-20" transform="scale(0.015625)"/>
      <path id="Jost-Italic-2b" d="M 467 1382 
L 3488 1376 
L 3578 1888 
L 550 1888 
L 467 1382 
z
M 2010 3200 
L 1485 70 
L 2010 64 
L 2560 3200 
L 2010 3200 
z
" transform="scale(0.015625)"/>
      <path id="Jost-Italic-75" d="M 986 1152 
L 1293 2944 
L 800 2944 
L 474 1088 
Q 429 781 499 518 
Q 570 256 765 99 
Q 960 -58 1280 -58 
Q 1574 -58 1798 73 
Q 2022 205 2189 448 
L 2118 0 
L 2624 0 
L 3136 2944 
L 2624 2944 
L 2304 1126 
Q 2272 928 2153 768 
Q 2035 608 1852 515 
Q 1670 422 1453 422 
Q 1242 422 1133 521 
Q 1024 621 992 787 
Q 960 954 986 1152 
z
" transform="scale(0.015625)"/>
      <path id="Jost-Italic-72" d="M 1299 2944 
L 794 2944 
L 282 0 
L 794 0 
L 1299 2944 
z
M 2074 2387 
L 2413 2797 
Q 2298 2899 2173 2953 
Q 2048 3008 1894 3008 
Q 1632 3002 1421 2822 
Q 1210 2643 1062 2368 
Q 915 2093 864 1798 
L 1101 1798 
Q 1133 1978 1203 2147 
Q 1274 2317 1398 2425 
Q 1523 2534 1715 2528 
Q 1824 2528 1904 2489 
Q 1984 2451 2074 2387 
z
" transform="scale(0.015625)"/>
      <path id="Jost-Italic-2d" d="M 77 1286 
L 1331 1286 
L 1414 1760 
L 160 1760 
L 77 1286 
z
" transform="scale(0.015625)"/>
      <path id="Jost-Italic-69" d="M 998 4160 
Q 998 4019 1100 3916 
Q 1203 3814 1344 3814 
Q 1491 3814 1593 3916 
Q 1696 4019 1696 4160 
Q 1696 4307 1593 4409 
Q 1491 4512 1344 4512 
Q 1203 4512 1100 4409 
Q 998 4307 998 4160 
z
M 877 2944 
L 390 0 
L 896 0 
L 1395 2944 
L 877 2944 
z
" transform="scale(0.015625)"/>
      <path id="Jost-Italic-63" d="M 813 1472 
Q 858 1760 1018 2000 
Q 1178 2240 1424 2381 
Q 1670 2522 1965 2528 
Q 2285 2528 2525 2377 
Q 2765 2227 2867 1990 
L 2957 2630 
Q 2790 2816 2537 2912 
Q 2285 3008 2003 3008 
Q 1568 3002 1203 2797 
Q 838 2592 598 2246 
Q 358 1901 301 1472 
Q 243 1062 387 713 
Q 531 365 832 153 
Q 1133 -58 1562 -58 
Q 1862 -58 2134 41 
Q 2406 141 2605 314 
L 2694 947 
Q 2522 736 2234 576 
Q 1946 416 1606 422 
Q 1318 422 1126 572 
Q 934 723 851 960 
Q 768 1197 813 1472 
z
" transform="scale(0.015625)"/>
      <path id="Jost-Italic-68" d="M 1651 4992 
L 1146 4992 
L 288 0 
L 794 0 
L 1651 4992 
z
M 2432 1792 
L 2125 0 
L 2624 0 
L 2944 1856 
Q 2982 2176 2908 2438 
Q 2835 2701 2646 2854 
Q 2458 3008 2138 3008 
Q 1811 3008 1561 2835 
Q 1312 2662 1152 2387 
Q 992 2112 928 1798 
L 1101 1798 
Q 1152 1990 1270 2160 
Q 1389 2330 1565 2429 
Q 1741 2528 1965 2528 
Q 2176 2522 2285 2422 
Q 2394 2323 2426 2156 
Q 2458 1990 2432 1792 
z
" transform="scale(0.015625)"/>
     </defs>
     <use xlink:href="#Jost-Italic-66"/>
     <use xlink:href="#Jost-Italic-61" transform="translate(27.799988 0)"/>
     <use xlink:href="#Jost-Italic-73" transform="translate(83.099976 0)"/>
     <use xlink:href="#Jost-Italic-74" transform="translate(122.199966 0)"/>
     <use xlink:href="#Jost-Italic-20" transform="translate(145.499954 0)"/>
     <use xlink:href="#Jost-Italic-2b" transform="translate(175.599945 0)"/>
     <use xlink:href="#Jost-Italic-20" transform="translate(235.299942 0)"/>
     <use xlink:href="#Jost-Italic-66" transform="translate(265.399933 0)"/>
     <use xlink:href="#Jost-Italic-65" transform="translate(293.199921 0)"/>
     <use xlink:href="#Jost-Italic-61" transform="translate(343.199905 0)"/>
     <use xlink:href="#Jost-Italic-74" transform="translate(398.499893 0)"/>
     <use xlink:href="#Jost-Italic-75" transform="translate(421.799881 0)"/>
     <use xlink:href="#Jost-Italic-72" transform="translate(472.699875 0)"/>
     <use xlink:href="#Jost-Italic-65" transform="translate(505.999863 0)"/>
     <use xlink:href="#Jost-Italic-2d" transform="translate(555.999847 0)"/>
     <use xlink:href="#Jost-Italic-72" transform="translate(576.399841 0)"/>
     <use xlink:href="#Jost-Italic-69" transform="translate(609.699829 0)"/>
     <use xlink:href="#Jost-Italic-63" transform="translate(634.899826 0)"/>
     <use xlink:href="#Jost-Italic-68" transform="translate(681.29982 0)"/>
    </g>
   </g>
   <g id="text_27">
    <!-- Fast but -->
    <g style="fill: #9e9e9e; opacity: 0.7" transform="translate(93.919368 42.4835) scale(0.09 -0.09)">
     <defs>
      <path id="Jost-Italic-46" d="M 1299 3968 
L 3251 3968 
L 3334 4480 
L 1382 4480 
L 1299 3968 
z
M 992 2182 
L 2880 2176 
L 2970 2688 
L 1075 2688 
L 992 2182 
z
M 1082 4480 
L 326 0 
L 851 0 
L 1626 4480 
L 1082 4480 
z
" transform="scale(0.015625)"/>
      <path id="Jost-Italic-62" d="M 1619 4992 
L 1114 4992 
L 256 0 
L 762 0 
L 1619 4992 
z
M 3405 1472 
Q 3462 1888 3334 2237 
Q 3206 2586 2924 2797 
Q 2643 3008 2227 3008 
Q 1933 3002 1686 2883 
Q 1440 2765 1251 2553 
Q 1062 2342 944 2064 
Q 826 1786 781 1472 
Q 742 1178 777 902 
Q 813 627 928 409 
Q 1043 192 1244 64 
Q 1446 -64 1741 -64 
Q 2157 -64 2512 137 
Q 2867 339 3104 688 
Q 3341 1037 3405 1472 
z
M 2899 1472 
Q 2848 1171 2678 931 
Q 2509 691 2259 553 
Q 2010 416 1728 422 
Q 1536 422 1392 508 
Q 1248 595 1152 742 
Q 1056 890 1021 1075 
Q 986 1261 1011 1472 
Q 1043 1696 1148 1885 
Q 1254 2074 1408 2218 
Q 1562 2362 1747 2445 
Q 1933 2528 2125 2528 
Q 2406 2528 2595 2384 
Q 2784 2240 2861 2000 
Q 2938 1760 2899 1472 
z
" transform="scale(0.015625)"/>
     </defs>
     <use xlink:href="#Jost-Italic-46"/>
     <use xlink:href="#Jost-Italic-61" transform="translate(48.499985 0)"/>
     <use xlink:href="#Jost-Italic-73" transform="translate(103.799973 0)"/>
     <use xlink:href="#Jost-Italic-74" transform="translate(142.899963 0)"/>
     <use xlink:href="#Jost-Italic-20" transform="translate(166.199951 0)"/>
     <use xlink:href="#Jost-Italic-62" transform="translate(196.299942 0)"/>
     <use xlink:href="#Jost-Italic-75" transform="translate(251.59993 0)"/>
     <use xlink:href="#Jost-Italic-74" transform="translate(302.499924 0)"/>
    </g>
    <!-- feature-poor -->
    <g style="fill: #9e9e9e; opacity: 0.7" transform="translate(85.827805 53.005625) scale(0.09 -0.09)">
     <defs>
      <path id="Jost-Italic-70" d="M 531 -1402 
L 1261 2944 
L 768 2944 
L 13 -1408 
L 531 -1402 
z
M 3405 1472 
Q 3462 1888 3334 2237 
Q 3206 2586 2924 2797 
Q 2643 3008 2227 3008 
Q 1933 3002 1686 2883 
Q 1440 2765 1251 2553 
Q 1062 2342 944 2064 
Q 826 1786 781 1472 
Q 742 1178 777 902 
Q 813 627 928 409 
Q 1043 192 1244 64 
Q 1446 -64 1741 -64 
Q 2157 -64 2512 137 
Q 2867 339 3104 688 
Q 3341 1037 3405 1472 
z
M 2899 1472 
Q 2848 1171 2678 931 
Q 2509 691 2259 553 
Q 2010 416 1728 422 
Q 1536 422 1392 508 
Q 1248 595 1152 742 
Q 1056 890 1021 1075 
Q 986 1261 1011 1472 
Q 1043 1696 1148 1885 
Q 1254 2074 1408 2218 
Q 1562 2362 1747 2445 
Q 1933 2528 2125 2528 
Q 2406 2528 2595 2384 
Q 2784 2240 2861 2000 
Q 2938 1760 2899 1472 
z
" transform="scale(0.015625)"/>
      <path id="Jost-Italic-6f" d="M 333 1472 
Q 275 1062 419 713 
Q 563 365 864 153 
Q 1165 -58 1594 -58 
Q 2029 -58 2393 147 
Q 2758 352 2998 701 
Q 3238 1050 3296 1472 
Q 3354 1882 3210 2230 
Q 3066 2579 2762 2793 
Q 2458 3008 2035 3008 
Q 1600 3008 1235 2800 
Q 870 2592 630 2243 
Q 390 1894 333 1472 
z
M 838 1472 
Q 883 1760 1046 2000 
Q 1210 2240 1456 2384 
Q 1702 2528 1990 2528 
Q 2278 2522 2470 2371 
Q 2662 2221 2745 1984 
Q 2829 1747 2790 1472 
Q 2746 1184 2579 944 
Q 2413 704 2169 560 
Q 1926 416 1632 422 
Q 1344 422 1152 572 
Q 960 723 880 963 
Q 800 1203 838 1472 
z
" transform="scale(0.015625)"/>
     </defs>
     <use xlink:href="#Jost-Italic-66"/>
     <use xlink:href="#Jost-Italic-65" transform="translate(27.799988 0)"/>
     <use xlink:href="#Jost-Italic-61" transform="translate(77.799973 0)"/>
     <use xlink:href="#Jost-Italic-74" transform="translate(133.09996 0)"/>
     <use xlink:href="#Jost-Italic-75" transform="translate(156.399948 0)"/>
     <use xlink:href="#Jost-Italic-72" transform="translate(207.299942 0)"/>
     <use xlink:href="#Jost-Italic-65" transform="translate(240.59993 0)"/>
     <use xlink:href="#Jost-Italic-2d" transform="translate(290.599915 0)"/>
     <use xlink:href="#Jost-Italic-70" transform="translate(310.999908 0)"/>
     <use xlink:href="#Jost-Italic-6f" transform="translate(366.299896 0)"/>
     <use xlink:href="#Jost-Italic-6f" transform="translate(419.299881 0)"/>
     <use xlink:href="#Jost-Italic-72" transform="translate(472.299866 0)"/>
    </g>
   </g>
   <g id="text_28">
    <!-- Feature coverage vs parsing performance -->
    <g transform="translate(271.295313 21.27375) scale(0.12 -0.12)">
     <defs>
      <path id="Jost-Regular-67" d="M 282 -192 
Q 282 -570 467 -861 
Q 653 -1152 982 -1312 
Q 1312 -1472 1741 -1472 
Q 2112 -1472 2445 -1299 
Q 2778 -1126 2989 -784 
Q 3200 -442 3200 64 
L 3200 2944 
L 2688 2944 
L 2688 64 
Q 2688 -307 2544 -540 
Q 2400 -774 2182 -883 
Q 1965 -992 1741 -992 
Q 1453 -992 1241 -880 
Q 1030 -768 915 -585 
Q 800 -403 800 -192 
L 282 -192 
z
M 224 1472 
Q 224 998 422 652 
Q 621 307 953 121 
Q 1286 -64 1683 -64 
Q 2054 -64 2329 121 
Q 2605 307 2761 652 
Q 2918 998 2918 1472 
Q 2918 1952 2761 2294 
Q 2605 2637 2329 2822 
Q 2054 3008 1683 3008 
Q 1286 3008 953 2822 
Q 621 2637 422 2294 
Q 224 1952 224 1472 
z
M 742 1472 
Q 742 1811 880 2048 
Q 1018 2285 1248 2406 
Q 1478 2528 1747 2528 
Q 1914 2528 2080 2457 
Q 2246 2387 2384 2252 
Q 2522 2118 2605 1923 
Q 2688 1728 2688 1472 
Q 2688 1133 2547 896 
Q 2406 659 2188 537 
Q 1971 416 1747 416 
Q 1478 416 1248 537 
Q 1018 659 880 896 
Q 742 1133 742 1472 
z
" transform="scale(0.015625)"/>
     </defs>
     <use xlink:href="#Jost-Regular-46"/>
     <use xlink:href="#Jost-Regular-65" transform="translate(49.999985 0)"/>
     <use xlink:href="#Jost-Regular-61" transform="translate(101.499969 0)"/>
     <use xlink:href="#Jost-Regular-74" transform="translate(149.59996 0)"/>
     <use xlink:href="#Jost-Regular-75" transform="translate(173.599945 0)"/>
     <use xlink:href="#Jost-Regular-72" transform="translate(226.09993 0)"/>
     <use xlink:href="#Jost-Regular-65" transform="translate(260.399918 0)"/>
     <use xlink:href="#Jost-Regular-20" transform="translate(311.899902 0)"/>
     <use xlink:href="#Jost-Regular-63" transform="translate(341.899887 0)"/>
     <use xlink:href="#Jost-Regular-6f" transform="translate(389.699875 0)"/>
     <use xlink:href="#Jost-Regular-76" transform="translate(444.299866 0)"/>
     <use xlink:href="#Jost-Regular-65" transform="translate(488.29985 0)"/>
     <use xlink:href="#Jost-Regular-72" transform="translate(539.799835 0)"/>
     <use xlink:href="#Jost-Regular-61" transform="translate(574.099823 0)"/>
     <use xlink:href="#Jost-Regular-67" transform="translate(622.199814 0)"/>
     <use xlink:href="#Jost-Regular-65" transform="translate(679.199799 0)"/>
     <use xlink:href="#Jost-Regular-20" transform="translate(730.699783 0)"/>
     <use xlink:href="#Jost-Regular-76" transform="translate(760.699768 0)"/>
     <use xlink:href="#Jost-Regular-73" transform="translate(804.699753 0)"/>
     <use xlink:href="#Jost-Regular-20" transform="translate(844.999741 0)"/>
     <use xlink:href="#Jost-Regular-70" transform="translate(874.999725 0)"/>
     <use xlink:href="#Jost-Regular-61" transform="translate(931.99971 0)"/>
     <use xlink:href="#Jost-Regular-72" transform="translate(980.099701 0)"/>
     <use xlink:href="#Jost-Regular-73" transform="translate(1014.399689 0)"/>
     <use xlink:href="#Jost-Regular-69" transform="translate(1054.699677 0)"/>
     <use xlink:href="#Jost-Regular-6e" transform="translate(1080.699661 0)"/>
     <use xlink:href="#Jost-Regular-67" transform="translate(1133.199646 0)"/>
     <use xlink:href="#Jost-Regular-20" transform="translate(1190.199631 0)"/>
     <use xlink:href="#Jost-Regular-70" transform="translate(1220.199615 0)"/>
     <use xlink:href="#Jost-Regular-65" transform="translate(1277.1996 0)"/>
     <use xlink:href="#Jost-Regular-72" transform="translate(1328.699585 0)"/>
     <use xlink:href="#Jost-Regular-66" transform="translate(1362.999573 0)"/>
     <use xlink:href="#Jost-Regular-6f" transform="translate(1391.599564 0)"/>
     <use xlink:href="#Jost-Regular-72" transform="translate(1446.199554 0)"/>
     <use xlink:href="#Jost-Regular-6d" transform="translate(1480.499542 0)"/>
     <use xlink:href="#Jost-Regular-61" transform="translate(1558.499527 0)"/>
     <use xlink:href="#Jost-Regular-6e" transform="translate(1606.599518 0)"/>
     <use xlink:href="#Jost-Regular-63" transform="translate(1659.099503 0)"/>
     <use xlink:href="#Jost-Regular-65" transform="translate(1706.89949 0)"/>
    </g>
   </g>
  </g>
 </g>
 <defs>
  <clipPath id="p2ac93fa5fc">
   <rect x="45.47" y="27.27375" width="662.65" height="360.24625"/>
  </clipPath>
 </defs>
</svg>
