<?xml version="1.0" encoding="utf-8" standalone="no"?>
<!DOCTYPE svg PUBLIC "-//W3C//DTD SVG 1.1//EN"
  "http://www.w3.org/Graphics/SVG/1.1/DTD/svg11.dtd">
<svg xmlns:xlink="http://www.w3.org/1999/xlink" width="602.64pt" height="336.240859pt" viewBox="0 0 602.64 336.240859" xmlns="http://www.w3.org/2000/svg" version="1.1">
 <metadata>
  <rdf:RDF xmlns:dc="http://purl.org/dc/elements/1.1/" xmlns:cc="http://creativecommons.org/ns#" xmlns:rdf="http://www.w3.org/1999/02/22-rdf-syntax-ns#">
   <cc:Work>
    <dc:type rdf:resource="http://purl.org/dc/dcmitype/StillImage"/>
    <dc:date>2026-06-26T12:17:26.043502</dc:date>
    <dc:format>image/svg+xml</dc:format>
    <dc:creator>
     <cc:Agent>
      <dc:title>Matplotlib v3.11.0, https://matplotlib.org/</dc:title>
     </cc:Agent>
    </dc:creator>
   </cc:Work>
  </rdf:RDF>
 </metadata>
 <defs>
  <style type="text/css">*{stroke-linejoin: round; stroke-linecap: butt}</style>
 </defs>
 <g id="figure_1">
  <g id="patch_1">
   <path d="M 0 336.240859 
L 602.64 336.240859 
L 602.64 0 
L 0 0 
z
" style="fill: #ffffff"/>
  </g>
  <g id="axes_1">
   <g id="patch_2">
    <path d="M 34.25904 94.329158 
L 333.08496 94.329158 
Q 337.79088 94.329158 337.79088 90.22939 
L 337.79088 50.256655 
Q 337.79088 46.156887 333.08496 46.156887 
L 34.25904 46.156887 
Q 29.55312 46.156887 29.55312 50.256655 
L 29.55312 90.22939 
Q 29.55312 94.329158 34.25904 94.329158 
z
" clip-path="url(#p414a35d923)" style="fill: #312e81"/>
   </g>
   <g id="patch_3">
    <path d="M 34.25904 150.700964 
L 333.08496 150.700964 
Q 337.79088 150.700964 337.79088 146.601196 
L 337.79088 106.628461 
Q 337.79088 102.528693 333.08496 102.528693 
L 34.25904 102.528693 
Q 29.55312 102.528693 29.55312 106.628461 
L 29.55312 146.601196 
Q 29.55312 150.700964 34.25904 150.700964 
z
" clip-path="url(#p414a35d923)" style="fill: #4338ca"/>
   </g>
   <g id="patch_4">
    <path d="M 34.25904 207.07277 
L 333.08496 207.07277 
Q 337.79088 207.07277 337.79088 202.973002 
L 337.79088 163.000267 
Q 337.79088 158.900499 333.08496 158.900499 
L 34.25904 158.900499 
Q 29.55312 158.900499 29.55312 163.000267 
L 29.55312 202.973002 
Q 29.55312 207.07277 34.25904 207.07277 
z
" clip-path="url(#p414a35d923)" style="fill: #4f46e5"/>
   </g>
   <g id="patch_5">
    <path d="M 34.25904 263.444576 
L 333.08496 263.444576 
Q 337.79088 263.444576 337.79088 259.344808 
L 337.79088 219.372073 
Q 337.79088 215.272305 333.08496 215.272305 
L 34.25904 215.272305 
Q 29.55312 215.272305 29.55312 219.372073 
L 29.55312 259.344808 
Q 29.55312 263.444576 34.25904 263.444576 
z
" clip-path="url(#p414a35d923)" style="fill: #6366f1"/>
   </g>
   <g id="patch_6">
    <path d="M 34.25904 319.816382 
L 333.08496 319.816382 
Q 337.79088 319.816382 337.79088 315.716614 
L 337.79088 275.743879 
Q 337.79088 271.644111 333.08496 271.644111 
L 34.25904 271.644111 
Q 29.55312 271.644111 29.55312 275.743879 
L 29.55312 315.716614 
Q 29.55312 319.816382 34.25904 319.816382 
z
" clip-path="url(#p414a35d923)" style="fill: #818cf8"/>
   </g>
   <g id="patch_7">
    <path d="M 485.002017 330.27057 
C 488.421604 330.27057 491.701595 329.086952 494.119608 326.980394 
C 496.537621 324.873836 497.896238 322.016329 497.896238 319.037207 
C 497.896238 316.058084 496.537621 313.200577 494.119608 311.094019 
C 491.701595 308.987461 488.421604 307.803843 485.002017 307.803843 
C 481.58243 307.803843 478.30244 308.987461 475.884426 311.094019 
C 473.466413 313.200577 472.107796 316.058084 472.107796 319.037207 
C 472.107796 322.016329 473.466413 324.873836 475.884426 326.980394 
C 478.30244 329.086952 481.58243 330.27057 485.002017 330.27057 
z
" clip-path="url(#p414a35d923)" style="fill: #c88033; stroke: #604010; stroke-width: 0.7; stroke-linejoin: miter"/>
   </g>
   <g id="patch_8">
    <path d="M 538.190471 280.221703 
C 541.610058 280.221703 544.890048 279.038085 547.308062 276.931527 
C 549.726075 274.824969 551.084691 271.967462 551.084691 268.988339 
C 551.084691 266.009216 549.726075 263.15171 547.308062 261.045152 
C 544.890048 258.938594 541.610058 257.754976 538.190471 257.754976 
C 534.770883 257.754976 531.490893 258.938594 529.07288 261.045152 
C 526.654866 263.15171 525.29625 266.009216 525.29625 268.988339 
C 525.29625 271.967462 526.654866 274.824969 529.07288 276.931527 
C 531.490893 279.038085 534.770883 280.221703 538.190471 280.221703 
z
" clip-path="url(#p414a35d923)" style="fill: #c88033; stroke: #604010; stroke-width: 0.7; stroke-linejoin: miter"/>
   </g>
   <g id="text_1">
    <!-- 1 · header / seed / optional JSON metadata (spec v2) -->
    <g style="fill: #ffffff" transform="translate(42.4944 72.581265) scale(0.09 -0.09)">
     <defs>
      <path id="DejaVuSans-Bold-14" d="M 750 831 
L 1813 831 
L 1813 3847 
L 722 3622 
L 722 4441 
L 1806 4666 
L 2950 4666 
L 2950 831 
L 4013 831 
L 4013 0 
L 750 0 
L 750 831 
z
" transform="scale(0.015625)"/>
      <path id="DejaVuSans-Bold-3" transform="scale(0.015625)"/>
      <path id="DejaVuSans-Bold-79" d="M 653 2828 
L 1778 2828 
L 1778 1619 
L 653 1619 
L 653 2828 
z
" transform="scale(0.015625)"/>
      <path id="DejaVuSans-Bold-4b" d="M 4056 2131 
L 4056 0 
L 2931 0 
L 2931 347 
L 2931 1625 
Q 2931 2084 2911 2256 
Q 2891 2428 2841 2509 
Q 2775 2619 2662 2680 
Q 2550 2741 2406 2741 
Q 2056 2741 1856 2470 
Q 1656 2200 1656 1722 
L 1656 0 
L 538 0 
L 538 4863 
L 1656 4863 
L 1656 2988 
Q 1909 3294 2193 3439 
Q 2478 3584 2822 3584 
Q 3428 3584 3742 3212 
Q 4056 2841 4056 2131 
z
" transform="scale(0.015625)"/>
      <path id="DejaVuSans-Bold-48" d="M 4031 1759 
L 4031 1441 
L 1416 1441 
Q 1456 1047 1700 850 
Q 1944 653 2381 653 
Q 2734 653 3104 758 
Q 3475 863 3866 1075 
L 3866 213 
Q 3469 63 3072 -14 
Q 2675 -91 2278 -91 
Q 1328 -91 801 392 
Q 275 875 275 1747 
Q 275 2603 792 3093 
Q 1309 3584 2216 3584 
Q 3041 3584 3536 3087 
Q 4031 2591 4031 1759 
z
M 2881 2131 
Q 2881 2450 2695 2645 
Q 2509 2841 2209 2841 
Q 1884 2841 1681 2658 
Q 1478 2475 1428 2131 
L 2881 2131 
z
" transform="scale(0.015625)"/>
      <path id="DejaVuSans-Bold-44" d="M 2106 1575 
Q 1756 1575 1579 1456 
Q 1403 1338 1403 1106 
Q 1403 894 1545 773 
Q 1688 653 1941 653 
Q 2256 653 2472 879 
Q 2688 1106 2688 1447 
L 2688 1575 
L 2106 1575 
z
M 3816 1997 
L 3816 0 
L 2688 0 
L 2688 519 
Q 2463 200 2181 54 
Q 1900 -91 1497 -91 
Q 953 -91 614 226 
Q 275 544 275 1050 
Q 275 1666 698 1953 
Q 1122 2241 2028 2241 
L 2688 2241 
L 2688 2328 
Q 2688 2594 2478 2717 
Q 2269 2841 1825 2841 
Q 1466 2841 1156 2769 
Q 847 2697 581 2553 
L 581 3406 
Q 941 3494 1303 3539 
Q 1666 3584 2028 3584 
Q 2975 3584 3395 3211 
Q 3816 2838 3816 1997 
z
" transform="scale(0.015625)"/>
      <path id="DejaVuSans-Bold-47" d="M 2919 2988 
L 2919 4863 
L 4044 4863 
L 4044 0 
L 2919 0 
L 2919 506 
Q 2688 197 2409 53 
Q 2131 -91 1766 -91 
Q 1119 -91 703 423 
Q 288 938 288 1747 
Q 288 2556 703 3070 
Q 1119 3584 1766 3584 
Q 2128 3584 2408 3439 
Q 2688 3294 2919 2988 
z
M 2181 722 
Q 2541 722 2730 984 
Q 2919 1247 2919 1747 
Q 2919 2247 2730 2509 
Q 2541 2772 2181 2772 
Q 1825 2772 1636 2509 
Q 1447 2247 1447 1747 
Q 1447 1247 1636 984 
Q 1825 722 2181 722 
z
" transform="scale(0.015625)"/>
      <path id="DejaVuSans-Bold-55" d="M 3138 2547 
Q 2991 2616 2845 2648 
Q 2700 2681 2553 2681 
Q 2122 2681 1889 2404 
Q 1656 2128 1656 1613 
L 1656 0 
L 538 0 
L 538 3500 
L 1656 3500 
L 1656 2925 
Q 1872 3269 2151 3426 
Q 2431 3584 2822 3584 
Q 2878 3584 2943 3579 
Q 3009 3575 3134 3559 
L 3138 2547 
z
" transform="scale(0.015625)"/>
      <path id="DejaVuSans-Bold-12" d="M 1644 4666 
L 2338 4666 
L 691 -594 
L 0 -594 
L 1644 4666 
z
" transform="scale(0.015625)"/>
      <path id="DejaVuSans-Bold-56" d="M 3272 3391 
L 3272 2541 
Q 2913 2691 2578 2766 
Q 2244 2841 1947 2841 
Q 1628 2841 1473 2761 
Q 1319 2681 1319 2516 
Q 1319 2381 1436 2309 
Q 1553 2238 1856 2203 
L 2053 2175 
Q 2913 2066 3209 1816 
Q 3506 1566 3506 1031 
Q 3506 472 3093 190 
Q 2681 -91 1863 -91 
Q 1516 -91 1145 -36 
Q 775 19 384 128 
L 384 978 
Q 719 816 1070 734 
Q 1422 653 1784 653 
Q 2113 653 2278 743 
Q 2444 834 2444 1013 
Q 2444 1163 2330 1236 
Q 2216 1309 1875 1350 
L 1678 1375 
Q 931 1469 631 1722 
Q 331 1975 331 2491 
Q 331 3047 712 3315 
Q 1094 3584 1881 3584 
Q 2191 3584 2531 3537 
Q 2872 3491 3272 3391 
z
" transform="scale(0.015625)"/>
      <path id="DejaVuSans-Bold-52" d="M 2203 2784 
Q 1831 2784 1636 2517 
Q 1441 2250 1441 1747 
Q 1441 1244 1636 976 
Q 1831 709 2203 709 
Q 2569 709 2762 976 
Q 2956 1244 2956 1747 
Q 2956 2250 2762 2517 
Q 2569 2784 2203 2784 
z
M 2203 3584 
Q 3106 3584 3614 3096 
Q 4122 2609 4122 1747 
Q 4122 884 3614 396 
Q 3106 -91 2203 -91 
Q 1297 -91 786 396 
Q 275 884 275 1747 
Q 275 2609 786 3096 
Q 1297 3584 2203 3584 
z
" transform="scale(0.015625)"/>
      <path id="DejaVuSans-Bold-53" d="M 1656 506 
L 1656 -1331 
L 538 -1331 
L 538 3500 
L 1656 3500 
L 1656 2988 
Q 1888 3294 2169 3439 
Q 2450 3584 2816 3584 
Q 3463 3584 3878 3070 
Q 4294 2556 4294 1747 
Q 4294 938 3878 423 
Q 3463 -91 2816 -91 
Q 2450 -91 2169 54 
Q 1888 200 1656 506 
z
M 2400 2772 
Q 2041 2772 1848 2508 
Q 1656 2244 1656 1747 
Q 1656 1250 1848 986 
Q 2041 722 2400 722 
Q 2759 722 2948 984 
Q 3138 1247 3138 1747 
Q 3138 2247 2948 2509 
Q 2759 2772 2400 2772 
z
" transform="scale(0.015625)"/>
      <path id="DejaVuSans-Bold-57" d="M 1759 4494 
L 1759 3500 
L 2913 3500 
L 2913 2700 
L 1759 2700 
L 1759 1216 
Q 1759 972 1856 886 
Q 1953 800 2241 800 
L 2816 800 
L 2816 0 
L 1856 0 
Q 1194 0 917 276 
Q 641 553 641 1216 
L 641 2700 
L 84 2700 
L 84 3500 
L 641 3500 
L 641 4494 
L 1759 4494 
z
" transform="scale(0.015625)"/>
      <path id="DejaVuSans-Bold-4c" d="M 538 3500 
L 1656 3500 
L 1656 0 
L 538 0 
L 538 3500 
z
M 538 4863 
L 1656 4863 
L 1656 3950 
L 538 3950 
L 538 4863 
z
" transform="scale(0.015625)"/>
      <path id="DejaVuSans-Bold-51" d="M 4056 2131 
L 4056 0 
L 2931 0 
L 2931 347 
L 2931 1631 
Q 2931 2084 2911 2256 
Q 2891 2428 2841 2509 
Q 2775 2619 2662 2680 
Q 2550 2741 2406 2741 
Q 2056 2741 1856 2470 
Q 1656 2200 1656 1722 
L 1656 0 
L 538 0 
L 538 3500 
L 1656 3500 
L 1656 2988 
Q 1909 3294 2193 3439 
Q 2478 3584 2822 3584 
Q 3428 3584 3742 3212 
Q 4056 2841 4056 2131 
z
" transform="scale(0.015625)"/>
      <path id="DejaVuSans-Bold-4f" d="M 538 4863 
L 1656 4863 
L 1656 0 
L 538 0 
L 538 4863 
z
" transform="scale(0.015625)"/>
      <path id="DejaVuSans-Bold-2d" d="M 588 4666 
L 1791 4666 
L 1791 453 
Q 1791 -419 1317 -850 
Q 844 -1281 -116 -1281 
L -359 -1281 
L -359 -372 
L -172 -372 
Q 203 -372 395 -162 
Q 588 47 588 453 
L 588 4666 
z
" transform="scale(0.015625)"/>
      <path id="DejaVuSans-Bold-36" d="M 3834 4519 
L 3834 3531 
Q 3450 3703 3084 3790 
Q 2719 3878 2394 3878 
Q 1963 3878 1756 3759 
Q 1550 3641 1550 3391 
Q 1550 3203 1689 3098 
Q 1828 2994 2194 2919 
L 2706 2816 
Q 3484 2659 3812 2340 
Q 4141 2022 4141 1434 
Q 4141 663 3683 286 
Q 3225 -91 2284 -91 
Q 1841 -91 1394 -6 
Q 947 78 500 244 
L 500 1259 
Q 947 1022 1364 901 
Q 1781 781 2169 781 
Q 2563 781 2772 912 
Q 2981 1044 2981 1288 
Q 2981 1506 2839 1625 
Q 2697 1744 2272 1838 
L 1806 1941 
Q 1106 2091 782 2419 
Q 459 2747 459 3303 
Q 459 4000 909 4375 
Q 1359 4750 2203 4750 
Q 2588 4750 2994 4692 
Q 3400 4634 3834 4519 
z
" transform="scale(0.015625)"/>
      <path id="DejaVuSans-Bold-32" d="M 2719 3878 
Q 2169 3878 1866 3472 
Q 1563 3066 1563 2328 
Q 1563 1594 1866 1187 
Q 2169 781 2719 781 
Q 3272 781 3575 1187 
Q 3878 1594 3878 2328 
Q 3878 3066 3575 3472 
Q 3272 3878 2719 3878 
z
M 2719 4750 
Q 3844 4750 4481 4106 
Q 5119 3463 5119 2328 
Q 5119 1197 4481 553 
Q 3844 -91 2719 -91 
Q 1597 -91 958 553 
Q 319 1197 319 2328 
Q 319 3463 958 4106 
Q 1597 4750 2719 4750 
z
" transform="scale(0.015625)"/>
      <path id="DejaVuSans-Bold-31" d="M 588 4666 
L 1931 4666 
L 3628 1466 
L 3628 4666 
L 4769 4666 
L 4769 0 
L 3425 0 
L 1728 3200 
L 1728 0 
L 588 0 
L 588 4666 
z
" transform="scale(0.015625)"/>
      <path id="DejaVuSans-Bold-50" d="M 3781 2919 
Q 3994 3244 4286 3414 
Q 4578 3584 4928 3584 
Q 5531 3584 5847 3212 
Q 6163 2841 6163 2131 
L 6163 0 
L 5038 0 
L 5038 1825 
Q 5041 1866 5042 1909 
Q 5044 1953 5044 2034 
Q 5044 2406 4934 2573 
Q 4825 2741 4581 2741 
Q 4263 2741 4089 2478 
Q 3916 2216 3909 1719 
L 3909 0 
L 2784 0 
L 2784 1825 
Q 2784 2406 2684 2573 
Q 2584 2741 2328 2741 
Q 2006 2741 1831 2477 
Q 1656 2213 1656 1722 
L 1656 0 
L 531 0 
L 531 3500 
L 1656 3500 
L 1656 2988 
Q 1863 3284 2130 3434 
Q 2397 3584 2719 3584 
Q 3081 3584 3359 3409 
Q 3638 3234 3781 2919 
z
" transform="scale(0.015625)"/>
      <path id="DejaVuSans-Bold-b" d="M 2413 -844 
L 1484 -844 
Q 1006 -72 778 623 
Q 550 1319 550 2003 
Q 550 2688 779 3389 
Q 1009 4091 1484 4856 
L 2413 4856 
Q 2013 4116 1813 3408 
Q 1613 2700 1613 2009 
Q 1613 1319 1811 609 
Q 2009 -100 2413 -844 
z
" transform="scale(0.015625)"/>
      <path id="DejaVuSans-Bold-46" d="M 3366 3391 
L 3366 2478 
Q 3138 2634 2908 2709 
Q 2678 2784 2431 2784 
Q 1963 2784 1702 2511 
Q 1441 2238 1441 1747 
Q 1441 1256 1702 982 
Q 1963 709 2431 709 
Q 2694 709 2930 787 
Q 3166 866 3366 1019 
L 3366 103 
Q 3103 6 2833 -42 
Q 2563 -91 2291 -91 
Q 1344 -91 809 395 
Q 275 881 275 1747 
Q 275 2613 809 3098 
Q 1344 3584 2291 3584 
Q 2566 3584 2833 3536 
Q 3100 3488 3366 3391 
z
" transform="scale(0.015625)"/>
      <path id="DejaVuSans-Bold-59" d="M 97 3500 
L 1216 3500 
L 2088 1081 
L 2956 3500 
L 4078 3500 
L 2700 0 
L 1472 0 
L 97 3500 
z
" transform="scale(0.015625)"/>
      <path id="DejaVuSans-Bold-15" d="M 1844 884 
L 3897 884 
L 3897 0 
L 506 0 
L 506 884 
L 2209 2388 
Q 2438 2594 2547 2791 
Q 2656 2988 2656 3200 
Q 2656 3528 2436 3728 
Q 2216 3928 1850 3928 
Q 1569 3928 1234 3808 
Q 900 3688 519 3450 
L 519 4475 
Q 925 4609 1322 4679 
Q 1719 4750 2100 4750 
Q 2938 4750 3402 4381 
Q 3866 4013 3866 3353 
Q 3866 2972 3669 2642 
Q 3472 2313 2841 1759 
L 1844 884 
z
" transform="scale(0.015625)"/>
      <path id="DejaVuSans-Bold-c" d="M 513 -844 
Q 913 -100 1113 609 
Q 1313 1319 1313 2009 
Q 1313 2700 1113 3408 
Q 913 4116 513 4856 
L 1441 4856 
Q 1916 4091 2145 3389 
Q 2375 2688 2375 2003 
Q 2375 1319 2147 623 
Q 1919 -72 1441 -844 
L 513 -844 
z
" transform="scale(0.015625)"/>
     </defs>
     <use xlink:href="#DejaVuSans-Bold-14"/>
     <use xlink:href="#DejaVuSans-Bold-3" transform="translate(69.578125 0)"/>
     <use xlink:href="#DejaVuSans-Bold-79" transform="translate(104.390625 0)"/>
     <use xlink:href="#DejaVuSans-Bold-3" transform="translate(142.375 0)"/>
     <use xlink:href="#DejaVuSans-Bold-4b" transform="translate(177.1875 0)"/>
     <use xlink:href="#DejaVuSans-Bold-48" transform="translate(248.375 0)"/>
     <use xlink:href="#DejaVuSans-Bold-44" transform="translate(316.203125 0)"/>
     <use xlink:href="#DejaVuSans-Bold-47" transform="translate(383.6875 0)"/>
     <use xlink:href="#DejaVuSans-Bold-48" transform="translate(455.265625 0)"/>
     <use xlink:href="#DejaVuSans-Bold-55" transform="translate(523.09375 0)"/>
     <use xlink:href="#DejaVuSans-Bold-3" transform="translate(572.40625 0)"/>
     <use xlink:href="#DejaVuSans-Bold-12" transform="translate(607.21875 0)"/>
     <use xlink:href="#DejaVuSans-Bold-3" transform="translate(643.75 0)"/>
     <use xlink:href="#DejaVuSans-Bold-56" transform="translate(678.5625 0)"/>
     <use xlink:href="#DejaVuSans-Bold-48" transform="translate(738.078125 0)"/>
     <use xlink:href="#DejaVuSans-Bold-48" transform="translate(805.90625 0)"/>
     <use xlink:href="#DejaVuSans-Bold-47" transform="translate(873.734375 0)"/>
     <use xlink:href="#DejaVuSans-Bold-3" transform="translate(945.3125 0)"/>
     <use xlink:href="#DejaVuSans-Bold-12" transform="translate(980.125 0)"/>
     <use xlink:href="#DejaVuSans-Bold-3" transform="translate(1016.65625 0)"/>
     <use xlink:href="#DejaVuSans-Bold-52" transform="translate(1051.46875 0)"/>
     <use xlink:href="#DejaVuSans-Bold-53" transform="translate(1120.171875 0)"/>
     <use xlink:href="#DejaVuSans-Bold-57" transform="translate(1191.75 0)"/>
     <use xlink:href="#DejaVuSans-Bold-4c" transform="translate(1239.546875 0)"/>
     <use xlink:href="#DejaVuSans-Bold-52" transform="translate(1273.828125 0)"/>
     <use xlink:href="#DejaVuSans-Bold-51" transform="translate(1342.53125 0)"/>
     <use xlink:href="#DejaVuSans-Bold-44" transform="translate(1413.71875 0)"/>
     <use xlink:href="#DejaVuSans-Bold-4f" transform="translate(1481.203125 0)"/>
     <use xlink:href="#DejaVuSans-Bold-3" transform="translate(1515.484375 0)"/>
     <use xlink:href="#DejaVuSans-Bold-2d" transform="translate(1550.296875 0)"/>
     <use xlink:href="#DejaVuSans-Bold-36" transform="translate(1587.5 0)"/>
     <use xlink:href="#DejaVuSans-Bold-32" transform="translate(1659.515625 0)"/>
     <use xlink:href="#DejaVuSans-Bold-31" transform="translate(1744.53125 0)"/>
     <use xlink:href="#DejaVuSans-Bold-3" transform="translate(1828.21875 0)"/>
     <use xlink:href="#DejaVuSans-Bold-50" transform="translate(1863.03125 0)"/>
     <use xlink:href="#DejaVuSans-Bold-48" transform="translate(1967.234375 0)"/>
     <use xlink:href="#DejaVuSans-Bold-57" transform="translate(2035.0625 0)"/>
     <use xlink:href="#DejaVuSans-Bold-44" transform="translate(2082.859375 0)"/>
     <use xlink:href="#DejaVuSans-Bold-47" transform="translate(2150.34375 0)"/>
     <use xlink:href="#DejaVuSans-Bold-44" transform="translate(2221.921875 0)"/>
     <use xlink:href="#DejaVuSans-Bold-57" transform="translate(2289.40625 0)"/>
     <use xlink:href="#DejaVuSans-Bold-44" transform="translate(2337.203125 0)"/>
     <use xlink:href="#DejaVuSans-Bold-3" transform="translate(2404.6875 0)"/>
     <use xlink:href="#DejaVuSans-Bold-b" transform="translate(2439.5 0)"/>
     <use xlink:href="#DejaVuSans-Bold-56" transform="translate(2485.203125 0)"/>
     <use xlink:href="#DejaVuSans-Bold-53" transform="translate(2544.71875 0)"/>
     <use xlink:href="#DejaVuSans-Bold-48" transform="translate(2616.296875 0)"/>
     <use xlink:href="#DejaVuSans-Bold-46" transform="translate(2684.125 0)"/>
     <use xlink:href="#DejaVuSans-Bold-3" transform="translate(2743.40625 0)"/>
     <use xlink:href="#DejaVuSans-Bold-59" transform="translate(2778.21875 0)"/>
     <use xlink:href="#DejaVuSans-Bold-15" transform="translate(2843.40625 0)"/>
     <use xlink:href="#DejaVuSans-Bold-c" transform="translate(2912.984375 0)"/>
    </g>
   </g>
   <g id="text_2">
    <!-- 2 · cell vectors + angles -->
    <g style="fill: #ffffff" transform="translate(42.4944 128.953071) scale(0.09 -0.09)">
     <defs>
      <path id="DejaVuSans-Bold-e" d="M 3053 4013 
L 3053 2375 
L 4684 2375 
L 4684 1638 
L 3053 1638 
L 3053 0 
L 2309 0 
L 2309 1638 
L 678 1638 
L 678 2375 
L 2309 2375 
L 2309 4013 
L 3053 4013 
z
" transform="scale(0.015625)"/>
      <path id="DejaVuSans-Bold-4a" d="M 2919 594 
Q 2688 288 2409 144 
Q 2131 0 1766 0 
Q 1125 0 706 504 
Q 288 1009 288 1791 
Q 288 2575 706 3076 
Q 1125 3578 1766 3578 
Q 2131 3578 2409 3434 
Q 2688 3291 2919 2981 
L 2919 3500 
L 4044 3500 
L 4044 353 
Q 4044 -491 3511 -936 
Q 2978 -1381 1966 -1381 
Q 1638 -1381 1331 -1331 
Q 1025 -1281 716 -1178 
L 716 -306 
Q 1009 -475 1290 -558 
Q 1572 -641 1856 -641 
Q 2406 -641 2662 -400 
Q 2919 -159 2919 353 
L 2919 594 
z
M 2181 2772 
Q 1834 2772 1640 2515 
Q 1447 2259 1447 1791 
Q 1447 1309 1634 1061 
Q 1822 813 2181 813 
Q 2531 813 2725 1069 
Q 2919 1325 2919 1791 
Q 2919 2259 2725 2515 
Q 2531 2772 2181 2772 
z
" transform="scale(0.015625)"/>
     </defs>
     <use xlink:href="#DejaVuSans-Bold-15"/>
     <use xlink:href="#DejaVuSans-Bold-3" transform="translate(69.578125 0)"/>
     <use xlink:href="#DejaVuSans-Bold-79" transform="translate(104.390625 0)"/>
     <use xlink:href="#DejaVuSans-Bold-3" transform="translate(142.375 0)"/>
     <use xlink:href="#DejaVuSans-Bold-46" transform="translate(177.1875 0)"/>
     <use xlink:href="#DejaVuSans-Bold-48" transform="translate(236.46875 0)"/>
     <use xlink:href="#DejaVuSans-Bold-4f" transform="translate(304.296875 0)"/>
     <use xlink:href="#DejaVuSans-Bold-4f" transform="translate(338.578125 0)"/>
     <use xlink:href="#DejaVuSans-Bold-3" transform="translate(372.859375 0)"/>
     <use xlink:href="#DejaVuSans-Bold-59" transform="translate(407.671875 0)"/>
     <use xlink:href="#DejaVuSans-Bold-48" transform="translate(472.859375 0)"/>
     <use xlink:href="#DejaVuSans-Bold-46" transform="translate(540.6875 0)"/>
     <use xlink:href="#DejaVuSans-Bold-57" transform="translate(599.96875 0)"/>
     <use xlink:href="#DejaVuSans-Bold-52" transform="translate(647.765625 0)"/>
     <use xlink:href="#DejaVuSans-Bold-55" transform="translate(716.46875 0)"/>
     <use xlink:href="#DejaVuSans-Bold-56" transform="translate(765.78125 0)"/>
     <use xlink:href="#DejaVuSans-Bold-3" transform="translate(825.296875 0)"/>
     <use xlink:href="#DejaVuSans-Bold-e" transform="translate(860.109375 0)"/>
     <use xlink:href="#DejaVuSans-Bold-3" transform="translate(943.90625 0)"/>
     <use xlink:href="#DejaVuSans-Bold-44" transform="translate(978.71875 0)"/>
     <use xlink:href="#DejaVuSans-Bold-51" transform="translate(1046.203125 0)"/>
     <use xlink:href="#DejaVuSans-Bold-4a" transform="translate(1117.390625 0)"/>
     <use xlink:href="#DejaVuSans-Bold-4f" transform="translate(1188.96875 0)"/>
     <use xlink:href="#DejaVuSans-Bold-48" transform="translate(1223.25 0)"/>
     <use xlink:href="#DejaVuSans-Bold-56" transform="translate(1291.078125 0)"/>
    </g>
   </g>
   <g id="text_3">
    <!-- 3 · component masses + element blocks -->
    <g style="fill: #ffffff" transform="translate(42.4944 185.324877) scale(0.09 -0.09)">
     <defs>
      <path id="DejaVuSans-Bold-16" d="M 2981 2516 
Q 3453 2394 3698 2092 
Q 3944 1791 3944 1325 
Q 3944 631 3412 270 
Q 2881 -91 1863 -91 
Q 1503 -91 1142 -33 
Q 781 25 428 141 
L 428 1069 
Q 766 900 1098 814 
Q 1431 728 1753 728 
Q 2231 728 2486 893 
Q 2741 1059 2741 1369 
Q 2741 1688 2480 1852 
Q 2219 2016 1709 2016 
L 1228 2016 
L 1228 2791 
L 1734 2791 
Q 2188 2791 2409 2933 
Q 2631 3075 2631 3366 
Q 2631 3634 2415 3781 
Q 2200 3928 1806 3928 
Q 1516 3928 1219 3862 
Q 922 3797 628 3669 
L 628 4550 
Q 984 4650 1334 4700 
Q 1684 4750 2022 4750 
Q 2931 4750 3382 4451 
Q 3834 4153 3834 3553 
Q 3834 3144 3618 2883 
Q 3403 2622 2981 2516 
z
" transform="scale(0.015625)"/>
      <path id="DejaVuSans-Bold-45" d="M 2400 722 
Q 2759 722 2948 984 
Q 3138 1247 3138 1747 
Q 3138 2247 2948 2509 
Q 2759 2772 2400 2772 
Q 2041 2772 1848 2508 
Q 1656 2244 1656 1747 
Q 1656 1250 1848 986 
Q 2041 722 2400 722 
z
M 1656 2988 
Q 1888 3294 2169 3439 
Q 2450 3584 2816 3584 
Q 3463 3584 3878 3070 
Q 4294 2556 4294 1747 
Q 4294 938 3878 423 
Q 3463 -91 2816 -91 
Q 2450 -91 2169 54 
Q 1888 200 1656 506 
L 1656 0 
L 538 0 
L 538 4863 
L 1656 4863 
L 1656 2988 
z
" transform="scale(0.015625)"/>
      <path id="DejaVuSans-Bold-4e" d="M 538 4863 
L 1656 4863 
L 1656 2216 
L 2944 3500 
L 4244 3500 
L 2534 1894 
L 4378 0 
L 3022 0 
L 1656 1459 
L 1656 0 
L 538 0 
L 538 4863 
z
" transform="scale(0.015625)"/>
     </defs>
     <use xlink:href="#DejaVuSans-Bold-16"/>
     <use xlink:href="#DejaVuSans-Bold-3" transform="translate(69.578125 0)"/>
     <use xlink:href="#DejaVuSans-Bold-79" transform="translate(104.390625 0)"/>
     <use xlink:href="#DejaVuSans-Bold-3" transform="translate(142.375 0)"/>
     <use xlink:href="#DejaVuSans-Bold-46" transform="translate(177.1875 0)"/>
     <use xlink:href="#DejaVuSans-Bold-52" transform="translate(236.46875 0)"/>
     <use xlink:href="#DejaVuSans-Bold-50" transform="translate(305.171875 0)"/>
     <use xlink:href="#DejaVuSans-Bold-53" transform="translate(409.375 0)"/>
     <use xlink:href="#DejaVuSans-Bold-52" transform="translate(480.953125 0)"/>
     <use xlink:href="#DejaVuSans-Bold-51" transform="translate(549.65625 0)"/>
     <use xlink:href="#DejaVuSans-Bold-48" transform="translate(620.84375 0)"/>
     <use xlink:href="#DejaVuSans-Bold-51" transform="translate(688.671875 0)"/>
     <use xlink:href="#DejaVuSans-Bold-57" transform="translate(759.859375 0)"/>
     <use xlink:href="#DejaVuSans-Bold-3" transform="translate(807.65625 0)"/>
     <use xlink:href="#DejaVuSans-Bold-50" transform="translate(842.46875 0)"/>
     <use xlink:href="#DejaVuSans-Bold-44" transform="translate(946.671875 0)"/>
     <use xlink:href="#DejaVuSans-Bold-56" transform="translate(1014.15625 0)"/>
     <use xlink:href="#DejaVuSans-Bold-56" transform="translate(1073.671875 0)"/>
     <use xlink:href="#DejaVuSans-Bold-48" transform="translate(1133.1875 0)"/>
     <use xlink:href="#DejaVuSans-Bold-56" transform="translate(1201.015625 0)"/>
     <use xlink:href="#DejaVuSans-Bold-3" transform="translate(1260.53125 0)"/>
     <use xlink:href="#DejaVuSans-Bold-e" transform="translate(1295.34375 0)"/>
     <use xlink:href="#DejaVuSans-Bold-3" transform="translate(1379.140625 0)"/>
     <use xlink:href="#DejaVuSans-Bold-48" transform="translate(1413.953125 0)"/>
     <use xlink:href="#DejaVuSans-Bold-4f" transform="translate(1481.78125 0)"/>
     <use xlink:href="#DejaVuSans-Bold-48" transform="translate(1516.0625 0)"/>
     <use xlink:href="#DejaVuSans-Bold-50" transform="translate(1583.890625 0)"/>
     <use xlink:href="#DejaVuSans-Bold-48" transform="translate(1688.09375 0)"/>
     <use xlink:href="#DejaVuSans-Bold-51" transform="translate(1755.921875 0)"/>
     <use xlink:href="#DejaVuSans-Bold-57" transform="translate(1827.109375 0)"/>
     <use xlink:href="#DejaVuSans-Bold-3" transform="translate(1874.90625 0)"/>
     <use xlink:href="#DejaVuSans-Bold-45" transform="translate(1909.71875 0)"/>
     <use xlink:href="#DejaVuSans-Bold-4f" transform="translate(1981.296875 0)"/>
     <use xlink:href="#DejaVuSans-Bold-52" transform="translate(2015.578125 0)"/>
     <use xlink:href="#DejaVuSans-Bold-46" transform="translate(2084.28125 0)"/>
     <use xlink:href="#DejaVuSans-Bold-4e" transform="translate(2143.5625 0)"/>
     <use xlink:href="#DejaVuSans-Bold-56" transform="translate(2210.0625 0)"/>
    </g>
   </g>
   <g id="text_4">
    <!-- 4 · coordinates (fixed / free flags, atom_data index) -->
    <g style="fill: #ffffff" transform="translate(42.4944 241.696683) scale(0.09 -0.09)">
     <defs>
      <path id="DejaVuSans-Bold-17" d="M 2356 3675 
L 1038 1722 
L 2356 1722 
L 2356 3675 
z
M 2156 4666 
L 3494 4666 
L 3494 1722 
L 4159 1722 
L 4159 850 
L 3494 850 
L 3494 0 
L 2356 0 
L 2356 850 
L 288 850 
L 288 1881 
L 2156 4666 
z
" transform="scale(0.015625)"/>
      <path id="DejaVuSans-Bold-13ab" d="M 3078 4863 
L 4206 4863 
L 4206 3950 
L 3078 3950 
L 3078 4863 
z
M 2847 4863 
L 2847 4128 
L 2228 4128 
Q 1994 4128 1903 4042 
Q 1813 3956 1813 3744 
L 1813 3500 
L 4206 3500 
L 4206 0 
L 3078 0 
L 3078 2700 
L 1813 2700 
L 1813 0 
L 684 0 
L 684 2700 
L 134 2700 
L 134 3500 
L 684 3500 
L 684 3744 
Q 684 4316 1003 4589 
Q 1322 4863 1991 4863 
L 2847 4863 
z
" transform="scale(0.015625)"/>
      <path id="DejaVuSans-Bold-5b" d="M 1422 1791 
L 159 3500 
L 1344 3500 
L 2059 2463 
L 2784 3500 
L 3969 3500 
L 2706 1797 
L 4031 0 
L 2847 0 
L 2059 1106 
L 1281 0 
L 97 0 
L 1422 1791 
z
" transform="scale(0.015625)"/>
      <path id="DejaVuSans-Bold-49" d="M 2841 4863 
L 2841 4128 
L 2222 4128 
Q 1984 4128 1890 4042 
Q 1797 3956 1797 3744 
L 1797 3500 
L 2753 3500 
L 2753 2700 
L 1797 2700 
L 1797 0 
L 678 0 
L 678 2700 
L 122 2700 
L 122 3500 
L 678 3500 
L 678 3744 
Q 678 4316 997 4589 
Q 1316 4863 1984 4863 
L 2841 4863 
z
" transform="scale(0.015625)"/>
      <path id="DejaVuSans-Bold-13ac" d="M 1984 4863 
L 4206 4863 
L 4206 0 
L 3078 0 
L 3078 4128 
L 2222 4128 
Q 1984 4128 1890 4042 
Q 1797 3956 1797 3744 
L 1797 3500 
L 2675 3500 
L 2675 2700 
L 1797 2700 
L 1797 0 
L 678 0 
L 678 2700 
L 122 2700 
L 122 3500 
L 678 3500 
L 678 3744 
Q 678 4316 997 4589 
Q 1316 4863 1984 4863 
z
" transform="scale(0.015625)"/>
      <path id="DejaVuSans-Bold-f" d="M 653 1209 
L 1778 1209 
L 1778 256 
L 1006 -909 
L 341 -909 
L 653 256 
L 653 1209 
z
" transform="scale(0.015625)"/>
      <path id="DejaVuSans-Bold-42" d="M 3200 -916 
L 3200 -1509 
L 0 -1509 
L 0 -916 
L 3200 -916 
z
" transform="scale(0.015625)"/>
     </defs>
     <use xlink:href="#DejaVuSans-Bold-17"/>
     <use xlink:href="#DejaVuSans-Bold-3" transform="translate(69.578125 0)"/>
     <use xlink:href="#DejaVuSans-Bold-79" transform="translate(104.390625 0)"/>
     <use xlink:href="#DejaVuSans-Bold-3" transform="translate(142.375 0)"/>
     <use xlink:href="#DejaVuSans-Bold-46" transform="translate(177.1875 0)"/>
     <use xlink:href="#DejaVuSans-Bold-52" transform="translate(236.46875 0)"/>
     <use xlink:href="#DejaVuSans-Bold-52" transform="translate(305.171875 0)"/>
     <use xlink:href="#DejaVuSans-Bold-55" transform="translate(373.875 0)"/>
     <use xlink:href="#DejaVuSans-Bold-47" transform="translate(423.1875 0)"/>
     <use xlink:href="#DejaVuSans-Bold-4c" transform="translate(494.765625 0)"/>
     <use xlink:href="#DejaVuSans-Bold-51" transform="translate(529.046875 0)"/>
     <use xlink:href="#DejaVuSans-Bold-44" transform="translate(600.234375 0)"/>
     <use xlink:href="#DejaVuSans-Bold-57" transform="translate(667.71875 0)"/>
     <use xlink:href="#DejaVuSans-Bold-48" transform="translate(715.515625 0)"/>
     <use xlink:href="#DejaVuSans-Bold-56" transform="translate(783.34375 0)"/>
     <use xlink:href="#DejaVuSans-Bold-3" transform="translate(842.859375 0)"/>
     <use xlink:href="#DejaVuSans-Bold-b" transform="translate(877.671875 0)"/>
     <use xlink:href="#DejaVuSans-Bold-13ab" transform="translate(923.375 0)"/>
     <use xlink:href="#DejaVuSans-Bold-5b" transform="translate(997.5 0)"/>
     <use xlink:href="#DejaVuSans-Bold-48" transform="translate(1062 0)"/>
     <use xlink:href="#DejaVuSans-Bold-47" transform="translate(1129.828125 0)"/>
     <use xlink:href="#DejaVuSans-Bold-3" transform="translate(1201.40625 0)"/>
     <use xlink:href="#DejaVuSans-Bold-12" transform="translate(1236.21875 0)"/>
     <use xlink:href="#DejaVuSans-Bold-3" transform="translate(1272.75 0)"/>
     <use xlink:href="#DejaVuSans-Bold-49" transform="translate(1307.5625 0)"/>
     <use xlink:href="#DejaVuSans-Bold-55" transform="translate(1351.0625 0)"/>
     <use xlink:href="#DejaVuSans-Bold-48" transform="translate(1400.375 0)"/>
     <use xlink:href="#DejaVuSans-Bold-48" transform="translate(1468.203125 0)"/>
     <use xlink:href="#DejaVuSans-Bold-3" transform="translate(1536.03125 0)"/>
     <use xlink:href="#DejaVuSans-Bold-13ac" transform="translate(1570.84375 0)"/>
     <use xlink:href="#DejaVuSans-Bold-44" transform="translate(1644.96875 0)"/>
     <use xlink:href="#DejaVuSans-Bold-4a" transform="translate(1712.453125 0)"/>
     <use xlink:href="#DejaVuSans-Bold-56" transform="translate(1784.03125 0)"/>
     <use xlink:href="#DejaVuSans-Bold-f" transform="translate(1843.546875 0)"/>
     <use xlink:href="#DejaVuSans-Bold-3" transform="translate(1881.53125 0)"/>
     <use xlink:href="#DejaVuSans-Bold-44" transform="translate(1916.34375 0)"/>
     <use xlink:href="#DejaVuSans-Bold-57" transform="translate(1983.828125 0)"/>
     <use xlink:href="#DejaVuSans-Bold-52" transform="translate(2031.625 0)"/>
     <use xlink:href="#DejaVuSans-Bold-50" transform="translate(2100.328125 0)"/>
     <use xlink:href="#DejaVuSans-Bold-42" transform="translate(2204.53125 0)"/>
     <use xlink:href="#DejaVuSans-Bold-47" transform="translate(2254.53125 0)"/>
     <use xlink:href="#DejaVuSans-Bold-44" transform="translate(2326.109375 0)"/>
     <use xlink:href="#DejaVuSans-Bold-57" transform="translate(2393.59375 0)"/>
     <use xlink:href="#DejaVuSans-Bold-44" transform="translate(2441.390625 0)"/>
     <use xlink:href="#DejaVuSans-Bold-3" transform="translate(2508.875 0)"/>
     <use xlink:href="#DejaVuSans-Bold-4c" transform="translate(2543.6875 0)"/>
     <use xlink:href="#DejaVuSans-Bold-51" transform="translate(2577.96875 0)"/>
     <use xlink:href="#DejaVuSans-Bold-47" transform="translate(2649.15625 0)"/>
     <use xlink:href="#DejaVuSans-Bold-48" transform="translate(2720.734375 0)"/>
     <use xlink:href="#DejaVuSans-Bold-5b" transform="translate(2788.5625 0)"/>
     <use xlink:href="#DejaVuSans-Bold-c" transform="translate(2853.0625 0)"/>
    </g>
   </g>
   <g id="text_5">
    <!-- 5 · optional velocities / forces (convel, forces files) -->
    <g style="fill: #ffffff" transform="translate(42.4944 298.068489) scale(0.09 -0.09)">
     <defs>
      <path id="DejaVuSans-Bold-18" d="M 678 4666 
L 3669 4666 
L 3669 3781 
L 1638 3781 
L 1638 3059 
Q 1775 3097 1914 3117 
Q 2053 3138 2203 3138 
Q 3056 3138 3531 2711 
Q 4006 2284 4006 1522 
Q 4006 766 3489 337 
Q 2972 -91 2053 -91 
Q 1656 -91 1267 -14 
Q 878 63 494 219 
L 494 1166 
Q 875 947 1217 837 
Q 1559 728 1863 728 
Q 2300 728 2551 942 
Q 2803 1156 2803 1522 
Q 2803 1891 2551 2103 
Q 2300 2316 1863 2316 
Q 1603 2316 1309 2248 
Q 1016 2181 678 2041 
L 678 4666 
z
" transform="scale(0.015625)"/>
     </defs>
     <use xlink:href="#DejaVuSans-Bold-18"/>
     <use xlink:href="#DejaVuSans-Bold-3" transform="translate(69.578125 0)"/>
     <use xlink:href="#DejaVuSans-Bold-79" transform="translate(104.390625 0)"/>
     <use xlink:href="#DejaVuSans-Bold-3" transform="translate(142.375 0)"/>
     <use xlink:href="#DejaVuSans-Bold-52" transform="translate(177.1875 0)"/>
     <use xlink:href="#DejaVuSans-Bold-53" transform="translate(245.890625 0)"/>
     <use xlink:href="#DejaVuSans-Bold-57" transform="translate(317.46875 0)"/>
     <use xlink:href="#DejaVuSans-Bold-4c" transform="translate(365.265625 0)"/>
     <use xlink:href="#DejaVuSans-Bold-52" transform="translate(399.546875 0)"/>
     <use xlink:href="#DejaVuSans-Bold-51" transform="translate(468.25 0)"/>
     <use xlink:href="#DejaVuSans-Bold-44" transform="translate(539.4375 0)"/>
     <use xlink:href="#DejaVuSans-Bold-4f" transform="translate(606.921875 0)"/>
     <use xlink:href="#DejaVuSans-Bold-3" transform="translate(641.203125 0)"/>
     <use xlink:href="#DejaVuSans-Bold-59" transform="translate(676.015625 0)"/>
     <use xlink:href="#DejaVuSans-Bold-48" transform="translate(741.203125 0)"/>
     <use xlink:href="#DejaVuSans-Bold-4f" transform="translate(809.03125 0)"/>
     <use xlink:href="#DejaVuSans-Bold-52" transform="translate(843.3125 0)"/>
     <use xlink:href="#DejaVuSans-Bold-46" transform="translate(912.015625 0)"/>
     <use xlink:href="#DejaVuSans-Bold-4c" transform="translate(971.296875 0)"/>
     <use xlink:href="#DejaVuSans-Bold-57" transform="translate(1005.578125 0)"/>
     <use xlink:href="#DejaVuSans-Bold-4c" transform="translate(1053.375 0)"/>
     <use xlink:href="#DejaVuSans-Bold-48" transform="translate(1087.65625 0)"/>
     <use xlink:href="#DejaVuSans-Bold-56" transform="translate(1155.484375 0)"/>
     <use xlink:href="#DejaVuSans-Bold-3" transform="translate(1215 0)"/>
     <use xlink:href="#DejaVuSans-Bold-12" transform="translate(1249.8125 0)"/>
     <use xlink:href="#DejaVuSans-Bold-3" transform="translate(1286.34375 0)"/>
     <use xlink:href="#DejaVuSans-Bold-49" transform="translate(1321.15625 0)"/>
     <use xlink:href="#DejaVuSans-Bold-52" transform="translate(1364.65625 0)"/>
     <use xlink:href="#DejaVuSans-Bold-55" transform="translate(1433.359375 0)"/>
     <use xlink:href="#DejaVuSans-Bold-46" transform="translate(1482.671875 0)"/>
     <use xlink:href="#DejaVuSans-Bold-48" transform="translate(1541.953125 0)"/>
     <use xlink:href="#DejaVuSans-Bold-56" transform="translate(1609.78125 0)"/>
     <use xlink:href="#DejaVuSans-Bold-3" transform="translate(1669.296875 0)"/>
     <use xlink:href="#DejaVuSans-Bold-b" transform="translate(1704.109375 0)"/>
     <use xlink:href="#DejaVuSans-Bold-46" transform="translate(1749.8125 0)"/>
     <use xlink:href="#DejaVuSans-Bold-52" transform="translate(1809.09375 0)"/>
     <use xlink:href="#DejaVuSans-Bold-51" transform="translate(1877.796875 0)"/>
     <use xlink:href="#DejaVuSans-Bold-59" transform="translate(1948.984375 0)"/>
     <use xlink:href="#DejaVuSans-Bold-48" transform="translate(2014.171875 0)"/>
     <use xlink:href="#DejaVuSans-Bold-4f" transform="translate(2082 0)"/>
     <use xlink:href="#DejaVuSans-Bold-f" transform="translate(2116.28125 0)"/>
     <use xlink:href="#DejaVuSans-Bold-3" transform="translate(2154.265625 0)"/>
     <use xlink:href="#DejaVuSans-Bold-49" transform="translate(2189.078125 0)"/>
     <use xlink:href="#DejaVuSans-Bold-52" transform="translate(2232.578125 0)"/>
     <use xlink:href="#DejaVuSans-Bold-55" transform="translate(2301.28125 0)"/>
     <use xlink:href="#DejaVuSans-Bold-46" transform="translate(2350.59375 0)"/>
     <use xlink:href="#DejaVuSans-Bold-48" transform="translate(2409.875 0)"/>
     <use xlink:href="#DejaVuSans-Bold-56" transform="translate(2477.703125 0)"/>
     <use xlink:href="#DejaVuSans-Bold-3" transform="translate(2537.21875 0)"/>
     <use xlink:href="#DejaVuSans-Bold-13ab" transform="translate(2572.03125 0)"/>
     <use xlink:href="#DejaVuSans-Bold-4f" transform="translate(2646.15625 0)"/>
     <use xlink:href="#DejaVuSans-Bold-48" transform="translate(2680.4375 0)"/>
     <use xlink:href="#DejaVuSans-Bold-56" transform="translate(2748.265625 0)"/>
     <use xlink:href="#DejaVuSans-Bold-c" transform="translate(2807.78125 0)"/>
    </g>
   </g>
   <g id="line2d_1">
    <path d="M 485.002017 319.037207 
L 538.190471 268.988339 
" clip-path="url(#p414a35d923)" style="fill: none; stroke: #17634a; stroke-width: 2; stroke-linecap: square"/>
   </g>
   <g id="line2d_2">
    <path d="M 428.154843 69.842836 
L 412.761469 84.327576 
" clip-path="url(#p414a35d923)" style="fill: none; stroke: #032257; stroke-width: 2; stroke-linecap: square"/>
   </g>
   <g id="text_6">
    <!-- live geometry -->
    <g style="fill: #334155" transform="translate(427.085794 77.930087) scale(0.1 -0.1)">
     <defs>
      <path id="DejaVuSans-Bold-5c" d="M 78 3500 
L 1197 3500 
L 2138 1125 
L 2938 3500 
L 4056 3500 
L 2584 -331 
Q 2363 -916 2067 -1148 
Q 1772 -1381 1288 -1381 
L 641 -1381 
L 641 -647 
L 991 -647 
Q 1275 -647 1404 -556 
Q 1534 -466 1606 -231 
L 1638 -134 
L 78 3500 
z
" transform="scale(0.015625)"/>
     </defs>
     <use xlink:href="#DejaVuSans-Bold-4f"/>
     <use xlink:href="#DejaVuSans-Bold-4c" transform="translate(34.28125 0)"/>
     <use xlink:href="#DejaVuSans-Bold-59" transform="translate(68.5625 0)"/>
     <use xlink:href="#DejaVuSans-Bold-48" transform="translate(133.75 0)"/>
     <use xlink:href="#DejaVuSans-Bold-3" transform="translate(201.578125 0)"/>
     <use xlink:href="#DejaVuSans-Bold-4a" transform="translate(236.390625 0)"/>
     <use xlink:href="#DejaVuSans-Bold-48" transform="translate(307.96875 0)"/>
     <use xlink:href="#DejaVuSans-Bold-52" transform="translate(375.796875 0)"/>
     <use xlink:href="#DejaVuSans-Bold-50" transform="translate(444.5 0)"/>
     <use xlink:href="#DejaVuSans-Bold-48" transform="translate(548.703125 0)"/>
     <use xlink:href="#DejaVuSans-Bold-57" transform="translate(616.53125 0)"/>
     <use xlink:href="#DejaVuSans-Bold-55" transform="translate(664.328125 0)"/>
     <use xlink:href="#DejaVuSans-Bold-5c" transform="translate(713.640625 0)"/>
    </g>
   </g>
   <g id="text_7">
    <!-- atom_data order -->
    <g style="fill: #64748b" transform="translate(432.71595 284.212936) scale(0.08 -0.08)">
     <defs>
      <path id="DejaVuSans-44" d="M 2194 1759 
Q 1497 1759 1228 1600 
Q 959 1441 959 1056 
Q 959 750 1161 570 
Q 1363 391 1709 391 
Q 2188 391 2477 730 
Q 2766 1069 2766 1631 
L 2766 1759 
L 2194 1759 
z
M 3341 1997 
L 3341 0 
L 2766 0 
L 2766 531 
Q 2569 213 2275 61 
Q 1981 -91 1556 -91 
Q 1019 -91 701 211 
Q 384 513 384 1019 
Q 384 1609 779 1909 
Q 1175 2209 1959 2209 
L 2766 2209 
L 2766 2266 
Q 2766 2663 2505 2880 
Q 2244 3097 1772 3097 
Q 1472 3097 1187 3025 
Q 903 2953 641 2809 
L 641 3341 
Q 956 3463 1253 3523 
Q 1550 3584 1831 3584 
Q 2591 3584 2966 3190 
Q 3341 2797 3341 1997 
z
" transform="scale(0.015625)"/>
      <path id="DejaVuSans-57" d="M 1172 4494 
L 1172 3500 
L 2356 3500 
L 2356 3053 
L 1172 3053 
L 1172 1153 
Q 1172 725 1289 603 
Q 1406 481 1766 481 
L 2356 481 
L 2356 0 
L 1766 0 
Q 1100 0 847 248 
Q 594 497 594 1153 
L 594 3053 
L 172 3053 
L 172 3500 
L 594 3500 
L 594 4494 
L 1172 4494 
z
" transform="scale(0.015625)"/>
      <path id="DejaVuSans-52" d="M 1959 3097 
Q 1497 3097 1228 2736 
Q 959 2375 959 1747 
Q 959 1119 1226 758 
Q 1494 397 1959 397 
Q 2419 397 2687 759 
Q 2956 1122 2956 1747 
Q 2956 2369 2687 2733 
Q 2419 3097 1959 3097 
z
M 1959 3584 
Q 2709 3584 3137 3096 
Q 3566 2609 3566 1747 
Q 3566 888 3137 398 
Q 2709 -91 1959 -91 
Q 1206 -91 779 398 
Q 353 888 353 1747 
Q 353 2609 779 3096 
Q 1206 3584 1959 3584 
z
" transform="scale(0.015625)"/>
      <path id="DejaVuSans-50" d="M 3328 2828 
Q 3544 3216 3844 3400 
Q 4144 3584 4550 3584 
Q 5097 3584 5394 3201 
Q 5691 2819 5691 2113 
L 5691 0 
L 5113 0 
L 5113 2094 
Q 5113 2597 4934 2840 
Q 4756 3084 4391 3084 
Q 3944 3084 3684 2787 
Q 3425 2491 3425 1978 
L 3425 0 
L 2847 0 
L 2847 2094 
Q 2847 2600 2669 2842 
Q 2491 3084 2119 3084 
Q 1678 3084 1418 2786 
Q 1159 2488 1159 1978 
L 1159 0 
L 581 0 
L 581 3500 
L 1159 3500 
L 1159 2956 
Q 1356 3278 1631 3431 
Q 1906 3584 2284 3584 
Q 2666 3584 2933 3390 
Q 3200 3197 3328 2828 
z
" transform="scale(0.015625)"/>
      <path id="DejaVuSans-42" d="M 3263 -1063 
L 3263 -1509 
L -63 -1509 
L -63 -1063 
L 3263 -1063 
z
" transform="scale(0.015625)"/>
      <path id="DejaVuSans-47" d="M 2906 2969 
L 2906 4863 
L 3481 4863 
L 3481 0 
L 2906 0 
L 2906 525 
Q 2725 213 2448 61 
Q 2172 -91 1784 -91 
Q 1150 -91 751 415 
Q 353 922 353 1747 
Q 353 2572 751 3078 
Q 1150 3584 1784 3584 
Q 2172 3584 2448 3432 
Q 2725 3281 2906 2969 
z
M 947 1747 
Q 947 1113 1208 752 
Q 1469 391 1925 391 
Q 2381 391 2643 752 
Q 2906 1113 2906 1747 
Q 2906 2381 2643 2742 
Q 2381 3103 1925 3103 
Q 1469 3103 1208 2742 
Q 947 2381 947 1747 
z
" transform="scale(0.015625)"/>
      <path id="DejaVuSans-3" transform="scale(0.015625)"/>
      <path id="DejaVuSans-55" d="M 2631 2963 
Q 2534 3019 2420 3045 
Q 2306 3072 2169 3072 
Q 1681 3072 1420 2755 
Q 1159 2438 1159 1844 
L 1159 0 
L 581 0 
L 581 3500 
L 1159 3500 
L 1159 2956 
Q 1341 3275 1631 3429 
Q 1922 3584 2338 3584 
Q 2397 3584 2469 3576 
Q 2541 3569 2628 3553 
L 2631 2963 
z
" transform="scale(0.015625)"/>
      <path id="DejaVuSans-48" d="M 3597 1894 
L 3597 1613 
L 953 1613 
Q 991 1019 1311 708 
Q 1631 397 2203 397 
Q 2534 397 2845 478 
Q 3156 559 3463 722 
L 3463 178 
Q 3153 47 2828 -22 
Q 2503 -91 2169 -91 
Q 1331 -91 842 396 
Q 353 884 353 1716 
Q 353 2575 817 3079 
Q 1281 3584 2069 3584 
Q 2775 3584 3186 3129 
Q 3597 2675 3597 1894 
z
M 3022 2063 
Q 3016 2534 2758 2815 
Q 2500 3097 2075 3097 
Q 1594 3097 1305 2825 
Q 1016 2553 972 2059 
L 3022 2063 
z
" transform="scale(0.015625)"/>
     </defs>
     <use xlink:href="#DejaVuSans-44"/>
     <use xlink:href="#DejaVuSans-57" transform="translate(61.28125 0)"/>
     <use xlink:href="#DejaVuSans-52" transform="translate(100.484375 0)"/>
     <use xlink:href="#DejaVuSans-50" transform="translate(161.671875 0)"/>
     <use xlink:href="#DejaVuSans-42" transform="translate(259.078125 0)"/>
     <use xlink:href="#DejaVuSans-47" transform="translate(309.078125 0)"/>
     <use xlink:href="#DejaVuSans-44" transform="translate(372.5625 0)"/>
     <use xlink:href="#DejaVuSans-57" transform="translate(433.84375 0)"/>
     <use xlink:href="#DejaVuSans-44" transform="translate(473.046875 0)"/>
     <use xlink:href="#DejaVuSans-3" transform="translate(534.328125 0)"/>
     <use xlink:href="#DejaVuSans-52" transform="translate(566.109375 0)"/>
     <use xlink:href="#DejaVuSans-55" transform="translate(627.296875 0)"/>
     <use xlink:href="#DejaVuSans-47" transform="translate(666.65625 0)"/>
     <use xlink:href="#DejaVuSans-48" transform="translate(730.140625 0)"/>
     <use xlink:href="#DejaVuSans-55" transform="translate(791.671875 0)"/>
    </g>
    <!-- matches selection -->
    <g style="fill: #64748b" transform="translate(429.5822 293.815124) scale(0.08 -0.08)">
     <defs>
      <path id="DejaVuSans-46" d="M 3122 3366 
L 3122 2828 
Q 2878 2963 2633 3030 
Q 2388 3097 2138 3097 
Q 1578 3097 1268 2742 
Q 959 2388 959 1747 
Q 959 1106 1268 751 
Q 1578 397 2138 397 
Q 2388 397 2633 464 
Q 2878 531 3122 666 
L 3122 134 
Q 2881 22 2623 -34 
Q 2366 -91 2075 -91 
Q 1284 -91 818 406 
Q 353 903 353 1747 
Q 353 2603 823 3093 
Q 1294 3584 2113 3584 
Q 2378 3584 2631 3529 
Q 2884 3475 3122 3366 
z
" transform="scale(0.015625)"/>
      <path id="DejaVuSans-4b" d="M 3513 2113 
L 3513 0 
L 2938 0 
L 2938 2094 
Q 2938 2591 2744 2837 
Q 2550 3084 2163 3084 
Q 1697 3084 1428 2787 
Q 1159 2491 1159 1978 
L 1159 0 
L 581 0 
L 581 4863 
L 1159 4863 
L 1159 2956 
Q 1366 3272 1645 3428 
Q 1925 3584 2291 3584 
Q 2894 3584 3203 3211 
Q 3513 2838 3513 2113 
z
" transform="scale(0.015625)"/>
      <path id="DejaVuSans-56" d="M 2834 3397 
L 2834 2853 
Q 2591 2978 2328 3040 
Q 2066 3103 1784 3103 
Q 1356 3103 1142 2972 
Q 928 2841 928 2578 
Q 928 2378 1081 2264 
Q 1234 2150 1697 2047 
L 1894 2003 
Q 2506 1872 2764 1633 
Q 3022 1394 3022 966 
Q 3022 478 2636 193 
Q 2250 -91 1575 -91 
Q 1294 -91 989 -36 
Q 684 19 347 128 
L 347 722 
Q 666 556 975 473 
Q 1284 391 1588 391 
Q 1994 391 2212 530 
Q 2431 669 2431 922 
Q 2431 1156 2273 1281 
Q 2116 1406 1581 1522 
L 1381 1569 
Q 847 1681 609 1914 
Q 372 2147 372 2553 
Q 372 3047 722 3315 
Q 1072 3584 1716 3584 
Q 2034 3584 2315 3537 
Q 2597 3491 2834 3397 
z
" transform="scale(0.015625)"/>
      <path id="DejaVuSans-4f" d="M 603 4863 
L 1178 4863 
L 1178 0 
L 603 0 
L 603 4863 
z
" transform="scale(0.015625)"/>
      <path id="DejaVuSans-4c" d="M 603 3500 
L 1178 3500 
L 1178 0 
L 603 0 
L 603 3500 
z
M 603 4863 
L 1178 4863 
L 1178 4134 
L 603 4134 
L 603 4863 
z
" transform="scale(0.015625)"/>
      <path id="DejaVuSans-51" d="M 3513 2113 
L 3513 0 
L 2938 0 
L 2938 2094 
Q 2938 2591 2744 2837 
Q 2550 3084 2163 3084 
Q 1697 3084 1428 2787 
Q 1159 2491 1159 1978 
L 1159 0 
L 581 0 
L 581 3500 
L 1159 3500 
L 1159 2956 
Q 1366 3272 1645 3428 
Q 1925 3584 2291 3584 
Q 2894 3584 3203 3211 
Q 3513 2838 3513 2113 
z
" transform="scale(0.015625)"/>
     </defs>
     <use xlink:href="#DejaVuSans-50"/>
     <use xlink:href="#DejaVuSans-44" transform="translate(97.40625 0)"/>
     <use xlink:href="#DejaVuSans-57" transform="translate(158.6875 0)"/>
     <use xlink:href="#DejaVuSans-46" transform="translate(197.890625 0)"/>
     <use xlink:href="#DejaVuSans-4b" transform="translate(252.875 0)"/>
     <use xlink:href="#DejaVuSans-48" transform="translate(316.25 0)"/>
     <use xlink:href="#DejaVuSans-56" transform="translate(377.78125 0)"/>
     <use xlink:href="#DejaVuSans-3" transform="translate(429.875 0)"/>
     <use xlink:href="#DejaVuSans-56" transform="translate(461.65625 0)"/>
     <use xlink:href="#DejaVuSans-48" transform="translate(513.75 0)"/>
     <use xlink:href="#DejaVuSans-4f" transform="translate(575.28125 0)"/>
     <use xlink:href="#DejaVuSans-48" transform="translate(603.0625 0)"/>
     <use xlink:href="#DejaVuSans-46" transform="translate(664.59375 0)"/>
     <use xlink:href="#DejaVuSans-57" transform="translate(719.578125 0)"/>
     <use xlink:href="#DejaVuSans-4c" transform="translate(758.78125 0)"/>
     <use xlink:href="#DejaVuSans-52" transform="translate(786.5625 0)"/>
     <use xlink:href="#DejaVuSans-51" transform="translate(847.75 0)"/>
    </g>
    <!-- indices -->
    <g style="fill: #64748b" transform="translate(451.98595 303.417311) scale(0.08 -0.08)">
     <use xlink:href="#DejaVuSans-4c"/>
     <use xlink:href="#DejaVuSans-51" transform="translate(27.78125 0)"/>
     <use xlink:href="#DejaVuSans-47" transform="translate(91.15625 0)"/>
     <use xlink:href="#DejaVuSans-4c" transform="translate(154.640625 0)"/>
     <use xlink:href="#DejaVuSans-46" transform="translate(182.421875 0)"/>
     <use xlink:href="#DejaVuSans-48" transform="translate(237.40625 0)"/>
     <use xlink:href="#DejaVuSans-56" transform="translate(298.9375 0)"/>
    </g>
   </g>
   <g id="text_8">
    <!-- CON frame anatomy — on-disk layout vs in-memory structure -->
    <g style="fill: #334155" transform="translate(110.793125 15.558281) scale(0.11 -0.11)">
     <defs>
      <path id="DejaVuSans-Bold-26" d="M 4288 256 
Q 3956 84 3597 -3 
Q 3238 -91 2847 -91 
Q 1681 -91 1000 561 
Q 319 1213 319 2328 
Q 319 3447 1000 4098 
Q 1681 4750 2847 4750 
Q 3238 4750 3597 4662 
Q 3956 4575 4288 4403 
L 4288 3438 
Q 3953 3666 3628 3772 
Q 3303 3878 2944 3878 
Q 2300 3878 1931 3465 
Q 1563 3053 1563 2328 
Q 1563 1606 1931 1193 
Q 2300 781 2944 781 
Q 3303 781 3628 887 
Q 3953 994 4288 1222 
L 4288 256 
z
" transform="scale(0.015625)"/>
      <path id="DejaVuSans-Bold-af6" d="M 344 2156 
L 6056 2156 
L 6056 1350 
L 344 1350 
L 344 2156 
z
" transform="scale(0.015625)"/>
      <path id="DejaVuSans-Bold-10" d="M 347 2297 
L 2309 2297 
L 2309 1388 
L 347 1388 
L 347 2297 
z
" transform="scale(0.015625)"/>
      <path id="DejaVuSans-Bold-58" d="M 500 1363 
L 500 3500 
L 1625 3500 
L 1625 3150 
Q 1625 2866 1622 2436 
Q 1619 2006 1619 1863 
Q 1619 1441 1641 1255 
Q 1663 1069 1716 984 
Q 1784 875 1895 815 
Q 2006 756 2150 756 
Q 2500 756 2700 1025 
Q 2900 1294 2900 1772 
L 2900 3500 
L 4019 3500 
L 4019 0 
L 2900 0 
L 2900 506 
Q 2647 200 2364 54 
Q 2081 -91 1741 -91 
Q 1134 -91 817 281 
Q 500 653 500 1363 
z
" transform="scale(0.015625)"/>
     </defs>
     <use xlink:href="#DejaVuSans-Bold-26"/>
     <use xlink:href="#DejaVuSans-Bold-32" transform="translate(73.390625 0)"/>
     <use xlink:href="#DejaVuSans-Bold-31" transform="translate(158.40625 0)"/>
     <use xlink:href="#DejaVuSans-Bold-3" transform="translate(242.09375 0)"/>
     <use xlink:href="#DejaVuSans-Bold-49" transform="translate(276.90625 0)"/>
     <use xlink:href="#DejaVuSans-Bold-55" transform="translate(320.40625 0)"/>
     <use xlink:href="#DejaVuSans-Bold-44" transform="translate(369.71875 0)"/>
     <use xlink:href="#DejaVuSans-Bold-50" transform="translate(437.203125 0)"/>
     <use xlink:href="#DejaVuSans-Bold-48" transform="translate(541.40625 0)"/>
     <use xlink:href="#DejaVuSans-Bold-3" transform="translate(609.234375 0)"/>
     <use xlink:href="#DejaVuSans-Bold-44" transform="translate(644.046875 0)"/>
     <use xlink:href="#DejaVuSans-Bold-51" transform="translate(711.53125 0)"/>
     <use xlink:href="#DejaVuSans-Bold-44" transform="translate(782.71875 0)"/>
     <use xlink:href="#DejaVuSans-Bold-57" transform="translate(850.203125 0)"/>
     <use xlink:href="#DejaVuSans-Bold-52" transform="translate(898 0)"/>
     <use xlink:href="#DejaVuSans-Bold-50" transform="translate(966.703125 0)"/>
     <use xlink:href="#DejaVuSans-Bold-5c" transform="translate(1070.90625 0)"/>
     <use xlink:href="#DejaVuSans-Bold-3" transform="translate(1136.09375 0)"/>
     <use xlink:href="#DejaVuSans-Bold-af6" transform="translate(1170.90625 0)"/>
     <use xlink:href="#DejaVuSans-Bold-3" transform="translate(1270.90625 0)"/>
     <use xlink:href="#DejaVuSans-Bold-52" transform="translate(1305.71875 0)"/>
     <use xlink:href="#DejaVuSans-Bold-51" transform="translate(1374.421875 0)"/>
     <use xlink:href="#DejaVuSans-Bold-10" transform="translate(1445.609375 0)"/>
     <use xlink:href="#DejaVuSans-Bold-47" transform="translate(1487.109375 0)"/>
     <use xlink:href="#DejaVuSans-Bold-4c" transform="translate(1558.6875 0)"/>
     <use xlink:href="#DejaVuSans-Bold-56" transform="translate(1592.96875 0)"/>
     <use xlink:href="#DejaVuSans-Bold-4e" transform="translate(1652.484375 0)"/>
     <use xlink:href="#DejaVuSans-Bold-3" transform="translate(1718.984375 0)"/>
     <use xlink:href="#DejaVuSans-Bold-4f" transform="translate(1753.796875 0)"/>
     <use xlink:href="#DejaVuSans-Bold-44" transform="translate(1788.078125 0)"/>
     <use xlink:href="#DejaVuSans-Bold-5c" transform="translate(1852.484375 0)"/>
     <use xlink:href="#DejaVuSans-Bold-52" transform="translate(1917.671875 0)"/>
     <use xlink:href="#DejaVuSans-Bold-58" transform="translate(1986.375 0)"/>
     <use xlink:href="#DejaVuSans-Bold-57" transform="translate(2057.5625 0)"/>
     <use xlink:href="#DejaVuSans-Bold-3" transform="translate(2105.359375 0)"/>
     <use xlink:href="#DejaVuSans-Bold-59" transform="translate(2140.171875 0)"/>
     <use xlink:href="#DejaVuSans-Bold-56" transform="translate(2205.359375 0)"/>
     <use xlink:href="#DejaVuSans-Bold-3" transform="translate(2264.875 0)"/>
     <use xlink:href="#DejaVuSans-Bold-4c" transform="translate(2299.6875 0)"/>
     <use xlink:href="#DejaVuSans-Bold-51" transform="translate(2333.96875 0)"/>
     <use xlink:href="#DejaVuSans-Bold-10" transform="translate(2405.15625 0)"/>
     <use xlink:href="#DejaVuSans-Bold-50" transform="translate(2446.65625 0)"/>
     <use xlink:href="#DejaVuSans-Bold-48" transform="translate(2550.859375 0)"/>
     <use xlink:href="#DejaVuSans-Bold-50" transform="translate(2618.6875 0)"/>
     <use xlink:href="#DejaVuSans-Bold-52" transform="translate(2722.890625 0)"/>
     <use xlink:href="#DejaVuSans-Bold-55" transform="translate(2791.59375 0)"/>
     <use xlink:href="#DejaVuSans-Bold-5c" transform="translate(2840.90625 0)"/>
     <use xlink:href="#DejaVuSans-Bold-3" transform="translate(2906.09375 0)"/>
     <use xlink:href="#DejaVuSans-Bold-56" transform="translate(2940.90625 0)"/>
     <use xlink:href="#DejaVuSans-Bold-57" transform="translate(3000.421875 0)"/>
     <use xlink:href="#DejaVuSans-Bold-55" transform="translate(3048.21875 0)"/>
     <use xlink:href="#DejaVuSans-Bold-58" transform="translate(3097.53125 0)"/>
     <use xlink:href="#DejaVuSans-Bold-46" transform="translate(3168.71875 0)"/>
     <use xlink:href="#DejaVuSans-Bold-57" transform="translate(3228 0)"/>
     <use xlink:href="#DejaVuSans-Bold-58" transform="translate(3275.796875 0)"/>
     <use xlink:href="#DejaVuSans-Bold-55" transform="translate(3346.984375 0)"/>
     <use xlink:href="#DejaVuSans-Bold-48" transform="translate(3396.296875 0)"/>
    </g>
   </g>
   <g id="patch_9">
    <path d="M 412.761469 92.455366 
C 415.235678 92.455366 417.608883 91.598971 419.358412 90.074792 
C 421.107942 88.550612 422.090956 86.483091 422.090956 84.327576 
C 422.090956 82.172062 421.107942 80.104541 419.358412 78.580361 
C 417.608883 77.056182 415.235678 76.199787 412.761469 76.199787 
C 410.28726 76.199787 407.914056 77.056182 406.164526 78.580361 
C 404.414996 80.104541 403.431983 82.172062 403.431983 84.327576 
C 403.431983 86.483091 404.414996 88.550612 406.164526 90.074792 
C 407.914056 91.598971 410.28726 92.455366 412.761469 92.455366 
z
" clip-path="url(#p414a35d923)" style="fill: #ffffff; stroke: #888888; stroke-width: 0.7; stroke-linejoin: miter"/>
   </g>
   <g id="patch_10">
    <path d="M 428.154843 77.970626 
C 430.629052 77.970626 433.002256 77.114231 434.751786 75.590051 
C 436.501316 74.065872 437.48433 71.998351 437.48433 69.842836 
C 437.48433 67.687321 436.501316 65.6198 434.751786 64.095621 
C 433.002256 62.571442 430.629052 61.715047 428.154843 61.715047 
C 425.680634 61.715047 423.30743 62.571442 421.5579 64.095621 
C 419.80837 65.6198 418.825357 67.687321 418.825357 69.842836 
C 418.825357 71.998351 419.80837 74.065872 421.5579 75.590051 
C 423.30743 77.114231 425.680634 77.970626 428.154843 77.970626 
z
" clip-path="url(#p414a35d923)" style="fill: #ffffff; stroke: #888888; stroke-width: 0.7; stroke-linejoin: miter"/>
   </g>
   <g id="text_9">
    <!-- Cu -->
    <g style="fill: #ffffff" transform="translate(479.941783 320.855566) scale(0.07 -0.07)">
     <use xlink:href="#DejaVuSans-Bold-26"/>
     <use xlink:href="#DejaVuSans-Bold-58" transform="translate(73.390625 0)"/>
    </g>
   </g>
   <g id="text_10">
    <!-- Cu -->
    <g style="fill: #ffffff" transform="translate(533.130236 270.806698) scale(0.07 -0.07)">
     <use xlink:href="#DejaVuSans-Bold-26"/>
     <use xlink:href="#DejaVuSans-Bold-58" transform="translate(73.390625 0)"/>
    </g>
   </g>
  </g>
 </g>
 <defs>
  <clipPath id="p414a35d923">
   <rect x="7.2" y="21.558281" width="588.24" height="307.482578"/>
  </clipPath>
 </defs>
</svg>
