<?xml version="1.0" encoding="utf-8" standalone="no"?>
<!DOCTYPE svg PUBLIC "-//W3C//DTD SVG 1.1//EN"
  "http://www.w3.org/Graphics/SVG/1.1/DTD/svg11.dtd">
<svg xmlns:xlink="http://www.w3.org/1999/xlink" width="746.64pt" height="235.44pt" viewBox="0 0 746.64 235.44" xmlns="http://www.w3.org/2000/svg" version="1.1">
 <metadata>
  <rdf:RDF xmlns:dc="http://purl.org/dc/elements/1.1/" xmlns:cc="http://creativecommons.org/ns#" xmlns:rdf="http://www.w3.org/1999/02/22-rdf-syntax-ns#">
   <cc:Work>
    <dc:type rdf:resource="http://purl.org/dc/dcmitype/StillImage"/>
    <dc:date>2026-06-26T12:17:25.362521</dc:date>
    <dc:format>image/svg+xml</dc:format>
    <dc:creator>
     <cc:Agent>
      <dc:title>Matplotlib v3.11.0, https://matplotlib.org/</dc:title>
     </cc:Agent>
    </dc:creator>
   </cc:Work>
  </rdf:RDF>
 </metadata>
 <defs>
  <style type="text/css">*{stroke-linejoin: round; stroke-linecap: butt}</style>
 </defs>
 <g id="figure_1">
  <g id="patch_1">
   <path d="M 0 235.44 
L 746.64 235.44 
L 746.64 0 
L 0 0 
z
" style="fill: #ffffff"/>
  </g>
  <g id="axes_1">
   <g id="patch_2">
    <path d="M 33.700114 161.928 
L 134.1216 161.928 
Q 142.490057 161.928 142.490057 153.639 
L 142.490057 74.8935 
Q 142.490057 66.6045 134.1216 66.6045 
L 33.700114 66.6045 
Q 25.331657 66.6045 25.331657 74.8935 
L 25.331657 153.639 
Q 25.331657 161.928 33.700114 161.928 
z
" clip-path="url(#pad4f9fad02)" style="fill: #1e88e5; opacity: 0.92"/>
   </g>
   <g id="patch_3">
    <path d="M 180.148114 161.928 
L 294.517029 161.928 
Q 302.885486 161.928 302.885486 153.639 
L 302.885486 74.8935 
Q 302.885486 66.6045 294.517029 66.6045 
L 180.148114 66.6045 
Q 171.779657 66.6045 171.779657 74.8935 
L 171.779657 153.639 
Q 171.779657 161.928 180.148114 161.928 
z
" clip-path="url(#pad4f9fad02)" style="fill: #4f46e5; opacity: 0.92"/>
   </g>
   <g id="patch_4">
    <path d="M 340.543543 161.928 
L 454.912457 161.928 
Q 463.280914 161.928 463.280914 153.639 
L 463.280914 74.8935 
Q 463.280914 66.6045 454.912457 66.6045 
L 340.543543 66.6045 
Q 332.175086 66.6045 332.175086 74.8935 
L 332.175086 153.639 
Q 332.175086 161.928 340.543543 161.928 
z
" clip-path="url(#pad4f9fad02)" style="fill: #004d40; opacity: 0.92"/>
   </g>
   <g id="patch_5">
    <path d="M 500.938971 161.928 
L 601.360457 161.928 
Q 609.728914 161.928 609.728914 153.639 
L 609.728914 74.8935 
Q 609.728914 66.6045 601.360457 66.6045 
L 500.938971 66.6045 
Q 492.570514 66.6045 492.570514 74.8935 
L 492.570514 153.639 
Q 492.570514 161.928 500.938971 161.928 
z
" clip-path="url(#pad4f9fad02)" style="fill: #ff655d; opacity: 0.92"/>
   </g>
   <g id="patch_6">
    <path d="M 633.439543 161.928 
L 719.9136 161.928 
Q 728.282057 161.928 728.282057 153.639 
L 728.282057 74.8935 
Q 728.282057 66.6045 719.9136 66.6045 
L 633.439543 66.6045 
Q 625.071086 66.6045 625.071086 74.8935 
L 625.071086 153.639 
Q 625.071086 161.928 633.439543 161.928 
z
" clip-path="url(#pad4f9fad02)" style="fill: #d81b60; opacity: 0.92"/>
   </g>
   <g id="text_1">
    <!-- XYZ / PDB -->
    <g style="fill: #ffffff" transform="translate(55.875701 110.86293) scale(0.1 -0.1)">
     <defs>
      <path id="DejaVuSans-Bold-3b" d="M 3188 2381 
L 4806 0 
L 3553 0 
L 2463 1594 
L 1381 0 
L 122 0 
L 1741 2381 
L 184 4666 
L 1441 4666 
L 2463 3163 
L 3481 4666 
L 4744 4666 
L 3188 2381 
z
" transform="scale(0.015625)"/>
      <path id="DejaVuSans-Bold-3c" d="M -63 4666 
L 1253 4666 
L 2316 3003 
L 3378 4666 
L 4697 4666 
L 2919 1966 
L 2919 0 
L 1716 0 
L 1716 1966 
L -63 4666 
z
" transform="scale(0.015625)"/>
      <path id="DejaVuSans-Bold-3d" d="M 359 4666 
L 4281 4666 
L 4281 3938 
L 1778 909 
L 4353 909 
L 4353 0 
L 288 0 
L 288 728 
L 2791 3756 
L 359 3756 
L 359 4666 
z
" transform="scale(0.015625)"/>
      <path id="DejaVuSans-Bold-3" transform="scale(0.015625)"/>
      <path id="DejaVuSans-Bold-12" d="M 1644 4666 
L 2338 4666 
L 691 -594 
L 0 -594 
L 1644 4666 
z
" transform="scale(0.015625)"/>
      <path id="DejaVuSans-Bold-33" d="M 588 4666 
L 2584 4666 
Q 3475 4666 3951 4270 
Q 4428 3875 4428 3144 
Q 4428 2409 3951 2014 
Q 3475 1619 2584 1619 
L 1791 1619 
L 1791 0 
L 588 0 
L 588 4666 
z
M 1791 3794 
L 1791 2491 
L 2456 2491 
Q 2806 2491 2997 2661 
Q 3188 2831 3188 3144 
Q 3188 3456 2997 3625 
Q 2806 3794 2456 3794 
L 1791 3794 
z
" transform="scale(0.015625)"/>
      <path id="DejaVuSans-Bold-27" d="M 1791 3756 
L 1791 909 
L 2222 909 
Q 2959 909 3348 1275 
Q 3738 1641 3738 2338 
Q 3738 3031 3350 3393 
Q 2963 3756 2222 3756 
L 1791 3756 
z
M 588 4666 
L 1856 4666 
Q 2919 4666 3439 4514 
Q 3959 4363 4331 4000 
Q 4659 3684 4818 3271 
Q 4978 2859 4978 2338 
Q 4978 1809 4818 1395 
Q 4659 981 4331 666 
Q 3956 303 3431 151 
Q 2906 0 1856 0 
L 588 0 
L 588 4666 
z
" transform="scale(0.015625)"/>
      <path id="DejaVuSans-Bold-25" d="M 2456 2859 
Q 2741 2859 2887 2984 
Q 3034 3109 3034 3353 
Q 3034 3594 2887 3720 
Q 2741 3847 2456 3847 
L 1791 3847 
L 1791 2859 
L 2456 2859 
z
M 2497 819 
Q 2859 819 3042 972 
Q 3225 1125 3225 1434 
Q 3225 1738 3044 1889 
Q 2863 2041 2497 2041 
L 1791 2041 
L 1791 819 
L 2497 819 
z
M 3616 2497 
Q 4003 2384 4215 2081 
Q 4428 1778 4428 1338 
Q 4428 663 3972 331 
Q 3516 0 2584 0 
L 588 0 
L 588 4666 
L 2394 4666 
Q 3366 4666 3802 4372 
Q 4238 4078 4238 3431 
Q 4238 3091 4078 2852 
Q 3919 2613 3616 2497 
z
" transform="scale(0.015625)"/>
     </defs>
     <use xlink:href="#DejaVuSans-Bold-3b"/>
     <use xlink:href="#DejaVuSans-Bold-3c" transform="translate(77.09375 0)"/>
     <use xlink:href="#DejaVuSans-Bold-3d" transform="translate(149.5 0)"/>
     <use xlink:href="#DejaVuSans-Bold-3" transform="translate(222.015625 0)"/>
     <use xlink:href="#DejaVuSans-Bold-12" transform="translate(256.828125 0)"/>
     <use xlink:href="#DejaVuSans-Bold-3" transform="translate(293.359375 0)"/>
     <use xlink:href="#DejaVuSans-Bold-33" transform="translate(328.171875 0)"/>
     <use xlink:href="#DejaVuSans-Bold-27" transform="translate(401.46875 0)"/>
     <use xlink:href="#DejaVuSans-Bold-25" transform="translate(484.484375 0)"/>
    </g>
    <!-- GRO / ... -->
    <g style="fill: #ffffff" transform="translate(60.700701 122.864883) scale(0.1 -0.1)">
     <defs>
      <path id="DejaVuSans-Bold-2a" d="M 4781 347 
Q 4331 128 3847 18 
Q 3363 -91 2847 -91 
Q 1681 -91 1000 561 
Q 319 1213 319 2328 
Q 319 3456 1012 4103 
Q 1706 4750 2913 4750 
Q 3378 4750 3804 4662 
Q 4231 4575 4609 4403 
L 4609 3438 
Q 4219 3659 3833 3768 
Q 3447 3878 3059 3878 
Q 2341 3878 1952 3476 
Q 1563 3075 1563 2328 
Q 1563 1588 1938 1184 
Q 2313 781 3003 781 
Q 3191 781 3352 804 
Q 3513 828 3641 878 
L 3641 1784 
L 2906 1784 
L 2906 2591 
L 4781 2591 
L 4781 347 
z
" transform="scale(0.015625)"/>
      <path id="DejaVuSans-Bold-35" d="M 2297 2597 
Q 2675 2597 2839 2737 
Q 3003 2878 3003 3200 
Q 3003 3519 2839 3656 
Q 2675 3794 2297 3794 
L 1791 3794 
L 1791 2597 
L 2297 2597 
z
M 1791 1766 
L 1791 0 
L 588 0 
L 588 4666 
L 2425 4666 
Q 3347 4666 3776 4356 
Q 4206 4047 4206 3378 
Q 4206 2916 3982 2619 
Q 3759 2322 3309 2181 
Q 3556 2125 3751 1926 
Q 3947 1728 4147 1325 
L 4800 0 
L 3519 0 
L 2950 1159 
Q 2778 1509 2601 1637 
Q 2425 1766 2131 1766 
L 1791 1766 
z
" transform="scale(0.015625)"/>
      <path id="DejaVuSans-Bold-32" d="M 2719 3878 
Q 2169 3878 1866 3472 
Q 1563 3066 1563 2328 
Q 1563 1594 1866 1187 
Q 2169 781 2719 781 
Q 3272 781 3575 1187 
Q 3878 1594 3878 2328 
Q 3878 3066 3575 3472 
Q 3272 3878 2719 3878 
z
M 2719 4750 
Q 3844 4750 4481 4106 
Q 5119 3463 5119 2328 
Q 5119 1197 4481 553 
Q 3844 -91 2719 -91 
Q 1597 -91 958 553 
Q 319 1197 319 2328 
Q 319 3463 958 4106 
Q 1597 4750 2719 4750 
z
" transform="scale(0.015625)"/>
      <path id="DejaVuSans-Bold-11" d="M 653 1209 
L 1778 1209 
L 1778 0 
L 653 0 
L 653 1209 
z
" transform="scale(0.015625)"/>
     </defs>
     <use xlink:href="#DejaVuSans-Bold-2a"/>
     <use xlink:href="#DejaVuSans-Bold-35" transform="translate(82.078125 0)"/>
     <use xlink:href="#DejaVuSans-Bold-32" transform="translate(159.078125 0)"/>
     <use xlink:href="#DejaVuSans-Bold-3" transform="translate(244.09375 0)"/>
     <use xlink:href="#DejaVuSans-Bold-12" transform="translate(278.90625 0)"/>
     <use xlink:href="#DejaVuSans-Bold-3" transform="translate(315.4375 0)"/>
     <use xlink:href="#DejaVuSans-Bold-11" transform="translate(350.25 0)"/>
     <use xlink:href="#DejaVuSans-Bold-11" transform="translate(388.234375 0)"/>
     <use xlink:href="#DejaVuSans-Bold-11" transform="translate(426.21875 0)"/>
    </g>
   </g>
   <g id="text_2">
    <!-- chemfiles -->
    <g style="fill: #ffffff" transform="translate(210.420071 110.86293) scale(0.1 -0.1)">
     <defs>
      <path id="DejaVuSans-Bold-46" d="M 3366 3391 
L 3366 2478 
Q 3138 2634 2908 2709 
Q 2678 2784 2431 2784 
Q 1963 2784 1702 2511 
Q 1441 2238 1441 1747 
Q 1441 1256 1702 982 
Q 1963 709 2431 709 
Q 2694 709 2930 787 
Q 3166 866 3366 1019 
L 3366 103 
Q 3103 6 2833 -42 
Q 2563 -91 2291 -91 
Q 1344 -91 809 395 
Q 275 881 275 1747 
Q 275 2613 809 3098 
Q 1344 3584 2291 3584 
Q 2566 3584 2833 3536 
Q 3100 3488 3366 3391 
z
" transform="scale(0.015625)"/>
      <path id="DejaVuSans-Bold-4b" d="M 4056 2131 
L 4056 0 
L 2931 0 
L 2931 347 
L 2931 1625 
Q 2931 2084 2911 2256 
Q 2891 2428 2841 2509 
Q 2775 2619 2662 2680 
Q 2550 2741 2406 2741 
Q 2056 2741 1856 2470 
Q 1656 2200 1656 1722 
L 1656 0 
L 538 0 
L 538 4863 
L 1656 4863 
L 1656 2988 
Q 1909 3294 2193 3439 
Q 2478 3584 2822 3584 
Q 3428 3584 3742 3212 
Q 4056 2841 4056 2131 
z
" transform="scale(0.015625)"/>
      <path id="DejaVuSans-Bold-48" d="M 4031 1759 
L 4031 1441 
L 1416 1441 
Q 1456 1047 1700 850 
Q 1944 653 2381 653 
Q 2734 653 3104 758 
Q 3475 863 3866 1075 
L 3866 213 
Q 3469 63 3072 -14 
Q 2675 -91 2278 -91 
Q 1328 -91 801 392 
Q 275 875 275 1747 
Q 275 2603 792 3093 
Q 1309 3584 2216 3584 
Q 3041 3584 3536 3087 
Q 4031 2591 4031 1759 
z
M 2881 2131 
Q 2881 2450 2695 2645 
Q 2509 2841 2209 2841 
Q 1884 2841 1681 2658 
Q 1478 2475 1428 2131 
L 2881 2131 
z
" transform="scale(0.015625)"/>
      <path id="DejaVuSans-Bold-50" d="M 3781 2919 
Q 3994 3244 4286 3414 
Q 4578 3584 4928 3584 
Q 5531 3584 5847 3212 
Q 6163 2841 6163 2131 
L 6163 0 
L 5038 0 
L 5038 1825 
Q 5041 1866 5042 1909 
Q 5044 1953 5044 2034 
Q 5044 2406 4934 2573 
Q 4825 2741 4581 2741 
Q 4263 2741 4089 2478 
Q 3916 2216 3909 1719 
L 3909 0 
L 2784 0 
L 2784 1825 
Q 2784 2406 2684 2573 
Q 2584 2741 2328 2741 
Q 2006 2741 1831 2477 
Q 1656 2213 1656 1722 
L 1656 0 
L 531 0 
L 531 3500 
L 1656 3500 
L 1656 2988 
Q 1863 3284 2130 3434 
Q 2397 3584 2719 3584 
Q 3081 3584 3359 3409 
Q 3638 3234 3781 2919 
z
" transform="scale(0.015625)"/>
      <path id="DejaVuSans-Bold-13ab" d="M 3078 4863 
L 4206 4863 
L 4206 3950 
L 3078 3950 
L 3078 4863 
z
M 2847 4863 
L 2847 4128 
L 2228 4128 
Q 1994 4128 1903 4042 
Q 1813 3956 1813 3744 
L 1813 3500 
L 4206 3500 
L 4206 0 
L 3078 0 
L 3078 2700 
L 1813 2700 
L 1813 0 
L 684 0 
L 684 2700 
L 134 2700 
L 134 3500 
L 684 3500 
L 684 3744 
Q 684 4316 1003 4589 
Q 1322 4863 1991 4863 
L 2847 4863 
z
" transform="scale(0.015625)"/>
      <path id="DejaVuSans-Bold-4f" d="M 538 4863 
L 1656 4863 
L 1656 0 
L 538 0 
L 538 4863 
z
" transform="scale(0.015625)"/>
      <path id="DejaVuSans-Bold-56" d="M 3272 3391 
L 3272 2541 
Q 2913 2691 2578 2766 
Q 2244 2841 1947 2841 
Q 1628 2841 1473 2761 
Q 1319 2681 1319 2516 
Q 1319 2381 1436 2309 
Q 1553 2238 1856 2203 
L 2053 2175 
Q 2913 2066 3209 1816 
Q 3506 1566 3506 1031 
Q 3506 472 3093 190 
Q 2681 -91 1863 -91 
Q 1516 -91 1145 -36 
Q 775 19 384 128 
L 384 978 
Q 719 816 1070 734 
Q 1422 653 1784 653 
Q 2113 653 2278 743 
Q 2444 834 2444 1013 
Q 2444 1163 2330 1236 
Q 2216 1309 1875 1350 
L 1678 1375 
Q 931 1469 631 1722 
Q 331 1975 331 2491 
Q 331 3047 712 3315 
Q 1094 3584 1881 3584 
Q 2191 3584 2531 3537 
Q 2872 3491 3272 3391 
z
" transform="scale(0.015625)"/>
     </defs>
     <use xlink:href="#DejaVuSans-Bold-46"/>
     <use xlink:href="#DejaVuSans-Bold-4b" transform="translate(59.28125 0)"/>
     <use xlink:href="#DejaVuSans-Bold-48" transform="translate(130.46875 0)"/>
     <use xlink:href="#DejaVuSans-Bold-50" transform="translate(198.296875 0)"/>
     <use xlink:href="#DejaVuSans-Bold-13ab" transform="translate(302.5 0)"/>
     <use xlink:href="#DejaVuSans-Bold-4f" transform="translate(376.625 0)"/>
     <use xlink:href="#DejaVuSans-Bold-48" transform="translate(410.90625 0)"/>
     <use xlink:href="#DejaVuSans-Bold-56" transform="translate(478.734375 0)"/>
    </g>
    <!-- reader -->
    <g style="fill: #ffffff" transform="translate(218.665384 122.865664) scale(0.1 -0.1)">
     <defs>
      <path id="DejaVuSans-Bold-55" d="M 3138 2547 
Q 2991 2616 2845 2648 
Q 2700 2681 2553 2681 
Q 2122 2681 1889 2404 
Q 1656 2128 1656 1613 
L 1656 0 
L 538 0 
L 538 3500 
L 1656 3500 
L 1656 2925 
Q 1872 3269 2151 3426 
Q 2431 3584 2822 3584 
Q 2878 3584 2943 3579 
Q 3009 3575 3134 3559 
L 3138 2547 
z
" transform="scale(0.015625)"/>
      <path id="DejaVuSans-Bold-44" d="M 2106 1575 
Q 1756 1575 1579 1456 
Q 1403 1338 1403 1106 
Q 1403 894 1545 773 
Q 1688 653 1941 653 
Q 2256 653 2472 879 
Q 2688 1106 2688 1447 
L 2688 1575 
L 2106 1575 
z
M 3816 1997 
L 3816 0 
L 2688 0 
L 2688 519 
Q 2463 200 2181 54 
Q 1900 -91 1497 -91 
Q 953 -91 614 226 
Q 275 544 275 1050 
Q 275 1666 698 1953 
Q 1122 2241 2028 2241 
L 2688 2241 
L 2688 2328 
Q 2688 2594 2478 2717 
Q 2269 2841 1825 2841 
Q 1466 2841 1156 2769 
Q 847 2697 581 2553 
L 581 3406 
Q 941 3494 1303 3539 
Q 1666 3584 2028 3584 
Q 2975 3584 3395 3211 
Q 3816 2838 3816 1997 
z
" transform="scale(0.015625)"/>
      <path id="DejaVuSans-Bold-47" d="M 2919 2988 
L 2919 4863 
L 4044 4863 
L 4044 0 
L 2919 0 
L 2919 506 
Q 2688 197 2409 53 
Q 2131 -91 1766 -91 
Q 1119 -91 703 423 
Q 288 938 288 1747 
Q 288 2556 703 3070 
Q 1119 3584 1766 3584 
Q 2128 3584 2408 3439 
Q 2688 3294 2919 2988 
z
M 2181 722 
Q 2541 722 2730 984 
Q 2919 1247 2919 1747 
Q 2919 2247 2730 2509 
Q 2541 2772 2181 2772 
Q 1825 2772 1636 2509 
Q 1447 2247 1447 1747 
Q 1447 1247 1636 984 
Q 1825 722 2181 722 
z
" transform="scale(0.015625)"/>
     </defs>
     <use xlink:href="#DejaVuSans-Bold-55"/>
     <use xlink:href="#DejaVuSans-Bold-48" transform="translate(49.3125 0)"/>
     <use xlink:href="#DejaVuSans-Bold-44" transform="translate(117.140625 0)"/>
     <use xlink:href="#DejaVuSans-Bold-47" transform="translate(184.625 0)"/>
     <use xlink:href="#DejaVuSans-Bold-48" transform="translate(256.203125 0)"/>
     <use xlink:href="#DejaVuSans-Bold-55" transform="translate(324.03125 0)"/>
    </g>
   </g>
   <g id="text_3">
    <!-- ConFrame -->
    <g style="fill: #ffffff" transform="translate(369.526437 110.862539) scale(0.1 -0.1)">
     <defs>
      <path id="DejaVuSans-Bold-26" d="M 4288 256 
Q 3956 84 3597 -3 
Q 3238 -91 2847 -91 
Q 1681 -91 1000 561 
Q 319 1213 319 2328 
Q 319 3447 1000 4098 
Q 1681 4750 2847 4750 
Q 3238 4750 3597 4662 
Q 3956 4575 4288 4403 
L 4288 3438 
Q 3953 3666 3628 3772 
Q 3303 3878 2944 3878 
Q 2300 3878 1931 3465 
Q 1563 3053 1563 2328 
Q 1563 1606 1931 1193 
Q 2300 781 2944 781 
Q 3303 781 3628 887 
Q 3953 994 4288 1222 
L 4288 256 
z
" transform="scale(0.015625)"/>
      <path id="DejaVuSans-Bold-52" d="M 2203 2784 
Q 1831 2784 1636 2517 
Q 1441 2250 1441 1747 
Q 1441 1244 1636 976 
Q 1831 709 2203 709 
Q 2569 709 2762 976 
Q 2956 1244 2956 1747 
Q 2956 2250 2762 2517 
Q 2569 2784 2203 2784 
z
M 2203 3584 
Q 3106 3584 3614 3096 
Q 4122 2609 4122 1747 
Q 4122 884 3614 396 
Q 3106 -91 2203 -91 
Q 1297 -91 786 396 
Q 275 884 275 1747 
Q 275 2609 786 3096 
Q 1297 3584 2203 3584 
z
" transform="scale(0.015625)"/>
      <path id="DejaVuSans-Bold-51" d="M 4056 2131 
L 4056 0 
L 2931 0 
L 2931 347 
L 2931 1631 
Q 2931 2084 2911 2256 
Q 2891 2428 2841 2509 
Q 2775 2619 2662 2680 
Q 2550 2741 2406 2741 
Q 2056 2741 1856 2470 
Q 1656 2200 1656 1722 
L 1656 0 
L 538 0 
L 538 3500 
L 1656 3500 
L 1656 2988 
Q 1909 3294 2193 3439 
Q 2478 3584 2822 3584 
Q 3428 3584 3742 3212 
Q 4056 2841 4056 2131 
z
" transform="scale(0.015625)"/>
      <path id="DejaVuSans-Bold-29" d="M 588 4666 
L 3834 4666 
L 3834 3756 
L 1791 3756 
L 1791 2888 
L 3713 2888 
L 3713 1978 
L 1791 1978 
L 1791 0 
L 588 0 
L 588 4666 
z
" transform="scale(0.015625)"/>
     </defs>
     <use xlink:href="#DejaVuSans-Bold-26"/>
     <use xlink:href="#DejaVuSans-Bold-52" transform="translate(73.390625 0)"/>
     <use xlink:href="#DejaVuSans-Bold-51" transform="translate(142.09375 0)"/>
     <use xlink:href="#DejaVuSans-Bold-29" transform="translate(213.28125 0)"/>
     <use xlink:href="#DejaVuSans-Bold-55" transform="translate(275.203125 0)"/>
     <use xlink:href="#DejaVuSans-Bold-44" transform="translate(324.515625 0)"/>
     <use xlink:href="#DejaVuSans-Bold-50" transform="translate(392 0)"/>
     <use xlink:href="#DejaVuSans-Bold-48" transform="translate(496.203125 0)"/>
    </g>
    <!-- + bonds -->
    <g style="fill: #ffffff" transform="translate(374.669406 122.865273) scale(0.1 -0.1)">
     <defs>
      <path id="DejaVuSans-Bold-e" d="M 3053 4013 
L 3053 2375 
L 4684 2375 
L 4684 1638 
L 3053 1638 
L 3053 0 
L 2309 0 
L 2309 1638 
L 678 1638 
L 678 2375 
L 2309 2375 
L 2309 4013 
L 3053 4013 
z
" transform="scale(0.015625)"/>
      <path id="DejaVuSans-Bold-45" d="M 2400 722 
Q 2759 722 2948 984 
Q 3138 1247 3138 1747 
Q 3138 2247 2948 2509 
Q 2759 2772 2400 2772 
Q 2041 2772 1848 2508 
Q 1656 2244 1656 1747 
Q 1656 1250 1848 986 
Q 2041 722 2400 722 
z
M 1656 2988 
Q 1888 3294 2169 3439 
Q 2450 3584 2816 3584 
Q 3463 3584 3878 3070 
Q 4294 2556 4294 1747 
Q 4294 938 3878 423 
Q 3463 -91 2816 -91 
Q 2450 -91 2169 54 
Q 1888 200 1656 506 
L 1656 0 
L 538 0 
L 538 4863 
L 1656 4863 
L 1656 2988 
z
" transform="scale(0.015625)"/>
     </defs>
     <use xlink:href="#DejaVuSans-Bold-e"/>
     <use xlink:href="#DejaVuSans-Bold-3" transform="translate(83.796875 0)"/>
     <use xlink:href="#DejaVuSans-Bold-45" transform="translate(118.609375 0)"/>
     <use xlink:href="#DejaVuSans-Bold-52" transform="translate(190.1875 0)"/>
     <use xlink:href="#DejaVuSans-Bold-51" transform="translate(258.890625 0)"/>
     <use xlink:href="#DejaVuSans-Bold-47" transform="translate(330.078125 0)"/>
     <use xlink:href="#DejaVuSans-Bold-56" transform="translate(401.65625 0)"/>
    </g>
   </g>
   <g id="text_4">
    <!-- .con -->
    <g style="fill: #ffffff" transform="translate(539.291902 110.862539) scale(0.1 -0.1)">
     <use xlink:href="#DejaVuSans-Bold-11"/>
     <use xlink:href="#DejaVuSans-Bold-46" transform="translate(37.984375 0)"/>
     <use xlink:href="#DejaVuSans-Bold-52" transform="translate(97.265625 0)"/>
     <use xlink:href="#DejaVuSans-Bold-51" transform="translate(165.96875 0)"/>
    </g>
    <!-- write -->
    <g style="fill: #ffffff" transform="translate(536.569246 122.865273) scale(0.1 -0.1)">
     <defs>
      <path id="DejaVuSans-Bold-5a" d="M 225 3500 
L 1313 3500 
L 1900 1088 
L 2491 3500 
L 3425 3500 
L 4013 1113 
L 4603 3500 
L 5691 3500 
L 4769 0 
L 3547 0 
L 2956 2406 
L 2369 0 
L 1147 0 
L 225 3500 
z
" transform="scale(0.015625)"/>
      <path id="DejaVuSans-Bold-4c" d="M 538 3500 
L 1656 3500 
L 1656 0 
L 538 0 
L 538 3500 
z
M 538 4863 
L 1656 4863 
L 1656 3950 
L 538 3950 
L 538 4863 
z
" transform="scale(0.015625)"/>
      <path id="DejaVuSans-Bold-57" d="M 1759 4494 
L 1759 3500 
L 2913 3500 
L 2913 2700 
L 1759 2700 
L 1759 1216 
Q 1759 972 1856 886 
Q 1953 800 2241 800 
L 2816 800 
L 2816 0 
L 1856 0 
Q 1194 0 917 276 
Q 641 553 641 1216 
L 641 2700 
L 84 2700 
L 84 3500 
L 641 3500 
L 641 4494 
L 1759 4494 
z
" transform="scale(0.015625)"/>
     </defs>
     <use xlink:href="#DejaVuSans-Bold-5a"/>
     <use xlink:href="#DejaVuSans-Bold-55" transform="translate(92.390625 0)"/>
     <use xlink:href="#DejaVuSans-Bold-4c" transform="translate(141.703125 0)"/>
     <use xlink:href="#DejaVuSans-Bold-57" transform="translate(175.984375 0)"/>
     <use xlink:href="#DejaVuSans-Bold-48" transform="translate(223.78125 0)"/>
    </g>
   </g>
   <g id="text_5">
    <!-- eOn / -->
    <g style="fill: #ffffff" transform="translate(661.907821 110.86293) scale(0.1 -0.1)">
     <use xlink:href="#DejaVuSans-Bold-48"/>
     <use xlink:href="#DejaVuSans-Bold-32" transform="translate(67.828125 0)"/>
     <use xlink:href="#DejaVuSans-Bold-51" transform="translate(152.84375 0)"/>
     <use xlink:href="#DejaVuSans-Bold-3" transform="translate(224.03125 0)"/>
     <use xlink:href="#DejaVuSans-Bold-12" transform="translate(258.84375 0)"/>
    </g>
    <!-- LODE -->
    <g style="fill: #ffffff" transform="translate(661.851571 122.864883) scale(0.1 -0.1)">
     <defs>
      <path id="DejaVuSans-Bold-2f" d="M 588 4666 
L 1791 4666 
L 1791 909 
L 3903 909 
L 3903 0 
L 588 0 
L 588 4666 
z
" transform="scale(0.015625)"/>
      <path id="DejaVuSans-Bold-28" d="M 588 4666 
L 3834 4666 
L 3834 3756 
L 1791 3756 
L 1791 2888 
L 3713 2888 
L 3713 1978 
L 1791 1978 
L 1791 909 
L 3903 909 
L 3903 0 
L 588 0 
L 588 4666 
z
" transform="scale(0.015625)"/>
     </defs>
     <use xlink:href="#DejaVuSans-Bold-2f"/>
     <use xlink:href="#DejaVuSans-Bold-32" transform="translate(60.15625 0)"/>
     <use xlink:href="#DejaVuSans-Bold-27" transform="translate(145.171875 0)"/>
     <use xlink:href="#DejaVuSans-Bold-28" transform="translate(228.1875 0)"/>
    </g>
   </g>
   <g id="patch_7">
    <path d="M 141.696831 114.26625 
Q 157.13181 114.26625 170.777935 114.26625 
" style="fill: none; stroke: #334155; stroke-width: 1.6; stroke-linecap: round"/>
    <path d="M 166.377935 112.06625 
L 170.777935 114.26625 
L 166.377935 116.46625 
z
" style="fill: #334155; stroke: #334155; stroke-width: 1.6; stroke-linecap: round"/>
   </g>
   <g id="patch_8">
    <path d="M 302.09226 114.26625 
Q 317.527239 114.26625 331.173363 114.26625 
" style="fill: none; stroke: #334155; stroke-width: 1.6; stroke-linecap: round"/>
    <path d="M 326.773363 112.06625 
L 331.173363 114.26625 
L 326.773363 116.46625 
z
" style="fill: #334155; stroke: #334155; stroke-width: 1.6; stroke-linecap: round"/>
   </g>
   <g id="patch_9">
    <path d="M 462.487688 114.26625 
Q 477.922667 114.26625 491.568792 114.26625 
" style="fill: none; stroke: #334155; stroke-width: 1.6; stroke-linecap: round"/>
    <path d="M 487.168792 112.06625 
L 491.568792 114.26625 
L 487.168792 116.46625 
z
" style="fill: #334155; stroke: #334155; stroke-width: 1.6; stroke-linecap: round"/>
   </g>
   <g id="patch_10">
    <path d="M 608.939093 114.26625 
Q 617.39971 114.26625 624.071473 114.26625 
" style="fill: none; stroke: #334155; stroke-width: 1.6; stroke-linecap: round"/>
    <path d="M 619.671473 112.06625 
L 624.071473 114.26625 
L 619.671473 116.46625 
z
" style="fill: #334155; stroke: #334155; stroke-width: 1.6; stroke-linecap: round"/>
   </g>
   <g id="text_6">
    <!-- readcon-core ingress  ·  structures renderable with chemparseplot / xyzrender / rgpycrumbs -->
    <g style="fill: #334155" transform="translate(112.87625 31.37625) scale(0.1 -0.1)">
     <defs>
      <path id="DejaVuSans-Bold-10" d="M 347 2297 
L 2309 2297 
L 2309 1388 
L 347 1388 
L 347 2297 
z
" transform="scale(0.015625)"/>
      <path id="DejaVuSans-Bold-4a" d="M 2919 594 
Q 2688 288 2409 144 
Q 2131 0 1766 0 
Q 1125 0 706 504 
Q 288 1009 288 1791 
Q 288 2575 706 3076 
Q 1125 3578 1766 3578 
Q 2131 3578 2409 3434 
Q 2688 3291 2919 2981 
L 2919 3500 
L 4044 3500 
L 4044 353 
Q 4044 -491 3511 -936 
Q 2978 -1381 1966 -1381 
Q 1638 -1381 1331 -1331 
Q 1025 -1281 716 -1178 
L 716 -306 
Q 1009 -475 1290 -558 
Q 1572 -641 1856 -641 
Q 2406 -641 2662 -400 
Q 2919 -159 2919 353 
L 2919 594 
z
M 2181 2772 
Q 1834 2772 1640 2515 
Q 1447 2259 1447 1791 
Q 1447 1309 1634 1061 
Q 1822 813 2181 813 
Q 2531 813 2725 1069 
Q 2919 1325 2919 1791 
Q 2919 2259 2725 2515 
Q 2531 2772 2181 2772 
z
" transform="scale(0.015625)"/>
      <path id="DejaVuSans-Bold-79" d="M 653 2828 
L 1778 2828 
L 1778 1619 
L 653 1619 
L 653 2828 
z
" transform="scale(0.015625)"/>
      <path id="DejaVuSans-Bold-58" d="M 500 1363 
L 500 3500 
L 1625 3500 
L 1625 3150 
Q 1625 2866 1622 2436 
Q 1619 2006 1619 1863 
Q 1619 1441 1641 1255 
Q 1663 1069 1716 984 
Q 1784 875 1895 815 
Q 2006 756 2150 756 
Q 2500 756 2700 1025 
Q 2900 1294 2900 1772 
L 2900 3500 
L 4019 3500 
L 4019 0 
L 2900 0 
L 2900 506 
Q 2647 200 2364 54 
Q 2081 -91 1741 -91 
Q 1134 -91 817 281 
Q 500 653 500 1363 
z
" transform="scale(0.015625)"/>
      <path id="DejaVuSans-Bold-53" d="M 1656 506 
L 1656 -1331 
L 538 -1331 
L 538 3500 
L 1656 3500 
L 1656 2988 
Q 1888 3294 2169 3439 
Q 2450 3584 2816 3584 
Q 3463 3584 3878 3070 
Q 4294 2556 4294 1747 
Q 4294 938 3878 423 
Q 3463 -91 2816 -91 
Q 2450 -91 2169 54 
Q 1888 200 1656 506 
z
M 2400 2772 
Q 2041 2772 1848 2508 
Q 1656 2244 1656 1747 
Q 1656 1250 1848 986 
Q 2041 722 2400 722 
Q 2759 722 2948 984 
Q 3138 1247 3138 1747 
Q 3138 2247 2948 2509 
Q 2759 2772 2400 2772 
z
" transform="scale(0.015625)"/>
      <path id="DejaVuSans-Bold-5b" d="M 1422 1791 
L 159 3500 
L 1344 3500 
L 2059 2463 
L 2784 3500 
L 3969 3500 
L 2706 1797 
L 4031 0 
L 2847 0 
L 2059 1106 
L 1281 0 
L 97 0 
L 1422 1791 
z
" transform="scale(0.015625)"/>
      <path id="DejaVuSans-Bold-5c" d="M 78 3500 
L 1197 3500 
L 2138 1125 
L 2938 3500 
L 4056 3500 
L 2584 -331 
Q 2363 -916 2067 -1148 
Q 1772 -1381 1288 -1381 
L 641 -1381 
L 641 -647 
L 991 -647 
Q 1275 -647 1404 -556 
Q 1534 -466 1606 -231 
L 1638 -134 
L 78 3500 
z
" transform="scale(0.015625)"/>
      <path id="DejaVuSans-Bold-5d" d="M 366 3500 
L 3419 3500 
L 3419 2719 
L 1575 800 
L 3419 800 
L 3419 0 
L 288 0 
L 288 781 
L 2131 2700 
L 366 2700 
L 366 3500 
z
" transform="scale(0.015625)"/>
     </defs>
     <use xlink:href="#DejaVuSans-Bold-55"/>
     <use xlink:href="#DejaVuSans-Bold-48" transform="translate(49.3125 0)"/>
     <use xlink:href="#DejaVuSans-Bold-44" transform="translate(117.140625 0)"/>
     <use xlink:href="#DejaVuSans-Bold-47" transform="translate(184.625 0)"/>
     <use xlink:href="#DejaVuSans-Bold-46" transform="translate(256.203125 0)"/>
     <use xlink:href="#DejaVuSans-Bold-52" transform="translate(315.484375 0)"/>
     <use xlink:href="#DejaVuSans-Bold-51" transform="translate(384.1875 0)"/>
     <use xlink:href="#DejaVuSans-Bold-10" transform="translate(455.375 0)"/>
     <use xlink:href="#DejaVuSans-Bold-46" transform="translate(496.875 0)"/>
     <use xlink:href="#DejaVuSans-Bold-52" transform="translate(556.15625 0)"/>
     <use xlink:href="#DejaVuSans-Bold-55" transform="translate(624.859375 0)"/>
     <use xlink:href="#DejaVuSans-Bold-48" transform="translate(674.171875 0)"/>
     <use xlink:href="#DejaVuSans-Bold-3" transform="translate(742 0)"/>
     <use xlink:href="#DejaVuSans-Bold-4c" transform="translate(776.8125 0)"/>
     <use xlink:href="#DejaVuSans-Bold-51" transform="translate(811.09375 0)"/>
     <use xlink:href="#DejaVuSans-Bold-4a" transform="translate(882.28125 0)"/>
     <use xlink:href="#DejaVuSans-Bold-55" transform="translate(953.859375 0)"/>
     <use xlink:href="#DejaVuSans-Bold-48" transform="translate(1003.171875 0)"/>
     <use xlink:href="#DejaVuSans-Bold-56" transform="translate(1071 0)"/>
     <use xlink:href="#DejaVuSans-Bold-56" transform="translate(1130.515625 0)"/>
     <use xlink:href="#DejaVuSans-Bold-3" transform="translate(1190.03125 0)"/>
     <use xlink:href="#DejaVuSans-Bold-3" transform="translate(1224.84375 0)"/>
     <use xlink:href="#DejaVuSans-Bold-79" transform="translate(1259.65625 0)"/>
     <use xlink:href="#DejaVuSans-Bold-3" transform="translate(1297.640625 0)"/>
     <use xlink:href="#DejaVuSans-Bold-3" transform="translate(1332.453125 0)"/>
     <use xlink:href="#DejaVuSans-Bold-56" transform="translate(1367.265625 0)"/>
     <use xlink:href="#DejaVuSans-Bold-57" transform="translate(1426.78125 0)"/>
     <use xlink:href="#DejaVuSans-Bold-55" transform="translate(1474.578125 0)"/>
     <use xlink:href="#DejaVuSans-Bold-58" transform="translate(1523.890625 0)"/>
     <use xlink:href="#DejaVuSans-Bold-46" transform="translate(1595.078125 0)"/>
     <use xlink:href="#DejaVuSans-Bold-57" transform="translate(1654.359375 0)"/>
     <use xlink:href="#DejaVuSans-Bold-58" transform="translate(1702.15625 0)"/>
     <use xlink:href="#DejaVuSans-Bold-55" transform="translate(1773.34375 0)"/>
     <use xlink:href="#DejaVuSans-Bold-48" transform="translate(1822.65625 0)"/>
     <use xlink:href="#DejaVuSans-Bold-56" transform="translate(1890.484375 0)"/>
     <use xlink:href="#DejaVuSans-Bold-3" transform="translate(1950 0)"/>
     <use xlink:href="#DejaVuSans-Bold-55" transform="translate(1984.8125 0)"/>
     <use xlink:href="#DejaVuSans-Bold-48" transform="translate(2034.125 0)"/>
     <use xlink:href="#DejaVuSans-Bold-51" transform="translate(2101.953125 0)"/>
     <use xlink:href="#DejaVuSans-Bold-47" transform="translate(2173.140625 0)"/>
     <use xlink:href="#DejaVuSans-Bold-48" transform="translate(2244.71875 0)"/>
     <use xlink:href="#DejaVuSans-Bold-55" transform="translate(2312.546875 0)"/>
     <use xlink:href="#DejaVuSans-Bold-44" transform="translate(2361.859375 0)"/>
     <use xlink:href="#DejaVuSans-Bold-45" transform="translate(2429.34375 0)"/>
     <use xlink:href="#DejaVuSans-Bold-4f" transform="translate(2500.921875 0)"/>
     <use xlink:href="#DejaVuSans-Bold-48" transform="translate(2535.203125 0)"/>
     <use xlink:href="#DejaVuSans-Bold-3" transform="translate(2603.03125 0)"/>
     <use xlink:href="#DejaVuSans-Bold-5a" transform="translate(2637.84375 0)"/>
     <use xlink:href="#DejaVuSans-Bold-4c" transform="translate(2730.234375 0)"/>
     <use xlink:href="#DejaVuSans-Bold-57" transform="translate(2764.515625 0)"/>
     <use xlink:href="#DejaVuSans-Bold-4b" transform="translate(2812.3125 0)"/>
     <use xlink:href="#DejaVuSans-Bold-3" transform="translate(2883.5 0)"/>
     <use xlink:href="#DejaVuSans-Bold-46" transform="translate(2918.3125 0)"/>
     <use xlink:href="#DejaVuSans-Bold-4b" transform="translate(2977.59375 0)"/>
     <use xlink:href="#DejaVuSans-Bold-48" transform="translate(3048.78125 0)"/>
     <use xlink:href="#DejaVuSans-Bold-50" transform="translate(3116.609375 0)"/>
     <use xlink:href="#DejaVuSans-Bold-53" transform="translate(3220.8125 0)"/>
     <use xlink:href="#DejaVuSans-Bold-44" transform="translate(3292.390625 0)"/>
     <use xlink:href="#DejaVuSans-Bold-55" transform="translate(3359.875 0)"/>
     <use xlink:href="#DejaVuSans-Bold-56" transform="translate(3409.1875 0)"/>
     <use xlink:href="#DejaVuSans-Bold-48" transform="translate(3468.703125 0)"/>
     <use xlink:href="#DejaVuSans-Bold-53" transform="translate(3536.53125 0)"/>
     <use xlink:href="#DejaVuSans-Bold-4f" transform="translate(3608.109375 0)"/>
     <use xlink:href="#DejaVuSans-Bold-52" transform="translate(3642.390625 0)"/>
     <use xlink:href="#DejaVuSans-Bold-57" transform="translate(3711.09375 0)"/>
     <use xlink:href="#DejaVuSans-Bold-3" transform="translate(3758.890625 0)"/>
     <use xlink:href="#DejaVuSans-Bold-12" transform="translate(3793.703125 0)"/>
     <use xlink:href="#DejaVuSans-Bold-3" transform="translate(3830.234375 0)"/>
     <use xlink:href="#DejaVuSans-Bold-5b" transform="translate(3865.046875 0)"/>
     <use xlink:href="#DejaVuSans-Bold-5c" transform="translate(3929.546875 0)"/>
     <use xlink:href="#DejaVuSans-Bold-5d" transform="translate(3994.734375 0)"/>
     <use xlink:href="#DejaVuSans-Bold-55" transform="translate(4052.9375 0)"/>
     <use xlink:href="#DejaVuSans-Bold-48" transform="translate(4102.25 0)"/>
     <use xlink:href="#DejaVuSans-Bold-51" transform="translate(4170.078125 0)"/>
     <use xlink:href="#DejaVuSans-Bold-47" transform="translate(4241.265625 0)"/>
     <use xlink:href="#DejaVuSans-Bold-48" transform="translate(4312.84375 0)"/>
     <use xlink:href="#DejaVuSans-Bold-55" transform="translate(4380.671875 0)"/>
     <use xlink:href="#DejaVuSans-Bold-3" transform="translate(4429.984375 0)"/>
     <use xlink:href="#DejaVuSans-Bold-12" transform="translate(4464.796875 0)"/>
     <use xlink:href="#DejaVuSans-Bold-3" transform="translate(4501.328125 0)"/>
     <use xlink:href="#DejaVuSans-Bold-55" transform="translate(4536.140625 0)"/>
     <use xlink:href="#DejaVuSans-Bold-4a" transform="translate(4585.453125 0)"/>
     <use xlink:href="#DejaVuSans-Bold-53" transform="translate(4657.03125 0)"/>
     <use xlink:href="#DejaVuSans-Bold-5c" transform="translate(4728.609375 0)"/>
     <use xlink:href="#DejaVuSans-Bold-46" transform="translate(4793.796875 0)"/>
     <use xlink:href="#DejaVuSans-Bold-55" transform="translate(4853.078125 0)"/>
     <use xlink:href="#DejaVuSans-Bold-58" transform="translate(4902.390625 0)"/>
     <use xlink:href="#DejaVuSans-Bold-50" transform="translate(4973.578125 0)"/>
     <use xlink:href="#DejaVuSans-Bold-45" transform="translate(5077.78125 0)"/>
     <use xlink:href="#DejaVuSans-Bold-56" transform="translate(5149.359375 0)"/>
    </g>
   </g>
   <g id="text_7">
    <!-- Full: readcon-chemfiles  ·  Lean: readcon  ·  Viz: chemparseplot.rgoswami.me · rgpycrumbs.rgoswami.me -->
    <g style="fill: #64748b" transform="translate(163.135625 204.06375) scale(0.08 -0.08)">
     <defs>
      <path id="DejaVuSans-29" d="M 628 4666 
L 3309 4666 
L 3309 4134 
L 1259 4134 
L 1259 2759 
L 3109 2759 
L 3109 2228 
L 1259 2228 
L 1259 0 
L 628 0 
L 628 4666 
z
" transform="scale(0.015625)"/>
      <path id="DejaVuSans-58" d="M 544 1381 
L 544 3500 
L 1119 3500 
L 1119 1403 
Q 1119 906 1312 657 
Q 1506 409 1894 409 
Q 2359 409 2629 706 
Q 2900 1003 2900 1516 
L 2900 3500 
L 3475 3500 
L 3475 0 
L 2900 0 
L 2900 538 
Q 2691 219 2414 64 
Q 2138 -91 1772 -91 
Q 1169 -91 856 284 
Q 544 659 544 1381 
z
M 1991 3584 
L 1991 3584 
z
" transform="scale(0.015625)"/>
      <path id="DejaVuSans-4f" d="M 603 4863 
L 1178 4863 
L 1178 0 
L 603 0 
L 603 4863 
z
" transform="scale(0.015625)"/>
      <path id="DejaVuSans-1d" d="M 750 794 
L 1409 794 
L 1409 0 
L 750 0 
L 750 794 
z
M 750 3309 
L 1409 3309 
L 1409 2516 
L 750 2516 
L 750 3309 
z
" transform="scale(0.015625)"/>
      <path id="DejaVuSans-3" transform="scale(0.015625)"/>
      <path id="DejaVuSans-55" d="M 2631 2963 
Q 2534 3019 2420 3045 
Q 2306 3072 2169 3072 
Q 1681 3072 1420 2755 
Q 1159 2438 1159 1844 
L 1159 0 
L 581 0 
L 581 3500 
L 1159 3500 
L 1159 2956 
Q 1341 3275 1631 3429 
Q 1922 3584 2338 3584 
Q 2397 3584 2469 3576 
Q 2541 3569 2628 3553 
L 2631 2963 
z
" transform="scale(0.015625)"/>
      <path id="DejaVuSans-48" d="M 3597 1894 
L 3597 1613 
L 953 1613 
Q 991 1019 1311 708 
Q 1631 397 2203 397 
Q 2534 397 2845 478 
Q 3156 559 3463 722 
L 3463 178 
Q 3153 47 2828 -22 
Q 2503 -91 2169 -91 
Q 1331 -91 842 396 
Q 353 884 353 1716 
Q 353 2575 817 3079 
Q 1281 3584 2069 3584 
Q 2775 3584 3186 3129 
Q 3597 2675 3597 1894 
z
M 3022 2063 
Q 3016 2534 2758 2815 
Q 2500 3097 2075 3097 
Q 1594 3097 1305 2825 
Q 1016 2553 972 2059 
L 3022 2063 
z
" transform="scale(0.015625)"/>
      <path id="DejaVuSans-44" d="M 2194 1759 
Q 1497 1759 1228 1600 
Q 959 1441 959 1056 
Q 959 750 1161 570 
Q 1363 391 1709 391 
Q 2188 391 2477 730 
Q 2766 1069 2766 1631 
L 2766 1759 
L 2194 1759 
z
M 3341 1997 
L 3341 0 
L 2766 0 
L 2766 531 
Q 2569 213 2275 61 
Q 1981 -91 1556 -91 
Q 1019 -91 701 211 
Q 384 513 384 1019 
Q 384 1609 779 1909 
Q 1175 2209 1959 2209 
L 2766 2209 
L 2766 2266 
Q 2766 2663 2505 2880 
Q 2244 3097 1772 3097 
Q 1472 3097 1187 3025 
Q 903 2953 641 2809 
L 641 3341 
Q 956 3463 1253 3523 
Q 1550 3584 1831 3584 
Q 2591 3584 2966 3190 
Q 3341 2797 3341 1997 
z
" transform="scale(0.015625)"/>
      <path id="DejaVuSans-47" d="M 2906 2969 
L 2906 4863 
L 3481 4863 
L 3481 0 
L 2906 0 
L 2906 525 
Q 2725 213 2448 61 
Q 2172 -91 1784 -91 
Q 1150 -91 751 415 
Q 353 922 353 1747 
Q 353 2572 751 3078 
Q 1150 3584 1784 3584 
Q 2172 3584 2448 3432 
Q 2725 3281 2906 2969 
z
M 947 1747 
Q 947 1113 1208 752 
Q 1469 391 1925 391 
Q 2381 391 2643 752 
Q 2906 1113 2906 1747 
Q 2906 2381 2643 2742 
Q 2381 3103 1925 3103 
Q 1469 3103 1208 2742 
Q 947 2381 947 1747 
z
" transform="scale(0.015625)"/>
      <path id="DejaVuSans-46" d="M 3122 3366 
L 3122 2828 
Q 2878 2963 2633 3030 
Q 2388 3097 2138 3097 
Q 1578 3097 1268 2742 
Q 959 2388 959 1747 
Q 959 1106 1268 751 
Q 1578 397 2138 397 
Q 2388 397 2633 464 
Q 2878 531 3122 666 
L 3122 134 
Q 2881 22 2623 -34 
Q 2366 -91 2075 -91 
Q 1284 -91 818 406 
Q 353 903 353 1747 
Q 353 2603 823 3093 
Q 1294 3584 2113 3584 
Q 2378 3584 2631 3529 
Q 2884 3475 3122 3366 
z
" transform="scale(0.015625)"/>
      <path id="DejaVuSans-52" d="M 1959 3097 
Q 1497 3097 1228 2736 
Q 959 2375 959 1747 
Q 959 1119 1226 758 
Q 1494 397 1959 397 
Q 2419 397 2687 759 
Q 2956 1122 2956 1747 
Q 2956 2369 2687 2733 
Q 2419 3097 1959 3097 
z
M 1959 3584 
Q 2709 3584 3137 3096 
Q 3566 2609 3566 1747 
Q 3566 888 3137 398 
Q 2709 -91 1959 -91 
Q 1206 -91 779 398 
Q 353 888 353 1747 
Q 353 2609 779 3096 
Q 1206 3584 1959 3584 
z
" transform="scale(0.015625)"/>
      <path id="DejaVuSans-51" d="M 3513 2113 
L 3513 0 
L 2938 0 
L 2938 2094 
Q 2938 2591 2744 2837 
Q 2550 3084 2163 3084 
Q 1697 3084 1428 2787 
Q 1159 2491 1159 1978 
L 1159 0 
L 581 0 
L 581 3500 
L 1159 3500 
L 1159 2956 
Q 1366 3272 1645 3428 
Q 1925 3584 2291 3584 
Q 2894 3584 3203 3211 
Q 3513 2838 3513 2113 
z
" transform="scale(0.015625)"/>
      <path id="DejaVuSans-10" d="M 313 2009 
L 1997 2009 
L 1997 1497 
L 313 1497 
L 313 2009 
z
" transform="scale(0.015625)"/>
      <path id="DejaVuSans-4b" d="M 3513 2113 
L 3513 0 
L 2938 0 
L 2938 2094 
Q 2938 2591 2744 2837 
Q 2550 3084 2163 3084 
Q 1697 3084 1428 2787 
Q 1159 2491 1159 1978 
L 1159 0 
L 581 0 
L 581 4863 
L 1159 4863 
L 1159 2956 
Q 1366 3272 1645 3428 
Q 1925 3584 2291 3584 
Q 2894 3584 3203 3211 
Q 3513 2838 3513 2113 
z
" transform="scale(0.015625)"/>
      <path id="DejaVuSans-50" d="M 3328 2828 
Q 3544 3216 3844 3400 
Q 4144 3584 4550 3584 
Q 5097 3584 5394 3201 
Q 5691 2819 5691 2113 
L 5691 0 
L 5113 0 
L 5113 2094 
Q 5113 2597 4934 2840 
Q 4756 3084 4391 3084 
Q 3944 3084 3684 2787 
Q 3425 2491 3425 1978 
L 3425 0 
L 2847 0 
L 2847 2094 
Q 2847 2600 2669 2842 
Q 2491 3084 2119 3084 
Q 1678 3084 1418 2786 
Q 1159 2488 1159 1978 
L 1159 0 
L 581 0 
L 581 3500 
L 1159 3500 
L 1159 2956 
Q 1356 3278 1631 3431 
Q 1906 3584 2284 3584 
Q 2666 3584 2933 3390 
Q 3200 3197 3328 2828 
z
" transform="scale(0.015625)"/>
      <path id="DejaVuSans-13af" d="M 3431 3500 
L 3431 0 
L 2853 0 
L 2853 3053 
L 1275 3053 
L 1275 0 
L 697 0 
L 697 3053 
L 147 3053 
L 147 3500 
L 697 3500 
L 697 3744 
Q 697 4316 967 4589 
Q 1238 4863 1797 4863 
L 2375 4863 
L 2375 4384 
L 1825 4384 
Q 1516 4384 1395 4259 
Q 1275 4134 1275 3809 
L 1275 3500 
L 3431 3500 
z
M 2853 4856 
L 3431 4856 
L 3431 4128 
L 2853 4128 
L 2853 4856 
z
" transform="scale(0.015625)"/>
      <path id="DejaVuSans-56" d="M 2834 3397 
L 2834 2853 
Q 2591 2978 2328 3040 
Q 2066 3103 1784 3103 
Q 1356 3103 1142 2972 
Q 928 2841 928 2578 
Q 928 2378 1081 2264 
Q 1234 2150 1697 2047 
L 1894 2003 
Q 2506 1872 2764 1633 
Q 3022 1394 3022 966 
Q 3022 478 2636 193 
Q 2250 -91 1575 -91 
Q 1294 -91 989 -36 
Q 684 19 347 128 
L 347 722 
Q 666 556 975 473 
Q 1284 391 1588 391 
Q 1994 391 2212 530 
Q 2431 669 2431 922 
Q 2431 1156 2273 1281 
Q 2116 1406 1581 1522 
L 1381 1569 
Q 847 1681 609 1914 
Q 372 2147 372 2553 
Q 372 3047 722 3315 
Q 1072 3584 1716 3584 
Q 2034 3584 2315 3537 
Q 2597 3491 2834 3397 
z
" transform="scale(0.015625)"/>
      <path id="DejaVuSans-79" d="M 684 2619 
L 1344 2619 
L 1344 1825 
L 684 1825 
L 684 2619 
z
" transform="scale(0.015625)"/>
      <path id="DejaVuSans-2f" d="M 628 4666 
L 1259 4666 
L 1259 531 
L 3531 531 
L 3531 0 
L 628 0 
L 628 4666 
z
" transform="scale(0.015625)"/>
      <path id="DejaVuSans-39" d="M 1831 0 
L 50 4666 
L 709 4666 
L 2188 738 
L 3669 4666 
L 4325 4666 
L 2547 0 
L 1831 0 
z
" transform="scale(0.015625)"/>
      <path id="DejaVuSans-4c" d="M 603 3500 
L 1178 3500 
L 1178 0 
L 603 0 
L 603 3500 
z
M 603 4863 
L 1178 4863 
L 1178 4134 
L 603 4134 
L 603 4863 
z
" transform="scale(0.015625)"/>
      <path id="DejaVuSans-5d" d="M 353 3500 
L 3084 3500 
L 3084 2975 
L 922 459 
L 3084 459 
L 3084 0 
L 275 0 
L 275 525 
L 2438 3041 
L 353 3041 
L 353 3500 
z
" transform="scale(0.015625)"/>
      <path id="DejaVuSans-53" d="M 1159 525 
L 1159 -1331 
L 581 -1331 
L 581 3500 
L 1159 3500 
L 1159 2969 
Q 1341 3281 1617 3432 
Q 1894 3584 2278 3584 
Q 2916 3584 3314 3078 
Q 3713 2572 3713 1747 
Q 3713 922 3314 415 
Q 2916 -91 2278 -91 
Q 1894 -91 1617 61 
Q 1341 213 1159 525 
z
M 3116 1747 
Q 3116 2381 2855 2742 
Q 2594 3103 2138 3103 
Q 1681 3103 1420 2742 
Q 1159 2381 1159 1747 
Q 1159 1113 1420 752 
Q 1681 391 2138 391 
Q 2594 391 2855 752 
Q 3116 1113 3116 1747 
z
" transform="scale(0.015625)"/>
      <path id="DejaVuSans-57" d="M 1172 4494 
L 1172 3500 
L 2356 3500 
L 2356 3053 
L 1172 3053 
L 1172 1153 
Q 1172 725 1289 603 
Q 1406 481 1766 481 
L 2356 481 
L 2356 0 
L 1766 0 
Q 1100 0 847 248 
Q 594 497 594 1153 
L 594 3053 
L 172 3053 
L 172 3500 
L 594 3500 
L 594 4494 
L 1172 4494 
z
" transform="scale(0.015625)"/>
      <path id="DejaVuSans-11" d="M 684 794 
L 1344 794 
L 1344 0 
L 684 0 
L 684 794 
z
" transform="scale(0.015625)"/>
      <path id="DejaVuSans-4a" d="M 2906 1791 
Q 2906 2416 2648 2759 
Q 2391 3103 1925 3103 
Q 1463 3103 1205 2759 
Q 947 2416 947 1791 
Q 947 1169 1205 825 
Q 1463 481 1925 481 
Q 2391 481 2648 825 
Q 2906 1169 2906 1791 
z
M 3481 434 
Q 3481 -459 3084 -895 
Q 2688 -1331 1869 -1331 
Q 1566 -1331 1297 -1286 
Q 1028 -1241 775 -1147 
L 775 -588 
Q 1028 -725 1275 -790 
Q 1522 -856 1778 -856 
Q 2344 -856 2625 -561 
Q 2906 -266 2906 331 
L 2906 616 
Q 2728 306 2450 153 
Q 2172 0 1784 0 
Q 1141 0 747 490 
Q 353 981 353 1791 
Q 353 2603 747 3093 
Q 1141 3584 1784 3584 
Q 2172 3584 2450 3431 
Q 2728 3278 2906 2969 
L 2906 3500 
L 3481 3500 
L 3481 434 
z
" transform="scale(0.015625)"/>
      <path id="DejaVuSans-5a" d="M 269 3500 
L 844 3500 
L 1563 769 
L 2278 3500 
L 2956 3500 
L 3675 769 
L 4391 3500 
L 4966 3500 
L 4050 0 
L 3372 0 
L 2619 2869 
L 1863 0 
L 1184 0 
L 269 3500 
z
" transform="scale(0.015625)"/>
      <path id="DejaVuSans-5c" d="M 2059 -325 
Q 1816 -950 1584 -1140 
Q 1353 -1331 966 -1331 
L 506 -1331 
L 506 -850 
L 844 -850 
Q 1081 -850 1212 -737 
Q 1344 -625 1503 -206 
L 1606 56 
L 191 3500 
L 800 3500 
L 1894 763 
L 2988 3500 
L 3597 3500 
L 2059 -325 
z
" transform="scale(0.015625)"/>
      <path id="DejaVuSans-45" d="M 3116 1747 
Q 3116 2381 2855 2742 
Q 2594 3103 2138 3103 
Q 1681 3103 1420 2742 
Q 1159 2381 1159 1747 
Q 1159 1113 1420 752 
Q 1681 391 2138 391 
Q 2594 391 2855 752 
Q 3116 1113 3116 1747 
z
M 1159 2969 
Q 1341 3281 1617 3432 
Q 1894 3584 2278 3584 
Q 2916 3584 3314 3078 
Q 3713 2572 3713 1747 
Q 3713 922 3314 415 
Q 2916 -91 2278 -91 
Q 1894 -91 1617 61 
Q 1341 213 1159 525 
L 1159 0 
L 581 0 
L 581 4863 
L 1159 4863 
L 1159 2969 
z
" transform="scale(0.015625)"/>
     </defs>
     <use xlink:href="#DejaVuSans-29"/>
     <use xlink:href="#DejaVuSans-58" transform="translate(52.046875 0)"/>
     <use xlink:href="#DejaVuSans-4f" transform="translate(115.421875 0)"/>
     <use xlink:href="#DejaVuSans-4f" transform="translate(143.203125 0)"/>
     <use xlink:href="#DejaVuSans-1d" transform="translate(170.984375 0)"/>
     <use xlink:href="#DejaVuSans-3" transform="translate(204.671875 0)"/>
     <use xlink:href="#DejaVuSans-55" transform="translate(236.453125 0)"/>
     <use xlink:href="#DejaVuSans-48" transform="translate(275.359375 0)"/>
     <use xlink:href="#DejaVuSans-44" transform="translate(336.890625 0)"/>
     <use xlink:href="#DejaVuSans-47" transform="translate(398.171875 0)"/>
     <use xlink:href="#DejaVuSans-46" transform="translate(461.65625 0)"/>
     <use xlink:href="#DejaVuSans-52" transform="translate(516.640625 0)"/>
     <use xlink:href="#DejaVuSans-51" transform="translate(577.828125 0)"/>
     <use xlink:href="#DejaVuSans-10" transform="translate(641.203125 0)"/>
     <use xlink:href="#DejaVuSans-46" transform="translate(677.28125 0)"/>
     <use xlink:href="#DejaVuSans-4b" transform="translate(732.265625 0)"/>
     <use xlink:href="#DejaVuSans-48" transform="translate(795.640625 0)"/>
     <use xlink:href="#DejaVuSans-50" transform="translate(857.171875 0)"/>
     <use xlink:href="#DejaVuSans-13af" transform="translate(954.578125 0)"/>
     <use xlink:href="#DejaVuSans-4f" transform="translate(1017.5625 0)"/>
     <use xlink:href="#DejaVuSans-48" transform="translate(1045.34375 0)"/>
     <use xlink:href="#DejaVuSans-56" transform="translate(1106.875 0)"/>
     <use xlink:href="#DejaVuSans-3" transform="translate(1158.96875 0)"/>
     <use xlink:href="#DejaVuSans-3" transform="translate(1190.75 0)"/>
     <use xlink:href="#DejaVuSans-79" transform="translate(1222.53125 0)"/>
     <use xlink:href="#DejaVuSans-3" transform="translate(1254.3125 0)"/>
     <use xlink:href="#DejaVuSans-3" transform="translate(1286.09375 0)"/>
     <use xlink:href="#DejaVuSans-2f" transform="translate(1317.875 0)"/>
     <use xlink:href="#DejaVuSans-48" transform="translate(1371.84375 0)"/>
     <use xlink:href="#DejaVuSans-44" transform="translate(1433.375 0)"/>
     <use xlink:href="#DejaVuSans-51" transform="translate(1494.65625 0)"/>
     <use xlink:href="#DejaVuSans-1d" transform="translate(1558.03125 0)"/>
     <use xlink:href="#DejaVuSans-3" transform="translate(1591.71875 0)"/>
     <use xlink:href="#DejaVuSans-55" transform="translate(1623.5 0)"/>
     <use xlink:href="#DejaVuSans-48" transform="translate(1662.40625 0)"/>
     <use xlink:href="#DejaVuSans-44" transform="translate(1723.9375 0)"/>
     <use xlink:href="#DejaVuSans-47" transform="translate(1785.21875 0)"/>
     <use xlink:href="#DejaVuSans-46" transform="translate(1848.703125 0)"/>
     <use xlink:href="#DejaVuSans-52" transform="translate(1903.6875 0)"/>
     <use xlink:href="#DejaVuSans-51" transform="translate(1964.875 0)"/>
     <use xlink:href="#DejaVuSans-3" transform="translate(2028.25 0)"/>
     <use xlink:href="#DejaVuSans-3" transform="translate(2060.03125 0)"/>
     <use xlink:href="#DejaVuSans-79" transform="translate(2091.8125 0)"/>
     <use xlink:href="#DejaVuSans-3" transform="translate(2123.59375 0)"/>
     <use xlink:href="#DejaVuSans-3" transform="translate(2155.375 0)"/>
     <use xlink:href="#DejaVuSans-39" transform="translate(2187.15625 0)"/>
     <use xlink:href="#DejaVuSans-4c" transform="translate(2253.359375 0)"/>
     <use xlink:href="#DejaVuSans-5d" transform="translate(2281.140625 0)"/>
     <use xlink:href="#DejaVuSans-1d" transform="translate(2333.625 0)"/>
     <use xlink:href="#DejaVuSans-3" transform="translate(2367.3125 0)"/>
     <use xlink:href="#DejaVuSans-46" transform="translate(2399.09375 0)"/>
     <use xlink:href="#DejaVuSans-4b" transform="translate(2454.078125 0)"/>
     <use xlink:href="#DejaVuSans-48" transform="translate(2517.453125 0)"/>
     <use xlink:href="#DejaVuSans-50" transform="translate(2578.984375 0)"/>
     <use xlink:href="#DejaVuSans-53" transform="translate(2676.390625 0)"/>
     <use xlink:href="#DejaVuSans-44" transform="translate(2739.875 0)"/>
     <use xlink:href="#DejaVuSans-55" transform="translate(2801.15625 0)"/>
     <use xlink:href="#DejaVuSans-56" transform="translate(2842.265625 0)"/>
     <use xlink:href="#DejaVuSans-48" transform="translate(2894.359375 0)"/>
     <use xlink:href="#DejaVuSans-53" transform="translate(2955.890625 0)"/>
     <use xlink:href="#DejaVuSans-4f" transform="translate(3019.375 0)"/>
     <use xlink:href="#DejaVuSans-52" transform="translate(3047.15625 0)"/>
     <use xlink:href="#DejaVuSans-57" transform="translate(3108.34375 0)"/>
     <use xlink:href="#DejaVuSans-11" transform="translate(3147.546875 0)"/>
     <use xlink:href="#DejaVuSans-55" transform="translate(3179.328125 0)"/>
     <use xlink:href="#DejaVuSans-4a" transform="translate(3218.6875 0)"/>
     <use xlink:href="#DejaVuSans-52" transform="translate(3282.171875 0)"/>
     <use xlink:href="#DejaVuSans-56" transform="translate(3343.359375 0)"/>
     <use xlink:href="#DejaVuSans-5a" transform="translate(3395.453125 0)"/>
     <use xlink:href="#DejaVuSans-44" transform="translate(3477.234375 0)"/>
     <use xlink:href="#DejaVuSans-50" transform="translate(3538.515625 0)"/>
     <use xlink:href="#DejaVuSans-4c" transform="translate(3635.921875 0)"/>
     <use xlink:href="#DejaVuSans-11" transform="translate(3663.703125 0)"/>
     <use xlink:href="#DejaVuSans-50" transform="translate(3695.484375 0)"/>
     <use xlink:href="#DejaVuSans-48" transform="translate(3792.890625 0)"/>
     <use xlink:href="#DejaVuSans-3" transform="translate(3854.421875 0)"/>
     <use xlink:href="#DejaVuSans-79" transform="translate(3886.203125 0)"/>
     <use xlink:href="#DejaVuSans-3" transform="translate(3917.984375 0)"/>
     <use xlink:href="#DejaVuSans-55" transform="translate(3949.765625 0)"/>
     <use xlink:href="#DejaVuSans-4a" transform="translate(3989.125 0)"/>
     <use xlink:href="#DejaVuSans-53" transform="translate(4052.609375 0)"/>
     <use xlink:href="#DejaVuSans-5c" transform="translate(4116.09375 0)"/>
     <use xlink:href="#DejaVuSans-46" transform="translate(4175.28125 0)"/>
     <use xlink:href="#DejaVuSans-55" transform="translate(4230.265625 0)"/>
     <use xlink:href="#DejaVuSans-58" transform="translate(4271.375 0)"/>
     <use xlink:href="#DejaVuSans-50" transform="translate(4334.75 0)"/>
     <use xlink:href="#DejaVuSans-45" transform="translate(4432.15625 0)"/>
     <use xlink:href="#DejaVuSans-56" transform="translate(4495.640625 0)"/>
     <use xlink:href="#DejaVuSans-11" transform="translate(4547.734375 0)"/>
     <use xlink:href="#DejaVuSans-55" transform="translate(4579.515625 0)"/>
     <use xlink:href="#DejaVuSans-4a" transform="translate(4618.875 0)"/>
     <use xlink:href="#DejaVuSans-52" transform="translate(4682.359375 0)"/>
     <use xlink:href="#DejaVuSans-56" transform="translate(4743.546875 0)"/>
     <use xlink:href="#DejaVuSans-5a" transform="translate(4795.640625 0)"/>
     <use xlink:href="#DejaVuSans-44" transform="translate(4877.421875 0)"/>
     <use xlink:href="#DejaVuSans-50" transform="translate(4938.703125 0)"/>
     <use xlink:href="#DejaVuSans-4c" transform="translate(5036.109375 0)"/>
     <use xlink:href="#DejaVuSans-11" transform="translate(5063.890625 0)"/>
     <use xlink:href="#DejaVuSans-50" transform="translate(5095.671875 0)"/>
     <use xlink:href="#DejaVuSans-48" transform="translate(5193.078125 0)"/>
    </g>
   </g>
   <g id="line2d_1">
    <path d="M 371.117163 222.101546 
L 379.555958 213.452411 
" clip-path="url(#pad4f9fad02)" style="fill: none; stroke: #418544; stroke-width: 1.1; stroke-linecap: square"/>
   </g>
   <g id="line2d_2">
    <path d="M 366.701081 219.597254 
L 379.555958 213.452411 
" clip-path="url(#pad4f9fad02)" style="fill: none; stroke: #408444; stroke-width: 1.1; stroke-linecap: square"/>
   </g>
   <g id="line2d_3">
    <path d="M 402.30179 179.956028 
L 385.272216 180.605026 
" clip-path="url(#pad4f9fad02)" style="fill: none; stroke: #2c7547; stroke-width: 1.1; stroke-linecap: square"/>
   </g>
   <g id="line2d_4">
    <path d="M 402.30179 179.956028 
L 418.463206 193.944794 
" clip-path="url(#pad4f9fad02)" style="fill: none; stroke: #256f48; stroke-width: 1.1; stroke-linecap: square"/>
   </g>
   <g id="line2d_5">
    <path d="M 402.30179 179.956028 
L 402.084781 171.0095 
" clip-path="url(#pad4f9fad02)" style="fill: none; stroke: #0b544d; stroke-width: 1.1; stroke-linecap: square"/>
   </g>
   <g id="line2d_6">
    <path d="M 385.272216 180.605026 
L 371.598155 172.129473 
" clip-path="url(#pad4f9fad02)" style="fill: none; stroke: #0b554d; stroke-width: 1.1; stroke-linecap: square"/>
   </g>
   <g id="line2d_7">
    <path d="M 385.272216 180.605026 
L 387.113132 180.991494 
" clip-path="url(#pad4f9fad02)" style="fill: none; stroke: #0b534e; stroke-width: 1.1; stroke-linecap: square"/>
   </g>
   <g id="line2d_8">
    <path d="M 418.463206 193.944794 
L 417.54525 207.959117 
" clip-path="url(#pad4f9fad02)" style="fill: none; stroke: #307846; stroke-width: 1.1; stroke-linecap: square"/>
   </g>
   <g id="line2d_9">
    <path d="M 418.463206 193.944794 
L 430.177038 195.214139 
" clip-path="url(#pad4f9fad02)" style="fill: none; stroke: #0b534e; stroke-width: 1.1; stroke-linecap: square"/>
   </g>
   <g id="line2d_10">
    <path d="M 417.54525 207.959117 
L 427.580608 221.170212 
" clip-path="url(#pad4f9fad02)" style="fill: none; stroke: #0b564d; stroke-width: 1.1; stroke-linecap: square"/>
   </g>
   <g id="line2d_11">
    <path d="M 417.54525 207.959117 
L 410.953624 204.900257 
" clip-path="url(#pad4f9fad02)" style="fill: none; stroke: #0b554d; stroke-width: 1.1; stroke-linecap: square"/>
   </g>
   <g id="patch_11">
    <path d="M 410.953624 210.270838 
C 412.391572 210.270838 413.770818 209.70496 414.787601 208.697831 
C 415.804384 207.690703 416.375687 206.324552 416.375687 204.900257 
C 416.375687 203.475962 415.804384 202.109811 414.787601 201.102682 
C 413.770818 200.095554 412.391572 199.529675 410.953624 199.529675 
C 409.515676 199.529675 408.136429 200.095554 407.119646 201.102682 
C 406.102864 202.109811 405.531561 203.475962 405.531561 204.900257 
C 405.531561 206.324552 406.102864 207.690703 407.119646 208.697831 
C 408.136429 209.70496 409.515676 210.270838 410.953624 210.270838 
z
" clip-path="url(#pad4f9fad02)" style="fill: #ffffff; stroke: #888888; stroke-width: 0.35; stroke-linejoin: miter"/>
   </g>
   <g id="patch_12">
    <path d="M 366.701081 225.572241 
C 368.300855 225.572241 369.835323 224.942679 370.966535 223.822208 
C 372.097746 222.701737 372.733344 221.181839 372.733344 219.597254 
C 372.733344 218.012668 372.097746 216.49277 370.966535 215.372299 
C 369.835323 214.251829 368.300855 213.622266 366.701081 213.622266 
C 365.101306 213.622266 363.566838 214.251829 362.435627 215.372299 
C 361.304415 216.49277 360.668818 218.012668 360.668818 219.597254 
C 360.668818 221.181839 361.304415 222.701737 362.435627 223.822208 
C 363.566838 224.942679 365.101306 225.572241 366.701081 225.572241 
z
" clip-path="url(#pad4f9fad02)" style="fill: #ff0d0d; stroke: #800000; stroke-width: 0.35; stroke-linejoin: miter"/>
   </g>
   <g id="patch_13">
    <path d="M 387.113132 186.362076 
C 388.55108 186.362076 389.930327 185.796197 390.94711 184.789069 
C 391.963892 183.78194 392.535195 182.415789 392.535195 180.991494 
C 392.535195 179.5672 391.963892 178.201049 390.94711 177.19392 
C 389.930327 176.186791 388.55108 175.620913 387.113132 175.620913 
C 385.675184 175.620913 384.295937 176.186791 383.279155 177.19392 
C 382.262372 178.201049 381.691069 179.5672 381.691069 180.991494 
C 381.691069 182.415789 382.262372 183.78194 383.279155 184.789069 
C 384.295937 185.796197 385.675184 186.362076 387.113132 186.362076 
z
" clip-path="url(#pad4f9fad02)" style="fill: #ffffff; stroke: #888888; stroke-width: 0.35; stroke-linejoin: miter"/>
   </g>
   <g id="patch_14">
    <path d="M 417.54525 214.106792 
C 419.191261 214.106792 420.770078 213.459034 421.933983 212.30618 
C 423.097889 211.153325 423.751856 209.5895 423.751856 207.959117 
C 423.751856 206.328735 423.097889 204.764909 421.933983 203.612054 
C 420.770078 202.4592 419.191261 201.811442 417.54525 201.811442 
C 415.899239 201.811442 414.320423 202.4592 413.156517 203.612054 
C 411.992612 204.764909 411.338645 206.328735 411.338645 207.959117 
C 411.338645 209.5895 411.992612 211.153325 413.156517 212.30618 
C 414.320423 213.459034 415.899239 214.106792 417.54525 214.106792 
z
" clip-path="url(#pad4f9fad02)" style="fill: #909090; stroke: #404040; stroke-width: 0.35; stroke-linejoin: miter"/>
   </g>
   <g id="patch_15">
    <path d="M 427.580608 226.540793 
C 429.018556 226.540793 430.397803 225.974915 431.414585 224.967786 
C 432.431368 223.960658 433.002671 222.594507 433.002671 221.170212 
C 433.002671 219.745917 432.431368 218.379766 431.414585 217.372637 
C 430.397803 216.365509 429.018556 215.799631 427.580608 215.799631 
C 426.14266 215.799631 424.763413 216.365509 423.746631 217.372637 
C 422.729848 218.379766 422.158545 219.745917 422.158545 221.170212 
C 422.158545 222.594507 422.729848 223.960658 423.746631 224.967786 
C 424.763413 225.974915 426.14266 226.540793 427.580608 226.540793 
z
" clip-path="url(#pad4f9fad02)" style="fill: #ffffff; stroke: #888888; stroke-width: 0.35; stroke-linejoin: miter"/>
   </g>
   <g id="patch_16">
    <path d="M 379.555958 220.10088 
C 381.336054 220.10088 383.043482 219.400356 384.3022 218.153589 
C 385.560918 216.906822 386.268158 215.215606 386.268158 213.452411 
C 386.268158 211.689217 385.560918 209.998001 384.3022 208.751234 
C 383.043482 207.504467 381.336054 206.803943 379.555958 206.803943 
C 377.775862 206.803943 376.068434 207.504467 374.809716 208.751234 
C 373.550998 209.998001 372.843758 211.689217 372.843758 213.452411 
C 372.843758 215.215606 373.550998 216.906822 374.809716 218.153589 
C 376.068434 219.400356 377.775862 220.10088 379.555958 220.10088 
z
" clip-path="url(#pad4f9fad02)" style="fill: #ffff30; stroke: #808000; stroke-width: 0.35; stroke-linejoin: miter"/>
   </g>
   <g id="patch_17">
    <path d="M 385.272216 186.752701 
C 386.918227 186.752701 388.497043 186.104943 389.660949 184.952089 
C 390.824854 183.799234 391.478821 182.235409 391.478821 180.605026 
C 391.478821 178.974644 390.824854 177.410818 389.660949 176.257963 
C 388.497043 175.105109 386.918227 174.457351 385.272216 174.457351 
C 383.626205 174.457351 382.047388 175.105109 380.883483 176.257963 
C 379.719577 177.410818 379.06561 178.974644 379.06561 180.605026 
C 379.06561 182.235409 379.719577 183.799234 380.883483 184.952089 
C 382.047388 186.104943 383.626205 186.752701 385.272216 186.752701 
z
" clip-path="url(#pad4f9fad02)" style="fill: #909090; stroke: #404040; stroke-width: 0.35; stroke-linejoin: miter"/>
   </g>
   <g id="patch_18">
    <path d="M 371.598155 177.500054 
C 373.036103 177.500054 374.415349 176.934176 375.432132 175.927047 
C 376.448915 174.919919 377.020218 173.553768 377.020218 172.129473 
C 377.020218 170.705178 376.448915 169.339027 375.432132 168.331899 
C 374.415349 167.32477 373.036103 166.758892 371.598155 166.758892 
C 370.160207 166.758892 368.78096 167.32477 367.764177 168.331899 
C 366.747395 169.339027 366.176092 170.705178 366.176092 172.129473 
C 366.176092 173.553768 366.747395 174.919919 367.764177 175.927047 
C 368.78096 176.934176 370.160207 177.500054 371.598155 177.500054 
z
" clip-path="url(#pad4f9fad02)" style="fill: #ffffff; stroke: #888888; stroke-width: 0.35; stroke-linejoin: miter"/>
   </g>
   <g id="patch_19">
    <path d="M 418.463206 200.092469 
C 420.109217 200.092469 421.688033 199.444711 422.851939 198.291857 
C 424.015844 197.139002 424.669811 195.575177 424.669811 193.944794 
C 424.669811 192.314412 424.015844 190.750586 422.851939 189.597731 
C 421.688033 188.444877 420.109217 187.797119 418.463206 187.797119 
C 416.817195 187.797119 415.238378 188.444877 414.074473 189.597731 
C 412.910567 190.750586 412.2566 192.314412 412.2566 193.944794 
C 412.2566 195.575177 412.910567 197.139002 414.074473 198.291857 
C 415.238378 199.444711 416.817195 200.092469 418.463206 200.092469 
z
" clip-path="url(#pad4f9fad02)" style="fill: #909090; stroke: #404040; stroke-width: 0.35; stroke-linejoin: miter"/>
   </g>
   <g id="patch_20">
    <path d="M 402.30179 186.103703 
C 403.947801 186.103703 405.526617 185.455945 406.690523 184.303091 
C 407.854428 183.150236 408.508396 181.58641 408.508396 179.956028 
C 408.508396 178.325646 407.854428 176.76182 406.690523 175.608965 
C 405.526617 174.456111 403.947801 173.808353 402.30179 173.808353 
C 400.655779 173.808353 399.076962 174.456111 397.913057 175.608965 
C 396.749151 176.76182 396.095184 178.325646 396.095184 179.956028 
C 396.095184 181.58641 396.749151 183.150236 397.913057 184.303091 
C 399.076962 185.455945 400.655779 186.103703 402.30179 186.103703 
z
" clip-path="url(#pad4f9fad02)" style="fill: #909090; stroke: #404040; stroke-width: 0.35; stroke-linejoin: miter"/>
   </g>
   <g id="patch_21">
    <path d="M 371.117163 228.076533 
C 372.716937 228.076533 374.251405 227.446971 375.382617 226.3265 
C 376.513828 225.206029 377.149426 223.686131 377.149426 222.101546 
C 377.149426 220.51696 376.513828 218.997062 375.382617 217.876591 
C 374.251405 216.756121 372.716937 216.126558 371.117163 216.126558 
C 369.517388 216.126558 367.98292 216.756121 366.851709 217.876591 
C 365.720497 218.997062 365.0849 220.51696 365.0849 222.101546 
C 365.0849 223.686131 365.720497 225.206029 366.851709 226.3265 
C 367.98292 227.446971 369.517388 228.076533 371.117163 228.076533 
z
" clip-path="url(#pad4f9fad02)" style="fill: #ff0d0d; stroke: #800000; stroke-width: 0.35; stroke-linejoin: miter"/>
   </g>
   <g id="patch_22">
    <path d="M 430.177038 200.58472 
C 431.614986 200.58472 432.994232 200.018842 434.011015 199.011713 
C 435.027798 198.004585 435.599101 196.638433 435.599101 195.214139 
C 435.599101 193.789844 435.027798 192.423693 434.011015 191.416564 
C 432.994232 190.409436 431.614986 189.843557 430.177038 189.843557 
C 428.73909 189.843557 427.359843 190.409436 426.34306 191.416564 
C 425.326278 192.423693 424.754975 193.789844 424.754975 195.214139 
C 424.754975 196.638433 425.326278 198.004585 426.34306 199.011713 
C 427.359843 200.018842 428.73909 200.58472 430.177038 200.58472 
z
" clip-path="url(#pad4f9fad02)" style="fill: #ffffff; stroke: #888888; stroke-width: 0.35; stroke-linejoin: miter"/>
   </g>
   <g id="patch_23">
    <path d="M 402.084781 176.380081 
C 403.522729 176.380081 404.901976 175.814203 405.918758 174.807074 
C 406.935541 173.799946 407.506844 172.433794 407.506844 171.0095 
C 407.506844 169.585205 406.935541 168.219054 405.918758 167.211925 
C 404.901976 166.204797 403.522729 165.638918 402.084781 165.638918 
C 400.646833 165.638918 399.267586 166.204797 398.250803 167.211925 
C 397.234021 168.219054 396.662718 169.585205 396.662718 171.0095 
C 396.662718 172.433794 397.234021 173.799946 398.250803 174.807074 
C 399.267586 175.814203 400.646833 176.380081 402.084781 176.380081 
z
" clip-path="url(#pad4f9fad02)" style="fill: #ffffff; stroke: #888888; stroke-width: 0.35; stroke-linejoin: miter"/>
   </g>
  </g>
 </g>
 <defs>
  <clipPath id="pad4f9fad02">
   <rect x="7.2" y="7.2" width="732.24" height="221.04"/>
  </clipPath>
 </defs>
</svg>
