<svg xmlns="http://www.w3.org/2000/svg" viewBox="0 0 760 168" width="760" height="168" role="img" aria-labelledby="t1">
<title id="t1">Convert common structure formats into CON for eOn and LODE</title>
<defs>
  <marker id="arr" markerWidth="8" markerHeight="8" refX="6" refY="3" orient="auto">
    <path d="M0,0 L6,3 L0,6 Z" fill="#4F46E5"/>
  </marker>
  <style>
    .t { font-family: system-ui, -apple-system, "Segoe UI", sans-serif; }
    .h { font-size: 13px; font-weight: 700; fill: #0F172A; }
    .s { font-size: 11px; fill: #475569; }
    .w { fill: #F8FAFC; }
  </style>
</defs>
<rect width="760" height="168" class="w"/>
<!-- boxes -->
<rect x="16" y="48" width="128" height="64" rx="10" fill="#EEF2FF" stroke="#6366F1" stroke-width="1.5"/>
<text class="t h" x="80" y="74" text-anchor="middle">XYZ · PDB · GRO</text>
<text class="t s" x="80" y="94" text-anchor="middle">and similar files</text>

<line x1="148" y1="80" x2="178" y2="80" stroke="#4F46E5" stroke-width="2.5" marker-end="url(#arr)"/>

<rect x="184" y="48" width="132" height="64" rx="10" fill="#312E81" stroke="#312E81"/>
<text class="t h" x="250" y="74" text-anchor="middle" fill="#F8FAFC">readcon-core</text>
<text class="t s" x="250" y="94" text-anchor="middle" fill="#C7D2FE">conversion build</text>

<line x1="320" y1="80" x2="350" y2="80" stroke="#4F46E5" stroke-width="2.5" marker-end="url(#arr)"/>

<rect x="356" y="48" width="128" height="64" rx="10" fill="#EEF2FF" stroke="#4F46E5" stroke-width="1.5"/>
<text class="t h" x="420" y="74" text-anchor="middle">CON frame</text>
<text class="t s" x="420" y="94" text-anchor="middle">cell · atoms · meta</text>

<line x1="488" y1="80" x2="518" y2="80" stroke="#4F46E5" stroke-width="2.5" marker-end="url(#arr)"/>

<rect x="524" y="28" width="112" height="44" rx="10" fill="#FEF3C7" stroke="#D97706" stroke-width="1.5"/>
<text class="t h" x="580" y="54" text-anchor="middle">.con file</text>

<rect x="524" y="88" width="112" height="44" rx="10" fill="#ECFDF5" stroke="#059669" stroke-width="1.5"/>
<text class="t h" x="580" y="114" text-anchor="middle">eOn · LODE</text>

<rect x="648" y="48" width="96" height="64" rx="10" fill="#F1F5F9" stroke="#94A3B8" stroke-width="1.5"/>
<text class="t h" x="696" y="74" text-anchor="middle">C · Py · …</text>
<text class="t s" x="696" y="94" text-anchor="middle">bindings</text>

<text class="t s" x="380" y="148" text-anchor="middle">Optional conversion support in the full Python/Rust builds — see install below</text>
</svg>
