<svg xmlns="http://www.w3.org/2000/svg" viewBox="0 0 700 180" width="700" height="180" role="img">
<title>LODE ecosystem</title>
<style>
  .t { font-family: Atkinson Hyperlegible, system-ui, sans-serif; font-size: 12px; fill: #1E1B4B; font-weight: 700; }
  .s { font-size: 10px; fill: #64748B; font-weight: 400; }
</style>
<rect width="700" height="180" fill="#F8FAFC"/>
<!-- center -->
<rect x="270" y="60" width="160" height="56" rx="10" fill="#312E81"/>
<text class="t" x="350" y="85" text-anchor="middle" fill="#F8FAFC">readcon-core</text>
<text class="s" x="350" y="102" text-anchor="middle" fill="#C7D2FE">CON interchange</text>
<!-- satellites -->
<g fill="#EEF2FF" stroke="#6366F1" stroke-width="1.2">
  <rect x="24" y="24" width="120" height="44" rx="8"/>
  <rect x="24" y="112" width="120" height="44" rx="8"/>
  <rect x="556" y="24" width="120" height="44" rx="8"/>
  <rect x="556" y="112" width="120" height="44" rx="8"/>
  <rect x="290" y="8" width="120" height="36" rx="8"/>
  <rect x="290" y="136" width="120" height="36" rx="8"/>
</g>
<text class="t" x="84" y="42" text-anchor="middle">eOn</text>
<text class="s" x="84" y="56" text-anchor="middle">saddles / NEB</text>
<text class="t" x="84" y="130" text-anchor="middle">amsel / LODE</text>
<text class="s" x="84" y="144" text-anchor="middle">campaigns</text>
<text class="t" x="616" y="42" text-anchor="middle">rgpot</text>
<text class="s" x="616" y="56" text-anchor="middle">potentials</text>
<text class="t" x="616" y="130" text-anchor="middle">rgpycrumbs</text>
<text class="s" x="616" y="144" text-anchor="middle">analysis</text>
<text class="t" x="350" y="30" text-anchor="middle">chemfiles</text>
<text class="t" x="350" y="158" text-anchor="middle">C / Py / Julia</text>
<line x1="144" y1="46" x2="268" y2="78" stroke="#94A3B8" stroke-width="1.2"/>
<line x1="144" y1="134" x2="268" y2="100" stroke="#94A3B8" stroke-width="1.2"/>
<line x1="556" y1="46" x2="432" y2="78" stroke="#94A3B8" stroke-width="1.2"/>
<line x1="556" y1="134" x2="432" y2="100" stroke="#94A3B8" stroke-width="1.2"/>
<line x1="350" y1="44" x2="350" y2="58" stroke="#94A3B8" stroke-width="1.2"/>
<line x1="350" y1="116" x2="350" y2="134" stroke="#94A3B8" stroke-width="1.2"/>
</svg>