<?xml version="1.0" encoding="utf-8" standalone="no"?>
<!DOCTYPE svg PUBLIC "-//W3C//DTD SVG 1.1//EN"
  "http://www.w3.org/Graphics/SVG/1.1/DTD/svg11.dtd">
<svg xmlns:xlink="http://www.w3.org/1999/xlink" width="576pt" height="324pt" viewBox="0 0 576 324" xmlns="http://www.w3.org/2000/svg" version="1.1">
 <metadata>
  <rdf:RDF xmlns:dc="http://purl.org/dc/elements/1.1/" xmlns:cc="http://creativecommons.org/ns#" xmlns:rdf="http://www.w3.org/1999/02/22-rdf-syntax-ns#">
   <cc:Work>
    <dc:type rdf:resource="http://purl.org/dc/dcmitype/StillImage"/>
    <dc:date>2026-03-25T21:57:27.714474</dc:date>
    <dc:format>image/svg+xml</dc:format>
    <dc:creator>
     <cc:Agent>
      <dc:title>Matplotlib v3.10.8, https://matplotlib.org/</dc:title>
     </cc:Agent>
    </dc:creator>
   </cc:Work>
  </rdf:RDF>
 </metadata>
 <defs>
  <style type="text/css">*{stroke-linejoin: round; stroke-linecap: butt}</style>
 </defs>
 <g id="figure_1">
  <g id="patch_1">
   <path d="M 0 324 
L 576 324 
L 576 0 
L 0 0 
z
" style="fill: #ffffff"/>
  </g>
  <g id="axes_1">
   <g id="patch_2">
    <path d="M 51.32 281.792 
L 564.12 281.792 
L 564.12 27.27375 
L 51.32 27.27375 
z
" style="fill: #fafafa"/>
   </g>
   <g id="patch_3">
    <path d="M 74.629091 281.792 
L 128.419301 281.792 
L 128.419301 41.18921 
L 74.629091 41.18921 
z
" clip-path="url(#p7abca421b2)" style="fill: #ff655d; stroke: #ffffff; stroke-linejoin: miter"/>
   </g>
   <g id="patch_4">
    <path d="M 253.92979 281.792 
L 307.72 281.792 
L 307.72 39.393667 
L 253.92979 39.393667 
z
" clip-path="url(#p7abca421b2)" style="fill: #ff655d; stroke: #ffffff; stroke-linejoin: miter"/>
   </g>
   <g id="patch_5">
    <path d="M 433.23049 281.792 
L 487.020699 281.792 
L 487.020699 39.393667 
L 433.23049 39.393667 
z
" clip-path="url(#p7abca421b2)" style="fill: #ff655d; stroke: #ffffff; stroke-linejoin: miter"/>
   </g>
   <g id="patch_6">
    <path d="M 128.419301 281.792 
L 182.20951 281.792 
L 182.20951 218.947988 
L 128.419301 218.947988 
z
" clip-path="url(#p7abca421b2)" style="fill: #004d40; stroke: #ffffff; stroke-linejoin: miter"/>
   </g>
   <g id="patch_7">
    <path d="M 307.72 281.792 
L 361.51021 281.792 
L 361.51021 45.678068 
L 307.72 45.678068 
z
" clip-path="url(#p7abca421b2)" style="fill: #004d40; stroke: #ffffff; stroke-linejoin: miter"/>
   </g>
   <g id="patch_8">
    <path d="M 487.020699 281.792 
L 540.810909 281.792 
L 540.810909 45.678068 
L 487.020699 45.678068 
z
" clip-path="url(#p7abca421b2)" style="fill: #004d40; stroke: #ffffff; stroke-linejoin: miter"/>
   </g>
   <g id="matplotlib.axis_1">
    <g id="xtick_1">
     <g id="line2d_1">
      <path d="M 128.419301 281.792 
L 128.419301 27.27375 
" clip-path="url(#p7abca421b2)" style="fill: none; stroke: #b0b0b0; stroke-opacity: 0.3; stroke-width: 0.8; stroke-linecap: square"/>
     </g>
     <g id="line2d_2">
      <defs>
       <path id="m62f85ac8a2" d="M 0 0 
L 0 3.5 
" style="stroke: #000000; stroke-width: 0.8"/>
      </defs>
      <g>
       <use xlink:href="#m62f85ac8a2" x="128.419301" y="281.792" style="stroke: #000000; stroke-width: 0.8"/>
      </g>
     </g>
     <g id="text_1">
      <!-- 218x1000 -->
      <g transform="translate(107.244301 296.592) scale(0.1 -0.1)">
       <defs>
        <path id="Jost-Regular-32" d="M 128 0 
L 3290 0 
L 3290 512 
L 1248 512 
L 2675 1965 
Q 2938 2234 3104 2573 
Q 3270 2912 3270 3258 
Q 3270 3462 3187 3686 
Q 3104 3910 2931 4105 
Q 2758 4301 2489 4425 
Q 2221 4550 1850 4550 
Q 1389 4550 1059 4348 
Q 730 4147 557 3785 
Q 384 3424 384 2944 
L 928 2944 
Q 928 3283 1037 3529 
Q 1146 3776 1354 3907 
Q 1562 4038 1850 4038 
Q 2054 4038 2214 3968 
Q 2374 3898 2486 3782 
Q 2598 3667 2656 3526 
Q 2714 3386 2714 3238 
Q 2714 3059 2659 2896 
Q 2605 2733 2499 2576 
Q 2394 2419 2246 2259 
L 128 0 
z
" transform="scale(0.015625)"/>
        <path id="Jost-Regular-31" d="M 512 3597 
L 1504 3891 
L 1504 0 
L 2048 0 
L 2048 4544 
L 512 4160 
L 512 3597 
z
" transform="scale(0.015625)"/>
        <path id="Jost-Regular-38" d="M 512 3398 
Q 512 3136 601 2928 
Q 691 2720 854 2573 
Q 1018 2426 1245 2349 
Q 1472 2272 1747 2272 
Q 2022 2272 2249 2349 
Q 2477 2426 2640 2573 
Q 2803 2720 2892 2928 
Q 2982 3136 2982 3398 
Q 2982 3718 2819 3977 
Q 2656 4237 2377 4390 
Q 2099 4544 1747 4544 
Q 1395 4544 1116 4390 
Q 838 4237 675 3977 
Q 512 3718 512 3398 
z
M 1030 3334 
Q 1030 3546 1123 3712 
Q 1216 3878 1379 3971 
Q 1542 4064 1747 4064 
Q 1958 4064 2118 3971 
Q 2278 3878 2371 3712 
Q 2464 3546 2464 3334 
Q 2464 3123 2365 2963 
Q 2266 2803 2102 2713 
Q 1939 2624 1747 2624 
Q 1555 2624 1392 2713 
Q 1229 2803 1129 2963 
Q 1030 3123 1030 3334 
z
M 352 1216 
Q 352 954 457 723 
Q 563 493 752 313 
Q 941 134 1193 35 
Q 1446 -64 1747 -64 
Q 2048 -64 2301 35 
Q 2554 134 2742 313 
Q 2931 493 3036 723 
Q 3142 954 3142 1216 
Q 3142 1523 3030 1763 
Q 2918 2003 2723 2166 
Q 2528 2330 2275 2413 
Q 2022 2496 1747 2496 
Q 1472 2496 1219 2413 
Q 966 2330 771 2166 
Q 576 2003 464 1763 
Q 352 1523 352 1216 
z
M 870 1280 
Q 870 1523 995 1718 
Q 1120 1914 1321 2029 
Q 1523 2144 1747 2144 
Q 1971 2144 2172 2029 
Q 2374 1914 2499 1718 
Q 2624 1523 2624 1280 
Q 2624 1005 2499 813 
Q 2374 621 2172 518 
Q 1971 416 1747 416 
Q 1523 416 1321 518 
Q 1120 621 995 813 
Q 870 1005 870 1280 
z
" transform="scale(0.015625)"/>
        <path id="Jost-Regular-78" d="M 2048 2944 
L 1344 1920 
L 640 2944 
L 64 2944 
L 1069 1517 
L 0 0 
L 576 0 
L 1344 1114 
L 2112 0 
L 2688 0 
L 1619 1517 
L 2624 2944 
L 2048 2944 
z
" transform="scale(0.015625)"/>
        <path id="Jost-Regular-30" d="M 800 2240 
Q 800 2630 877 2960 
Q 954 3290 1101 3530 
Q 1248 3770 1456 3901 
Q 1664 4032 1920 4032 
Q 2182 4032 2387 3901 
Q 2592 3770 2739 3530 
Q 2886 3290 2963 2960 
Q 3040 2630 3040 2240 
Q 3040 1850 2963 1520 
Q 2886 1190 2739 950 
Q 2592 710 2387 579 
Q 2182 448 1920 448 
Q 1664 448 1456 579 
Q 1248 710 1101 950 
Q 954 1190 877 1520 
Q 800 1850 800 2240 
z
M 256 2240 
Q 256 1568 467 1049 
Q 678 531 1052 233 
Q 1427 -64 1920 -64 
Q 2413 -64 2787 233 
Q 3162 531 3373 1049 
Q 3584 1568 3584 2240 
Q 3584 2912 3373 3430 
Q 3162 3949 2787 4246 
Q 2413 4544 1920 4544 
Q 1427 4544 1052 4246 
Q 678 3949 467 3430 
Q 256 2912 256 2240 
z
" transform="scale(0.015625)"/>
       </defs>
       <use xlink:href="#Jost-Regular-32"/>
       <use xlink:href="#Jost-Regular-31" transform="translate(56.899994 0)"/>
       <use xlink:href="#Jost-Regular-38" transform="translate(101.899979 0)"/>
       <use xlink:href="#Jost-Regular-78" transform="translate(156.499969 0)"/>
       <use xlink:href="#Jost-Regular-31" transform="translate(198.499954 0)"/>
       <use xlink:href="#Jost-Regular-30" transform="translate(243.499939 0)"/>
       <use xlink:href="#Jost-Regular-30" transform="translate(303.499924 0)"/>
       <use xlink:href="#Jost-Regular-30" transform="translate(363.499908 0)"/>
      </g>
      <!-- (9.7 MiB) -->
      <g transform="translate(108.674769 308.152) scale(0.1 -0.1)">
       <defs>
        <path id="Jost-Regular-28" d="M 1312 4992 
Q 928 4275 752 3475 
Q 576 2675 576 1856 
Q 576 1043 752 243 
Q 928 -557 1312 -1280 
L 1792 -1280 
Q 1459 -557 1305 243 
Q 1152 1043 1152 1856 
Q 1152 2675 1305 3475 
Q 1459 4275 1792 4992 
L 1312 4992 
z
" transform="scale(0.015625)"/>
        <path id="Jost-Regular-39" d="M 2848 3008 
Q 2848 2701 2717 2464 
Q 2586 2227 2358 2089 
Q 2131 1952 1843 1952 
Q 1555 1952 1328 2089 
Q 1101 2227 969 2464 
Q 838 2701 838 3008 
Q 838 3315 969 3548 
Q 1101 3782 1328 3916 
Q 1555 4051 1843 4051 
Q 2131 4051 2358 3916 
Q 2586 3782 2717 3548 
Q 2848 3315 2848 3008 
z
M 1574 0 
L 3085 2080 
Q 3213 2259 3289 2496 
Q 3366 2733 3366 3008 
Q 3366 3469 3164 3814 
Q 2963 4160 2620 4352 
Q 2278 4544 1843 4544 
Q 1414 4544 1068 4352 
Q 723 4160 521 3814 
Q 320 3469 320 3008 
Q 320 2701 422 2435 
Q 525 2170 707 1971 
Q 890 1773 1130 1664 
Q 1370 1555 1645 1555 
Q 1862 1555 2032 1606 
Q 2202 1658 2330 1818 
L 2291 1850 
L 890 0 
L 1574 0 
z
" transform="scale(0.015625)"/>
        <path id="Jost-Regular-2e" d="M 608 256 
Q 608 115 713 9 
Q 819 -96 960 -96 
Q 1107 -96 1209 9 
Q 1312 115 1312 256 
Q 1312 403 1209 505 
Q 1107 608 960 608 
Q 819 608 713 505 
Q 608 403 608 256 
z
" transform="scale(0.015625)"/>
        <path id="Jost-Regular-37" d="M 192 3968 
L 2515 3968 
L 614 0 
L 1184 0 
L 3328 4480 
L 192 4480 
L 192 3968 
z
" transform="scale(0.015625)"/>
        <path id="Jost-Regular-20" transform="scale(0.015625)"/>
        <path id="Jost-Regular-4d" d="M 1133 3027 
L 2592 416 
L 4051 3027 
L 4384 0 
L 4928 0 
L 4384 4704 
L 2592 1459 
L 800 4704 
L 256 0 
L 800 0 
L 1133 3027 
z
" transform="scale(0.015625)"/>
        <path id="Jost-Regular-69" d="M 480 4160 
Q 480 4019 585 3913 
Q 691 3808 832 3808 
Q 979 3808 1081 3913 
Q 1184 4019 1184 4160 
Q 1184 4307 1081 4409 
Q 979 4512 832 4512 
Q 691 4512 585 4409 
Q 480 4307 480 4160 
z
M 576 2944 
L 576 0 
L 1088 0 
L 1088 2944 
L 576 2944 
z
" transform="scale(0.015625)"/>
        <path id="Jost-Regular-42" d="M 941 2368 
L 1664 2368 
Q 2067 2368 2364 2483 
Q 2662 2598 2828 2822 
Q 2995 3046 2995 3360 
Q 2995 3744 2828 3990 
Q 2662 4237 2364 4358 
Q 2067 4480 1664 4480 
L 512 4480 
L 512 0 
L 1728 0 
Q 2163 0 2505 144 
Q 2848 288 3049 579 
Q 3251 870 3251 1312 
Q 3251 1619 3136 1843 
Q 3021 2067 2813 2211 
Q 2605 2355 2329 2425 
Q 2054 2496 1728 2496 
L 941 2496 
L 941 2195 
L 1728 2195 
Q 1946 2195 2125 2140 
Q 2304 2086 2435 1977 
Q 2566 1869 2636 1709 
Q 2707 1549 2707 1344 
Q 2707 1069 2582 877 
Q 2458 685 2237 582 
Q 2016 480 1728 480 
L 1056 480 
L 1056 4000 
L 1664 4000 
Q 2003 4000 2227 3824 
Q 2451 3648 2451 3328 
Q 2451 3117 2348 2969 
Q 2246 2822 2067 2745 
Q 1888 2669 1664 2669 
L 941 2669 
L 941 2368 
z
" transform="scale(0.015625)"/>
        <path id="Jost-Regular-29" d="M 672 -1280 
Q 1056 -557 1232 243 
Q 1408 1043 1408 1856 
Q 1408 2675 1232 3475 
Q 1056 4275 672 4992 
L 192 4992 
Q 531 4275 681 3475 
Q 832 2675 832 1856 
Q 832 1043 681 243 
Q 531 -557 192 -1280 
L 672 -1280 
z
" transform="scale(0.015625)"/>
       </defs>
       <use xlink:href="#Jost-Regular-28"/>
       <use xlink:href="#Jost-Regular-39" transform="translate(30.999985 0)"/>
       <use xlink:href="#Jost-Regular-2e" transform="translate(88.599976 0)"/>
       <use xlink:href="#Jost-Regular-37" transform="translate(118.59996 0)"/>
       <use xlink:href="#Jost-Regular-20" transform="translate(171.099945 0)"/>
       <use xlink:href="#Jost-Regular-4d" transform="translate(201.09993 0)"/>
       <use xlink:href="#Jost-Regular-69" transform="translate(282.099915 0)"/>
       <use xlink:href="#Jost-Regular-42" transform="translate(308.099899 0)"/>
       <use xlink:href="#Jost-Regular-29" transform="translate(363.899887 0)"/>
      </g>
     </g>
    </g>
    <g id="xtick_2">
     <g id="line2d_3">
      <path d="M 307.72 281.792 
L 307.72 27.27375 
" clip-path="url(#p7abca421b2)" style="fill: none; stroke: #b0b0b0; stroke-opacity: 0.3; stroke-width: 0.8; stroke-linecap: square"/>
     </g>
     <g id="line2d_4">
      <g>
       <use xlink:href="#m62f85ac8a2" x="307.72" y="281.792" style="stroke: #000000; stroke-width: 0.8"/>
      </g>
     </g>
     <g id="text_2">
      <!-- 10kx100 -->
      <g transform="translate(289.92 296.592) scale(0.1 -0.1)">
       <defs>
        <path id="Jost-Regular-6b" d="M 448 4992 
L 448 0 
L 960 0 
L 960 4992 
L 448 4992 
z
M 2048 2944 
L 768 1728 
L 2176 0 
L 2816 0 
L 1408 1728 
L 2688 2944 
L 2048 2944 
z
" transform="scale(0.015625)"/>
       </defs>
       <use xlink:href="#Jost-Regular-31"/>
       <use xlink:href="#Jost-Regular-30" transform="translate(44.999985 0)"/>
       <use xlink:href="#Jost-Regular-6b" transform="translate(104.999969 0)"/>
       <use xlink:href="#Jost-Regular-78" transform="translate(148.999954 0)"/>
       <use xlink:href="#Jost-Regular-31" transform="translate(190.999939 0)"/>
       <use xlink:href="#Jost-Regular-30" transform="translate(235.999924 0)"/>
       <use xlink:href="#Jost-Regular-30" transform="translate(295.999908 0)"/>
      </g>
      <!-- (46.9 MiB) -->
      <g transform="translate(284.805938 308.152) scale(0.1 -0.1)">
       <defs>
        <path id="Jost-Regular-34" d="M 128 896 
L 3539 896 
L 3539 1376 
L 2624 1376 
L 2515 1376 
L 1024 1376 
L 2291 3270 
L 2291 1197 
L 2291 1126 
L 2291 0 
L 2835 0 
L 2835 4480 
L 2611 4480 
L 128 896 
z
" transform="scale(0.015625)"/>
        <path id="Jost-Regular-36" d="M 838 1472 
Q 838 1779 969 2019 
Q 1101 2259 1328 2393 
Q 1555 2528 1843 2528 
Q 2131 2528 2358 2393 
Q 2586 2259 2717 2019 
Q 2848 1779 2848 1472 
Q 2848 1165 2717 931 
Q 2586 698 2358 563 
Q 2131 429 1843 429 
Q 1555 429 1328 563 
Q 1101 698 969 931 
Q 838 1165 838 1472 
z
M 2112 4480 
L 602 2400 
Q 474 2221 397 1984 
Q 320 1747 320 1472 
Q 320 1011 521 665 
Q 723 320 1068 128 
Q 1414 -64 1843 -64 
Q 2278 -64 2620 128 
Q 2963 320 3164 665 
Q 3366 1011 3366 1472 
Q 3366 1779 3264 2044 
Q 3162 2310 2979 2508 
Q 2797 2707 2557 2816 
Q 2317 2925 2042 2925 
Q 1824 2925 1654 2873 
Q 1485 2822 1357 2662 
L 1395 2630 
L 2797 4480 
L 2112 4480 
z
" transform="scale(0.015625)"/>
       </defs>
       <use xlink:href="#Jost-Regular-28"/>
       <use xlink:href="#Jost-Regular-34" transform="translate(30.999985 0)"/>
       <use xlink:href="#Jost-Regular-36" transform="translate(89.299973 0)"/>
       <use xlink:href="#Jost-Regular-2e" transform="translate(146.899963 0)"/>
       <use xlink:href="#Jost-Regular-39" transform="translate(176.899948 0)"/>
       <use xlink:href="#Jost-Regular-20" transform="translate(234.499939 0)"/>
       <use xlink:href="#Jost-Regular-4d" transform="translate(264.499924 0)"/>
       <use xlink:href="#Jost-Regular-69" transform="translate(345.499908 0)"/>
       <use xlink:href="#Jost-Regular-42" transform="translate(371.499893 0)"/>
       <use xlink:href="#Jost-Regular-29" transform="translate(427.299881 0)"/>
      </g>
     </g>
    </g>
    <g id="xtick_3">
     <g id="line2d_5">
      <path d="M 487.020699 281.792 
L 487.020699 27.27375 
" clip-path="url(#p7abca421b2)" style="fill: none; stroke: #b0b0b0; stroke-opacity: 0.3; stroke-width: 0.8; stroke-linecap: square"/>
     </g>
     <g id="line2d_6">
      <g>
       <use xlink:href="#m62f85ac8a2" x="487.020699" y="281.792" style="stroke: #000000; stroke-width: 0.8"/>
      </g>
     </g>
     <g id="text_3">
      <!-- 10kx10 -->
      <g transform="translate(472.220699 296.592) scale(0.1 -0.1)">
       <use xlink:href="#Jost-Regular-31"/>
       <use xlink:href="#Jost-Regular-30" transform="translate(44.999985 0)"/>
       <use xlink:href="#Jost-Regular-6b" transform="translate(104.999969 0)"/>
       <use xlink:href="#Jost-Regular-78" transform="translate(148.999954 0)"/>
       <use xlink:href="#Jost-Regular-31" transform="translate(190.999939 0)"/>
       <use xlink:href="#Jost-Regular-30" transform="translate(235.999924 0)"/>
      </g>
      <!-- (4.7 MiB) -->
      <g transform="translate(467.241012 308.152) scale(0.1 -0.1)">
       <use xlink:href="#Jost-Regular-28"/>
       <use xlink:href="#Jost-Regular-34" transform="translate(30.999985 0)"/>
       <use xlink:href="#Jost-Regular-2e" transform="translate(89.299973 0)"/>
       <use xlink:href="#Jost-Regular-37" transform="translate(119.299957 0)"/>
       <use xlink:href="#Jost-Regular-20" transform="translate(171.799942 0)"/>
       <use xlink:href="#Jost-Regular-4d" transform="translate(201.799927 0)"/>
       <use xlink:href="#Jost-Regular-69" transform="translate(282.799911 0)"/>
       <use xlink:href="#Jost-Regular-42" transform="translate(308.799896 0)"/>
       <use xlink:href="#Jost-Regular-29" transform="translate(364.599884 0)"/>
      </g>
     </g>
    </g>
   </g>
   <g id="matplotlib.axis_2">
    <g id="ytick_1">
     <g id="line2d_7">
      <path d="M 51.32 281.792 
L 564.12 281.792 
" clip-path="url(#p7abca421b2)" style="fill: none; stroke: #b0b0b0; stroke-opacity: 0.3; stroke-width: 0.8; stroke-linecap: square"/>
     </g>
     <g id="line2d_8">
      <defs>
       <path id="maffed98881" d="M 0 0 
L -3.5 0 
" style="stroke: #000000; stroke-width: 0.8"/>
      </defs>
      <g>
       <use xlink:href="#maffed98881" x="51.32" y="281.792" style="stroke: #000000; stroke-width: 0.8"/>
      </g>
     </g>
     <g id="text_4">
      <!-- 0 -->
      <g transform="translate(38.32 285.692) scale(0.1 -0.1)">
       <use xlink:href="#Jost-Regular-30"/>
      </g>
     </g>
    </g>
    <g id="ytick_2">
     <g id="line2d_9">
      <path d="M 51.32 236.90342 
L 564.12 236.90342 
" clip-path="url(#p7abca421b2)" style="fill: none; stroke: #b0b0b0; stroke-opacity: 0.3; stroke-width: 0.8; stroke-linecap: square"/>
     </g>
     <g id="line2d_10">
      <g>
       <use xlink:href="#maffed98881" x="51.32" y="236.90342" style="stroke: #000000; stroke-width: 0.8"/>
      </g>
     </g>
     <g id="text_5">
      <!-- 50 -->
      <g transform="translate(32.679375 240.80342) scale(0.1 -0.1)">
       <defs>
        <path id="Jost-Regular-35" d="M 3354 1472 
Q 3354 1920 3181 2259 
Q 3008 2598 2704 2790 
Q 2400 2982 2016 2982 
Q 1850 2982 1680 2940 
Q 1510 2899 1350 2816 
L 1651 4000 
L 3341 4000 
L 3341 4480 
L 1229 4480 
L 640 2093 
Q 870 2253 1046 2339 
Q 1222 2426 1398 2461 
Q 1574 2496 1786 2496 
Q 2074 2496 2301 2368 
Q 2528 2240 2659 2009 
Q 2790 1779 2790 1472 
Q 2790 1165 2672 934 
Q 2554 704 2330 576 
Q 2106 448 1786 448 
Q 1542 448 1318 553 
Q 1094 659 924 828 
Q 755 998 653 1190 
L 192 877 
Q 339 621 553 406 
Q 768 192 1072 64 
Q 1376 -64 1786 -64 
Q 2112 -64 2393 32 
Q 2675 128 2892 320 
Q 3110 512 3232 800 
Q 3354 1088 3354 1472 
z
" transform="scale(0.015625)"/>
       </defs>
       <use xlink:href="#Jost-Regular-35"/>
       <use xlink:href="#Jost-Regular-30" transform="translate(56.399994 0)"/>
      </g>
     </g>
    </g>
    <g id="ytick_3">
     <g id="line2d_11">
      <path d="M 51.32 192.01484 
L 564.12 192.01484 
" clip-path="url(#p7abca421b2)" style="fill: none; stroke: #b0b0b0; stroke-opacity: 0.3; stroke-width: 0.8; stroke-linecap: square"/>
     </g>
     <g id="line2d_12">
      <g>
       <use xlink:href="#maffed98881" x="51.32" y="192.01484" style="stroke: #000000; stroke-width: 0.8"/>
      </g>
     </g>
     <g id="text_6">
      <!-- 100 -->
      <g transform="translate(27.82 195.91484) scale(0.1 -0.1)">
       <use xlink:href="#Jost-Regular-31"/>
       <use xlink:href="#Jost-Regular-30" transform="translate(44.999985 0)"/>
       <use xlink:href="#Jost-Regular-30" transform="translate(104.999969 0)"/>
      </g>
     </g>
    </g>
    <g id="ytick_4">
     <g id="line2d_13">
      <path d="M 51.32 147.126259 
L 564.12 147.126259 
" clip-path="url(#p7abca421b2)" style="fill: none; stroke: #b0b0b0; stroke-opacity: 0.3; stroke-width: 0.8; stroke-linecap: square"/>
     </g>
     <g id="line2d_14">
      <g>
       <use xlink:href="#maffed98881" x="51.32" y="147.126259" style="stroke: #000000; stroke-width: 0.8"/>
      </g>
     </g>
     <g id="text_7">
      <!-- 150 -->
      <g transform="translate(28.179375 151.026259) scale(0.1 -0.1)">
       <use xlink:href="#Jost-Regular-31"/>
       <use xlink:href="#Jost-Regular-35" transform="translate(44.999985 0)"/>
       <use xlink:href="#Jost-Regular-30" transform="translate(101.399979 0)"/>
      </g>
     </g>
    </g>
    <g id="ytick_5">
     <g id="line2d_15">
      <path d="M 51.32 102.237679 
L 564.12 102.237679 
" clip-path="url(#p7abca421b2)" style="fill: none; stroke: #b0b0b0; stroke-opacity: 0.3; stroke-width: 0.8; stroke-linecap: square"/>
     </g>
     <g id="line2d_16">
      <g>
       <use xlink:href="#maffed98881" x="51.32" y="102.237679" style="stroke: #000000; stroke-width: 0.8"/>
      </g>
     </g>
     <g id="text_8">
      <!-- 200 -->
      <g transform="translate(26.629375 106.137679) scale(0.1 -0.1)">
       <use xlink:href="#Jost-Regular-32"/>
       <use xlink:href="#Jost-Regular-30" transform="translate(56.899994 0)"/>
       <use xlink:href="#Jost-Regular-30" transform="translate(116.899979 0)"/>
      </g>
     </g>
    </g>
    <g id="ytick_6">
     <g id="line2d_17">
      <path d="M 51.32 57.349099 
L 564.12 57.349099 
" clip-path="url(#p7abca421b2)" style="fill: none; stroke: #b0b0b0; stroke-opacity: 0.3; stroke-width: 0.8; stroke-linecap: square"/>
     </g>
     <g id="line2d_18">
      <g>
       <use xlink:href="#maffed98881" x="51.32" y="57.349099" style="stroke: #000000; stroke-width: 0.8"/>
      </g>
     </g>
     <g id="text_9">
      <!-- 250 -->
      <g transform="translate(26.98875 61.249099) scale(0.1 -0.1)">
       <use xlink:href="#Jost-Regular-32"/>
       <use xlink:href="#Jost-Regular-35" transform="translate(56.899994 0)"/>
       <use xlink:href="#Jost-Regular-30" transform="translate(113.299988 0)"/>
      </g>
     </g>
    </g>
    <g id="text_10">
     <!-- Peak RSS (MiB, lower is better) -->
     <g transform="translate(20.209375 226.558812) rotate(-90) scale(0.11 -0.11)">
      <defs>
       <path id="Jost-Regular-50" d="M 512 4480 
L 512 0 
L 1056 0 
L 1056 4480 
L 512 4480 
z
M 813 3968 
L 1728 3968 
Q 2163 3968 2435 3760 
Q 2707 3552 2707 3136 
Q 2707 2726 2435 2515 
Q 2163 2304 1728 2304 
L 813 2304 
L 813 1792 
L 1728 1792 
Q 2163 1792 2505 1955 
Q 2848 2118 3049 2422 
Q 3251 2726 3251 3136 
Q 3251 3552 3049 3853 
Q 2848 4154 2505 4317 
Q 2163 4480 1728 4480 
L 813 4480 
L 813 3968 
z
" transform="scale(0.015625)"/>
       <path id="Jost-Regular-65" d="M 1619 -64 
Q 2093 -64 2441 125 
Q 2790 314 3021 685 
L 2605 947 
Q 2445 678 2214 547 
Q 1984 416 1683 416 
Q 1382 416 1171 544 
Q 960 672 851 915 
Q 742 1158 742 1504 
Q 749 1843 861 2076 
Q 973 2310 1181 2435 
Q 1389 2560 1683 2560 
Q 1933 2560 2118 2451 
Q 2304 2342 2409 2150 
Q 2515 1958 2515 1696 
Q 2515 1651 2496 1584 
Q 2477 1517 2458 1485 
L 2662 1779 
L 550 1779 
L 550 1344 
L 3066 1344 
Q 3066 1357 3069 1405 
Q 3072 1453 3072 1498 
Q 3072 1965 2905 2304 
Q 2739 2643 2428 2825 
Q 2118 3008 1683 3008 
Q 1248 3008 918 2816 
Q 589 2624 406 2278 
Q 224 1933 224 1472 
Q 224 1018 400 672 
Q 576 326 893 131 
Q 1210 -64 1619 -64 
z
" transform="scale(0.015625)"/>
       <path id="Jost-Regular-61" d="M 710 909 
Q 710 1069 787 1184 
Q 864 1299 1021 1363 
Q 1178 1427 1427 1427 
Q 1696 1427 1933 1360 
Q 2170 1293 2394 1139 
L 2394 1440 
Q 2349 1498 2221 1590 
Q 2093 1683 1878 1756 
Q 1664 1830 1344 1830 
Q 800 1830 496 1571 
Q 192 1312 192 883 
Q 192 582 333 371 
Q 474 160 707 48 
Q 941 -64 1210 -64 
Q 1453 -64 1699 25 
Q 1946 115 2115 300 
Q 2285 486 2285 768 
L 2182 1152 
Q 2182 922 2070 746 
Q 1958 570 1769 474 
Q 1581 378 1344 378 
Q 1158 378 1014 438 
Q 870 499 790 620 
Q 710 742 710 909 
z
M 634 2266 
Q 704 2317 825 2387 
Q 947 2458 1123 2509 
Q 1299 2560 1517 2560 
Q 1651 2560 1772 2534 
Q 1894 2509 1987 2451 
Q 2080 2394 2131 2294 
Q 2182 2195 2182 2042 
L 2182 0 
L 2694 0 
L 2694 2112 
Q 2694 2400 2550 2598 
Q 2406 2797 2147 2902 
Q 1888 3008 1542 3008 
Q 1133 3008 841 2886 
Q 550 2765 384 2643 
L 634 2266 
z
" transform="scale(0.015625)"/>
       <path id="Jost-Regular-52" d="M 1312 2208 
L 2848 0 
L 3520 0 
L 1920 2208 
L 1312 2208 
z
M 512 4480 
L 512 0 
L 1056 0 
L 1056 4480 
L 512 4480 
z
M 813 4000 
L 1728 4000 
Q 2016 4000 2237 3897 
Q 2458 3795 2582 3603 
Q 2707 3411 2707 3136 
Q 2707 2861 2582 2669 
Q 2458 2477 2237 2374 
Q 2016 2272 1728 2272 
L 813 2272 
L 813 1792 
L 1728 1792 
Q 2163 1792 2505 1955 
Q 2848 2118 3049 2422 
Q 3251 2726 3251 3136 
Q 3251 3552 3049 3853 
Q 2848 4154 2505 4317 
Q 2163 4480 1728 4480 
L 813 4480 
L 813 4000 
z
" transform="scale(0.015625)"/>
       <path id="Jost-Regular-53" d="M 678 1357 
L 243 1062 
Q 390 768 624 509 
Q 858 250 1168 93 
Q 1478 -64 1843 -64 
Q 2112 -64 2358 25 
Q 2605 115 2800 281 
Q 2995 448 3107 685 
Q 3219 922 3219 1216 
Q 3219 1523 3110 1744 
Q 3002 1965 2832 2121 
Q 2662 2278 2464 2380 
Q 2266 2483 2086 2547 
Q 1696 2682 1469 2819 
Q 1242 2957 1146 3113 
Q 1050 3270 1050 3456 
Q 1050 3674 1216 3850 
Q 1382 4026 1747 4026 
Q 2010 4026 2192 3923 
Q 2374 3821 2502 3661 
Q 2630 3501 2714 3334 
L 3181 3603 
Q 3072 3840 2880 4054 
Q 2688 4269 2416 4406 
Q 2144 4544 1779 4544 
Q 1402 4544 1107 4393 
Q 813 4243 646 3980 
Q 480 3718 480 3386 
Q 480 3078 598 2867 
Q 717 2656 902 2512 
Q 1088 2368 1293 2275 
Q 1498 2182 1664 2125 
Q 1920 2035 2147 1923 
Q 2374 1811 2515 1632 
Q 2656 1453 2656 1152 
Q 2656 845 2438 646 
Q 2221 448 1862 448 
Q 1594 448 1382 563 
Q 1171 678 1001 883 
Q 832 1088 678 1357 
z
" transform="scale(0.015625)"/>
       <path id="Jost-Regular-2c" d="M 947 704 
L 384 -954 
L 755 -1088 
L 1459 512 
L 947 704 
z
" transform="scale(0.015625)"/>
       <path id="Jost-Regular-6c" d="M 480 4992 
L 480 0 
L 992 0 
L 992 4992 
L 480 4992 
z
" transform="scale(0.015625)"/>
       <path id="Jost-Regular-6f" d="M 224 1472 
Q 224 1030 425 681 
Q 627 333 972 134 
Q 1318 -64 1747 -64 
Q 2182 -64 2524 134 
Q 2867 333 3068 681 
Q 3270 1030 3270 1472 
Q 3270 1920 3068 2265 
Q 2867 2611 2524 2809 
Q 2182 3008 1747 3008 
Q 1318 3008 972 2809 
Q 627 2611 425 2265 
Q 224 1920 224 1472 
z
M 742 1472 
Q 742 1779 873 2019 
Q 1005 2259 1232 2393 
Q 1459 2528 1747 2528 
Q 2035 2528 2262 2393 
Q 2490 2259 2621 2019 
Q 2752 1779 2752 1472 
Q 2752 1165 2621 928 
Q 2490 691 2262 553 
Q 2035 416 1747 416 
Q 1459 416 1232 553 
Q 1005 691 873 928 
Q 742 1165 742 1472 
z
" transform="scale(0.015625)"/>
       <path id="Jost-Regular-77" d="M 32 2944 
L 1312 -224 
L 2150 1920 
L 3040 -224 
L 4320 2944 
L 3744 2944 
L 3002 1018 
L 2144 3168 
L 1344 1030 
L 608 2944 
L 32 2944 
z
" transform="scale(0.015625)"/>
       <path id="Jost-Regular-72" d="M 992 2944 
L 480 2944 
L 480 0 
L 992 0 
L 992 2944 
z
M 1882 2381 
L 2163 2803 
Q 2048 2925 1910 2966 
Q 1773 3008 1613 3008 
Q 1408 3008 1209 2848 
Q 1011 2688 886 2416 
Q 762 2144 762 1792 
L 992 1792 
Q 992 2003 1033 2169 
Q 1075 2336 1184 2432 
Q 1293 2528 1485 2528 
Q 1613 2528 1696 2493 
Q 1779 2458 1882 2381 
z
" transform="scale(0.015625)"/>
       <path id="Jost-Regular-73" d="M 602 902 
L 198 653 
Q 282 480 445 313 
Q 608 147 845 41 
Q 1082 -64 1376 -64 
Q 1830 -64 2108 192 
Q 2387 448 2387 832 
Q 2387 1094 2262 1260 
Q 2138 1427 1926 1545 
Q 1715 1664 1459 1766 
Q 1306 1830 1165 1900 
Q 1024 1971 934 2060 
Q 845 2150 845 2266 
Q 845 2413 960 2483 
Q 1075 2554 1235 2554 
Q 1466 2554 1648 2445 
Q 1830 2336 1952 2170 
L 2362 2432 
Q 2272 2598 2112 2726 
Q 1952 2854 1744 2931 
Q 1536 3008 1299 3008 
Q 1062 3008 841 2925 
Q 621 2842 483 2669 
Q 346 2496 346 2234 
Q 346 1978 477 1808 
Q 608 1638 803 1532 
Q 998 1427 1190 1350 
Q 1363 1286 1516 1212 
Q 1670 1139 1769 1033 
Q 1869 928 1869 774 
Q 1869 602 1744 502 
Q 1619 403 1402 403 
Q 1222 403 1072 470 
Q 922 538 806 653 
Q 691 768 602 902 
z
" transform="scale(0.015625)"/>
       <path id="Jost-Regular-62" d="M 960 4992 
L 448 4992 
L 448 0 
L 960 0 
L 960 4992 
z
M 3424 1472 
Q 3424 1952 3225 2294 
Q 3027 2637 2697 2822 
Q 2368 3008 1965 3008 
Q 1600 3008 1321 2822 
Q 1043 2637 886 2294 
Q 730 1952 730 1472 
Q 730 998 886 652 
Q 1043 307 1321 121 
Q 1600 -64 1965 -64 
Q 2368 -64 2697 121 
Q 3027 307 3225 652 
Q 3424 998 3424 1472 
z
M 2906 1472 
Q 2906 1133 2768 896 
Q 2630 659 2403 537 
Q 2176 416 1901 416 
Q 1677 416 1459 537 
Q 1242 659 1101 896 
Q 960 1133 960 1472 
Q 960 1811 1101 2048 
Q 1242 2285 1459 2406 
Q 1677 2528 1901 2528 
Q 2176 2528 2403 2406 
Q 2630 2285 2768 2048 
Q 2906 1811 2906 1472 
z
" transform="scale(0.015625)"/>
       <path id="Jost-Regular-74" d="M 32 2944 
L 32 2464 
L 1504 2464 
L 1504 2944 
L 32 2944 
z
M 512 3968 
L 512 0 
L 1024 0 
L 1024 3968 
L 512 3968 
z
" transform="scale(0.015625)"/>
      </defs>
      <use xlink:href="#Jost-Regular-50"/>
      <use xlink:href="#Jost-Regular-65" transform="translate(54.799988 0)"/>
      <use xlink:href="#Jost-Regular-61" transform="translate(106.299973 0)"/>
      <use xlink:href="#Jost-Regular-6b" transform="translate(154.399963 0)"/>
      <use xlink:href="#Jost-Regular-20" transform="translate(198.399948 0)"/>
      <use xlink:href="#Jost-Regular-52" transform="translate(228.399933 0)"/>
      <use xlink:href="#Jost-Regular-53" transform="translate(284.399918 0)"/>
      <use xlink:href="#Jost-Regular-53" transform="translate(339.199905 0)"/>
      <use xlink:href="#Jost-Regular-20" transform="translate(393.999893 0)"/>
      <use xlink:href="#Jost-Regular-28" transform="translate(423.999878 0)"/>
      <use xlink:href="#Jost-Regular-4d" transform="translate(454.999863 0)"/>
      <use xlink:href="#Jost-Regular-69" transform="translate(535.999847 0)"/>
      <use xlink:href="#Jost-Regular-42" transform="translate(561.999832 0)"/>
      <use xlink:href="#Jost-Regular-2c" transform="translate(617.79982 0)"/>
      <use xlink:href="#Jost-Regular-20" transform="translate(648.599808 0)"/>
      <use xlink:href="#Jost-Regular-6c" transform="translate(678.599792 0)"/>
      <use xlink:href="#Jost-Regular-6f" transform="translate(701.599777 0)"/>
      <use xlink:href="#Jost-Regular-77" transform="translate(756.199768 0)"/>
      <use xlink:href="#Jost-Regular-65" transform="translate(824.199753 0)"/>
      <use xlink:href="#Jost-Regular-72" transform="translate(875.699738 0)"/>
      <use xlink:href="#Jost-Regular-20" transform="translate(909.999725 0)"/>
      <use xlink:href="#Jost-Regular-69" transform="translate(939.99971 0)"/>
      <use xlink:href="#Jost-Regular-73" transform="translate(965.999695 0)"/>
      <use xlink:href="#Jost-Regular-20" transform="translate(1006.299683 0)"/>
      <use xlink:href="#Jost-Regular-62" transform="translate(1036.299667 0)"/>
      <use xlink:href="#Jost-Regular-65" transform="translate(1093.299652 0)"/>
      <use xlink:href="#Jost-Regular-74" transform="translate(1144.799637 0)"/>
      <use xlink:href="#Jost-Regular-74" transform="translate(1168.799622 0)"/>
      <use xlink:href="#Jost-Regular-65" transform="translate(1192.799606 0)"/>
      <use xlink:href="#Jost-Regular-72" transform="translate(1244.299591 0)"/>
      <use xlink:href="#Jost-Regular-29" transform="translate(1278.599579 0)"/>
     </g>
    </g>
   </g>
   <g id="patch_9">
    <path d="M 51.32 281.792 
L 51.32 27.27375 
" style="fill: none; stroke: #cccccc; stroke-width: 0.8; stroke-linejoin: miter; stroke-linecap: square"/>
   </g>
   <g id="patch_10">
    <path d="M 564.12 281.792 
L 564.12 27.27375 
" style="fill: none; stroke: #cccccc; stroke-width: 0.8; stroke-linejoin: miter; stroke-linecap: square"/>
   </g>
   <g id="patch_11">
    <path d="M 51.32 281.792 
L 564.12 281.792 
" style="fill: none; stroke: #cccccc; stroke-width: 0.8; stroke-linejoin: miter; stroke-linecap: square"/>
   </g>
   <g id="patch_12">
    <path d="M 51.32 27.27375 
L 564.12 27.27375 
" style="fill: none; stroke: #cccccc; stroke-width: 0.8; stroke-linejoin: miter; stroke-linecap: square"/>
   </g>
   <g id="text_11">
    <!-- 3.8x less -->
    <g style="fill: #004d40" transform="translate(136.608468 213.947988) scale(0.09 -0.09)">
     <defs>
      <path id="Jost-Bold-33" d="M 1760 2170 
Q 2291 2170 2720 2298 
Q 3149 2426 3401 2682 
Q 3654 2938 3654 3322 
Q 3654 3667 3472 3948 
Q 3290 4230 2938 4396 
Q 2586 4563 2080 4563 
Q 1606 4563 1248 4380 
Q 890 4198 694 3881 
Q 499 3565 499 3168 
L 1491 3168 
Q 1491 3405 1657 3552 
Q 1824 3699 2080 3699 
Q 2253 3699 2361 3644 
Q 2470 3590 2528 3488 
Q 2586 3386 2586 3258 
Q 2586 3136 2528 3027 
Q 2470 2918 2358 2835 
Q 2246 2752 2096 2704 
Q 1946 2656 1760 2656 
L 1760 2170 
z
M 2029 -102 
Q 2579 -102 2969 67 
Q 3360 237 3571 534 
Q 3782 832 3782 1222 
Q 3782 1562 3635 1805 
Q 3488 2048 3213 2205 
Q 2938 2362 2570 2435 
Q 2202 2509 1760 2509 
L 1760 1958 
Q 2003 1958 2182 1913 
Q 2362 1869 2480 1782 
Q 2598 1696 2656 1581 
Q 2714 1466 2714 1325 
Q 2714 1139 2630 1011 
Q 2547 883 2403 825 
Q 2259 768 2067 768 
Q 1888 768 1725 838 
Q 1562 909 1466 1056 
Q 1370 1203 1370 1421 
L 307 1421 
Q 307 1126 425 851 
Q 544 576 765 358 
Q 986 141 1306 19 
Q 1626 -102 2029 -102 
z
" transform="scale(0.015625)"/>
      <path id="Jost-Bold-2e" d="M 429 435 
Q 429 192 601 19 
Q 774 -154 1030 -154 
Q 1299 -154 1465 19 
Q 1632 192 1632 435 
Q 1632 678 1465 851 
Q 1299 1024 1030 1024 
Q 774 1024 601 851 
Q 429 678 429 435 
z
" transform="scale(0.015625)"/>
      <path id="Jost-Bold-38" d="M 493 3398 
Q 493 3091 624 2864 
Q 755 2637 972 2486 
Q 1190 2336 1459 2265 
Q 1728 2195 2003 2195 
Q 2278 2195 2547 2265 
Q 2816 2336 3037 2486 
Q 3258 2637 3389 2864 
Q 3520 3091 3520 3398 
Q 3520 3776 3312 4041 
Q 3104 4307 2761 4444 
Q 2419 4582 2003 4582 
Q 1594 4582 1251 4444 
Q 909 4307 701 4041 
Q 493 3776 493 3398 
z
M 1510 3296 
Q 1510 3443 1571 3561 
Q 1632 3680 1747 3744 
Q 1862 3808 2003 3808 
Q 2157 3808 2269 3744 
Q 2381 3680 2441 3561 
Q 2502 3443 2502 3296 
Q 2502 3142 2438 3027 
Q 2374 2912 2262 2848 
Q 2150 2784 2003 2784 
Q 1862 2784 1750 2848 
Q 1638 2912 1574 3027 
Q 1510 3142 1510 3296 
z
M 333 1216 
Q 333 909 467 665 
Q 602 422 838 249 
Q 1075 77 1376 -12 
Q 1677 -102 2003 -102 
Q 2336 -102 2637 -12 
Q 2938 77 3174 249 
Q 3411 422 3545 665 
Q 3680 909 3680 1216 
Q 3680 1568 3526 1821 
Q 3373 2074 3120 2230 
Q 2867 2387 2572 2460 
Q 2278 2534 2003 2534 
Q 1728 2534 1433 2460 
Q 1139 2387 889 2230 
Q 640 2074 486 1821 
Q 333 1568 333 1216 
z
M 1408 1382 
Q 1408 1542 1488 1676 
Q 1568 1811 1705 1888 
Q 1843 1965 2003 1965 
Q 2170 1965 2307 1888 
Q 2445 1811 2525 1676 
Q 2605 1542 2605 1382 
Q 2605 1184 2525 1049 
Q 2445 915 2307 844 
Q 2170 774 2003 774 
Q 1843 774 1705 844 
Q 1568 915 1488 1049 
Q 1408 1184 1408 1382 
z
" transform="scale(0.015625)"/>
      <path id="Jost-Bold-78" d="M 2266 2944 
L 1715 2170 
L 1178 2944 
L 64 2944 
L 1210 1510 
L 0 0 
L 1114 0 
L 1715 858 
L 2330 0 
L 3405 0 
L 2214 1510 
L 3341 2944 
L 2266 2944 
z
" transform="scale(0.015625)"/>
      <path id="Jost-Bold-20" transform="scale(0.015625)"/>
      <path id="Jost-Bold-6c" d="M 378 4992 
L 378 0 
L 1350 0 
L 1350 4992 
L 378 4992 
z
" transform="scale(0.015625)"/>
      <path id="Jost-Bold-65" d="M 1875 -64 
Q 2438 -64 2832 153 
Q 3226 371 3456 806 
L 2592 1018 
Q 2483 826 2300 730 
Q 2118 634 1862 634 
Q 1638 634 1484 733 
Q 1331 832 1254 1024 
Q 1178 1216 1178 1485 
Q 1184 1779 1257 1974 
Q 1331 2170 1478 2266 
Q 1626 2362 1843 2362 
Q 2016 2362 2144 2285 
Q 2272 2208 2342 2067 
Q 2413 1926 2413 1734 
Q 2413 1690 2390 1622 
Q 2368 1555 2336 1510 
L 2566 1805 
L 749 1805 
L 749 1267 
L 3437 1267 
Q 3450 1312 3450 1379 
Q 3450 1446 3450 1517 
Q 3450 1990 3264 2323 
Q 3078 2656 2726 2832 
Q 2374 3008 1862 3008 
Q 1350 3008 976 2822 
Q 602 2637 403 2291 
Q 205 1946 205 1472 
Q 205 1005 409 659 
Q 614 314 988 125 
Q 1363 -64 1875 -64 
z
" transform="scale(0.015625)"/>
      <path id="Jost-Bold-73" d="M 538 1069 
L 134 429 
Q 333 275 563 150 
Q 794 26 1066 -48 
Q 1338 -122 1651 -122 
Q 2182 -122 2473 118 
Q 2765 358 2765 832 
Q 2765 1107 2646 1273 
Q 2528 1440 2333 1549 
Q 2138 1658 1907 1741 
Q 1690 1824 1539 1878 
Q 1389 1933 1309 1997 
Q 1229 2061 1229 2157 
Q 1229 2240 1296 2291 
Q 1363 2342 1498 2342 
Q 1696 2342 1933 2230 
Q 2170 2118 2355 1946 
L 2701 2573 
Q 2528 2701 2333 2797 
Q 2138 2893 1917 2950 
Q 1696 3008 1440 3008 
Q 1120 3008 873 2912 
Q 627 2816 483 2630 
Q 339 2445 339 2176 
Q 339 1894 460 1715 
Q 582 1536 771 1430 
Q 960 1325 1171 1248 
Q 1408 1178 1545 1114 
Q 1683 1050 1740 982 
Q 1798 915 1798 819 
Q 1798 717 1728 653 
Q 1658 589 1510 589 
Q 1408 589 1267 630 
Q 1126 672 944 777 
Q 762 883 538 1069 
z
" transform="scale(0.015625)"/>
     </defs>
     <use xlink:href="#Jost-Bold-33"/>
     <use xlink:href="#Jost-Bold-2e" transform="translate(62.099991 0)"/>
     <use xlink:href="#Jost-Bold-38" transform="translate(94.299988 0)"/>
     <use xlink:href="#Jost-Bold-78" transform="translate(156.999985 0)"/>
     <use xlink:href="#Jost-Bold-20" transform="translate(210.199982 0)"/>
     <use xlink:href="#Jost-Bold-6c" transform="translate(240.199966 0)"/>
     <use xlink:href="#Jost-Bold-65" transform="translate(267.199951 0)"/>
     <use xlink:href="#Jost-Bold-73" transform="translate(324.499939 0)"/>
     <use xlink:href="#Jost-Bold-73" transform="translate(370.09993 0)"/>
    </g>
   </g>
   <g id="text_12">
    <!-- Memory usage (all frames loaded) -->
    <g transform="translate(221.269375 21.27375) scale(0.12 -0.12)">
     <defs>
      <path id="Jost-Regular-6d" d="M 4512 1856 
Q 4512 2221 4400 2480 
Q 4288 2739 4077 2873 
Q 3866 3008 3565 3008 
Q 3270 3008 3040 2870 
Q 2810 2733 2656 2458 
Q 2554 2720 2333 2864 
Q 2112 3008 1805 3008 
Q 1530 3008 1328 2886 
Q 1126 2765 992 2515 
L 992 2944 
L 480 2944 
L 480 0 
L 992 0 
L 992 1792 
Q 992 2022 1075 2188 
Q 1158 2355 1312 2441 
Q 1466 2528 1677 2528 
Q 1965 2528 2102 2349 
Q 2240 2170 2240 1792 
L 2240 0 
L 2752 0 
L 2752 1792 
Q 2752 2022 2835 2188 
Q 2918 2355 3072 2441 
Q 3226 2528 3437 2528 
Q 3725 2528 3862 2349 
Q 4000 2170 4000 1792 
L 4000 0 
L 4512 0 
L 4512 1856 
z
" transform="scale(0.015625)"/>
      <path id="Jost-Regular-79" d="M 2816 2944 
L 2240 2944 
L 1331 666 
L 1542 640 
L 608 2944 
L 0 2944 
L 1126 416 
L 320 -1408 
L 896 -1408 
L 2816 2944 
z
" transform="scale(0.015625)"/>
      <path id="Jost-Regular-75" d="M 992 1152 
L 992 2944 
L 480 2944 
L 480 1088 
Q 480 563 755 249 
Q 1030 -64 1491 -64 
Q 1786 -64 2003 67 
Q 2221 198 2368 461 
L 2368 0 
L 2880 0 
L 2880 2944 
L 2368 2944 
L 2368 1152 
Q 2368 934 2275 768 
Q 2182 602 2012 509 
Q 1843 416 1619 416 
Q 1312 416 1152 608 
Q 992 800 992 1152 
z
" transform="scale(0.015625)"/>
      <path id="Jost-Regular-67" d="M 282 -192 
Q 282 -570 467 -861 
Q 653 -1152 982 -1312 
Q 1312 -1472 1741 -1472 
Q 2112 -1472 2445 -1299 
Q 2778 -1126 2989 -784 
Q 3200 -442 3200 64 
L 3200 2944 
L 2688 2944 
L 2688 64 
Q 2688 -307 2544 -540 
Q 2400 -774 2182 -883 
Q 1965 -992 1741 -992 
Q 1453 -992 1241 -880 
Q 1030 -768 915 -585 
Q 800 -403 800 -192 
L 282 -192 
z
M 224 1472 
Q 224 998 422 652 
Q 621 307 953 121 
Q 1286 -64 1683 -64 
Q 2054 -64 2329 121 
Q 2605 307 2761 652 
Q 2918 998 2918 1472 
Q 2918 1952 2761 2294 
Q 2605 2637 2329 2822 
Q 2054 3008 1683 3008 
Q 1286 3008 953 2822 
Q 621 2637 422 2294 
Q 224 1952 224 1472 
z
M 742 1472 
Q 742 1811 880 2048 
Q 1018 2285 1248 2406 
Q 1478 2528 1747 2528 
Q 1914 2528 2080 2457 
Q 2246 2387 2384 2252 
Q 2522 2118 2605 1923 
Q 2688 1728 2688 1472 
Q 2688 1133 2547 896 
Q 2406 659 2188 537 
Q 1971 416 1747 416 
Q 1478 416 1248 537 
Q 1018 659 880 896 
Q 742 1133 742 1472 
z
" transform="scale(0.015625)"/>
      <path id="Jost-Regular-66" d="M 256 2944 
L 256 2464 
L 1728 2464 
L 1728 2944 
L 256 2944 
z
M 1677 4378 
L 1958 4800 
Q 1914 4864 1834 4921 
Q 1754 4979 1645 5017 
Q 1536 5056 1395 5056 
Q 1126 5056 937 4944 
Q 749 4832 646 4608 
Q 544 4384 544 4032 
L 544 0 
L 1056 0 
L 1056 3968 
Q 1056 4179 1094 4307 
Q 1133 4435 1200 4489 
Q 1267 4544 1363 4544 
Q 1440 4544 1526 4515 
Q 1613 4486 1677 4378 
z
" transform="scale(0.015625)"/>
      <path id="Jost-Regular-64" d="M 2688 4992 
L 2688 0 
L 3200 0 
L 3200 4992 
L 2688 4992 
z
M 224 1472 
Q 224 998 422 652 
Q 621 307 953 121 
Q 1286 -64 1683 -64 
Q 2054 -64 2329 121 
Q 2605 307 2761 652 
Q 2918 998 2918 1472 
Q 2918 1952 2761 2294 
Q 2605 2637 2329 2822 
Q 2054 3008 1683 3008 
Q 1286 3008 953 2822 
Q 621 2637 422 2294 
Q 224 1952 224 1472 
z
M 742 1472 
Q 742 1811 880 2048 
Q 1018 2285 1248 2406 
Q 1478 2528 1747 2528 
Q 1971 2528 2188 2406 
Q 2406 2285 2547 2048 
Q 2688 1811 2688 1472 
Q 2688 1133 2547 896 
Q 2406 659 2188 537 
Q 1971 416 1747 416 
Q 1478 416 1248 537 
Q 1018 659 880 896 
Q 742 1133 742 1472 
z
" transform="scale(0.015625)"/>
     </defs>
     <use xlink:href="#Jost-Regular-4d"/>
     <use xlink:href="#Jost-Regular-65" transform="translate(80.999985 0)"/>
     <use xlink:href="#Jost-Regular-6d" transform="translate(132.499969 0)"/>
     <use xlink:href="#Jost-Regular-6f" transform="translate(210.499954 0)"/>
     <use xlink:href="#Jost-Regular-72" transform="translate(265.099945 0)"/>
     <use xlink:href="#Jost-Regular-79" transform="translate(299.399933 0)"/>
     <use xlink:href="#Jost-Regular-20" transform="translate(343.399918 0)"/>
     <use xlink:href="#Jost-Regular-75" transform="translate(373.399902 0)"/>
     <use xlink:href="#Jost-Regular-73" transform="translate(425.899887 0)"/>
     <use xlink:href="#Jost-Regular-61" transform="translate(466.199875 0)"/>
     <use xlink:href="#Jost-Regular-67" transform="translate(514.299866 0)"/>
     <use xlink:href="#Jost-Regular-65" transform="translate(571.29985 0)"/>
     <use xlink:href="#Jost-Regular-20" transform="translate(622.799835 0)"/>
     <use xlink:href="#Jost-Regular-28" transform="translate(652.79982 0)"/>
     <use xlink:href="#Jost-Regular-61" transform="translate(683.799805 0)"/>
     <use xlink:href="#Jost-Regular-6c" transform="translate(731.899796 0)"/>
     <use xlink:href="#Jost-Regular-6c" transform="translate(754.89978 0)"/>
     <use xlink:href="#Jost-Regular-20" transform="translate(777.899765 0)"/>
     <use xlink:href="#Jost-Regular-66" transform="translate(807.89975 0)"/>
     <use xlink:href="#Jost-Regular-72" transform="translate(836.499741 0)"/>
     <use xlink:href="#Jost-Regular-61" transform="translate(870.799728 0)"/>
     <use xlink:href="#Jost-Regular-6d" transform="translate(918.899719 0)"/>
     <use xlink:href="#Jost-Regular-65" transform="translate(996.899704 0)"/>
     <use xlink:href="#Jost-Regular-73" transform="translate(1048.399689 0)"/>
     <use xlink:href="#Jost-Regular-20" transform="translate(1088.699677 0)"/>
     <use xlink:href="#Jost-Regular-6c" transform="translate(1118.699661 0)"/>
     <use xlink:href="#Jost-Regular-6f" transform="translate(1141.699646 0)"/>
     <use xlink:href="#Jost-Regular-61" transform="translate(1196.299637 0)"/>
     <use xlink:href="#Jost-Regular-64" transform="translate(1244.399628 0)"/>
     <use xlink:href="#Jost-Regular-65" transform="translate(1301.399612 0)"/>
     <use xlink:href="#Jost-Regular-64" transform="translate(1352.899597 0)"/>
     <use xlink:href="#Jost-Regular-29" transform="translate(1409.899582 0)"/>
    </g>
   </g>
   <g id="legend_1">
    <g id="patch_13">
     <path d="M 59.02 69.07375 
L 155.266563 69.07375 
Q 157.466563 69.07375 157.466563 66.87375 
L 157.466563 34.97375 
Q 157.466563 32.77375 155.266563 32.77375 
L 59.02 32.77375 
Q 56.82 32.77375 56.82 34.97375 
L 56.82 66.87375 
Q 56.82 69.07375 59.02 69.07375 
z
" style="fill: #fafafa; opacity: 0.8; stroke: #cccccc; stroke-linejoin: miter"/>
    </g>
    <g id="patch_14">
     <path d="M 61.22 45.75375 
L 83.22 45.75375 
L 83.22 38.05375 
L 61.22 38.05375 
z
" style="fill: #ff655d; stroke: #ffffff; stroke-linejoin: miter"/>
    </g>
    <g id="text_13">
     <!-- ASE -->
     <g transform="translate(92.02 45.75375) scale(0.11 -0.11)">
      <defs>
       <path id="Jost-Regular-41" d="M 941 1344 
L 3309 1344 
L 3117 1856 
L 1133 1856 
L 941 1344 
z
M 2112 3469 
L 2880 1664 
L 2931 1536 
L 3584 0 
L 4192 0 
L 2112 4704 
L 32 0 
L 640 0 
L 1306 1574 
L 1357 1690 
L 2112 3469 
z
" transform="scale(0.015625)"/>
       <path id="Jost-Regular-45" d="M 813 0 
L 3072 0 
L 3072 512 
L 813 512 
L 813 0 
z
M 813 3968 
L 3072 3968 
L 3072 4480 
L 813 4480 
L 813 3968 
z
M 813 2176 
L 2944 2176 
L 2944 2688 
L 813 2688 
L 813 2176 
z
M 512 4480 
L 512 0 
L 1056 0 
L 1056 4480 
L 512 4480 
z
" transform="scale(0.015625)"/>
      </defs>
      <use xlink:href="#Jost-Regular-41"/>
      <use xlink:href="#Jost-Regular-53" transform="translate(65.999985 0)"/>
      <use xlink:href="#Jost-Regular-45" transform="translate(120.799973 0)"/>
     </g>
    </g>
    <g id="patch_15">
     <path d="M 61.22 62.25375 
L 83.22 62.25375 
L 83.22 54.55375 
L 61.22 54.55375 
z
" style="fill: #004d40; stroke: #ffffff; stroke-linejoin: miter"/>
    </g>
    <g id="text_14">
     <!-- readcon-core -->
     <g transform="translate(92.02 62.25375) scale(0.11 -0.11)">
      <defs>
       <path id="Jost-Regular-63" d="M 710 1472 
Q 710 1779 841 2019 
Q 973 2259 1200 2393 
Q 1427 2528 1715 2528 
Q 1952 2528 2160 2454 
Q 2368 2381 2521 2259 
Q 2675 2138 2739 1990 
L 2739 2630 
Q 2586 2810 2301 2909 
Q 2016 3008 1715 3008 
Q 1286 3008 940 2809 
Q 595 2611 393 2265 
Q 192 1920 192 1472 
Q 192 1030 393 681 
Q 595 333 940 134 
Q 1286 -64 1715 -64 
Q 2016 -64 2301 35 
Q 2586 134 2739 314 
L 2739 954 
Q 2675 813 2521 688 
Q 2368 563 2160 489 
Q 1952 416 1715 416 
Q 1427 416 1200 553 
Q 973 691 841 928 
Q 710 1165 710 1472 
z
" transform="scale(0.015625)"/>
       <path id="Jost-Regular-6e" d="M 2368 1792 
L 2368 0 
L 2880 0 
L 2880 1856 
Q 2880 2387 2608 2697 
Q 2336 3008 1869 3008 
Q 1581 3008 1360 2880 
Q 1139 2752 992 2483 
L 992 2944 
L 480 2944 
L 480 0 
L 992 0 
L 992 1792 
Q 992 2010 1085 2176 
Q 1178 2342 1347 2435 
Q 1517 2528 1741 2528 
Q 2048 2528 2208 2342 
Q 2368 2157 2368 1792 
z
" transform="scale(0.015625)"/>
       <path id="Jost-Regular-2d" d="M 32 1280 
L 1312 1280 
L 1312 1760 
L 32 1760 
L 32 1280 
z
" transform="scale(0.015625)"/>
      </defs>
      <use xlink:href="#Jost-Regular-72"/>
      <use xlink:href="#Jost-Regular-65" transform="translate(34.299988 0)"/>
      <use xlink:href="#Jost-Regular-61" transform="translate(85.799973 0)"/>
      <use xlink:href="#Jost-Regular-64" transform="translate(133.899963 0)"/>
      <use xlink:href="#Jost-Regular-63" transform="translate(190.899948 0)"/>
      <use xlink:href="#Jost-Regular-6f" transform="translate(238.699936 0)"/>
      <use xlink:href="#Jost-Regular-6e" transform="translate(293.299927 0)"/>
      <use xlink:href="#Jost-Regular-2d" transform="translate(345.799911 0)"/>
      <use xlink:href="#Jost-Regular-63" transform="translate(366.799896 0)"/>
      <use xlink:href="#Jost-Regular-6f" transform="translate(414.599884 0)"/>
      <use xlink:href="#Jost-Regular-72" transform="translate(469.199875 0)"/>
      <use xlink:href="#Jost-Regular-65" transform="translate(503.499863 0)"/>
     </g>
    </g>
   </g>
  </g>
 </g>
 <defs>
  <clipPath id="p7abca421b2">
   <rect x="51.32" y="27.27375" width="512.8" height="254.51825"/>
  </clipPath>
 </defs>
</svg>
