<?xml version="1.0" encoding="utf-8" standalone="no"?>
<!DOCTYPE svg PUBLIC "-//W3C//DTD SVG 1.1//EN"
  "http://www.w3.org/Graphics/SVG/1.1/DTD/svg11.dtd">
<svg xmlns:xlink="http://www.w3.org/1999/xlink" width="720pt" height="360pt" viewBox="0 0 720 360" xmlns="http://www.w3.org/2000/svg" version="1.1">
 <metadata>
  <rdf:RDF xmlns:dc="http://purl.org/dc/elements/1.1/" xmlns:cc="http://creativecommons.org/ns#" xmlns:rdf="http://www.w3.org/1999/02/22-rdf-syntax-ns#">
   <cc:Work>
    <dc:type rdf:resource="http://purl.org/dc/dcmitype/StillImage"/>
    <dc:date>2026-03-25T21:57:27.609995</dc:date>
    <dc:format>image/svg+xml</dc:format>
    <dc:creator>
     <cc:Agent>
      <dc:title>Matplotlib v3.10.8, https://matplotlib.org/</dc:title>
     </cc:Agent>
    </dc:creator>
   </cc:Work>
  </rdf:RDF>
 </metadata>
 <defs>
  <style type="text/css">*{stroke-linejoin: round; stroke-linecap: butt}</style>
 </defs>
 <g id="figure_1">
  <g id="patch_1">
   <path d="M 0 360 
L 720 360 
L 720 0 
L 0 0 
z
" style="fill: #ffffff"/>
  </g>
  <g id="axes_1">
   <g id="patch_2">
    <path d="M 49.600521 317.792 
L 708.12 317.792 
L 708.12 27.96 
L 49.600521 27.96 
z
" style="fill: #fafafa"/>
   </g>
   <g id="patch_3">
    <path d="M 79.533224 88118.266513 
L 119.443496 88118.266513 
L 119.443496 181.042129 
L 79.533224 181.042129 
z
" clip-path="url(#p409908b232)" style="fill: #ff655d; stroke: #ffffff; stroke-width: 0.5; stroke-linejoin: miter"/>
   </g>
   <g id="patch_4">
    <path d="M 239.17431 88118.266513 
L 279.084582 88118.266513 
L 279.084582 102.121897 
L 239.17431 102.121897 
z
" clip-path="url(#p409908b232)" style="fill: #ff655d; stroke: #ffffff; stroke-width: 0.5; stroke-linejoin: miter"/>
   </g>
   <g id="patch_5">
    <path d="M 398.815396 88118.266513 
L 438.725668 88118.266513 
L 438.725668 56.106383 
L 398.815396 56.106383 
z
" clip-path="url(#p409908b232)" style="fill: #ff655d; stroke: #ffffff; stroke-width: 0.5; stroke-linejoin: miter"/>
   </g>
   <g id="patch_6">
    <path d="M 558.456482 88118.266513 
L 598.366753 88118.266513 
L 598.366753 144.550438 
L 558.456482 144.550438 
z
" clip-path="url(#p409908b232)" style="fill: #ff655d; stroke: #ffffff; stroke-width: 0.5; stroke-linejoin: miter"/>
   </g>
   <g id="patch_7">
    <path d="M 119.443496 88118.266513 
L 159.353767 88118.266513 
L 159.353767 227.769659 
L 119.443496 227.769659 
z
" clip-path="url(#p409908b232)" style="fill: #f1db4b; stroke: #ffffff; stroke-width: 0.5; stroke-linejoin: miter"/>
   </g>
   <g id="patch_8">
    <path d="M 279.084582 88118.266513 
L 318.994853 88118.266513 
L 318.994853 154.191369 
L 279.084582 154.191369 
z
" clip-path="url(#p409908b232)" style="fill: #f1db4b; stroke: #ffffff; stroke-width: 0.5; stroke-linejoin: miter"/>
   </g>
   <g id="patch_9">
    <path d="M 438.725668 88118.266513 
L 478.635939 88118.266513 
L 478.635939 93.241654 
L 438.725668 93.241654 
z
" clip-path="url(#p409908b232)" style="fill: #f1db4b; stroke: #ffffff; stroke-width: 0.5; stroke-linejoin: miter"/>
   </g>
   <g id="patch_10">
    <path d="M 598.366753 88118.266513 
L 638.277025 88118.266513 
L 638.277025 181.147902 
L 598.366753 181.147902 
z
" clip-path="url(#p409908b232)" style="fill: #f1db4b; stroke: #ffffff; stroke-width: 0.5; stroke-linejoin: miter"/>
   </g>
   <g id="patch_11">
    <path d="M 159.353767 88118.266513 
L 199.264039 88118.266513 
L 199.264039 261.29655 
L 159.353767 261.29655 
z
" clip-path="url(#p409908b232)" style="fill: #004d40; stroke: #ffffff; stroke-width: 0.5; stroke-linejoin: miter"/>
   </g>
   <g id="patch_12">
    <path d="M 318.994853 88118.266513 
L 358.905125 88118.266513 
L 358.905125 164.98733 
L 318.994853 164.98733 
z
" clip-path="url(#p409908b232)" style="fill: #004d40; stroke: #ffffff; stroke-width: 0.5; stroke-linejoin: miter"/>
   </g>
   <g id="patch_13">
    <path d="M 478.635939 88118.266513 
L 518.54621 88118.266513 
L 518.54621 118.733246 
L 478.635939 118.733246 
z
" clip-path="url(#p409908b232)" style="fill: #004d40; stroke: #ffffff; stroke-width: 0.5; stroke-linejoin: miter"/>
   </g>
   <g id="patch_14">
    <path d="M 638.277025 88118.266513 
L 678.187296 88118.266513 
L 678.187296 219.987245 
L 638.277025 219.987245 
z
" clip-path="url(#p409908b232)" style="fill: #004d40; stroke: #ffffff; stroke-width: 0.5; stroke-linejoin: miter"/>
   </g>
   <g id="matplotlib.axis_1">
    <g id="xtick_1">
     <g id="line2d_1">
      <path d="M 139.398631 317.792 
L 139.398631 27.96 
" clip-path="url(#p409908b232)" style="fill: none; stroke: #b0b0b0; stroke-opacity: 0.3; stroke-width: 0.8; stroke-linecap: square"/>
     </g>
     <g id="line2d_2">
      <defs>
       <path id="m03905b1092" d="M 0 0 
L 0 3.5 
" style="stroke: #000000; stroke-width: 0.8"/>
      </defs>
      <g>
       <use xlink:href="#m03905b1092" x="139.398631" y="317.792" style="stroke: #000000; stroke-width: 0.8"/>
      </g>
     </g>
     <g id="text_1">
      <!-- 218x100 -->
      <g transform="translate(121.223631 332.592) scale(0.1 -0.1)">
       <defs>
        <path id="Jost-Regular-32" d="M 128 0 
L 3290 0 
L 3290 512 
L 1248 512 
L 2675 1965 
Q 2938 2234 3104 2573 
Q 3270 2912 3270 3258 
Q 3270 3462 3187 3686 
Q 3104 3910 2931 4105 
Q 2758 4301 2489 4425 
Q 2221 4550 1850 4550 
Q 1389 4550 1059 4348 
Q 730 4147 557 3785 
Q 384 3424 384 2944 
L 928 2944 
Q 928 3283 1037 3529 
Q 1146 3776 1354 3907 
Q 1562 4038 1850 4038 
Q 2054 4038 2214 3968 
Q 2374 3898 2486 3782 
Q 2598 3667 2656 3526 
Q 2714 3386 2714 3238 
Q 2714 3059 2659 2896 
Q 2605 2733 2499 2576 
Q 2394 2419 2246 2259 
L 128 0 
z
" transform="scale(0.015625)"/>
        <path id="Jost-Regular-31" d="M 512 3597 
L 1504 3891 
L 1504 0 
L 2048 0 
L 2048 4544 
L 512 4160 
L 512 3597 
z
" transform="scale(0.015625)"/>
        <path id="Jost-Regular-38" d="M 512 3398 
Q 512 3136 601 2928 
Q 691 2720 854 2573 
Q 1018 2426 1245 2349 
Q 1472 2272 1747 2272 
Q 2022 2272 2249 2349 
Q 2477 2426 2640 2573 
Q 2803 2720 2892 2928 
Q 2982 3136 2982 3398 
Q 2982 3718 2819 3977 
Q 2656 4237 2377 4390 
Q 2099 4544 1747 4544 
Q 1395 4544 1116 4390 
Q 838 4237 675 3977 
Q 512 3718 512 3398 
z
M 1030 3334 
Q 1030 3546 1123 3712 
Q 1216 3878 1379 3971 
Q 1542 4064 1747 4064 
Q 1958 4064 2118 3971 
Q 2278 3878 2371 3712 
Q 2464 3546 2464 3334 
Q 2464 3123 2365 2963 
Q 2266 2803 2102 2713 
Q 1939 2624 1747 2624 
Q 1555 2624 1392 2713 
Q 1229 2803 1129 2963 
Q 1030 3123 1030 3334 
z
M 352 1216 
Q 352 954 457 723 
Q 563 493 752 313 
Q 941 134 1193 35 
Q 1446 -64 1747 -64 
Q 2048 -64 2301 35 
Q 2554 134 2742 313 
Q 2931 493 3036 723 
Q 3142 954 3142 1216 
Q 3142 1523 3030 1763 
Q 2918 2003 2723 2166 
Q 2528 2330 2275 2413 
Q 2022 2496 1747 2496 
Q 1472 2496 1219 2413 
Q 966 2330 771 2166 
Q 576 2003 464 1763 
Q 352 1523 352 1216 
z
M 870 1280 
Q 870 1523 995 1718 
Q 1120 1914 1321 2029 
Q 1523 2144 1747 2144 
Q 1971 2144 2172 2029 
Q 2374 1914 2499 1718 
Q 2624 1523 2624 1280 
Q 2624 1005 2499 813 
Q 2374 621 2172 518 
Q 1971 416 1747 416 
Q 1523 416 1321 518 
Q 1120 621 995 813 
Q 870 1005 870 1280 
z
" transform="scale(0.015625)"/>
        <path id="Jost-Regular-78" d="M 2048 2944 
L 1344 1920 
L 640 2944 
L 64 2944 
L 1069 1517 
L 0 0 
L 576 0 
L 1344 1114 
L 2112 0 
L 2688 0 
L 1619 1517 
L 2624 2944 
L 2048 2944 
z
" transform="scale(0.015625)"/>
        <path id="Jost-Regular-30" d="M 800 2240 
Q 800 2630 877 2960 
Q 954 3290 1101 3530 
Q 1248 3770 1456 3901 
Q 1664 4032 1920 4032 
Q 2182 4032 2387 3901 
Q 2592 3770 2739 3530 
Q 2886 3290 2963 2960 
Q 3040 2630 3040 2240 
Q 3040 1850 2963 1520 
Q 2886 1190 2739 950 
Q 2592 710 2387 579 
Q 2182 448 1920 448 
Q 1664 448 1456 579 
Q 1248 710 1101 950 
Q 954 1190 877 1520 
Q 800 1850 800 2240 
z
M 256 2240 
Q 256 1568 467 1049 
Q 678 531 1052 233 
Q 1427 -64 1920 -64 
Q 2413 -64 2787 233 
Q 3162 531 3373 1049 
Q 3584 1568 3584 2240 
Q 3584 2912 3373 3430 
Q 3162 3949 2787 4246 
Q 2413 4544 1920 4544 
Q 1427 4544 1052 4246 
Q 678 3949 467 3430 
Q 256 2912 256 2240 
z
" transform="scale(0.015625)"/>
       </defs>
       <use xlink:href="#Jost-Regular-32"/>
       <use xlink:href="#Jost-Regular-31" transform="translate(56.899994 0)"/>
       <use xlink:href="#Jost-Regular-38" transform="translate(101.899979 0)"/>
       <use xlink:href="#Jost-Regular-78" transform="translate(156.499969 0)"/>
       <use xlink:href="#Jost-Regular-31" transform="translate(198.499954 0)"/>
       <use xlink:href="#Jost-Regular-30" transform="translate(243.499939 0)"/>
       <use xlink:href="#Jost-Regular-30" transform="translate(303.499924 0)"/>
      </g>
      <!-- (1.6 MiB) -->
      <g transform="translate(120.0291 344.152) scale(0.1 -0.1)">
       <defs>
        <path id="Jost-Regular-28" d="M 1312 4992 
Q 928 4275 752 3475 
Q 576 2675 576 1856 
Q 576 1043 752 243 
Q 928 -557 1312 -1280 
L 1792 -1280 
Q 1459 -557 1305 243 
Q 1152 1043 1152 1856 
Q 1152 2675 1305 3475 
Q 1459 4275 1792 4992 
L 1312 4992 
z
" transform="scale(0.015625)"/>
        <path id="Jost-Regular-2e" d="M 608 256 
Q 608 115 713 9 
Q 819 -96 960 -96 
Q 1107 -96 1209 9 
Q 1312 115 1312 256 
Q 1312 403 1209 505 
Q 1107 608 960 608 
Q 819 608 713 505 
Q 608 403 608 256 
z
" transform="scale(0.015625)"/>
        <path id="Jost-Regular-36" d="M 838 1472 
Q 838 1779 969 2019 
Q 1101 2259 1328 2393 
Q 1555 2528 1843 2528 
Q 2131 2528 2358 2393 
Q 2586 2259 2717 2019 
Q 2848 1779 2848 1472 
Q 2848 1165 2717 931 
Q 2586 698 2358 563 
Q 2131 429 1843 429 
Q 1555 429 1328 563 
Q 1101 698 969 931 
Q 838 1165 838 1472 
z
M 2112 4480 
L 602 2400 
Q 474 2221 397 1984 
Q 320 1747 320 1472 
Q 320 1011 521 665 
Q 723 320 1068 128 
Q 1414 -64 1843 -64 
Q 2278 -64 2620 128 
Q 2963 320 3164 665 
Q 3366 1011 3366 1472 
Q 3366 1779 3264 2044 
Q 3162 2310 2979 2508 
Q 2797 2707 2557 2816 
Q 2317 2925 2042 2925 
Q 1824 2925 1654 2873 
Q 1485 2822 1357 2662 
L 1395 2630 
L 2797 4480 
L 2112 4480 
z
" transform="scale(0.015625)"/>
        <path id="Jost-Regular-20" transform="scale(0.015625)"/>
        <path id="Jost-Regular-4d" d="M 1133 3027 
L 2592 416 
L 4051 3027 
L 4384 0 
L 4928 0 
L 4384 4704 
L 2592 1459 
L 800 4704 
L 256 0 
L 800 0 
L 1133 3027 
z
" transform="scale(0.015625)"/>
        <path id="Jost-Regular-69" d="M 480 4160 
Q 480 4019 585 3913 
Q 691 3808 832 3808 
Q 979 3808 1081 3913 
Q 1184 4019 1184 4160 
Q 1184 4307 1081 4409 
Q 979 4512 832 4512 
Q 691 4512 585 4409 
Q 480 4307 480 4160 
z
M 576 2944 
L 576 0 
L 1088 0 
L 1088 2944 
L 576 2944 
z
" transform="scale(0.015625)"/>
        <path id="Jost-Regular-42" d="M 941 2368 
L 1664 2368 
Q 2067 2368 2364 2483 
Q 2662 2598 2828 2822 
Q 2995 3046 2995 3360 
Q 2995 3744 2828 3990 
Q 2662 4237 2364 4358 
Q 2067 4480 1664 4480 
L 512 4480 
L 512 0 
L 1728 0 
Q 2163 0 2505 144 
Q 2848 288 3049 579 
Q 3251 870 3251 1312 
Q 3251 1619 3136 1843 
Q 3021 2067 2813 2211 
Q 2605 2355 2329 2425 
Q 2054 2496 1728 2496 
L 941 2496 
L 941 2195 
L 1728 2195 
Q 1946 2195 2125 2140 
Q 2304 2086 2435 1977 
Q 2566 1869 2636 1709 
Q 2707 1549 2707 1344 
Q 2707 1069 2582 877 
Q 2458 685 2237 582 
Q 2016 480 1728 480 
L 1056 480 
L 1056 4000 
L 1664 4000 
Q 2003 4000 2227 3824 
Q 2451 3648 2451 3328 
Q 2451 3117 2348 2969 
Q 2246 2822 2067 2745 
Q 1888 2669 1664 2669 
L 941 2669 
L 941 2368 
z
" transform="scale(0.015625)"/>
        <path id="Jost-Regular-29" d="M 672 -1280 
Q 1056 -557 1232 243 
Q 1408 1043 1408 1856 
Q 1408 2675 1232 3475 
Q 1056 4275 672 4992 
L 192 4992 
Q 531 4275 681 3475 
Q 832 2675 832 1856 
Q 832 1043 681 243 
Q 531 -557 192 -1280 
L 672 -1280 
z
" transform="scale(0.015625)"/>
       </defs>
       <use xlink:href="#Jost-Regular-28"/>
       <use xlink:href="#Jost-Regular-31" transform="translate(30.999985 0)"/>
       <use xlink:href="#Jost-Regular-2e" transform="translate(75.999969 0)"/>
       <use xlink:href="#Jost-Regular-36" transform="translate(105.999954 0)"/>
       <use xlink:href="#Jost-Regular-20" transform="translate(163.599945 0)"/>
       <use xlink:href="#Jost-Regular-4d" transform="translate(193.59993 0)"/>
       <use xlink:href="#Jost-Regular-69" transform="translate(274.599915 0)"/>
       <use xlink:href="#Jost-Regular-42" transform="translate(300.599899 0)"/>
       <use xlink:href="#Jost-Regular-29" transform="translate(356.399887 0)"/>
      </g>
     </g>
    </g>
    <g id="xtick_2">
     <g id="line2d_3">
      <path d="M 299.039717 317.792 
L 299.039717 27.96 
" clip-path="url(#p409908b232)" style="fill: none; stroke: #b0b0b0; stroke-opacity: 0.3; stroke-width: 0.8; stroke-linecap: square"/>
     </g>
     <g id="line2d_4">
      <g>
       <use xlink:href="#m03905b1092" x="299.039717" y="317.792" style="stroke: #000000; stroke-width: 0.8"/>
      </g>
     </g>
     <g id="text_2">
      <!-- 218x1000 -->
      <g transform="translate(277.864717 332.592) scale(0.1 -0.1)">
       <use xlink:href="#Jost-Regular-32"/>
       <use xlink:href="#Jost-Regular-31" transform="translate(56.899994 0)"/>
       <use xlink:href="#Jost-Regular-38" transform="translate(101.899979 0)"/>
       <use xlink:href="#Jost-Regular-78" transform="translate(156.499969 0)"/>
       <use xlink:href="#Jost-Regular-31" transform="translate(198.499954 0)"/>
       <use xlink:href="#Jost-Regular-30" transform="translate(243.499939 0)"/>
       <use xlink:href="#Jost-Regular-30" transform="translate(303.499924 0)"/>
       <use xlink:href="#Jost-Regular-30" transform="translate(363.499908 0)"/>
      </g>
      <!-- (9.7 MiB) -->
      <g transform="translate(279.295186 344.152) scale(0.1 -0.1)">
       <defs>
        <path id="Jost-Regular-39" d="M 2848 3008 
Q 2848 2701 2717 2464 
Q 2586 2227 2358 2089 
Q 2131 1952 1843 1952 
Q 1555 1952 1328 2089 
Q 1101 2227 969 2464 
Q 838 2701 838 3008 
Q 838 3315 969 3548 
Q 1101 3782 1328 3916 
Q 1555 4051 1843 4051 
Q 2131 4051 2358 3916 
Q 2586 3782 2717 3548 
Q 2848 3315 2848 3008 
z
M 1574 0 
L 3085 2080 
Q 3213 2259 3289 2496 
Q 3366 2733 3366 3008 
Q 3366 3469 3164 3814 
Q 2963 4160 2620 4352 
Q 2278 4544 1843 4544 
Q 1414 4544 1068 4352 
Q 723 4160 521 3814 
Q 320 3469 320 3008 
Q 320 2701 422 2435 
Q 525 2170 707 1971 
Q 890 1773 1130 1664 
Q 1370 1555 1645 1555 
Q 1862 1555 2032 1606 
Q 2202 1658 2330 1818 
L 2291 1850 
L 890 0 
L 1574 0 
z
" transform="scale(0.015625)"/>
        <path id="Jost-Regular-37" d="M 192 3968 
L 2515 3968 
L 614 0 
L 1184 0 
L 3328 4480 
L 192 4480 
L 192 3968 
z
" transform="scale(0.015625)"/>
       </defs>
       <use xlink:href="#Jost-Regular-28"/>
       <use xlink:href="#Jost-Regular-39" transform="translate(30.999985 0)"/>
       <use xlink:href="#Jost-Regular-2e" transform="translate(88.599976 0)"/>
       <use xlink:href="#Jost-Regular-37" transform="translate(118.59996 0)"/>
       <use xlink:href="#Jost-Regular-20" transform="translate(171.099945 0)"/>
       <use xlink:href="#Jost-Regular-4d" transform="translate(201.09993 0)"/>
       <use xlink:href="#Jost-Regular-69" transform="translate(282.099915 0)"/>
       <use xlink:href="#Jost-Regular-42" transform="translate(308.099899 0)"/>
       <use xlink:href="#Jost-Regular-29" transform="translate(363.899887 0)"/>
      </g>
     </g>
    </g>
    <g id="xtick_3">
     <g id="line2d_5">
      <path d="M 458.680803 317.792 
L 458.680803 27.96 
" clip-path="url(#p409908b232)" style="fill: none; stroke: #b0b0b0; stroke-opacity: 0.3; stroke-width: 0.8; stroke-linecap: square"/>
     </g>
     <g id="line2d_6">
      <g>
       <use xlink:href="#m03905b1092" x="458.680803" y="317.792" style="stroke: #000000; stroke-width: 0.8"/>
      </g>
     </g>
     <g id="text_3">
      <!-- 10kx100 -->
      <g transform="translate(440.880803 332.592) scale(0.1 -0.1)">
       <defs>
        <path id="Jost-Regular-6b" d="M 448 4992 
L 448 0 
L 960 0 
L 960 4992 
L 448 4992 
z
M 2048 2944 
L 768 1728 
L 2176 0 
L 2816 0 
L 1408 1728 
L 2688 2944 
L 2048 2944 
z
" transform="scale(0.015625)"/>
       </defs>
       <use xlink:href="#Jost-Regular-31"/>
       <use xlink:href="#Jost-Regular-30" transform="translate(44.999985 0)"/>
       <use xlink:href="#Jost-Regular-6b" transform="translate(104.999969 0)"/>
       <use xlink:href="#Jost-Regular-78" transform="translate(148.999954 0)"/>
       <use xlink:href="#Jost-Regular-31" transform="translate(190.999939 0)"/>
       <use xlink:href="#Jost-Regular-30" transform="translate(235.999924 0)"/>
       <use xlink:href="#Jost-Regular-30" transform="translate(295.999908 0)"/>
      </g>
      <!-- (46.9 MiB) -->
      <g transform="translate(435.766741 344.152) scale(0.1 -0.1)">
       <defs>
        <path id="Jost-Regular-34" d="M 128 896 
L 3539 896 
L 3539 1376 
L 2624 1376 
L 2515 1376 
L 1024 1376 
L 2291 3270 
L 2291 1197 
L 2291 1126 
L 2291 0 
L 2835 0 
L 2835 4480 
L 2611 4480 
L 128 896 
z
" transform="scale(0.015625)"/>
       </defs>
       <use xlink:href="#Jost-Regular-28"/>
       <use xlink:href="#Jost-Regular-34" transform="translate(30.999985 0)"/>
       <use xlink:href="#Jost-Regular-36" transform="translate(89.299973 0)"/>
       <use xlink:href="#Jost-Regular-2e" transform="translate(146.899963 0)"/>
       <use xlink:href="#Jost-Regular-39" transform="translate(176.899948 0)"/>
       <use xlink:href="#Jost-Regular-20" transform="translate(234.499939 0)"/>
       <use xlink:href="#Jost-Regular-4d" transform="translate(264.499924 0)"/>
       <use xlink:href="#Jost-Regular-69" transform="translate(345.499908 0)"/>
       <use xlink:href="#Jost-Regular-42" transform="translate(371.499893 0)"/>
       <use xlink:href="#Jost-Regular-29" transform="translate(427.299881 0)"/>
      </g>
     </g>
    </g>
    <g id="xtick_4">
     <g id="line2d_7">
      <path d="M 618.321889 317.792 
L 618.321889 27.96 
" clip-path="url(#p409908b232)" style="fill: none; stroke: #b0b0b0; stroke-opacity: 0.3; stroke-width: 0.8; stroke-linecap: square"/>
     </g>
     <g id="line2d_8">
      <g>
       <use xlink:href="#m03905b1092" x="618.321889" y="317.792" style="stroke: #000000; stroke-width: 0.8"/>
      </g>
     </g>
     <g id="text_4">
      <!-- 10kx10 -->
      <g transform="translate(603.521889 332.592) scale(0.1 -0.1)">
       <use xlink:href="#Jost-Regular-31"/>
       <use xlink:href="#Jost-Regular-30" transform="translate(44.999985 0)"/>
       <use xlink:href="#Jost-Regular-6b" transform="translate(104.999969 0)"/>
       <use xlink:href="#Jost-Regular-78" transform="translate(148.999954 0)"/>
       <use xlink:href="#Jost-Regular-31" transform="translate(190.999939 0)"/>
       <use xlink:href="#Jost-Regular-30" transform="translate(235.999924 0)"/>
      </g>
      <!-- (4.7 MiB) -->
      <g transform="translate(598.542202 344.152) scale(0.1 -0.1)">
       <use xlink:href="#Jost-Regular-28"/>
       <use xlink:href="#Jost-Regular-34" transform="translate(30.999985 0)"/>
       <use xlink:href="#Jost-Regular-2e" transform="translate(89.299973 0)"/>
       <use xlink:href="#Jost-Regular-37" transform="translate(119.299957 0)"/>
       <use xlink:href="#Jost-Regular-20" transform="translate(171.799942 0)"/>
       <use xlink:href="#Jost-Regular-4d" transform="translate(201.799927 0)"/>
       <use xlink:href="#Jost-Regular-69" transform="translate(282.799911 0)"/>
       <use xlink:href="#Jost-Regular-42" transform="translate(308.799896 0)"/>
       <use xlink:href="#Jost-Regular-29" transform="translate(364.599884 0)"/>
      </g>
     </g>
    </g>
   </g>
   <g id="matplotlib.axis_2">
    <g id="ytick_1">
     <g id="line2d_9">
      <path d="M 49.600521 317.792 
L 708.12 317.792 
" clip-path="url(#p409908b232)" style="fill: none; stroke: #b0b0b0; stroke-opacity: 0.3; stroke-width: 0.8; stroke-linecap: square"/>
     </g>
     <g id="line2d_10">
      <defs>
       <path id="me51521cac9" d="M 0 0 
L -3.5 0 
" style="stroke: #000000; stroke-width: 0.8"/>
      </defs>
      <g>
       <use xlink:href="#me51521cac9" x="49.600521" y="317.792" style="stroke: #000000; stroke-width: 0.8"/>
      </g>
     </g>
     <g id="text_5">
      <!-- $\mathdefault{10^{0}}$ -->
      <g transform="translate(27.500521 321.692) scale(0.1 -0.1)">
       <use xlink:href="#Jost-Regular-31" transform="translate(0 0.1)"/>
       <use xlink:href="#Jost-Regular-30" transform="translate(44.999985 0.1)"/>
       <use xlink:href="#Jost-Regular-30" transform="translate(105.804969 32.3) scale(0.7)"/>
      </g>
     </g>
    </g>
    <g id="ytick_2">
     <g id="line2d_11">
      <path d="M 49.600521 229.991525 
L 708.12 229.991525 
" clip-path="url(#p409908b232)" style="fill: none; stroke: #b0b0b0; stroke-opacity: 0.3; stroke-width: 0.8; stroke-linecap: square"/>
     </g>
     <g id="line2d_12">
      <g>
       <use xlink:href="#me51521cac9" x="49.600521" y="229.991525" style="stroke: #000000; stroke-width: 0.8"/>
      </g>
     </g>
     <g id="text_6">
      <!-- $\mathdefault{10^{1}}$ -->
      <g transform="translate(28.600521 233.891525) scale(0.1 -0.1)">
       <use xlink:href="#Jost-Regular-31" transform="translate(0 0.1)"/>
       <use xlink:href="#Jost-Regular-30" transform="translate(44.999985 0.1)"/>
       <use xlink:href="#Jost-Regular-31" transform="translate(105.804969 32.3) scale(0.7)"/>
      </g>
     </g>
    </g>
    <g id="ytick_3">
     <g id="line2d_13">
      <path d="M 49.600521 142.191051 
L 708.12 142.191051 
" clip-path="url(#p409908b232)" style="fill: none; stroke: #b0b0b0; stroke-opacity: 0.3; stroke-width: 0.8; stroke-linecap: square"/>
     </g>
     <g id="line2d_14">
      <g>
       <use xlink:href="#me51521cac9" x="49.600521" y="142.191051" style="stroke: #000000; stroke-width: 0.8"/>
      </g>
     </g>
     <g id="text_7">
      <!-- $\mathdefault{10^{2}}$ -->
      <g transform="translate(27.800521 146.091051) scale(0.1 -0.1)">
       <use xlink:href="#Jost-Regular-31" transform="translate(0 0.034375)"/>
       <use xlink:href="#Jost-Regular-30" transform="translate(44.999985 0.034375)"/>
       <use xlink:href="#Jost-Regular-32" transform="translate(105.804969 32.234375) scale(0.7)"/>
      </g>
     </g>
    </g>
    <g id="ytick_4">
     <g id="line2d_15">
      <path d="M 49.600521 54.390576 
L 708.12 54.390576 
" clip-path="url(#p409908b232)" style="fill: none; stroke: #b0b0b0; stroke-opacity: 0.3; stroke-width: 0.8; stroke-linecap: square"/>
     </g>
     <g id="line2d_16">
      <g>
       <use xlink:href="#me51521cac9" x="49.600521" y="54.390576" style="stroke: #000000; stroke-width: 0.8"/>
      </g>
     </g>
     <g id="text_8">
      <!-- $\mathdefault{10^{3}}$ -->
      <g transform="translate(27.900521 58.290576) scale(0.1 -0.1)">
       <defs>
        <path id="Jost-Regular-33" d="M 1619 2208 
Q 2054 2208 2380 2361 
Q 2707 2515 2892 2777 
Q 3078 3040 3078 3354 
Q 3078 3674 2928 3942 
Q 2778 4211 2499 4377 
Q 2221 4544 1837 4544 
Q 1472 4544 1187 4393 
Q 902 4243 739 3980 
Q 576 3718 576 3366 
L 1094 3366 
Q 1094 3661 1312 3856 
Q 1530 4051 1843 4051 
Q 2067 4051 2217 3961 
Q 2368 3872 2445 3709 
Q 2522 3546 2522 3334 
Q 2522 3174 2461 3033 
Q 2400 2893 2285 2787 
Q 2170 2682 2003 2621 
Q 1837 2560 1619 2560 
L 1619 2208 
z
M 1811 -64 
Q 2214 -64 2528 89 
Q 2842 243 3024 524 
Q 3206 806 3206 1184 
Q 3206 1517 3081 1753 
Q 2957 1990 2736 2140 
Q 2515 2291 2230 2361 
Q 1946 2432 1619 2432 
L 1619 2080 
Q 1837 2080 2022 2029 
Q 2208 1978 2349 1872 
Q 2490 1766 2570 1609 
Q 2650 1453 2650 1248 
Q 2650 1005 2547 825 
Q 2445 646 2256 547 
Q 2067 448 1811 448 
Q 1555 448 1356 544 
Q 1158 640 1046 806 
Q 934 973 934 1184 
L 384 1184 
Q 384 922 486 694 
Q 589 467 774 297 
Q 960 128 1222 32 
Q 1485 -64 1811 -64 
z
" transform="scale(0.015625)"/>
       </defs>
       <use xlink:href="#Jost-Regular-31" transform="translate(0 0.1)"/>
       <use xlink:href="#Jost-Regular-30" transform="translate(44.999985 0.1)"/>
       <use xlink:href="#Jost-Regular-33" transform="translate(105.804969 32.3) scale(0.7)"/>
      </g>
     </g>
    </g>
    <g id="ytick_5">
     <g id="line2d_17">
      <defs>
       <path id="m83582ebeb7" d="M 0 0 
L -2 0 
" style="stroke: #000000; stroke-width: 0.6"/>
      </defs>
      <g>
       <use xlink:href="#m83582ebeb7" x="49.600521" y="291.361424" style="stroke: #000000; stroke-width: 0.6"/>
      </g>
     </g>
    </g>
    <g id="ytick_6">
     <g id="line2d_18">
      <g>
       <use xlink:href="#m83582ebeb7" x="49.600521" y="275.900527" style="stroke: #000000; stroke-width: 0.6"/>
      </g>
     </g>
    </g>
    <g id="ytick_7">
     <g id="line2d_19">
      <g>
       <use xlink:href="#m83582ebeb7" x="49.600521" y="264.930847" style="stroke: #000000; stroke-width: 0.6"/>
      </g>
     </g>
    </g>
    <g id="ytick_8">
     <g id="line2d_20">
      <g>
       <use xlink:href="#m83582ebeb7" x="49.600521" y="256.422102" style="stroke: #000000; stroke-width: 0.6"/>
      </g>
     </g>
    </g>
    <g id="ytick_9">
     <g id="line2d_21">
      <g>
       <use xlink:href="#m83582ebeb7" x="49.600521" y="249.469951" style="stroke: #000000; stroke-width: 0.6"/>
      </g>
     </g>
    </g>
    <g id="ytick_10">
     <g id="line2d_22">
      <g>
       <use xlink:href="#m83582ebeb7" x="49.600521" y="243.591991" style="stroke: #000000; stroke-width: 0.6"/>
      </g>
     </g>
    </g>
    <g id="ytick_11">
     <g id="line2d_23">
      <g>
       <use xlink:href="#m83582ebeb7" x="49.600521" y="238.500271" style="stroke: #000000; stroke-width: 0.6"/>
      </g>
     </g>
    </g>
    <g id="ytick_12">
     <g id="line2d_24">
      <g>
       <use xlink:href="#m83582ebeb7" x="49.600521" y="234.009055" style="stroke: #000000; stroke-width: 0.6"/>
      </g>
     </g>
    </g>
    <g id="ytick_13">
     <g id="line2d_25">
      <g>
       <use xlink:href="#m83582ebeb7" x="49.600521" y="203.560949" style="stroke: #000000; stroke-width: 0.6"/>
      </g>
     </g>
    </g>
    <g id="ytick_14">
     <g id="line2d_26">
      <g>
       <use xlink:href="#m83582ebeb7" x="49.600521" y="188.100053" style="stroke: #000000; stroke-width: 0.6"/>
      </g>
     </g>
    </g>
    <g id="ytick_15">
     <g id="line2d_27">
      <g>
       <use xlink:href="#m83582ebeb7" x="49.600521" y="177.130373" style="stroke: #000000; stroke-width: 0.6"/>
      </g>
     </g>
    </g>
    <g id="ytick_16">
     <g id="line2d_28">
      <g>
       <use xlink:href="#m83582ebeb7" x="49.600521" y="168.621627" style="stroke: #000000; stroke-width: 0.6"/>
      </g>
     </g>
    </g>
    <g id="ytick_17">
     <g id="line2d_29">
      <g>
       <use xlink:href="#m83582ebeb7" x="49.600521" y="161.669476" style="stroke: #000000; stroke-width: 0.6"/>
      </g>
     </g>
    </g>
    <g id="ytick_18">
     <g id="line2d_30">
      <g>
       <use xlink:href="#m83582ebeb7" x="49.600521" y="155.791517" style="stroke: #000000; stroke-width: 0.6"/>
      </g>
     </g>
    </g>
    <g id="ytick_19">
     <g id="line2d_31">
      <g>
       <use xlink:href="#m83582ebeb7" x="49.600521" y="150.699796" style="stroke: #000000; stroke-width: 0.6"/>
      </g>
     </g>
    </g>
    <g id="ytick_20">
     <g id="line2d_32">
      <g>
       <use xlink:href="#m83582ebeb7" x="49.600521" y="146.20858" style="stroke: #000000; stroke-width: 0.6"/>
      </g>
     </g>
    </g>
    <g id="ytick_21">
     <g id="line2d_33">
      <g>
       <use xlink:href="#m83582ebeb7" x="49.600521" y="115.760475" style="stroke: #000000; stroke-width: 0.6"/>
      </g>
     </g>
    </g>
    <g id="ytick_22">
     <g id="line2d_34">
      <g>
       <use xlink:href="#m83582ebeb7" x="49.600521" y="100.299578" style="stroke: #000000; stroke-width: 0.6"/>
      </g>
     </g>
    </g>
    <g id="ytick_23">
     <g id="line2d_35">
      <g>
       <use xlink:href="#m83582ebeb7" x="49.600521" y="89.329898" style="stroke: #000000; stroke-width: 0.6"/>
      </g>
     </g>
    </g>
    <g id="ytick_24">
     <g id="line2d_36">
      <g>
       <use xlink:href="#m83582ebeb7" x="49.600521" y="80.821153" style="stroke: #000000; stroke-width: 0.6"/>
      </g>
     </g>
    </g>
    <g id="ytick_25">
     <g id="line2d_37">
      <g>
       <use xlink:href="#m83582ebeb7" x="49.600521" y="73.869002" style="stroke: #000000; stroke-width: 0.6"/>
      </g>
     </g>
    </g>
    <g id="ytick_26">
     <g id="line2d_38">
      <g>
       <use xlink:href="#m83582ebeb7" x="49.600521" y="67.991042" style="stroke: #000000; stroke-width: 0.6"/>
      </g>
     </g>
    </g>
    <g id="ytick_27">
     <g id="line2d_39">
      <g>
       <use xlink:href="#m83582ebeb7" x="49.600521" y="62.899322" style="stroke: #000000; stroke-width: 0.6"/>
      </g>
     </g>
    </g>
    <g id="ytick_28">
     <g id="line2d_40">
      <g>
       <use xlink:href="#m83582ebeb7" x="49.600521" y="58.408106" style="stroke: #000000; stroke-width: 0.6"/>
      </g>
     </g>
    </g>
    <g id="ytick_29">
     <g id="line2d_41">
      <g>
       <use xlink:href="#m83582ebeb7" x="49.600521" y="27.96" style="stroke: #000000; stroke-width: 0.6"/>
      </g>
     </g>
    </g>
    <g id="text_9">
     <!-- Parse time (ms, lower is better) -->
     <g transform="translate(21.080521 244.901937) rotate(-90) scale(0.11 -0.11)">
      <defs>
       <path id="Jost-Regular-50" d="M 512 4480 
L 512 0 
L 1056 0 
L 1056 4480 
L 512 4480 
z
M 813 3968 
L 1728 3968 
Q 2163 3968 2435 3760 
Q 2707 3552 2707 3136 
Q 2707 2726 2435 2515 
Q 2163 2304 1728 2304 
L 813 2304 
L 813 1792 
L 1728 1792 
Q 2163 1792 2505 1955 
Q 2848 2118 3049 2422 
Q 3251 2726 3251 3136 
Q 3251 3552 3049 3853 
Q 2848 4154 2505 4317 
Q 2163 4480 1728 4480 
L 813 4480 
L 813 3968 
z
" transform="scale(0.015625)"/>
       <path id="Jost-Regular-61" d="M 710 909 
Q 710 1069 787 1184 
Q 864 1299 1021 1363 
Q 1178 1427 1427 1427 
Q 1696 1427 1933 1360 
Q 2170 1293 2394 1139 
L 2394 1440 
Q 2349 1498 2221 1590 
Q 2093 1683 1878 1756 
Q 1664 1830 1344 1830 
Q 800 1830 496 1571 
Q 192 1312 192 883 
Q 192 582 333 371 
Q 474 160 707 48 
Q 941 -64 1210 -64 
Q 1453 -64 1699 25 
Q 1946 115 2115 300 
Q 2285 486 2285 768 
L 2182 1152 
Q 2182 922 2070 746 
Q 1958 570 1769 474 
Q 1581 378 1344 378 
Q 1158 378 1014 438 
Q 870 499 790 620 
Q 710 742 710 909 
z
M 634 2266 
Q 704 2317 825 2387 
Q 947 2458 1123 2509 
Q 1299 2560 1517 2560 
Q 1651 2560 1772 2534 
Q 1894 2509 1987 2451 
Q 2080 2394 2131 2294 
Q 2182 2195 2182 2042 
L 2182 0 
L 2694 0 
L 2694 2112 
Q 2694 2400 2550 2598 
Q 2406 2797 2147 2902 
Q 1888 3008 1542 3008 
Q 1133 3008 841 2886 
Q 550 2765 384 2643 
L 634 2266 
z
" transform="scale(0.015625)"/>
       <path id="Jost-Regular-72" d="M 992 2944 
L 480 2944 
L 480 0 
L 992 0 
L 992 2944 
z
M 1882 2381 
L 2163 2803 
Q 2048 2925 1910 2966 
Q 1773 3008 1613 3008 
Q 1408 3008 1209 2848 
Q 1011 2688 886 2416 
Q 762 2144 762 1792 
L 992 1792 
Q 992 2003 1033 2169 
Q 1075 2336 1184 2432 
Q 1293 2528 1485 2528 
Q 1613 2528 1696 2493 
Q 1779 2458 1882 2381 
z
" transform="scale(0.015625)"/>
       <path id="Jost-Regular-73" d="M 602 902 
L 198 653 
Q 282 480 445 313 
Q 608 147 845 41 
Q 1082 -64 1376 -64 
Q 1830 -64 2108 192 
Q 2387 448 2387 832 
Q 2387 1094 2262 1260 
Q 2138 1427 1926 1545 
Q 1715 1664 1459 1766 
Q 1306 1830 1165 1900 
Q 1024 1971 934 2060 
Q 845 2150 845 2266 
Q 845 2413 960 2483 
Q 1075 2554 1235 2554 
Q 1466 2554 1648 2445 
Q 1830 2336 1952 2170 
L 2362 2432 
Q 2272 2598 2112 2726 
Q 1952 2854 1744 2931 
Q 1536 3008 1299 3008 
Q 1062 3008 841 2925 
Q 621 2842 483 2669 
Q 346 2496 346 2234 
Q 346 1978 477 1808 
Q 608 1638 803 1532 
Q 998 1427 1190 1350 
Q 1363 1286 1516 1212 
Q 1670 1139 1769 1033 
Q 1869 928 1869 774 
Q 1869 602 1744 502 
Q 1619 403 1402 403 
Q 1222 403 1072 470 
Q 922 538 806 653 
Q 691 768 602 902 
z
" transform="scale(0.015625)"/>
       <path id="Jost-Regular-65" d="M 1619 -64 
Q 2093 -64 2441 125 
Q 2790 314 3021 685 
L 2605 947 
Q 2445 678 2214 547 
Q 1984 416 1683 416 
Q 1382 416 1171 544 
Q 960 672 851 915 
Q 742 1158 742 1504 
Q 749 1843 861 2076 
Q 973 2310 1181 2435 
Q 1389 2560 1683 2560 
Q 1933 2560 2118 2451 
Q 2304 2342 2409 2150 
Q 2515 1958 2515 1696 
Q 2515 1651 2496 1584 
Q 2477 1517 2458 1485 
L 2662 1779 
L 550 1779 
L 550 1344 
L 3066 1344 
Q 3066 1357 3069 1405 
Q 3072 1453 3072 1498 
Q 3072 1965 2905 2304 
Q 2739 2643 2428 2825 
Q 2118 3008 1683 3008 
Q 1248 3008 918 2816 
Q 589 2624 406 2278 
Q 224 1933 224 1472 
Q 224 1018 400 672 
Q 576 326 893 131 
Q 1210 -64 1619 -64 
z
" transform="scale(0.015625)"/>
       <path id="Jost-Regular-74" d="M 32 2944 
L 32 2464 
L 1504 2464 
L 1504 2944 
L 32 2944 
z
M 512 3968 
L 512 0 
L 1024 0 
L 1024 3968 
L 512 3968 
z
" transform="scale(0.015625)"/>
       <path id="Jost-Regular-6d" d="M 4512 1856 
Q 4512 2221 4400 2480 
Q 4288 2739 4077 2873 
Q 3866 3008 3565 3008 
Q 3270 3008 3040 2870 
Q 2810 2733 2656 2458 
Q 2554 2720 2333 2864 
Q 2112 3008 1805 3008 
Q 1530 3008 1328 2886 
Q 1126 2765 992 2515 
L 992 2944 
L 480 2944 
L 480 0 
L 992 0 
L 992 1792 
Q 992 2022 1075 2188 
Q 1158 2355 1312 2441 
Q 1466 2528 1677 2528 
Q 1965 2528 2102 2349 
Q 2240 2170 2240 1792 
L 2240 0 
L 2752 0 
L 2752 1792 
Q 2752 2022 2835 2188 
Q 2918 2355 3072 2441 
Q 3226 2528 3437 2528 
Q 3725 2528 3862 2349 
Q 4000 2170 4000 1792 
L 4000 0 
L 4512 0 
L 4512 1856 
z
" transform="scale(0.015625)"/>
       <path id="Jost-Regular-2c" d="M 947 704 
L 384 -954 
L 755 -1088 
L 1459 512 
L 947 704 
z
" transform="scale(0.015625)"/>
       <path id="Jost-Regular-6c" d="M 480 4992 
L 480 0 
L 992 0 
L 992 4992 
L 480 4992 
z
" transform="scale(0.015625)"/>
       <path id="Jost-Regular-6f" d="M 224 1472 
Q 224 1030 425 681 
Q 627 333 972 134 
Q 1318 -64 1747 -64 
Q 2182 -64 2524 134 
Q 2867 333 3068 681 
Q 3270 1030 3270 1472 
Q 3270 1920 3068 2265 
Q 2867 2611 2524 2809 
Q 2182 3008 1747 3008 
Q 1318 3008 972 2809 
Q 627 2611 425 2265 
Q 224 1920 224 1472 
z
M 742 1472 
Q 742 1779 873 2019 
Q 1005 2259 1232 2393 
Q 1459 2528 1747 2528 
Q 2035 2528 2262 2393 
Q 2490 2259 2621 2019 
Q 2752 1779 2752 1472 
Q 2752 1165 2621 928 
Q 2490 691 2262 553 
Q 2035 416 1747 416 
Q 1459 416 1232 553 
Q 1005 691 873 928 
Q 742 1165 742 1472 
z
" transform="scale(0.015625)"/>
       <path id="Jost-Regular-77" d="M 32 2944 
L 1312 -224 
L 2150 1920 
L 3040 -224 
L 4320 2944 
L 3744 2944 
L 3002 1018 
L 2144 3168 
L 1344 1030 
L 608 2944 
L 32 2944 
z
" transform="scale(0.015625)"/>
       <path id="Jost-Regular-62" d="M 960 4992 
L 448 4992 
L 448 0 
L 960 0 
L 960 4992 
z
M 3424 1472 
Q 3424 1952 3225 2294 
Q 3027 2637 2697 2822 
Q 2368 3008 1965 3008 
Q 1600 3008 1321 2822 
Q 1043 2637 886 2294 
Q 730 1952 730 1472 
Q 730 998 886 652 
Q 1043 307 1321 121 
Q 1600 -64 1965 -64 
Q 2368 -64 2697 121 
Q 3027 307 3225 652 
Q 3424 998 3424 1472 
z
M 2906 1472 
Q 2906 1133 2768 896 
Q 2630 659 2403 537 
Q 2176 416 1901 416 
Q 1677 416 1459 537 
Q 1242 659 1101 896 
Q 960 1133 960 1472 
Q 960 1811 1101 2048 
Q 1242 2285 1459 2406 
Q 1677 2528 1901 2528 
Q 2176 2528 2403 2406 
Q 2630 2285 2768 2048 
Q 2906 1811 2906 1472 
z
" transform="scale(0.015625)"/>
      </defs>
      <use xlink:href="#Jost-Regular-50"/>
      <use xlink:href="#Jost-Regular-61" transform="translate(54.799988 0)"/>
      <use xlink:href="#Jost-Regular-72" transform="translate(102.899979 0)"/>
      <use xlink:href="#Jost-Regular-73" transform="translate(137.199966 0)"/>
      <use xlink:href="#Jost-Regular-65" transform="translate(177.499954 0)"/>
      <use xlink:href="#Jost-Regular-20" transform="translate(228.999939 0)"/>
      <use xlink:href="#Jost-Regular-74" transform="translate(258.999924 0)"/>
      <use xlink:href="#Jost-Regular-69" transform="translate(282.999908 0)"/>
      <use xlink:href="#Jost-Regular-6d" transform="translate(308.999893 0)"/>
      <use xlink:href="#Jost-Regular-65" transform="translate(386.999878 0)"/>
      <use xlink:href="#Jost-Regular-20" transform="translate(438.499863 0)"/>
      <use xlink:href="#Jost-Regular-28" transform="translate(468.499847 0)"/>
      <use xlink:href="#Jost-Regular-6d" transform="translate(499.499832 0)"/>
      <use xlink:href="#Jost-Regular-73" transform="translate(577.499817 0)"/>
      <use xlink:href="#Jost-Regular-2c" transform="translate(617.799805 0)"/>
      <use xlink:href="#Jost-Regular-20" transform="translate(648.599792 0)"/>
      <use xlink:href="#Jost-Regular-6c" transform="translate(678.599777 0)"/>
      <use xlink:href="#Jost-Regular-6f" transform="translate(701.599762 0)"/>
      <use xlink:href="#Jost-Regular-77" transform="translate(756.199753 0)"/>
      <use xlink:href="#Jost-Regular-65" transform="translate(824.199738 0)"/>
      <use xlink:href="#Jost-Regular-72" transform="translate(875.699722 0)"/>
      <use xlink:href="#Jost-Regular-20" transform="translate(909.99971 0)"/>
      <use xlink:href="#Jost-Regular-69" transform="translate(939.999695 0)"/>
      <use xlink:href="#Jost-Regular-73" transform="translate(965.99968 0)"/>
      <use xlink:href="#Jost-Regular-20" transform="translate(1006.299667 0)"/>
      <use xlink:href="#Jost-Regular-62" transform="translate(1036.299652 0)"/>
      <use xlink:href="#Jost-Regular-65" transform="translate(1093.299637 0)"/>
      <use xlink:href="#Jost-Regular-74" transform="translate(1144.799622 0)"/>
      <use xlink:href="#Jost-Regular-74" transform="translate(1168.799606 0)"/>
      <use xlink:href="#Jost-Regular-65" transform="translate(1192.799591 0)"/>
      <use xlink:href="#Jost-Regular-72" transform="translate(1244.299576 0)"/>
      <use xlink:href="#Jost-Regular-29" transform="translate(1278.599564 0)"/>
     </g>
    </g>
   </g>
   <g id="patch_15">
    <path d="M 49.600521 317.792 
L 49.600521 27.96 
" style="fill: none; stroke: #cccccc; stroke-width: 0.8; stroke-linejoin: miter; stroke-linecap: square"/>
   </g>
   <g id="patch_16">
    <path d="M 708.12 317.792 
L 708.12 27.96 
" style="fill: none; stroke: #cccccc; stroke-width: 0.8; stroke-linejoin: miter; stroke-linecap: square"/>
   </g>
   <g id="patch_17">
    <path d="M 49.600521 317.792 
L 708.12 317.792 
" style="fill: none; stroke: #cccccc; stroke-width: 0.8; stroke-linejoin: miter; stroke-linecap: square"/>
   </g>
   <g id="patch_18">
    <path d="M 49.600521 27.96 
L 708.12 27.96 
" style="fill: none; stroke: #cccccc; stroke-width: 0.8; stroke-linejoin: miter; stroke-linecap: square"/>
   </g>
   <g id="text_10">
    <!-- 8.2x -->
    <g style="fill: #004d40" transform="translate(169.692262 256.29655) scale(0.09 -0.09)">
     <defs>
      <path id="Jost-Bold-38" d="M 493 3398 
Q 493 3091 624 2864 
Q 755 2637 972 2486 
Q 1190 2336 1459 2265 
Q 1728 2195 2003 2195 
Q 2278 2195 2547 2265 
Q 2816 2336 3037 2486 
Q 3258 2637 3389 2864 
Q 3520 3091 3520 3398 
Q 3520 3776 3312 4041 
Q 3104 4307 2761 4444 
Q 2419 4582 2003 4582 
Q 1594 4582 1251 4444 
Q 909 4307 701 4041 
Q 493 3776 493 3398 
z
M 1510 3296 
Q 1510 3443 1571 3561 
Q 1632 3680 1747 3744 
Q 1862 3808 2003 3808 
Q 2157 3808 2269 3744 
Q 2381 3680 2441 3561 
Q 2502 3443 2502 3296 
Q 2502 3142 2438 3027 
Q 2374 2912 2262 2848 
Q 2150 2784 2003 2784 
Q 1862 2784 1750 2848 
Q 1638 2912 1574 3027 
Q 1510 3142 1510 3296 
z
M 333 1216 
Q 333 909 467 665 
Q 602 422 838 249 
Q 1075 77 1376 -12 
Q 1677 -102 2003 -102 
Q 2336 -102 2637 -12 
Q 2938 77 3174 249 
Q 3411 422 3545 665 
Q 3680 909 3680 1216 
Q 3680 1568 3526 1821 
Q 3373 2074 3120 2230 
Q 2867 2387 2572 2460 
Q 2278 2534 2003 2534 
Q 1728 2534 1433 2460 
Q 1139 2387 889 2230 
Q 640 2074 486 1821 
Q 333 1568 333 1216 
z
M 1408 1382 
Q 1408 1542 1488 1676 
Q 1568 1811 1705 1888 
Q 1843 1965 2003 1965 
Q 2170 1965 2307 1888 
Q 2445 1811 2525 1676 
Q 2605 1542 2605 1382 
Q 2605 1184 2525 1049 
Q 2445 915 2307 844 
Q 2170 774 2003 774 
Q 1843 774 1705 844 
Q 1568 915 1488 1049 
Q 1408 1184 1408 1382 
z
" transform="scale(0.015625)"/>
      <path id="Jost-Bold-2e" d="M 429 435 
Q 429 192 601 19 
Q 774 -154 1030 -154 
Q 1299 -154 1465 19 
Q 1632 192 1632 435 
Q 1632 678 1465 851 
Q 1299 1024 1030 1024 
Q 774 1024 601 851 
Q 429 678 429 435 
z
" transform="scale(0.015625)"/>
      <path id="Jost-Bold-32" d="M 128 0 
L 3923 0 
L 3923 992 
L 2131 992 
L 3174 1926 
Q 3462 2176 3641 2480 
Q 3821 2784 3821 3149 
Q 3821 3405 3712 3654 
Q 3603 3904 3388 4112 
Q 3174 4320 2854 4445 
Q 2534 4570 2118 4570 
Q 1542 4570 1142 4333 
Q 742 4096 544 3699 
Q 346 3302 346 2822 
L 1408 2822 
Q 1408 3066 1488 3251 
Q 1568 3437 1725 3539 
Q 1882 3642 2086 3642 
Q 2240 3642 2355 3594 
Q 2470 3546 2547 3466 
Q 2624 3386 2662 3283 
Q 2701 3181 2701 3078 
Q 2701 2899 2633 2742 
Q 2566 2586 2435 2426 
Q 2304 2266 2125 2067 
L 128 0 
z
" transform="scale(0.015625)"/>
      <path id="Jost-Bold-78" d="M 2266 2944 
L 1715 2170 
L 1178 2944 
L 64 2944 
L 1210 1510 
L 0 0 
L 1114 0 
L 1715 858 
L 2330 0 
L 3405 0 
L 2214 1510 
L 3341 2944 
L 2266 2944 
z
" transform="scale(0.015625)"/>
     </defs>
     <use xlink:href="#Jost-Bold-38"/>
     <use xlink:href="#Jost-Bold-2e" transform="translate(62.699997 0)"/>
     <use xlink:href="#Jost-Bold-32" transform="translate(94.899994 0)"/>
     <use xlink:href="#Jost-Bold-78" transform="translate(160.499985 0)"/>
    </g>
   </g>
   <g id="text_11">
    <!-- 5.2x -->
    <g style="fill: #004d40" transform="translate(329.252489 159.98733) scale(0.09 -0.09)">
     <defs>
      <path id="Jost-Bold-35" d="M 3872 1434 
Q 3872 1901 3680 2227 
Q 3488 2554 3177 2726 
Q 2867 2899 2509 2899 
Q 2298 2899 2102 2864 
Q 1907 2829 1728 2746 
L 1984 3546 
L 3776 3546 
L 3776 4480 
L 1190 4480 
L 563 1894 
Q 794 2010 1014 2070 
Q 1235 2131 1443 2153 
Q 1651 2176 1824 2176 
Q 2048 2176 2243 2112 
Q 2438 2048 2563 1910 
Q 2688 1773 2688 1549 
Q 2688 1338 2585 1190 
Q 2483 1043 2291 972 
Q 2099 902 1824 902 
Q 1664 902 1465 963 
Q 1267 1024 1072 1129 
Q 877 1235 691 1389 
L 269 499 
Q 480 346 736 211 
Q 992 77 1321 -3 
Q 1651 -83 2061 -83 
Q 2387 -83 2707 3 
Q 3027 90 3292 275 
Q 3558 461 3715 749 
Q 3872 1037 3872 1434 
z
" transform="scale(0.015625)"/>
     </defs>
     <use xlink:href="#Jost-Bold-35"/>
     <use xlink:href="#Jost-Bold-2e" transform="translate(64.499985 0)"/>
     <use xlink:href="#Jost-Bold-32" transform="translate(96.699982 0)"/>
     <use xlink:href="#Jost-Bold-78" transform="translate(162.299973 0)"/>
    </g>
   </g>
   <g id="text_12">
    <!-- 5.2x -->
    <g style="fill: #004d40" transform="translate(488.893575 113.733246) scale(0.09 -0.09)">
     <use xlink:href="#Jost-Bold-35"/>
     <use xlink:href="#Jost-Bold-2e" transform="translate(64.499985 0)"/>
     <use xlink:href="#Jost-Bold-32" transform="translate(96.699982 0)"/>
     <use xlink:href="#Jost-Bold-78" transform="translate(162.299973 0)"/>
    </g>
   </g>
   <g id="text_13">
    <!-- 7.2x -->
    <g style="fill: #004d40" transform="translate(648.723801 214.987245) scale(0.09 -0.09)">
     <defs>
      <path id="Jost-Bold-37" d="M 192 3469 
L 2259 3469 
L 512 0 
L 1683 0 
L 3846 4480 
L 192 4480 
L 192 3469 
z
" transform="scale(0.015625)"/>
     </defs>
     <use xlink:href="#Jost-Bold-37"/>
     <use xlink:href="#Jost-Bold-2e" transform="translate(60.299988 0)"/>
     <use xlink:href="#Jost-Bold-32" transform="translate(92.499985 0)"/>
     <use xlink:href="#Jost-Bold-78" transform="translate(158.099976 0)"/>
    </g>
   </g>
   <g id="text_14">
    <!-- Parsing throughput across trajectory sizes -->
    <g transform="translate(273.804948 21.96) scale(0.12 -0.12)">
     <defs>
      <path id="Jost-Regular-6e" d="M 2368 1792 
L 2368 0 
L 2880 0 
L 2880 1856 
Q 2880 2387 2608 2697 
Q 2336 3008 1869 3008 
Q 1581 3008 1360 2880 
Q 1139 2752 992 2483 
L 992 2944 
L 480 2944 
L 480 0 
L 992 0 
L 992 1792 
Q 992 2010 1085 2176 
Q 1178 2342 1347 2435 
Q 1517 2528 1741 2528 
Q 2048 2528 2208 2342 
Q 2368 2157 2368 1792 
z
" transform="scale(0.015625)"/>
      <path id="Jost-Regular-67" d="M 282 -192 
Q 282 -570 467 -861 
Q 653 -1152 982 -1312 
Q 1312 -1472 1741 -1472 
Q 2112 -1472 2445 -1299 
Q 2778 -1126 2989 -784 
Q 3200 -442 3200 64 
L 3200 2944 
L 2688 2944 
L 2688 64 
Q 2688 -307 2544 -540 
Q 2400 -774 2182 -883 
Q 1965 -992 1741 -992 
Q 1453 -992 1241 -880 
Q 1030 -768 915 -585 
Q 800 -403 800 -192 
L 282 -192 
z
M 224 1472 
Q 224 998 422 652 
Q 621 307 953 121 
Q 1286 -64 1683 -64 
Q 2054 -64 2329 121 
Q 2605 307 2761 652 
Q 2918 998 2918 1472 
Q 2918 1952 2761 2294 
Q 2605 2637 2329 2822 
Q 2054 3008 1683 3008 
Q 1286 3008 953 2822 
Q 621 2637 422 2294 
Q 224 1952 224 1472 
z
M 742 1472 
Q 742 1811 880 2048 
Q 1018 2285 1248 2406 
Q 1478 2528 1747 2528 
Q 1914 2528 2080 2457 
Q 2246 2387 2384 2252 
Q 2522 2118 2605 1923 
Q 2688 1728 2688 1472 
Q 2688 1133 2547 896 
Q 2406 659 2188 537 
Q 1971 416 1747 416 
Q 1478 416 1248 537 
Q 1018 659 880 896 
Q 742 1133 742 1472 
z
" transform="scale(0.015625)"/>
      <path id="Jost-Regular-68" d="M 992 4992 
L 480 4992 
L 480 0 
L 992 0 
L 992 4992 
z
M 2368 1792 
L 2368 0 
L 2880 0 
L 2880 1856 
Q 2880 2240 2755 2496 
Q 2630 2752 2403 2880 
Q 2176 3008 1869 3008 
Q 1562 3008 1328 2848 
Q 1094 2688 960 2416 
Q 826 2144 826 1792 
L 992 1792 
Q 992 2003 1085 2169 
Q 1178 2336 1347 2432 
Q 1517 2528 1741 2528 
Q 2054 2528 2211 2342 
Q 2368 2157 2368 1792 
z
" transform="scale(0.015625)"/>
      <path id="Jost-Regular-75" d="M 992 1152 
L 992 2944 
L 480 2944 
L 480 1088 
Q 480 563 755 249 
Q 1030 -64 1491 -64 
Q 1786 -64 2003 67 
Q 2221 198 2368 461 
L 2368 0 
L 2880 0 
L 2880 2944 
L 2368 2944 
L 2368 1152 
Q 2368 934 2275 768 
Q 2182 602 2012 509 
Q 1843 416 1619 416 
Q 1312 416 1152 608 
Q 992 800 992 1152 
z
" transform="scale(0.015625)"/>
      <path id="Jost-Regular-70" d="M 960 -1408 
L 960 2944 
L 448 2944 
L 448 -1408 
L 960 -1408 
z
M 3424 1472 
Q 3424 1952 3225 2294 
Q 3027 2637 2697 2822 
Q 2368 3008 1965 3008 
Q 1600 3008 1321 2822 
Q 1043 2637 886 2294 
Q 730 1952 730 1472 
Q 730 998 886 652 
Q 1043 307 1321 121 
Q 1600 -64 1965 -64 
Q 2368 -64 2697 121 
Q 3027 307 3225 652 
Q 3424 998 3424 1472 
z
M 2906 1472 
Q 2906 1133 2768 896 
Q 2630 659 2403 537 
Q 2176 416 1901 416 
Q 1677 416 1459 537 
Q 1242 659 1101 896 
Q 960 1133 960 1472 
Q 960 1811 1101 2048 
Q 1242 2285 1459 2406 
Q 1677 2528 1901 2528 
Q 2176 2528 2403 2406 
Q 2630 2285 2768 2048 
Q 2906 1811 2906 1472 
z
" transform="scale(0.015625)"/>
      <path id="Jost-Regular-63" d="M 710 1472 
Q 710 1779 841 2019 
Q 973 2259 1200 2393 
Q 1427 2528 1715 2528 
Q 1952 2528 2160 2454 
Q 2368 2381 2521 2259 
Q 2675 2138 2739 1990 
L 2739 2630 
Q 2586 2810 2301 2909 
Q 2016 3008 1715 3008 
Q 1286 3008 940 2809 
Q 595 2611 393 2265 
Q 192 1920 192 1472 
Q 192 1030 393 681 
Q 595 333 940 134 
Q 1286 -64 1715 -64 
Q 2016 -64 2301 35 
Q 2586 134 2739 314 
L 2739 954 
Q 2675 813 2521 688 
Q 2368 563 2160 489 
Q 1952 416 1715 416 
Q 1427 416 1200 553 
Q 973 691 841 928 
Q 710 1165 710 1472 
z
" transform="scale(0.015625)"/>
      <path id="Jost-Regular-6a" d="M 397 4160 
Q 397 4019 499 3916 
Q 602 3814 742 3814 
Q 890 3814 989 3916 
Q 1088 4019 1088 4160 
Q 1088 4307 989 4406 
Q 890 4506 742 4506 
Q 602 4506 499 4406 
Q 397 4307 397 4160 
z
M -109 -730 
L -390 -1152 
Q -326 -1235 -243 -1292 
Q -160 -1350 -57 -1379 
Q 45 -1408 173 -1408 
Q 442 -1408 634 -1286 
Q 826 -1165 925 -934 
Q 1024 -704 1024 -384 
L 1024 2944 
L 512 2944 
L 512 -320 
Q 512 -525 480 -653 
Q 448 -781 381 -838 
Q 314 -896 205 -896 
Q 102 -896 22 -851 
Q -58 -806 -109 -730 
z
" transform="scale(0.015625)"/>
      <path id="Jost-Regular-79" d="M 2816 2944 
L 2240 2944 
L 1331 666 
L 1542 640 
L 608 2944 
L 0 2944 
L 1126 416 
L 320 -1408 
L 896 -1408 
L 2816 2944 
z
" transform="scale(0.015625)"/>
      <path id="Jost-Regular-7a" d="M 1920 2464 
L 96 0 
L 2720 0 
L 2720 480 
L 1024 480 
L 2848 2944 
L 288 2944 
L 288 2464 
L 1920 2464 
z
" transform="scale(0.015625)"/>
     </defs>
     <use xlink:href="#Jost-Regular-50"/>
     <use xlink:href="#Jost-Regular-61" transform="translate(54.799988 0)"/>
     <use xlink:href="#Jost-Regular-72" transform="translate(102.899979 0)"/>
     <use xlink:href="#Jost-Regular-73" transform="translate(137.199966 0)"/>
     <use xlink:href="#Jost-Regular-69" transform="translate(177.499954 0)"/>
     <use xlink:href="#Jost-Regular-6e" transform="translate(203.499939 0)"/>
     <use xlink:href="#Jost-Regular-67" transform="translate(255.999924 0)"/>
     <use xlink:href="#Jost-Regular-20" transform="translate(312.999908 0)"/>
     <use xlink:href="#Jost-Regular-74" transform="translate(342.999893 0)"/>
     <use xlink:href="#Jost-Regular-68" transform="translate(366.999878 0)"/>
     <use xlink:href="#Jost-Regular-72" transform="translate(419.499863 0)"/>
     <use xlink:href="#Jost-Regular-6f" transform="translate(453.79985 0)"/>
     <use xlink:href="#Jost-Regular-75" transform="translate(508.399841 0)"/>
     <use xlink:href="#Jost-Regular-67" transform="translate(560.899826 0)"/>
     <use xlink:href="#Jost-Regular-68" transform="translate(617.899811 0)"/>
     <use xlink:href="#Jost-Regular-70" transform="translate(670.399796 0)"/>
     <use xlink:href="#Jost-Regular-75" transform="translate(727.39978 0)"/>
     <use xlink:href="#Jost-Regular-74" transform="translate(779.899765 0)"/>
     <use xlink:href="#Jost-Regular-20" transform="translate(803.89975 0)"/>
     <use xlink:href="#Jost-Regular-61" transform="translate(833.899734 0)"/>
     <use xlink:href="#Jost-Regular-63" transform="translate(881.999725 0)"/>
     <use xlink:href="#Jost-Regular-72" transform="translate(929.799713 0)"/>
     <use xlink:href="#Jost-Regular-6f" transform="translate(964.099701 0)"/>
     <use xlink:href="#Jost-Regular-73" transform="translate(1018.699692 0)"/>
     <use xlink:href="#Jost-Regular-73" transform="translate(1058.99968 0)"/>
     <use xlink:href="#Jost-Regular-20" transform="translate(1099.299667 0)"/>
     <use xlink:href="#Jost-Regular-74" transform="translate(1129.299652 0)"/>
     <use xlink:href="#Jost-Regular-72" transform="translate(1153.299637 0)"/>
     <use xlink:href="#Jost-Regular-61" transform="translate(1187.599625 0)"/>
     <use xlink:href="#Jost-Regular-6a" transform="translate(1235.699615 0)"/>
     <use xlink:href="#Jost-Regular-65" transform="translate(1260.6996 0)"/>
     <use xlink:href="#Jost-Regular-63" transform="translate(1312.199585 0)"/>
     <use xlink:href="#Jost-Regular-74" transform="translate(1359.999573 0)"/>
     <use xlink:href="#Jost-Regular-6f" transform="translate(1383.999557 0)"/>
     <use xlink:href="#Jost-Regular-72" transform="translate(1438.599548 0)"/>
     <use xlink:href="#Jost-Regular-79" transform="translate(1472.899536 0)"/>
     <use xlink:href="#Jost-Regular-20" transform="translate(1516.899521 0)"/>
     <use xlink:href="#Jost-Regular-73" transform="translate(1546.899506 0)"/>
     <use xlink:href="#Jost-Regular-69" transform="translate(1587.199493 0)"/>
     <use xlink:href="#Jost-Regular-7a" transform="translate(1613.199478 0)"/>
     <use xlink:href="#Jost-Regular-65" transform="translate(1659.199463 0)"/>
     <use xlink:href="#Jost-Regular-73" transform="translate(1710.699448 0)"/>
    </g>
   </g>
   <g id="legend_1">
    <g id="patch_19">
     <path d="M 57.300521 86.37 
L 184.336771 86.37 
Q 186.536771 86.37 186.536771 84.17 
L 186.536771 35.66 
Q 186.536771 33.46 184.336771 33.46 
L 57.300521 33.46 
Q 55.100521 33.46 55.100521 35.66 
L 55.100521 84.17 
Q 55.100521 86.37 57.300521 86.37 
z
" style="fill: #fafafa; opacity: 0.8; stroke: #cccccc; stroke-linejoin: miter"/>
    </g>
    <g id="patch_20">
     <path d="M 59.500521 46.44 
L 81.500521 46.44 
L 81.500521 38.74 
L 59.500521 38.74 
z
" style="fill: #ff655d; stroke: #ffffff; stroke-width: 0.5; stroke-linejoin: miter"/>
    </g>
    <g id="text_15">
     <!-- ASE (Python) -->
     <g transform="translate(90.300521 46.44) scale(0.11 -0.11)">
      <defs>
       <path id="Jost-Regular-41" d="M 941 1344 
L 3309 1344 
L 3117 1856 
L 1133 1856 
L 941 1344 
z
M 2112 3469 
L 2880 1664 
L 2931 1536 
L 3584 0 
L 4192 0 
L 2112 4704 
L 32 0 
L 640 0 
L 1306 1574 
L 1357 1690 
L 2112 3469 
z
" transform="scale(0.015625)"/>
       <path id="Jost-Regular-53" d="M 678 1357 
L 243 1062 
Q 390 768 624 509 
Q 858 250 1168 93 
Q 1478 -64 1843 -64 
Q 2112 -64 2358 25 
Q 2605 115 2800 281 
Q 2995 448 3107 685 
Q 3219 922 3219 1216 
Q 3219 1523 3110 1744 
Q 3002 1965 2832 2121 
Q 2662 2278 2464 2380 
Q 2266 2483 2086 2547 
Q 1696 2682 1469 2819 
Q 1242 2957 1146 3113 
Q 1050 3270 1050 3456 
Q 1050 3674 1216 3850 
Q 1382 4026 1747 4026 
Q 2010 4026 2192 3923 
Q 2374 3821 2502 3661 
Q 2630 3501 2714 3334 
L 3181 3603 
Q 3072 3840 2880 4054 
Q 2688 4269 2416 4406 
Q 2144 4544 1779 4544 
Q 1402 4544 1107 4393 
Q 813 4243 646 3980 
Q 480 3718 480 3386 
Q 480 3078 598 2867 
Q 717 2656 902 2512 
Q 1088 2368 1293 2275 
Q 1498 2182 1664 2125 
Q 1920 2035 2147 1923 
Q 2374 1811 2515 1632 
Q 2656 1453 2656 1152 
Q 2656 845 2438 646 
Q 2221 448 1862 448 
Q 1594 448 1382 563 
Q 1171 678 1001 883 
Q 832 1088 678 1357 
z
" transform="scale(0.015625)"/>
       <path id="Jost-Regular-45" d="M 813 0 
L 3072 0 
L 3072 512 
L 813 512 
L 813 0 
z
M 813 3968 
L 3072 3968 
L 3072 4480 
L 813 4480 
L 813 3968 
z
M 813 2176 
L 2944 2176 
L 2944 2688 
L 813 2688 
L 813 2176 
z
M 512 4480 
L 512 0 
L 1056 0 
L 1056 4480 
L 512 4480 
z
" transform="scale(0.015625)"/>
      </defs>
      <use xlink:href="#Jost-Regular-41"/>
      <use xlink:href="#Jost-Regular-53" transform="translate(65.999985 0)"/>
      <use xlink:href="#Jost-Regular-45" transform="translate(120.799973 0)"/>
      <use xlink:href="#Jost-Regular-20" transform="translate(175.799957 0)"/>
      <use xlink:href="#Jost-Regular-28" transform="translate(205.799942 0)"/>
      <use xlink:href="#Jost-Regular-50" transform="translate(236.799927 0)"/>
      <use xlink:href="#Jost-Regular-79" transform="translate(291.599915 0)"/>
      <use xlink:href="#Jost-Regular-74" transform="translate(335.599899 0)"/>
      <use xlink:href="#Jost-Regular-68" transform="translate(359.599884 0)"/>
      <use xlink:href="#Jost-Regular-6f" transform="translate(412.099869 0)"/>
      <use xlink:href="#Jost-Regular-6e" transform="translate(466.69986 0)"/>
      <use xlink:href="#Jost-Regular-29" transform="translate(519.199844 0)"/>
     </g>
    </g>
    <g id="patch_21">
     <path d="M 59.500521 63.05 
L 81.500521 63.05 
L 81.500521 55.35 
L 59.500521 55.35 
z
" style="fill: #f1db4b; stroke: #ffffff; stroke-width: 0.5; stroke-linejoin: miter"/>
    </g>
    <g id="text_16">
     <!-- C sscanf (eOn-style) -->
     <g transform="translate(90.300521 63.05) scale(0.11 -0.11)">
      <defs>
       <path id="Jost-Regular-43" d="M 832 2240 
Q 832 2765 1065 3158 
Q 1299 3552 1676 3776 
Q 2054 4000 2496 4000 
Q 2816 4000 3081 3917 
Q 3347 3834 3564 3683 
Q 3782 3533 3936 3334 
L 3936 4051 
Q 3654 4301 3321 4422 
Q 2989 4544 2496 4544 
Q 2029 4544 1622 4374 
Q 1216 4205 909 3894 
Q 602 3584 429 3161 
Q 256 2739 256 2240 
Q 256 1741 429 1318 
Q 602 896 909 585 
Q 1216 275 1622 105 
Q 2029 -64 2496 -64 
Q 2989 -64 3321 57 
Q 3654 179 3936 429 
L 3936 1146 
Q 3782 947 3564 796 
Q 3347 646 3081 563 
Q 2816 480 2496 480 
Q 2054 480 1676 704 
Q 1299 928 1065 1325 
Q 832 1722 832 2240 
z
" transform="scale(0.015625)"/>
       <path id="Jost-Regular-66" d="M 256 2944 
L 256 2464 
L 1728 2464 
L 1728 2944 
L 256 2944 
z
M 1677 4378 
L 1958 4800 
Q 1914 4864 1834 4921 
Q 1754 4979 1645 5017 
Q 1536 5056 1395 5056 
Q 1126 5056 937 4944 
Q 749 4832 646 4608 
Q 544 4384 544 4032 
L 544 0 
L 1056 0 
L 1056 3968 
Q 1056 4179 1094 4307 
Q 1133 4435 1200 4489 
Q 1267 4544 1363 4544 
Q 1440 4544 1526 4515 
Q 1613 4486 1677 4378 
z
" transform="scale(0.015625)"/>
       <path id="Jost-Regular-4f" d="M 832 2240 
Q 832 2746 1053 3142 
Q 1274 3539 1658 3769 
Q 2042 4000 2528 4000 
Q 3021 4000 3401 3769 
Q 3782 3539 4003 3142 
Q 4224 2746 4224 2240 
Q 4224 1734 4003 1337 
Q 3782 941 3401 710 
Q 3021 480 2528 480 
Q 2042 480 1658 710 
Q 1274 941 1053 1337 
Q 832 1734 832 2240 
z
M 256 2240 
Q 256 1754 425 1331 
Q 595 909 902 598 
Q 1210 288 1626 112 
Q 2042 -64 2528 -64 
Q 3021 -64 3433 112 
Q 3846 288 4153 598 
Q 4461 909 4630 1331 
Q 4800 1754 4800 2240 
Q 4800 2733 4630 3152 
Q 4461 3571 4153 3881 
Q 3846 4192 3433 4368 
Q 3021 4544 2528 4544 
Q 2042 4544 1626 4368 
Q 1210 4192 902 3881 
Q 595 3571 425 3152 
Q 256 2733 256 2240 
z
" transform="scale(0.015625)"/>
       <path id="Jost-Regular-2d" d="M 32 1280 
L 1312 1280 
L 1312 1760 
L 32 1760 
L 32 1280 
z
" transform="scale(0.015625)"/>
      </defs>
      <use xlink:href="#Jost-Regular-43"/>
      <use xlink:href="#Jost-Regular-20" transform="translate(68.499985 0)"/>
      <use xlink:href="#Jost-Regular-73" transform="translate(98.499969 0)"/>
      <use xlink:href="#Jost-Regular-73" transform="translate(138.799957 0)"/>
      <use xlink:href="#Jost-Regular-63" transform="translate(179.099945 0)"/>
      <use xlink:href="#Jost-Regular-61" transform="translate(226.899933 0)"/>
      <use xlink:href="#Jost-Regular-6e" transform="translate(274.999924 0)"/>
      <use xlink:href="#Jost-Regular-66" transform="translate(327.499908 0)"/>
      <use xlink:href="#Jost-Regular-20" transform="translate(356.099899 0)"/>
      <use xlink:href="#Jost-Regular-28" transform="translate(386.099884 0)"/>
      <use xlink:href="#Jost-Regular-65" transform="translate(417.099869 0)"/>
      <use xlink:href="#Jost-Regular-4f" transform="translate(468.599854 0)"/>
      <use xlink:href="#Jost-Regular-6e" transform="translate(547.599838 0)"/>
      <use xlink:href="#Jost-Regular-2d" transform="translate(600.099823 0)"/>
      <use xlink:href="#Jost-Regular-73" transform="translate(621.099808 0)"/>
      <use xlink:href="#Jost-Regular-74" transform="translate(661.399796 0)"/>
      <use xlink:href="#Jost-Regular-79" transform="translate(685.39978 0)"/>
      <use xlink:href="#Jost-Regular-6c" transform="translate(729.399765 0)"/>
      <use xlink:href="#Jost-Regular-65" transform="translate(752.39975 0)"/>
      <use xlink:href="#Jost-Regular-29" transform="translate(803.899734 0)"/>
     </g>
    </g>
    <g id="patch_22">
     <path d="M 59.500521 79.55 
L 81.500521 79.55 
L 81.500521 71.85 
L 59.500521 71.85 
z
" style="fill: #004d40; stroke: #ffffff; stroke-width: 0.5; stroke-linejoin: miter"/>
    </g>
    <g id="text_17">
     <!-- readcon-core (Rust) -->
     <g transform="translate(90.300521 79.55) scale(0.11 -0.11)">
      <defs>
       <path id="Jost-Regular-64" d="M 2688 4992 
L 2688 0 
L 3200 0 
L 3200 4992 
L 2688 4992 
z
M 224 1472 
Q 224 998 422 652 
Q 621 307 953 121 
Q 1286 -64 1683 -64 
Q 2054 -64 2329 121 
Q 2605 307 2761 652 
Q 2918 998 2918 1472 
Q 2918 1952 2761 2294 
Q 2605 2637 2329 2822 
Q 2054 3008 1683 3008 
Q 1286 3008 953 2822 
Q 621 2637 422 2294 
Q 224 1952 224 1472 
z
M 742 1472 
Q 742 1811 880 2048 
Q 1018 2285 1248 2406 
Q 1478 2528 1747 2528 
Q 1971 2528 2188 2406 
Q 2406 2285 2547 2048 
Q 2688 1811 2688 1472 
Q 2688 1133 2547 896 
Q 2406 659 2188 537 
Q 1971 416 1747 416 
Q 1478 416 1248 537 
Q 1018 659 880 896 
Q 742 1133 742 1472 
z
" transform="scale(0.015625)"/>
       <path id="Jost-Regular-52" d="M 1312 2208 
L 2848 0 
L 3520 0 
L 1920 2208 
L 1312 2208 
z
M 512 4480 
L 512 0 
L 1056 0 
L 1056 4480 
L 512 4480 
z
M 813 4000 
L 1728 4000 
Q 2016 4000 2237 3897 
Q 2458 3795 2582 3603 
Q 2707 3411 2707 3136 
Q 2707 2861 2582 2669 
Q 2458 2477 2237 2374 
Q 2016 2272 1728 2272 
L 813 2272 
L 813 1792 
L 1728 1792 
Q 2163 1792 2505 1955 
Q 2848 2118 3049 2422 
Q 3251 2726 3251 3136 
Q 3251 3552 3049 3853 
Q 2848 4154 2505 4317 
Q 2163 4480 1728 4480 
L 813 4480 
L 813 4000 
z
" transform="scale(0.015625)"/>
      </defs>
      <use xlink:href="#Jost-Regular-72"/>
      <use xlink:href="#Jost-Regular-65" transform="translate(34.299988 0)"/>
      <use xlink:href="#Jost-Regular-61" transform="translate(85.799973 0)"/>
      <use xlink:href="#Jost-Regular-64" transform="translate(133.899963 0)"/>
      <use xlink:href="#Jost-Regular-63" transform="translate(190.899948 0)"/>
      <use xlink:href="#Jost-Regular-6f" transform="translate(238.699936 0)"/>
      <use xlink:href="#Jost-Regular-6e" transform="translate(293.299927 0)"/>
      <use xlink:href="#Jost-Regular-2d" transform="translate(345.799911 0)"/>
      <use xlink:href="#Jost-Regular-63" transform="translate(366.799896 0)"/>
      <use xlink:href="#Jost-Regular-6f" transform="translate(414.599884 0)"/>
      <use xlink:href="#Jost-Regular-72" transform="translate(469.199875 0)"/>
      <use xlink:href="#Jost-Regular-65" transform="translate(503.499863 0)"/>
      <use xlink:href="#Jost-Regular-20" transform="translate(554.999847 0)"/>
      <use xlink:href="#Jost-Regular-28" transform="translate(584.999832 0)"/>
      <use xlink:href="#Jost-Regular-52" transform="translate(615.999817 0)"/>
      <use xlink:href="#Jost-Regular-75" transform="translate(671.999802 0)"/>
      <use xlink:href="#Jost-Regular-73" transform="translate(724.499786 0)"/>
      <use xlink:href="#Jost-Regular-74" transform="translate(764.799774 0)"/>
      <use xlink:href="#Jost-Regular-29" transform="translate(788.799759 0)"/>
     </g>
    </g>
   </g>
  </g>
 </g>
 <defs>
  <clipPath id="p409908b232">
   <rect x="49.600521" y="27.96" width="658.519479" height="289.832"/>
  </clipPath>
 </defs>
</svg>
