<svg xmlns="http://www.w3.org/2000/svg" width="440" height="112" viewBox="0 0 440 112" fill="none" role="img" aria-labelledby="rcTitleD">
  <title id="rcTitleD">readcon-core</title>
  <desc>CON configuration reader on dark backgrounds</desc>
  <rect x="10" y="14" width="72" height="84" rx="8" fill="#1E1B4B" stroke="#A5B4FC" stroke-width="2.5"/>
  <rect x="10" y="14" width="72" height="18" rx="8" fill="#4338CA"/>
  <rect x="10" y="24" width="72" height="8" fill="#4338CA"/>
  <rect x="18" y="20" width="28" height="4" rx="1" fill="#C7D2FE"/>
  <rect x="50" y="20" width="14" height="4" rx="1" fill="#FCD34D"/>
  <rect x="18" y="40" width="14" height="48" rx="2" fill="#818CF8"/>
  <rect x="36" y="48" width="14" height="40" rx="2" fill="#A5B4FC"/>
  <rect x="54" y="56" width="14" height="32" rx="2" fill="#C7D2FE"/>
  <circle cx="25" cy="46" r="2.5" fill="#FCD34D"/>
  <circle cx="43" cy="54" r="2.5" fill="#FCD34D"/>
  <circle cx="61" cy="62" r="2.5" fill="#FCD34D"/>
  <g opacity="0.95">
    <path d="M92 36 L100 44 L92 52" stroke="#94A3B8" stroke-width="2" fill="none" stroke-linecap="round" stroke-linejoin="round"/>
    <path d="M98 36 L106 44 L98 52" stroke="#A5B4FC" stroke-width="2.2" fill="none" stroke-linecap="round" stroke-linejoin="round"/>
  </g>
  <text x="118" y="58" font-family="ui-sans-serif, system-ui, -apple-system, 'Segoe UI', Roboto, sans-serif"
        font-size="34" font-weight="750" letter-spacing="-1.2" fill="#F8FAFC">readcon</text>
  <text x="118" y="82" font-family="ui-sans-serif, system-ui, -apple-system, 'Segoe UI', Roboto, sans-serif"
        font-size="15" font-weight="600" letter-spacing="0.12em" fill="#A5B4FC">CORE · CON I/O</text>
</svg>
